<svg width="86" height="96" viewBox="0 0 86 96" fill="none" xmlns="http://www.w3.org/2000/svg">
<path d="M58.0668 58.1779L57.8996 58.4081C57.8225 58.5104 57.7839 58.6127 57.7582 58.715C57.681 59.1114 57.9511 59.5077 58.3626 59.5844C60.6905 60.032 64.613 61.7198 64.613 65.1849V86.9089C64.613 87.318 64.9474 87.6505 65.3589 87.6505C65.7705 87.6505 66.1049 87.318 66.1049 86.9089V65.1849C66.1049 60.6713 61.3978 58.6255 58.6199 58.1268C58.5298 58.114 58.4398 58.114 58.3369 58.1268L58.0668 58.1779ZM46.2348 58.114C46.2348 58.114 46.1577 58.114 46.1191 58.114C43.3411 58.6127 38.634 60.6713 38.634 65.1721V86.8961C38.634 87.3053 38.9684 87.6377 39.38 87.6377C39.7915 87.6377 40.1259 87.3053 40.1259 86.8961V65.1721C40.1259 61.707 44.0485 60.032 46.3634 59.5844C46.7878 59.5077 47.0579 59.1241 46.9807 58.715C46.9679 58.6127 46.9164 58.5104 46.8393 58.4081L46.6592 58.1779L46.3891 58.1268C46.3891 58.1268 46.2863 58.114 46.2348 58.114Z" fill="#87ABC1"/>
<path d="M32.0878 38.7299L31.9206 38.9601C31.8435 39.0624 31.792 39.1646 31.7792 39.2669C31.702 39.6761 31.9721 40.0597 32.3836 40.1364C32.6537 40.1876 38.634 41.3639 38.634 45.7368V52.1939C38.634 52.6031 38.9684 52.9356 39.3799 52.9356C39.7915 52.9356 40.1259 52.6031 40.1259 52.1939V45.7368C40.1259 41.2232 35.4188 39.1774 32.6408 38.666C32.5508 38.6532 32.4608 38.6532 32.3579 38.666L32.0878 38.7171V38.7299ZM20.2687 38.6532C20.2687 38.6532 20.1786 38.6532 20.1401 38.6532C17.3621 39.1519 12.655 41.2105 12.655 45.7113C12.655 46.1204 12.9894 46.4529 13.401 46.4529C13.8125 46.4529 14.1469 46.1204 14.1469 45.7113C14.1469 41.3511 20.1401 40.162 20.3973 40.1108C20.8088 40.0341 21.0789 39.6505 21.0017 39.2414C20.9889 39.1391 20.9374 39.0368 20.8603 38.9345L20.6931 38.7043L20.423 38.6532C20.423 38.6532 20.3073 38.6404 20.2558 38.6404L20.2687 38.6532Z" fill="#87ABC1"/>
<path d="M52.3694 56.3623C48.4468 56.3623 45.2573 53.1913 45.2573 49.2914C45.2573 45.3916 48.4468 42.2206 52.3694 42.2206C56.292 42.2206 59.4815 45.3916 59.4815 49.2914C59.4815 53.1913 56.292 56.3623 52.3694 56.3623ZM52.3694 43.7038C49.2699 43.7038 46.7492 46.2099 46.7492 49.2914C46.7492 52.3729 49.2699 54.8791 52.3694 54.8791C55.4689 54.8791 57.9896 52.3729 57.9896 49.2914C57.9896 46.2099 55.4689 43.7038 52.3694 43.7038Z" fill="#87ABC1"/>
<path d="M26.3909 37.6942C22.4683 37.6942 19.2788 34.5232 19.2788 30.6234C19.2788 26.7235 22.4683 23.5525 26.3909 23.5525C30.3134 23.5525 33.5029 26.7235 33.5029 30.6234C33.5029 34.5232 30.3134 37.6942 26.3909 37.6942ZM26.3909 25.0357C23.2914 25.0357 20.7707 27.5419 20.7707 30.6234C20.7707 33.7049 23.2914 36.211 26.3909 36.211C29.4904 36.211 32.0111 33.7049 32.0111 30.6234C32.0111 27.5419 29.4904 25.0357 26.3909 25.0357Z" fill="#87ABC1"/>
<path d="M19.4328 66.5275L19.2656 66.7576C19.1884 66.8599 19.1499 66.9622 19.1241 67.0645C19.047 67.4609 19.317 67.8572 19.7286 67.934C22.0564 68.3815 25.979 70.0693 25.979 73.5344V95.2584C25.979 95.6676 26.3134 96 26.7249 96C27.1365 96 27.4709 95.6676 27.4709 95.2584V73.5344C27.4709 69.0208 22.7638 66.975 19.9858 66.4763C19.8958 66.4635 19.8058 66.4635 19.7029 66.4763L19.4328 66.5275ZM7.60078 66.4635C7.60078 66.4635 7.52362 66.4635 7.48503 66.4635C4.70708 66.9622 0 69.0208 0 73.5216V95.2456C0 95.6548 0.334376 95.9872 0.745924 95.9872C1.15747 95.9872 1.49186 95.6548 1.49186 95.2456V73.5216C1.49186 70.0565 5.41443 68.3815 7.72939 67.934C8.15379 67.8572 8.42388 67.4737 8.34671 67.0645C8.33385 66.9622 8.28241 66.8599 8.20524 66.7576L8.02519 66.5275L7.75511 66.4763C7.75511 66.4763 7.65222 66.4635 7.60078 66.4635Z" fill="#87ABC1"/>
<path d="M13.7354 64.7117C9.8128 64.7117 6.62329 61.5407 6.62329 57.6409C6.62329 53.741 9.8128 50.57 13.7354 50.57C17.6579 50.57 20.8474 53.741 20.8474 57.6409C20.8474 61.5407 17.6579 64.7117 13.7354 64.7117ZM13.7354 52.0532C10.6359 52.0532 8.11516 54.5594 8.11516 57.6409C8.11516 60.7224 10.6359 63.2285 13.7354 63.2285C16.8348 63.2285 19.3556 60.7224 19.3556 57.6409C19.3556 54.5594 16.8348 52.0532 13.7354 52.0532Z" fill="#87ABC1"/>
<path d="M84.6632 58.1268C84.5604 58.1012 84.4703 58.1012 84.3803 58.1268C81.6024 58.6255 76.8953 60.6841 76.8953 65.1849V86.9089C76.8953 87.3181 77.2296 87.6505 77.6412 87.6505C78.0527 87.6505 78.3871 87.3181 78.3871 86.9089V65.1849C78.3871 61.7198 82.3097 60.032 84.6375 59.5845C85.0491 59.5077 85.3192 59.1114 85.242 58.715C85.2163 58.6127 85.1777 58.5104 85.1005 58.4081L84.9333 58.178L84.6632 58.1268ZM96.611 58.1268L96.3409 58.178L96.1609 58.4081C96.0837 58.5104 96.0323 58.6127 96.0194 58.715C95.9422 59.1241 96.2123 59.5077 96.6367 59.5845C98.9517 60.032 102.874 61.7198 102.874 65.1721V86.8961C102.874 87.3053 103.209 87.6377 103.62 87.6377C104.032 87.6377 104.366 87.3053 104.366 86.8961V65.1721C104.366 60.6585 99.659 58.6127 96.8811 58.114C96.8425 58.114 96.8039 58.114 96.7653 58.114C96.7139 58.114 96.6624 58.114 96.611 58.1268Z" fill="#87ABC1"/>
<path d="M83.5317 49.2914C83.5317 45.3916 86.7212 42.2206 90.6438 42.2206C94.5664 42.2206 97.7559 45.3916 97.7559 49.2914C97.7559 53.1913 94.5664 56.3623 90.6438 56.3623C86.7212 56.3623 83.5317 53.1913 83.5317 49.2914ZM85.0107 49.2914C85.0107 52.3729 87.5315 54.8791 90.631 54.8791C93.7304 54.8791 96.2512 52.3729 96.2512 49.2914C96.2512 46.2099 93.7304 43.7038 90.631 43.7038C87.5315 43.7038 85.0107 46.2099 85.0107 49.2914Z" fill="#87ABC1"/>
<path d="M64.3691 30.6234C64.3691 26.7235 67.5586 23.5525 71.4812 23.5525C75.4038 23.5525 78.5933 26.7235 78.5933 30.6234C78.5933 34.5232 75.4038 37.6942 71.4812 37.6942C67.5586 37.6942 64.3691 34.5232 64.3691 30.6234ZM65.861 30.6234C65.861 33.7049 68.3817 36.211 71.4812 36.211C74.5807 36.211 77.1014 33.7049 77.1014 30.6234C77.1014 27.5419 74.5807 25.0357 71.4812 25.0357C68.3817 25.0357 65.861 27.5419 65.861 30.6234Z" fill="#87ABC1"/>
<path d="M81.9756 42.4251C81.7569 42.4251 81.5383 42.3356 81.3711 42.1694C80.4451 41.2104 79.1719 40.5711 77.59 40.2515C77.1399 40.1619 76.8441 39.7272 76.9341 39.2797C77.0241 38.8322 77.4743 38.5253 77.9116 38.6276C79.8407 38.9984 81.4226 39.8039 82.58 41.0186C82.9016 41.3511 82.8887 41.8753 82.5543 42.195C82.3871 42.3484 82.1814 42.4251 81.9756 42.4251Z" fill="#87ABC1"/>
<path d="M60.9862 42.4251C60.7804 42.4251 60.5747 42.3484 60.4075 42.195C60.0731 41.8753 60.0602 41.3511 60.3818 41.0186C61.5521 39.8039 63.1211 38.9984 65.0503 38.6276C65.5004 38.5381 65.9377 38.8321 66.0277 39.2797C66.1177 39.7272 65.8219 40.1619 65.3718 40.2514C63.7899 40.5583 62.5167 41.1976 61.5907 42.1694C61.4235 42.3356 61.2048 42.4251 60.9862 42.4251Z" fill="#87ABC1"/>
<path d="M54.5303 14.0906L54.3631 14.3207C54.286 14.423 54.2345 14.5253 54.2217 14.6276C54.1445 15.0368 54.4146 15.4204 54.8261 15.4971C55.0962 15.5482 61.0765 16.7246 61.0765 21.0975V27.5546C61.0765 27.9638 61.4109 28.2962 61.8224 28.2962C62.234 28.2962 62.5684 27.9638 62.5684 27.5546V21.0975C62.5684 16.5839 57.8613 14.5381 55.0833 14.0266C54.9933 14.0139 54.9033 14.0139 54.8004 14.0266L54.5303 14.0778V14.0906Z" fill="#87ABC1"/>
<path d="M43.4186 14.0394C43.3157 14.0139 43.2257 14.0139 43.1357 14.0394C40.3577 14.5381 35.6506 16.5967 35.6506 21.1103V27.5674C35.6506 27.9766 35.985 28.309 36.3966 28.309C36.8081 28.309 37.1425 27.9766 37.1425 27.5674V21.1103C37.1425 16.7502 43.1228 15.561 43.3929 15.5099C43.8044 15.4332 44.0745 15.0496 43.9973 14.6404C43.9845 14.5381 43.933 14.4358 43.8559 14.3335L43.6887 14.1034L43.4186 14.0522V14.0394Z" fill="#87ABC1"/>
<path d="M48.8201 14.1417C44.8975 14.1417 41.708 10.9707 41.708 7.07085C41.708 3.17101 44.8975 0 48.8201 0C52.7426 0 55.9321 3.17101 55.9321 7.07085C55.9321 10.9707 52.7426 14.1417 48.8201 14.1417ZM48.8201 1.48321C45.7206 1.48321 43.1999 3.98934 43.1999 7.07085C43.1999 10.1524 45.7206 12.6585 48.8201 12.6585C51.9196 12.6585 54.4403 10.1524 54.4403 7.07085C54.4403 3.98934 51.9196 1.48321 48.8201 1.48321Z" fill="#87ABC1"/>
<path d="M88.5348 14.0394C88.4319 14.0139 88.3419 14.0139 88.2519 14.0394C85.4739 14.5381 80.7668 16.5967 80.7668 21.1103V27.5674C80.7668 27.9766 81.1012 28.309 81.5128 28.309C81.9243 28.309 82.2587 27.9766 82.2587 27.5674V21.1103C82.2587 16.7502 88.239 15.561 88.5091 15.5099C88.9206 15.4332 89.1907 15.0496 89.1135 14.6404C89.1007 14.5381 89.0492 14.4358 88.9721 14.3335L88.8049 14.1034L88.5348 14.0522V14.0394Z" fill="#87ABC1"/>
</svg>
