<svg width="100" height="100" viewBox="0 0 100 100" fill="none" xmlns="http://www.w3.org/2000/svg">
<path d="M3.668 42.4991C2.41367 42.4991 1.18786 41.8478 0.503682 40.7009C0.00480149 39.8655 -0.123488 38.8885 0.118825 37.9398C0.361139 37.0053 0.974053 36.2124 1.81502 35.7168C3.55398 34.7115 5.80607 35.292 6.81809 37.0195C7.8301 38.7469 7.24569 40.9841 5.50673 41.9894C4.92233 42.3292 4.29517 42.4849 3.668 42.4849V42.4991ZM3.668 36.6513C3.28315 36.6513 2.89831 36.7504 2.54197 36.9487C1.47294 37.5717 1.11659 38.931 1.74375 39.9787C2.37091 41.0265 3.73927 41.3947 4.79405 40.7717C5.86308 40.1487 6.21943 38.7894 5.59226 37.7416C5.17891 37.0336 4.42345 36.6372 3.668 36.6372V36.6513Z" fill="#87ABC1"/>
<path d="M15.3133 91.2212C14.9997 91.2212 14.6862 91.1788 14.3868 91.108C13.4461 90.8672 12.6479 90.2584 12.1632 89.423C11.6786 88.5876 11.5361 87.6106 11.7784 86.6619C12.0207 85.7274 12.6336 84.9345 13.4746 84.4389C15.2135 83.4336 17.4656 84.0142 18.4777 85.7416C18.9765 86.577 19.1048 87.554 18.8625 88.4885C18.6202 89.423 18.0073 90.2159 17.1663 90.7115C16.5962 91.0372 15.969 91.2071 15.3276 91.2071L15.3133 91.2212ZM15.2991 85.3734C14.9142 85.3734 14.5294 85.4726 14.173 85.6708C13.6599 85.9681 13.2893 86.4495 13.1467 87.0301C12.99 87.6106 13.0755 88.2053 13.3748 88.715C13.6741 89.2248 14.1588 89.5929 14.7432 89.7345C15.3133 89.8903 15.9262 89.8053 16.4394 89.508C16.9525 89.2106 17.3231 88.7292 17.4656 88.1487C17.6082 87.5681 17.5369 86.9734 17.2376 86.4637C16.8242 85.7557 16.0688 85.3593 15.3133 85.3593L15.2991 85.3734Z" fill="#87ABC1"/>
<path d="M45.5311 15.5681C47.1606 15.5681 48.4816 14.2559 48.4816 12.6371C48.4816 11.0184 47.1606 9.70618 45.5311 9.70618C43.9016 9.70618 42.5806 11.0184 42.5806 12.6371C42.5806 14.2559 43.9016 15.5681 45.5311 15.5681Z" stroke="#87ABC1" stroke-linecap="round" stroke-linejoin="round"/>
<path d="M49.8216 65.4513L21.2856 83.8159" stroke="#87ABC1" stroke-linecap="round" stroke-linejoin="round"/>
<path d="M75.9201 15.1009L66.8262 -18.7398" stroke="#87ABC1" stroke-width="2" stroke-linecap="round" stroke-linejoin="round"/>
<path d="M60.7684 25.0265L49.5649 15.9929" stroke="#87ABC1" stroke-width="2" stroke-linecap="round" stroke-linejoin="round"/>
<path d="M60.7969 42.1451L9.25537 39.4124" stroke="#87ABC1" stroke-width="2" stroke-linecap="round" stroke-linejoin="round"/>
<path d="M72.8703 70.7752L65.3301 90.2301" stroke="#87ABC1" stroke-width="2" stroke-linecap="round" stroke-linejoin="round"/>
<path d="M63.1917 99.5327C62.8782 99.5327 62.5646 99.4902 62.2653 99.4194C61.3245 99.1787 60.5263 98.5699 60.0417 97.7345C59.5428 96.8991 59.4145 95.9221 59.6568 94.9876C59.8991 94.0531 60.4978 93.2602 61.353 92.7646C62.194 92.269 63.1775 92.1416 64.1325 92.3823C65.0875 92.623 65.8714 93.2318 66.3561 94.0672C66.8549 94.9026 66.9832 95.8796 66.7409 96.8141C66.4986 97.7487 65.9 98.5416 65.0447 99.0372C64.4746 99.3628 63.8474 99.5327 63.206 99.5327H63.1917ZM63.1775 93.6849C62.7926 93.6849 62.4078 93.7841 62.0515 93.9823C61.5383 94.2796 61.1677 94.7611 61.0252 95.3416C60.8827 95.9221 60.9539 96.5168 61.2532 97.0265C61.5526 97.5363 62.0372 97.9044 62.6216 98.046C63.1917 98.2018 63.8047 98.1168 64.3178 97.8195C64.8309 97.5221 65.2015 97.0407 65.3441 96.4602C65.4866 95.8796 65.4153 95.2849 65.116 94.7752C64.8167 94.2655 64.332 93.8973 63.7476 93.7557C63.5623 93.6991 63.3628 93.6849 63.1775 93.6849Z" fill="#87ABC1"/>
<path d="M3.668 42.4991C2.41367 42.4991 1.18786 41.8478 0.503682 40.7009C0.00480149 39.8655 -0.123488 38.8885 0.118825 37.9398C0.361139 37.0053 0.974053 36.2124 1.81502 35.7168C3.55398 34.7115 5.80607 35.292 6.81809 37.0195C7.8301 38.7469 7.24569 40.9841 5.50673 41.9894C4.92233 42.3292 4.29517 42.4849 3.668 42.4849V42.4991ZM3.668 36.6513C3.28315 36.6513 2.89831 36.7504 2.54197 36.9487C1.47294 37.5717 1.11659 38.931 1.74375 39.9787C2.37091 41.0265 3.73927 41.3947 4.79405 40.7717C5.86308 40.1487 6.21943 38.7894 5.59226 37.7416C5.17891 37.0336 4.42345 36.6372 3.668 36.6372V36.6513Z" fill="#87ABC1"/>
<path d="M15.3133 91.2212C14.9997 91.2212 14.6862 91.1788 14.3868 91.108C13.4461 90.8672 12.6479 90.2584 12.1632 89.423C11.6786 88.5876 11.5361 87.6106 11.7784 86.6619C12.0207 85.7274 12.6336 84.9345 13.4746 84.4389C15.2135 83.4336 17.4656 84.0142 18.4777 85.7416C18.9765 86.577 19.1048 87.554 18.8625 88.4885C18.6202 89.423 18.0073 90.2159 17.1663 90.7115C16.5962 91.0372 15.969 91.2071 15.3276 91.2071L15.3133 91.2212ZM15.2991 85.3734C14.9142 85.3734 14.5294 85.4726 14.173 85.6708C13.6599 85.9681 13.2893 86.4495 13.1467 87.0301C12.99 87.6106 13.0755 88.2053 13.3748 88.715C13.6741 89.2248 14.1588 89.5929 14.7432 89.7345C15.3133 89.8903 15.9262 89.8053 16.4394 89.508C16.9525 89.2106 17.3231 88.7292 17.4656 88.1487C17.6082 87.5681 17.5369 86.9734 17.2376 86.4637C16.8242 85.7557 16.0688 85.3593 15.3133 85.3593L15.2991 85.3734Z" fill="#87ABC1"/>
<path d="M45.5311 16.2761C45.2175 16.2761 44.9039 16.2336 44.6046 16.1628C43.6638 15.9221 42.8656 15.3133 42.381 14.4779C41.369 12.7505 41.9534 10.5274 43.6924 9.50797C44.5333 9.0124 45.5168 8.88496 46.4718 9.12567C47.4126 9.36638 48.2108 9.97523 48.6954 10.8106C49.1943 11.646 49.3226 12.623 49.0803 13.5575C48.8379 14.492 48.2393 15.285 47.3841 15.7805C46.8139 16.1062 46.1868 16.2761 45.5453 16.2761H45.5311ZM45.5168 10.4142C45.132 10.4142 44.7471 10.5133 44.3908 10.7115C43.3218 11.3345 42.9654 12.6938 43.5926 13.7416C43.8919 14.2513 44.3765 14.6195 44.9609 14.7611C45.5311 14.9168 46.144 14.8319 46.6571 14.5345C47.1703 14.2372 47.5409 13.7558 47.6834 13.1752C47.8259 12.5947 47.7547 12 47.4553 11.4903C47.156 10.9805 46.6714 10.6124 46.087 10.4708C45.9017 10.4142 45.7021 10.4 45.5168 10.4V10.4142Z" fill="#87ABC1"/>
<path d="M49.8216 65.4513L21.2856 83.8159" stroke="#87ABC1" stroke-width="2" stroke-linecap="round" stroke-linejoin="round"/>
<path d="M60.7971 58.3858L49.8218 65.4513" stroke="#87ABC1" stroke-width="2" stroke-linecap="round" stroke-linejoin="round"/>
<path d="M98.8829 66.2159H68.1091C66.7408 66.2159 65.6147 65.0973 65.6147 63.738V61.8832C65.6147 60.5239 66.7408 59.4053 68.1091 59.4053H98.8829C100.251 59.4053 101.377 60.5239 101.377 61.8832V63.738C101.377 65.0973 100.251 66.2159 98.8829 66.2159ZM68.1234 60.8212C67.539 60.8212 67.0544 61.3026 67.0544 61.8832V63.738C67.0544 64.3186 67.539 64.8 68.1234 64.8H98.8972C99.4816 64.8 99.9662 64.3186 99.9662 63.738V61.8832C99.9662 61.3026 99.4816 60.8212 98.8972 60.8212H68.1234Z" fill="#87ABC1"/>
<path d="M98.8829 58.2301H68.1091C66.7408 58.2301 65.6147 57.1257 65.6147 55.7522V53.8973C65.6147 52.538 66.7408 51.4195 68.1091 51.4195H98.8829C100.251 51.4195 101.377 52.538 101.377 53.8973V55.7522C101.377 57.1115 100.251 58.2301 98.8829 58.2301ZM68.1234 52.8354C67.539 52.8354 67.0544 53.3168 67.0544 53.8973V55.7522C67.0544 56.3327 67.539 56.8142 68.1234 56.8142H98.8972C99.4816 56.8142 99.9662 56.3327 99.9662 55.7522V53.8973C99.9662 53.3168 99.4816 52.8354 98.8972 52.8354H68.1234Z" fill="#87ABC1"/>
<path d="M98.8829 50.2442H68.1091C66.7408 50.2442 65.6147 49.1257 65.6147 47.7664V45.9115C65.6147 44.5522 66.7408 43.4336 68.1091 43.4336H98.8829C100.251 43.4336 101.377 44.5522 101.377 45.9115V47.7664C101.377 49.1257 100.251 50.2442 98.8829 50.2442ZM68.1234 44.8496C67.539 44.8496 67.0544 45.331 67.0544 45.9115V47.7664C67.0544 48.3469 67.539 48.8283 68.1234 48.8283H98.8972C99.4816 48.8283 99.9662 48.3469 99.9662 47.7664V45.9115C99.9662 45.331 99.4816 44.8496 98.8972 44.8496H68.1234Z" fill="#87ABC1"/>
<path d="M98.8829 42.2584H68.1091C66.7408 42.2584 65.6147 41.1398 65.6147 39.7805V37.9257C65.6147 36.5664 66.7408 35.4478 68.1091 35.4478H98.8829C100.251 35.4478 101.377 36.5664 101.377 37.9257V39.7805C101.377 41.1398 100.251 42.2584 98.8829 42.2584ZM68.1234 36.8637C67.539 36.8637 67.0544 37.3451 67.0544 37.9257V39.7805C67.0544 40.3611 67.539 40.8425 68.1234 40.8425H98.8972C99.4816 40.8425 99.9662 40.3611 99.9662 39.7805V37.9257C99.9662 37.3451 99.4816 36.8637 98.8972 36.8637H68.1234Z" fill="#87ABC1"/>
<path d="M98.8829 34.2867H68.1091C66.7408 34.2867 65.6147 33.1681 65.6147 31.8088V29.954C65.6147 28.5947 66.7408 27.4761 68.1091 27.4761H98.8829C100.251 27.4761 101.377 28.5947 101.377 29.954V31.8088C101.377 33.1681 100.251 34.2867 98.8829 34.2867ZM68.1234 28.892C67.539 28.892 67.0544 29.3735 67.0544 29.954V31.8088C67.0544 32.3894 67.539 32.8708 68.1234 32.8708H98.8972C99.4816 32.8708 99.9662 32.3894 99.9662 31.8088V29.954C99.9662 29.3735 99.4816 28.892 98.8972 28.892H68.1234Z" fill="#87ABC1"/>
<path d="M98.8829 26.3009H68.1091C66.7408 26.3009 65.6147 25.1823 65.6147 23.823V21.9681C65.6147 20.6088 66.7408 19.4903 68.1091 19.4903H98.8829C100.251 19.4903 101.377 20.6088 101.377 21.9681V23.823C101.377 25.1823 100.251 26.3009 98.8829 26.3009ZM68.1234 20.9062C67.539 20.9062 67.0544 21.3876 67.0544 21.9681V23.823C67.0544 24.4035 67.539 24.885 68.1234 24.885H98.8972C99.4816 24.885 99.9662 24.4035 99.9662 23.823V21.9681C99.9662 21.3876 99.4816 20.9062 98.8972 20.9062H68.1234Z" fill="#87ABC1"/>
</svg>
