<svg width="179" height="104" viewBox="0 0 179 104" fill="none" xmlns="http://www.w3.org/2000/svg">
<path d="M146.961 67.9151L141.778 64.9151C145.625 60.8302 147.742 55.5283 147.742 49.8962C147.742 44.2642 145.747 39.2925 142.135 35.2642L146.961 32.4717C147.187 32.3396 147.262 32.0566 147.13 31.8302C146.999 31.6038 146.716 31.5283 146.491 31.6604L115.202 49.7736L114.967 49.934V50.4811L146.491 68.7359C146.566 68.783 146.641 68.8019 146.726 68.8019C146.886 68.8019 147.046 68.717 147.13 68.5661C147.262 68.3396 147.187 68.0566 146.961 67.9245V67.9151ZM141.307 35.7453C142.643 37.1981 143.744 38.8208 144.609 40.5472C144.289 40.2453 143.941 40.0849 143.584 40.0849C141.712 40.0849 140.207 44.5661 140.207 50.0849C140.207 55.6038 141.721 60.0849 143.584 60.0849C143.819 60.0849 144.045 60.0189 144.271 59.8774C143.377 61.5189 142.267 63.0472 140.94 64.4245L116.35 50.1887L141.307 35.7453Z" fill="#87ABC1" stroke="#87ABC1"/>
<path d="M191.815 87.0943C191.589 86.1132 190.62 85.5094 189.651 85.7358L136.858 97.8679H134.91C145.164 92.2642 171.495 83.2736 189.981 82.3302C190.244 82.3208 190.442 82.0943 190.423 81.8396C190.413 81.5755 190.169 81.3491 189.934 81.3962C171.862 82.3207 147.271 90.5 136.001 96.2358C146.227 88.7547 169.586 76.3208 186.895 72.3679C187.149 72.3113 187.309 72.0566 187.252 71.8019C187.196 71.5472 186.942 71.3868 186.688 71.4434C168.645 75.566 144.957 88.2924 134.901 95.8585C143.471 86.566 164.957 69.1604 181.655 61.6792C181.89 61.5755 182.003 61.2924 181.89 61.0566C181.787 60.8208 181.505 60.7075 181.269 60.8208C162.389 69.283 138.41 89.434 131.928 97.8774H130.564C124.082 89.434 100.103 69.283 81.2227 60.8208C80.9876 60.7075 80.7053 60.8208 80.6019 61.0566C80.4984 61.2924 80.6019 61.5755 80.837 61.6792C97.5444 69.1698 119.021 86.566 127.591 95.8585C117.535 88.283 93.8473 75.5566 75.8041 71.4434C75.5501 71.3868 75.2961 71.5472 75.2397 71.8019C75.1833 72.0566 75.3432 72.3113 75.5972 72.3679C92.9066 76.3208 116.265 88.7547 126.491 96.2358C115.211 90.5 90.6206 82.3207 72.5586 81.3962C72.2952 81.3585 72.0788 81.5849 72.0694 81.8396C72.06 82.1038 72.2576 82.3208 72.5116 82.3302C90.9875 83.283 117.328 92.2642 127.582 97.8679H125.503L72.7091 85.7358C71.7402 85.5094 70.7618 86.1226 70.5454 87.0943C70.3197 88.0755 70.9311 89.0472 71.9001 89.2641L124.891 101.443C125.023 101.472 125.164 101.491 125.296 101.491H137.055C137.187 101.491 137.328 101.472 137.46 101.443L190.451 89.2641C191.42 89.0377 192.031 88.066 191.806 87.0943H191.815Z" fill="#87ABC1" stroke="#87ABC1"/>
</svg>
