<svg width="75" height="32" viewBox="0 0 75 32" fill="none" xmlns="http://www.w3.org/2000/svg">
<path d="M53.0298 31.9639C52.8294 31.9639 52.629 31.9639 52.4382 31.9449C46.7315 31.5929 41.3016 26.3797 35.824 16.02C30.8522 6.61159 26.0425 1.89311 21.6242 1.89311C17.7498 1.92165 13.8372 5.61271 10.0105 12.8807C10.2491 13.0424 10.4781 13.2327 10.688 13.4325C11.9286 14.574 12.5584 15.9724 12.5584 17.5897C12.5584 19.2069 11.9286 20.6053 10.688 21.7469C9.46654 22.8694 7.98739 23.4307 6.27921 23.4307C4.57103 23.4307 3.09189 22.8599 1.8704 21.7469C0.629823 20.6053 3.24104e-07 19.2069 2.96815e-07 17.5897C2.69525e-07 15.9724 0.629823 14.574 1.8704 13.4325C3.09189 12.3099 4.57103 11.7486 6.27921 11.7486C6.98538 11.7486 7.66294 11.8533 8.30231 12.0435C12.5489 3.97647 16.91 0.0285395 21.6146 2.45431e-07L21.6719 2.45164e-07C26.9491 2.20581e-07 32.1309 4.95631 37.5131 15.1448C42.5804 24.734 47.6381 29.7474 52.5622 30.0518C56.3794 30.3086 60.3015 27.6735 64.2714 22.2796C64.0423 22.1179 63.8228 21.9371 63.6129 21.7469C62.3723 20.6053 61.7425 19.2069 61.7425 17.5897C61.7425 15.9724 62.3723 14.574 63.6129 13.4325C64.8344 12.3099 66.3135 11.7486 68.0217 11.7486C69.7299 11.7486 71.209 12.3194 72.4305 13.4325C73.6711 14.574 74.3009 15.9724 74.3009 17.5897C74.3009 19.2069 73.6711 20.6053 72.4305 21.7469C71.209 22.8694 69.7299 23.4307 68.0217 23.4307C67.3155 23.4307 66.638 23.3356 65.9986 23.1358C61.752 28.9958 57.3909 31.9639 53.0298 31.9639ZM66.0463 21.119C66.638 21.3854 67.2964 21.5281 68.0122 21.5281C69.2432 21.5281 70.2643 21.138 71.1327 20.3389C71.9725 19.5589 72.3924 18.6646 72.3924 17.5802C72.3924 16.4957 71.982 15.6014 71.1327 14.8214C70.2643 14.0223 69.2432 13.6322 68.0122 13.6322C66.7811 13.6322 65.76 14.0223 64.9012 14.8214C64.0519 15.6014 63.6415 16.4957 63.6415 17.5802C63.6415 18.6646 64.0519 19.5589 64.9012 20.3389C65.2543 20.6624 65.636 20.9192 66.0463 21.119ZM6.26967 13.6417C5.03864 13.6417 4.01755 14.0318 3.14914 14.8309C2.30937 15.6109 1.88949 16.5052 1.88949 17.5897C1.88949 18.6742 2.29983 19.5684 3.14914 20.3485C4.01755 21.1476 5.03864 21.5376 6.26967 21.5376C7.5007 21.5376 8.5218 21.1476 9.3902 20.3485C10.23 19.5684 10.6499 18.6742 10.6499 17.5897C10.6499 16.5052 10.2395 15.6109 9.3902 14.8309C9.06574 14.5265 8.70312 14.2791 8.3214 14.0984C7.71066 13.7939 7.02356 13.6417 6.26967 13.6417Z" fill="#AF840C"/>
</svg>
