<svg width="111" height="69" viewBox="0 0 111 69" fill="none" xmlns="http://www.w3.org/2000/svg">
<g clip-path="url(#clip0_44_17824)">
<path d="M72.7543 68.6075C66.4682 68.6075 61.3555 63.5285 61.3555 57.284C61.3555 51.0394 66.4682 45.9604 72.7543 45.9604C79.0404 45.9604 84.1532 51.0394 84.1532 57.284C84.1532 63.5285 79.0404 68.6075 72.7543 68.6075ZM72.7543 47.2693C67.1893 47.2693 62.6664 51.7622 62.6664 57.2905C62.6664 62.8188 67.1893 67.3117 72.7543 67.3117C78.3194 67.3117 82.8422 62.8188 82.8422 57.2905C82.8422 51.7622 78.3194 47.2693 72.7543 47.2693Z" fill="currentColor"/>
<path d="M56.7017 68.5229C56.3412 68.5229 56.0462 68.2299 56.0462 67.8717V54.0673C56.0462 52.6608 55.6922 51.352 55.004 50.1799C54.3092 49.0078 53.3587 48.0572 52.1723 47.3669C50.9924 46.6832 49.6749 46.3316 48.259 46.3316C46.8432 46.3316 45.6174 46.6832 44.4179 47.3669C43.2184 48.0572 42.2483 49.0013 41.5403 50.1799C40.8324 51.352 40.4784 52.6543 40.4784 54.0608V67.8652C40.4784 68.2233 40.1835 68.5164 39.823 68.5164C39.4624 68.5164 39.1675 68.2233 39.1675 67.8652V54.0608C39.1675 52.4134 39.587 50.8832 40.4195 49.5092C41.2454 48.1418 42.3728 47.0414 43.769 46.2404C45.1717 45.433 46.6859 45.0293 48.2656 45.0293C49.8453 45.0293 51.4578 45.4395 52.8409 46.2469C54.2174 47.0479 55.3252 48.1548 56.138 49.5222C56.9508 50.8962 57.3637 52.4264 57.3637 54.0673V67.8717C57.3637 68.2299 57.0687 68.5229 56.7082 68.5229H56.7017Z" fill="currentColor"/>
<path d="M92.9895 63.3592C92.9895 63.3592 92.9698 63.3592 92.9567 63.3592C92.6748 63.3462 92.4257 63.1509 92.3536 62.8774L87.8242 46.1558C87.7325 45.8107 87.9357 45.4525 88.2896 45.3549C88.637 45.2637 88.9976 45.4655 89.0959 45.8172L93.0943 60.5723L98.6332 45.7586C98.7315 45.5046 98.974 45.3353 99.2493 45.3353C99.5246 45.3353 99.7672 45.5046 99.8655 45.7586L105.404 60.5723L109.403 45.8172C109.495 45.4721 109.855 45.2637 110.209 45.3549C110.556 45.446 110.766 45.8041 110.674 46.1558L106.145 62.8774C106.073 63.1509 105.824 63.3462 105.542 63.3592C105.267 63.3788 104.998 63.2029 104.9 62.936L99.2624 47.8553L93.6253 62.936C93.527 63.1899 93.2844 63.3592 93.0091 63.3592H92.9895Z" fill="currentColor"/>
<path d="M36.4668 68.7839C36.0801 68.7839 35.7654 68.4713 35.7654 68.0871C35.7654 61.5365 34.2251 56.9003 31.1967 54.3152C28.057 51.6325 24.3273 52.1599 24.2879 52.173C23.9143 52.2251 23.5538 51.9711 23.4948 51.5934C23.4358 51.2158 23.6914 50.8641 24.0716 50.8055C24.2486 50.7795 28.4437 50.1609 32.0816 53.2539C35.4508 56.1124 37.1616 61.1068 37.1616 68.1001C37.1616 68.4843 36.847 68.7969 36.4603 68.7969L36.4668 68.7839Z" fill="currentColor"/>
<path d="M24.2619 52.1792C24.216 52.1792 24.1832 52.1792 24.1701 52.1792C23.7834 52.1727 23.4818 51.8537 23.4884 51.476C23.4949 51.0983 23.8096 50.7923 24.1898 50.7923C24.1898 50.7923 24.1701 50.7923 24.2291 50.7923C24.6683 50.7923 29.7286 50.7207 32.8487 47.6798C34.5071 46.0584 35.3461 43.851 35.3461 41.1162C35.3461 40.732 35.6607 40.4194 36.0475 40.4194C36.4342 40.4194 36.7488 40.732 36.7488 41.1162C36.7488 44.2417 35.7656 46.7877 33.8254 48.676C30.3579 52.0555 25.055 52.1792 24.2684 52.1792H24.2619Z" fill="currentColor"/>
<path d="M94.4116 35.262C94.2739 35.262 94.1363 35.262 94.0052 35.249C90.0854 35.0081 86.3557 31.4398 82.5932 24.3487C79.1781 17.9088 75.8745 14.6791 72.8396 14.6791C70.1783 14.6986 67.4908 17.2251 64.8623 22.1999C65.0262 22.3106 65.1835 22.4408 65.3277 22.5776C66.1799 23.359 66.6125 24.3162 66.6125 25.4231C66.6125 26.5301 66.1799 27.4873 65.3277 28.2687C64.4887 29.037 63.4727 29.4212 62.2994 29.4212C61.1261 29.4212 60.1101 29.0305 59.2711 28.2687C58.4189 27.4873 57.9863 26.5301 57.9863 25.4231C57.9863 24.3162 58.4189 23.359 59.2711 22.5776C60.1101 21.8092 61.1261 21.425 62.2994 21.425C62.7845 21.425 63.2499 21.4967 63.689 21.6269C66.6059 16.1051 69.6015 13.4028 72.833 13.3833H72.8724C76.4972 13.3833 80.0565 16.7758 83.7534 23.7497C87.234 30.3133 90.7081 33.7448 94.0904 33.9532C96.7123 34.129 99.4064 32.3253 102.133 28.6333C101.976 28.5226 101.825 28.3989 101.681 28.2687C100.829 27.4873 100.396 26.5301 100.396 25.4231C100.396 24.3162 100.829 23.359 101.681 22.5776C102.52 21.8092 103.536 21.425 104.709 21.425C105.883 21.425 106.899 21.8157 107.738 22.5776C108.59 23.359 109.022 24.3162 109.022 25.4231C109.022 26.5301 108.59 27.4873 107.738 28.2687C106.899 29.037 105.883 29.4212 104.709 29.4212C104.224 29.4212 103.759 29.3561 103.32 29.2193C100.403 33.2304 97.4071 35.262 94.4116 35.262ZM103.352 27.8389C103.759 28.0212 104.211 28.1189 104.703 28.1189C105.548 28.1189 106.25 27.8519 106.846 27.3049C107.423 26.771 107.711 26.1589 107.711 25.4166C107.711 24.6743 107.429 24.0622 106.846 23.5283C106.25 22.9813 105.548 22.7143 104.703 22.7143C103.857 22.7143 103.156 22.9813 102.566 23.5283C101.982 24.0622 101.701 24.6743 101.701 25.4166C101.701 26.1589 101.982 26.771 102.566 27.3049C102.808 27.5263 103.071 27.7022 103.352 27.8389ZM62.2929 22.7208C61.4473 22.7208 60.7459 22.9878 60.1494 23.5348C59.5726 24.0687 59.2842 24.6808 59.2842 25.4231C59.2842 26.1654 59.566 26.7775 60.1494 27.3115C60.7459 27.8584 61.4473 28.1254 62.2929 28.1254C63.1384 28.1254 63.8398 27.8584 64.4363 27.3115C65.0131 26.7775 65.3015 26.1654 65.3015 25.4231C65.3015 24.6808 65.0197 24.0687 64.4363 23.5348C64.2134 23.3264 63.9643 23.1571 63.7021 23.0334C63.2826 22.825 62.8107 22.7208 62.2929 22.7208Z" fill="#AF840C"/>
<path d="M7.46191 16.2285C8.22883 16.0202 9.27105 15.7792 10.5689 15.5188C11.8733 15.2583 13.4661 15.1216 15.3539 15.1216C16.9206 15.1216 18.2315 15.343 19.2803 15.7923C20.3291 16.2416 21.1681 16.8797 21.7908 17.7132C22.4135 18.5466 22.8592 19.5429 23.128 20.702C23.3967 21.861 23.5278 23.1438 23.5278 24.5438V35.991H20.9387V25.3772C20.9387 23.9252 20.8403 22.701 20.6371 21.6917C20.4405 20.6889 20.1062 19.8685 19.6408 19.2369C19.1754 18.6052 18.5658 18.1494 17.8055 17.8694C17.0451 17.5894 16.0946 17.4527 14.9541 17.4527C13.7283 17.4527 12.673 17.5178 11.7881 17.6481C10.8967 17.7783 10.3198 17.902 10.0511 18.0062V35.9845H7.46191V16.222V16.2285Z" fill="currentColor"/>
<path d="M36.4018 15.0436C37.7586 15.0436 38.9057 15.2325 39.8496 15.6166C40.7935 16.0008 41.5604 16.5282 42.1438 17.1989C42.7272 17.8696 43.1532 18.6705 43.422 19.5952C43.6842 20.5198 43.8218 21.5226 43.8218 22.6035V35.5159C43.5531 35.594 43.1729 35.6786 42.6682 35.7763C42.1635 35.8675 41.5801 35.9652 40.9115 36.0759C40.2495 36.18 39.5088 36.2647 38.696 36.3363C37.8832 36.4014 37.0573 36.434 36.2051 36.434C35.117 36.434 34.1141 36.3168 33.1964 36.0759C32.2788 35.8414 31.4856 35.4638 30.8039 34.9494C30.1288 34.4349 29.5913 33.7773 29.2111 32.9699C28.8244 32.1624 28.6343 31.1792 28.6343 30.0201C28.6343 28.8611 28.844 27.9625 29.2701 27.1681C29.6962 26.3737 30.2927 25.7225 31.0661 25.2081C31.8396 24.6937 32.7507 24.316 33.8192 24.0816C34.881 23.8472 36.0347 23.7235 37.2867 23.7235C37.6603 23.7235 38.047 23.743 38.46 23.7821C38.8729 23.8212 39.2728 23.8733 39.6595 23.9384C40.0463 24.0035 40.374 24.0686 40.6559 24.1337C40.9377 24.1988 41.1278 24.2574 41.2327 24.3095V23.0398C41.2327 22.33 41.1802 21.6333 41.0754 20.9626C40.9705 20.2919 40.7345 19.6798 40.3806 19.1394C40.02 18.5989 39.5153 18.1626 38.8664 17.8306C38.2175 17.4985 37.3588 17.3357 36.2969 17.3357C34.7827 17.3357 33.6553 17.4399 32.908 17.6547C32.1608 17.8696 31.6167 18.0389 31.2759 18.1692L30.9154 15.9097C31.3676 15.7013 32.0625 15.4994 33.0064 15.3171C33.9503 15.1348 35.0842 15.0371 36.4149 15.0371L36.4018 15.0436ZM36.6377 34.1289C37.6472 34.1289 38.5321 34.0963 39.2859 34.0312C40.0463 33.9661 40.6886 33.8815 41.2196 33.7773V26.569C40.9246 26.4388 40.4592 26.2955 39.8234 26.1523C39.1876 26.009 38.3092 25.9374 37.1949 25.9374C36.5591 25.9374 35.8905 25.983 35.2022 26.0741C34.5074 26.1653 33.8716 26.3672 33.2882 26.6667C32.7048 26.9727 32.2263 27.3895 31.8527 27.9169C31.4791 28.4443 31.2955 29.1411 31.2955 30.0136C31.2955 30.782 31.4201 31.4266 31.6757 31.9541C31.9314 32.4815 32.2853 32.9047 32.7507 33.2238C33.2161 33.5429 33.7733 33.7708 34.4222 33.914C35.0711 34.0573 35.8118 34.1289 36.6377 34.1289Z" fill="currentColor"/>
<path d="M18.1393 51.8144H0.244629V6.65051C0.244629 3.10824 3.14842 0.223633 6.71426 0.223633H52.1852V42.9718H50.8742V1.52594H6.71426C3.86946 1.52594 1.5556 3.82451 1.5556 6.65051V50.5187H18.1393V51.821V51.8144Z" fill="#AF840C"/>
<path d="M108.092 67.3052H91.6323V68.6075H108.092V67.3052Z" fill="#AF840C"/>
<path d="M21.5743 40.4648H21.3318C20.9697 40.4648 20.6763 40.7564 20.6763 41.116V67.6765C20.6763 68.0361 20.9697 68.3277 21.3318 68.3277H21.5743C21.9363 68.3277 22.2298 68.0361 22.2298 67.6765V41.116C22.2298 40.7564 21.9363 40.4648 21.5743 40.4648Z" fill="currentColor"/>
</g>
<defs>
<clipPath id="clip0_44_17824">
<rect width="111" height="69" fill="white"/>
</clipPath>
</defs>
</svg>
