<svg width="80" height="59" viewBox="0 0 80 59" fill="none" xmlns="http://www.w3.org/2000/svg">
<path d="M50.3554 33.038C49.5973 32.3878 48.6072 31.8645 47.7008 31.6351C47.1396 31.4922 46.7619 31.4463 46.1495 31.4463C45.127 31.4463 44.261 31.6513 43.3329 32.1154C41.6387 32.9652 40.484 34.3869 39.9849 36.2431C39.9472 36.386 39.9175 36.529 39.9175 36.5641V36.6261H46.1603C49.5946 36.6261 52.4112 36.6154 52.4166 36.6046C52.422 36.5938 52.3977 36.467 52.3626 36.324C52.0389 35.0452 51.3132 33.8582 50.3554 33.0353" fill="#041282"/>
<path d="M66.1135 31.1445C63.9714 30.675 61.7403 31.3279 60.1782 32.8819C59.582 33.4754 59.1612 34.0932 58.8077 34.8945C58.2871 36.068 58.1387 37.3819 58.3761 38.6903C58.5946 39.9044 59.2502 41.1427 60.1594 42.0545C61.171 43.0716 62.5766 43.7542 63.9687 43.9134C64.3167 43.9538 65.1612 43.9484 65.5065 43.908C66.2349 43.8189 66.8203 43.6409 67.5029 43.309C68.5928 42.7803 69.4076 42.0653 70.0847 41.0509C70.6809 40.158 71.0398 39.149 71.1773 37.9862C71.35 36.497 70.8725 34.8486 69.8878 33.5428C68.9948 32.3585 67.5973 31.4709 66.1162 31.1445" fill="#041282"/>
<path d="M73.5331 43.7267C73.5142 45.4399 73.5142 45.4533 73.4521 45.6125C73.3739 45.8149 73.1473 46.0577 72.9395 46.171C72.6967 46.2978 72.4351 46.3382 72.1329 46.287C71.8199 46.2357 71.4854 45.9767 71.337 45.6746C71.2399 45.4722 71.221 45.2348 71.221 43.9965C71.221 43.4893 71.2129 43.0765 71.2075 43.0765C71.1994 43.0765 71.0484 43.2195 70.873 43.3976C69.7237 44.5442 68.3154 45.456 67.0259 45.8796C66.3703 46.0981 65.7822 46.1953 64.9998 46.2222C63.4539 46.2735 62.1212 45.9929 60.7804 45.3346C60.5106 45.2024 60.1518 45.0082 59.9791 44.9003C57.6671 43.4542 56.2021 41.0424 55.9755 38.3041C55.7138 35.1368 57.0142 32.1934 59.4881 30.3481C60.6428 29.4875 62.0537 28.921 63.5645 28.7159C63.9989 28.6566 65.0672 28.635 65.5205 28.6755C67.2606 28.8292 68.9791 29.5711 70.382 30.7744C70.7327 31.0738 71.3775 31.7483 71.6365 32.0801C72.7183 33.4776 73.3577 35.0639 73.4953 36.7069C73.5304 37.1359 73.552 41.6251 73.5277 43.7294M54.5295 38.5469C54.3649 38.7033 54.257 38.7735 54.0789 38.8355C53.9251 38.8922 53.8982 38.8922 46.9027 38.9084L39.8802 38.9246L39.8883 39.019C39.9045 39.1863 40.0771 39.8203 40.1796 40.0819C40.4197 40.7024 40.8352 41.4012 41.2938 41.9435C41.8496 42.6044 42.5295 43.1278 43.3658 43.5352C44.0753 43.8805 44.7687 44.0828 45.5268 44.1611C45.9665 44.2069 46.8163 44.18 47.2318 44.1071C48.4836 43.8859 49.525 43.3706 50.5367 42.4722C50.8523 42.1917 51.0115 42.1053 51.2732 42.0676C51.7345 42.0028 52.1715 42.197 52.4117 42.5747C52.6437 42.939 52.6356 43.4893 52.3955 43.84C52.2768 44.01 51.6644 44.6224 51.3838 44.849C50.1832 45.8149 48.7669 46.3086 46.8811 46.4165C46.3604 46.4515 45.9773 46.4515 45.4836 46.4192C43.185 46.2708 40.9782 45.162 39.5079 43.4138C37.9647 41.5765 37.2983 39.2861 37.5762 36.7609C37.7651 35.0478 38.534 33.3616 39.7318 32.037C41.5771 29.9974 44.5906 28.8535 47.2561 29.1854C48.5915 29.3526 49.9512 29.8949 51.1167 30.7285C52.8325 31.956 54.141 33.8715 54.6158 35.8517C54.7291 36.3238 54.7777 36.6557 54.8154 37.233C54.8667 37.9965 54.8019 38.2933 54.5349 38.5469M31.8163 45.8796C31.7138 46.0577 31.4899 46.2843 31.3469 46.3571C31.1311 46.465 30.7669 46.5028 30.4512 46.4488C30.2866 46.4219 30.1032 46.3328 29.9629 46.2141C29.8388 46.1089 29.6392 45.858 29.569 45.7177C29.542 45.6665 28.757 43.5352 27.8262 40.983C26.8955 38.4309 25.9593 35.876 25.7489 35.3068C25.5384 34.7375 25.1311 33.6368 24.8451 32.8571C23.9197 30.3481 23.9197 30.3535 23.9737 30.0028C24.033 29.6062 24.2597 29.2906 24.5672 29.1665C24.6994 29.1125 24.7722 29.1044 25.0501 29.1044C25.328 29.1044 25.4008 29.1152 25.533 29.1665C25.7327 29.2447 25.9485 29.4201 26.0456 29.5765C26.0861 29.6413 27.1544 32.5361 28.4278 36.0055C29.6985 39.4749 30.7453 42.3023 30.7534 42.2915C30.775 42.2699 30.9746 41.7384 35.7687 28.9641C37.6895 23.8463 39.4458 19.1683 39.6724 18.5693C39.8991 17.9704 40.1149 17.4308 40.1553 17.3715C40.2552 17.2285 40.4656 17.072 40.6518 16.9992C40.846 16.9237 41.3073 16.9156 41.4935 16.9857C41.7714 17.0909 42.0358 17.3688 42.1518 17.6791C42.2246 17.8787 42.2273 18.1431 42.1518 18.34C42.1221 18.421 42.025 18.688 41.9332 18.9362C41.5798 19.9102 37.1311 31.9506 36.4053 33.8904C34.7273 38.3877 31.9431 45.653 31.8109 45.8769M24.1383 38.01C24.0816 38.358 23.8874 38.6062 23.542 38.7789L23.3586 38.8706L21.8343 38.8868C20.9953 38.8949 17.8145 38.9057 14.7633 38.9084H9.21918V38.9893C9.21918 39.0999 9.38645 39.7447 9.49166 40.0226C9.70479 40.5972 10.1364 41.3472 10.5573 41.8625C11.4962 43.0172 12.9098 43.8346 14.4314 44.1071C14.739 44.1611 14.8766 44.1692 15.4782 44.1692C16.2336 44.1692 16.4548 44.1449 17.0861 43.9938C18.087 43.7483 19.1338 43.1602 19.9728 42.3724C20.2399 42.1215 20.5744 42.019 20.944 42.0676C21.7048 42.1728 22.1338 43.0091 21.7884 43.7159C21.6293 44.0424 20.774 44.8436 20.1481 45.2564C19.2147 45.8715 18.0546 46.2438 16.6329 46.3868C16.239 46.43 15.2246 46.4462 14.8199 46.4192C12.7318 46.2816 10.7785 45.3967 9.30012 43.9156C8.41253 43.028 7.80821 42.0756 7.34688 40.84C6.70209 39.1134 6.66972 36.912 7.26055 35.126C8.40443 31.662 11.5636 29.3256 15.3838 29.126C16.5249 29.0666 17.9251 29.3715 19.0933 29.9327C20.051 30.3913 20.8118 30.9309 21.5618 31.6863C22.9458 33.0729 23.8577 34.8589 24.0897 36.6368C24.1464 37.0792 24.1706 37.7969 24.1356 38.01M79.5897 37.4138C79.3712 34.1925 78.8748 31.3679 78.0088 28.4461C76.3334 22.7888 73.3172 17.4416 69.3406 13.0711C64.3658 7.59991 58.1149 3.67185 51.1032 1.60261C48.2219 0.750087 45.435 0.267173 42.176 0.0459496C41.4854 8.62834e-05 38.882 -0.0161008 38.0996 0.0189712C33.3892 0.240194 28.9863 1.20332 24.7183 2.94613C23.0861 3.6125 21.1059 4.59991 19.533 5.53066C13.846 8.89487 9.05461 13.662 5.64454 19.3436C2.83609 24.0379 1.01234 29.2825 0.324393 34.6647C0.0680983 36.6665 -0.0209306 38.215 0.00335001 40.3005C0.0249328 41.9435 0.089681 43.028 0.256947 44.4363C0.777631 48.8364 1.92691 52.8562 3.8181 56.8733C4.0663 57.4021 4.61127 58.4758 4.6976 58.608C4.71918 58.6404 4.74886 58.6674 4.76504 58.6674L74.9117 58.6485C74.9683 58.6134 75.5969 57.3832 75.953 56.6116C78.1032 51.9632 79.2741 47.2798 79.6032 41.9974C79.6572 41.1206 79.6491 38.296 79.5897 37.4111" fill="#041282"/>
<path d="M18.2969 32.1156C17.3634 31.6489 16.5055 31.4465 15.4668 31.4492C14.4336 31.4492 13.6755 31.6273 12.715 32.0967C11.6494 32.6147 10.7969 33.3593 10.1737 34.3117C9.93357 34.6759 9.60443 35.353 9.47224 35.7577C9.34274 36.1516 9.23753 36.5644 9.26181 36.6021C9.28069 36.6318 21.7285 36.6372 21.7474 36.6075C21.7852 36.5428 21.5235 35.6957 21.3401 35.2802C20.7168 33.8881 19.6809 32.809 18.2969 32.1183" fill="#041282"/>
</svg>
