<svg width="188" height="59" viewBox="0 0 188 59" fill="none" xmlns="http://www.w3.org/2000/svg">
<path d="M43.9536 29.335C43.9536 37.4358 37.3943 44.0025 29.3025 44.0025C21.2107 44.0025 14.6514 37.4358 14.6514 29.335H43.9536Z" fill="#0066CC" fill-opacity="0.6"/>
<path d="M14.6514 29.335C14.6514 21.2341 21.2107 14.6675 29.3025 14.6675C37.3943 14.6675 43.9536 21.2341 43.9536 29.335H14.6514Z" fill="#0066CC" fill-opacity="0.2"/>
<path d="M44.8427 13.777C53.4239 22.3692 53.4239 36.3004 44.8427 44.8926M38.5984 9.39284C30.4626 5.59102 20.4793 7.05337 13.7618 13.7784C11.0718 16.4628 9.12626 19.8021 8.1167 23.4678M38.5984 49.2767C30.4626 53.0785 20.4793 51.6162 13.7618 44.8911C11.0718 42.2067 9.12626 38.8674 8.1167 35.2018" stroke="black" stroke-width="2" stroke-linecap="round"/>
<path d="M81.2977 39.6023V15.9876H85.6784V39.6023H81.2977ZM66.1675 39.6023V15.9876H70.5482V39.6023H66.1675ZM67.9872 29.8865V25.7708H83.4207V29.8865H67.9872ZM97.1209 39.9396C95.8404 39.9396 94.7284 39.658 93.7849 39.0962C92.8379 38.5077 92.0872 37.6504 91.6282 36.6336C91.1345 35.554 90.8869 34.2721 90.8869 32.7877V21.8238H95.0331V31.9106C95.0331 32.8552 95.1782 33.6649 95.4697 34.3396C95.7628 34.9923 96.1891 35.4983 96.7503 35.8577C97.3129 36.217 97.9868 36.3974 98.7721 36.3974C99.3567 36.3974 99.8856 36.3079 100.356 36.1275C100.829 35.9387 101.263 35.6642 101.636 35.3179C101.997 34.9585 102.277 34.542 102.479 34.0697C102.681 33.5754 102.782 33.0459 102.782 32.4841V21.8238H106.928V39.6023H102.885L102.816 35.8914L103.557 35.4866C103.283 36.3492 102.81 37.1351 102.176 37.7806C101.547 38.4333 100.794 38.9613 99.9193 39.3661C99.0365 39.75 98.0834 39.9453 97.1209 39.9396ZM121.254 39.9396C120.467 39.9395 119.684 39.8258 118.929 39.6023C118.215 39.3679 117.535 39.0388 116.907 38.6239C116.338 38.2521 115.827 37.7973 115.391 37.2745C114.987 36.7568 114.717 36.2405 114.582 35.7227L115.559 35.2842L115.458 39.5348H111.448V14.6382H115.595V25.9395L114.852 25.6021C114.965 25.0624 115.211 24.5563 115.593 24.0841C116.017 23.5719 116.517 23.1282 117.076 22.7684C117.66 22.3636 118.301 22.0497 118.997 21.8238C119.678 21.5789 120.397 21.4533 121.121 21.4527C122.715 21.4527 124.119 21.8458 125.332 22.6334C126.567 23.4211 127.534 24.5109 128.23 25.9058C128.948 27.2992 129.308 28.8862 129.308 30.6624C129.308 32.4621 128.959 34.058 128.263 35.4528C127.567 36.8462 126.6 37.9492 125.365 38.7589C124.152 39.5465 122.782 39.9396 121.254 39.9396ZM120.378 36.2962C121.322 36.2962 122.166 36.0601 122.905 35.5878C123.647 35.0935 124.231 34.429 124.658 33.5974C125.084 32.7423 125.298 31.764 125.298 30.6624C125.298 29.5829 125.084 28.6266 124.658 27.7949C124.28 26.9936 123.685 26.3154 122.939 25.8383C122.198 25.366 121.344 25.1298 120.378 25.1298C119.411 25.1298 118.558 25.366 117.817 25.8383C117.067 26.32 116.462 26.9962 116.065 27.7949C115.638 28.6266 115.425 29.5829 115.425 30.6624C115.425 31.764 115.638 32.7423 116.065 33.5974C116.491 34.429 117.076 35.0935 117.817 35.5878C118.558 36.0601 119.413 36.2962 120.378 36.2962ZM142.472 39.9396C141.685 39.9395 140.902 39.8258 140.147 39.6023C139.432 39.3679 138.752 39.0388 138.125 38.6239C137.555 38.2521 137.044 37.7973 136.609 37.2745C136.204 36.7568 135.935 36.2405 135.8 35.7227L136.777 35.2842L136.676 39.5348H132.666V14.6382H136.811V25.9395L136.069 25.6021C136.182 25.0624 136.428 24.5563 136.811 24.0841C137.235 23.5719 137.735 23.1282 138.294 22.7684C138.878 22.3636 139.518 22.0497 140.214 21.8238C140.895 21.579 141.614 21.4535 142.337 21.4527C143.933 21.4527 145.336 21.8458 146.549 22.6334C147.785 23.4211 148.752 24.5109 149.447 25.9058C150.167 27.2992 150.526 28.8862 150.526 30.6624C150.526 32.4621 150.177 34.058 149.481 35.4528C148.785 36.8462 147.818 37.9492 146.583 38.7589C145.37 39.5465 144 39.9396 142.472 39.9396ZM141.596 36.2962C142.539 36.2962 143.382 36.0601 144.123 35.5878C144.865 35.0935 145.449 34.429 145.875 33.5974C146.302 32.7423 146.516 31.764 146.516 30.6624C146.516 29.5829 146.302 28.6266 145.875 27.7949C145.498 26.9936 144.902 26.3154 144.157 25.8383C143.416 25.366 142.561 25.1298 141.596 25.1298C140.629 25.1298 139.776 25.366 139.035 25.8383C138.285 26.32 137.679 26.9962 137.283 27.7949C136.856 28.6266 136.642 29.5829 136.642 30.6624C136.642 31.764 136.856 32.7423 137.283 33.5974C137.709 34.429 138.294 35.0935 139.035 35.5878C139.776 36.0601 140.63 36.2962 141.596 36.2962ZM153.917 39.6023V14.6382H158.096V39.6023H153.917ZM170.422 39.9396C168.646 39.9396 167.062 39.5465 165.671 38.7589C164.297 37.9688 163.157 36.828 162.368 35.4528C161.56 34.0594 161.155 32.4724 161.155 30.6962C161.155 28.9199 161.56 27.3344 162.368 25.9395C163.152 24.5693 164.294 23.4382 165.671 22.6672C167.062 21.8575 168.646 21.4527 170.422 21.4527C172.174 21.4527 173.746 21.8575 175.14 22.6672C176.511 23.4336 177.643 24.5665 178.408 25.9395C179.217 27.3329 179.621 28.9199 179.621 30.6962C179.621 32.4724 179.217 34.058 178.408 35.4528C177.638 36.8307 176.508 37.9733 175.14 38.7589C173.746 39.5465 172.174 39.9396 170.422 39.9396ZM170.422 36.2625C171.388 36.2625 172.242 36.0146 172.983 35.5203C173.746 35.026 174.341 34.3616 174.769 33.5299C175.217 32.6983 175.431 31.7537 175.409 30.6962C175.431 29.6166 175.217 28.6603 174.769 27.8287C174.366 27.0235 173.748 26.3461 172.983 25.872C172.242 25.3777 171.388 25.1298 170.422 25.1298C169.493 25.1192 168.58 25.3769 167.794 25.872C167.022 26.3525 166.402 27.0428 166.008 27.8624C165.58 28.694 165.367 29.6386 165.367 30.6962C165.367 31.7522 165.58 32.6983 166.008 33.5299C166.434 34.3616 167.029 35.026 167.794 35.5203C168.58 36.0154 169.493 36.2731 170.422 36.2625Z" fill="black"/>
</svg>
