<svg width="179" height="59" viewBox="0 0 179 59" fill="none" xmlns="http://www.w3.org/2000/svg">
<path d="M13.6099 6.97998H44.1999C45.7799 6.97998 47.0699 8.26998 47.0699 9.84998V37.4C47.0699 38.98 45.7799 40.27 44.1999 40.27H3.0199C1.4399 40.27 0.149902 38.98 0.149902 37.4V20.45C0.149902 13.01 6.1799 6.97998 13.6099 6.97998Z" fill="#57AA74"/>
<path d="M13.6099 6.98H41.8299V5.87C41.8299 4.78 40.9399 3.88 39.8399 3.88H19.8399C19.1999 2.77 18.5799 1.68 18.1199 0.75C17.8999 0.31 17.2499 0 16.5099 0H5.3199C4.5799 0 3.8999 0.29 3.7099 0.74C2.6099 3.31 1.6599 7.18 0.889902 11.81C0.419902 14.66 0.149902 17.87 0.149902 20.44C0.149902 13.01 6.1799 6.98 13.6099 6.98Z" fill="#003527"/>
<path d="M35.47 24.0098C35.47 24.0798 35.43 24.1298 35.38 24.1698C29.3 29.0098 24.12 30.8198 19.96 29.6098C16.26 28.5398 14.62 25.7198 14.12 24.5998H11.12C10.76 24.5998 10.52 24.2998 10.52 23.9998C10.52 23.6998 10.75 23.3998 11.12 23.3998H14.12C14.62 22.2698 16.26 19.4598 19.96 18.3898C24.11 17.1798 29.31 18.9998 35.38 23.8398C35.43 23.8798 35.46 23.9398 35.47 23.9998" fill="#003527"/>
<path d="M2.95 58.6498C2.35 58.6498 1.79 58.5098 1.29 58.2398C0.78 57.9698 0.35 57.5798 0 57.0698L0.43 56.6298C0.78 57.1398 1.17 57.5098 1.61 57.7298C2.04 57.9498 2.5 58.0598 2.99 58.0598C3.41 58.0598 3.79 57.9898 4.13 57.8398C4.47 57.6898 4.73 57.4898 4.93 57.2298C5.13 56.9698 5.22 56.6798 5.22 56.3498C5.22 55.9798 5.12 55.6898 4.91 55.4798C4.71 55.2698 4.43 55.0998 4.07 54.9598C3.71 54.8198 3.3 54.6898 2.83 54.5498C2.32 54.4098 1.88 54.2498 1.52 54.0698C1.16 53.8898 0.88 53.6698 0.69 53.3898C0.5 53.1198 0.4 52.7598 0.4 52.3198C0.4 51.8798 0.52 51.5098 0.75 51.1698C0.98 50.8298 1.29 50.5698 1.69 50.3798C2.09 50.1898 2.52 50.0898 3.01 50.0898C3.66 50.0898 4.19 50.2298 4.6 50.4998C5.02 50.7698 5.37 51.1298 5.66 51.5898L5.22 52.0198C4.96 51.6098 4.65 51.2898 4.29 51.0498C3.93 50.8098 3.51 50.6898 3 50.6898C2.62 50.6898 2.28 50.7598 1.98 50.8998C1.68 51.0398 1.44 51.2298 1.27 51.4798C1.09 51.7298 1.01 52.0098 1.01 52.3298C1.01 52.7798 1.18 53.1298 1.53 53.3598C1.88 53.5898 2.43 53.7998 3.2 53.9898C3.72 54.1298 4.18 54.2798 4.57 54.4698C4.96 54.6498 5.27 54.8898 5.49 55.1798C5.71 55.4698 5.82 55.8498 5.82 56.3098C5.82 56.7698 5.69 57.1598 5.45 57.5098C5.2 57.8598 4.86 58.1398 4.43 58.3498C4 58.5498 3.51 58.6598 2.96 58.6598H2.95V58.6498Z" fill="#1A1A1A"/>
<path d="M10.0401 58.0499C10.5301 58.0499 10.9801 57.9399 11.3601 57.6999C11.7501 57.4699 12.0501 57.1499 12.2701 56.7499C12.4901 56.3499 12.6001 55.8899 12.6001 55.3699C12.6001 54.8499 12.4901 54.4199 12.2701 54.0199C12.0501 53.6199 11.7501 53.3099 11.3601 53.0899C10.9701 52.8699 10.5301 52.7499 10.0401 52.7499C9.55008 52.7499 9.09008 52.8599 8.70008 53.0899C8.31008 53.3199 8.01008 53.6199 7.79008 54.0199C7.57008 54.4199 7.46008 54.8699 7.46008 55.3699C7.46008 55.8699 7.57008 56.3499 7.79008 56.7499C8.01008 57.1499 8.31008 57.4699 8.70008 57.6999C9.09008 57.9299 9.53008 58.0499 10.0401 58.0499ZM10.0401 58.6499C9.42008 58.6499 8.87008 58.5099 8.38008 58.2299C7.90008 57.9499 7.52008 57.5599 7.24008 57.0699C6.97008 56.5799 6.83008 56.0099 6.83008 55.3799C6.83008 54.7499 6.97008 54.2099 7.24008 53.7199C7.51008 53.2399 7.89008 52.8599 8.38008 52.5799C8.86008 52.3099 9.42008 52.1699 10.0401 52.1699C10.6601 52.1699 11.2101 52.3099 11.7001 52.5799C12.1801 52.8499 12.5601 53.2299 12.8301 53.7199C13.1001 54.1999 13.2401 54.7599 13.2401 55.3799C13.2401 55.9999 13.1001 56.5799 12.8301 57.0699C12.5601 57.5599 12.1801 57.9499 11.7001 58.2299C11.2201 58.5099 10.6701 58.6499 10.0401 58.6499Z" fill="#1A1A1A"/>
<path d="M15.12 49.6602H14.52V58.5202H15.12V49.6602Z" fill="#1A1A1A"/>
<path d="M19.0698 58.6501C18.2998 58.6501 17.7298 58.4401 17.3698 58.0301C16.9998 57.6101 16.8198 56.9701 16.8198 56.0801V52.3101H17.4198V56.0601C17.4198 56.7501 17.5598 57.2701 17.8298 57.5901C18.0998 57.9201 18.5198 58.0801 19.0898 58.0801C19.4798 58.0801 19.8398 57.9901 20.1498 57.8101C20.4698 57.6301 20.7198 57.3801 20.9098 57.0901C21.0998 56.7901 21.1898 56.4701 21.1898 56.1301V52.3201H21.7898V58.5501H21.2098L21.1598 57.4001C21.0498 57.6301 20.8798 57.8401 20.6598 58.0401C20.4398 58.2301 20.1898 58.3801 19.8998 58.5001C19.6198 58.6101 19.3398 58.6701 19.0598 58.6701L19.0698 58.6501Z" fill="#1A1A1A"/>
<path d="M24.4902 58.5299V52.8499H22.9902V52.2899H24.4902V50.6299H25.0802V52.2899H26.7602V52.8499H25.0802V58.5299H24.4902Z" fill="#1A1A1A"/>
<path d="M27.8599 52.3002H28.4599V58.5302H27.8599V52.3002ZM28.1599 50.9902C27.7899 50.9902 27.6099 50.8102 27.6099 50.4502C27.6099 50.2902 27.6599 50.1602 27.7499 50.0602C27.8399 49.9602 27.9799 49.9102 28.1599 49.9102C28.5299 49.9102 28.7099 50.0902 28.7099 50.4502C28.7099 50.6102 28.6599 50.7402 28.5699 50.8402C28.4799 50.9402 28.3399 50.9902 28.1599 50.9902Z" fill="#1A1A1A"/>
<path d="M32.9497 58.0504C33.4397 58.0504 33.8897 57.9404 34.2697 57.7004C34.6597 57.4704 34.9597 57.1504 35.1797 56.7504C35.3997 56.3504 35.5097 55.8904 35.5097 55.3704C35.5097 54.8504 35.3997 54.4204 35.1797 54.0204C34.9597 53.6204 34.6597 53.3104 34.2697 53.0904C33.8797 52.8704 33.4397 52.7504 32.9497 52.7504C32.4597 52.7504 31.9997 52.8604 31.6097 53.0904C31.2197 53.3204 30.9197 53.6204 30.6997 54.0204C30.4797 54.4204 30.3697 54.8704 30.3697 55.3704C30.3697 55.8704 30.4797 56.3504 30.6997 56.7504C30.9197 57.1504 31.2197 57.4704 31.6097 57.7004C31.9997 57.9304 32.4397 58.0504 32.9497 58.0504ZM32.9497 58.6504C32.3297 58.6504 31.7797 58.5104 31.2897 58.2304C30.8097 57.9504 30.4297 57.5604 30.1497 57.0704C29.8797 56.5804 29.7397 56.0104 29.7397 55.3804C29.7397 54.7504 29.8797 54.2104 30.1497 53.7204C30.4197 53.2404 30.7997 52.8604 31.2897 52.5804C31.7697 52.3104 32.3297 52.1704 32.9497 52.1704C33.5697 52.1704 34.1197 52.3104 34.6097 52.5804C35.0897 52.8504 35.4697 53.2304 35.7397 53.7204C36.0097 54.2004 36.1497 54.7604 36.1497 55.3804C36.1497 56.0004 36.0097 56.5804 35.7397 57.0704C35.4697 57.5604 35.0897 57.9504 34.6097 58.2304C34.1297 58.5104 33.5797 58.6504 32.9497 58.6504Z" fill="#1A1A1A"/>
<path d="M37.4097 58.5304V52.3004H37.9897L38.0397 53.4504C38.1497 53.2204 38.3197 53.0004 38.5597 52.8104C38.7897 52.6104 39.0597 52.4604 39.3597 52.3404C39.6597 52.2304 39.9797 52.1704 40.3197 52.1704C40.9797 52.1704 41.4897 52.3804 41.8397 52.8004C42.1897 53.2204 42.3697 53.8704 42.3697 54.7604V58.5304H41.7697V54.7804C41.7697 54.0904 41.6297 53.5704 41.3597 53.2404C41.0897 52.9104 40.6797 52.7404 40.1497 52.7404C39.7397 52.7404 39.3797 52.8304 39.0597 53.0104C38.7397 53.1904 38.4897 53.4404 38.2997 53.7404C38.1197 54.0404 38.0297 54.3704 38.0297 54.7104V58.5204H37.4197L37.4097 58.5304Z" fill="#1A1A1A"/>
<path d="M46.1099 58.6504C45.5699 58.6504 45.0799 58.5404 44.6599 58.3304C44.2399 58.1204 43.9099 57.8604 43.6899 57.5604L44.1499 57.1704C44.5999 57.7704 45.2599 58.0704 46.1499 58.0704C46.6299 58.0704 47.0199 57.9704 47.3199 57.7704C47.6199 57.5704 47.7699 57.3004 47.7699 56.9404C47.7699 56.6304 47.6199 56.3604 47.3299 56.1504C47.1899 56.0604 47.0199 55.9704 46.8099 55.8904C46.5999 55.8104 46.3599 55.7304 46.0799 55.6504C45.6599 55.5204 45.2999 55.4004 44.9999 55.2904C44.7099 55.1804 44.4699 55.0404 44.2999 54.8704C44.0499 54.6204 43.9199 54.3004 43.9199 53.9204C43.9199 53.5804 44.0099 53.2704 44.1899 53.0104C44.3699 52.7504 44.6199 52.5404 44.9499 52.3904C45.2699 52.2404 45.6299 52.1704 46.0399 52.1704C46.4899 52.1704 46.9199 52.2604 47.3299 52.4504C47.7499 52.6404 48.0899 52.8804 48.3599 53.1704L47.9499 53.6104C47.7099 53.3504 47.4399 53.1304 47.1299 52.9604C46.8199 52.7904 46.4699 52.7104 46.0699 52.7104C45.6299 52.7104 45.2699 52.8204 44.9799 53.0404C44.6899 53.2604 44.5499 53.5404 44.5499 53.8704C44.5499 54.1204 44.6499 54.3204 44.8499 54.4904C44.9899 54.6004 45.1699 54.7004 45.3899 54.7804C45.6199 54.8604 45.8999 54.9504 46.2399 55.0404C46.5399 55.1204 46.8099 55.2004 47.0399 55.2804C47.2699 55.3604 47.4699 55.4604 47.6399 55.5704C48.1399 55.8904 48.3999 56.3304 48.3999 56.8704C48.3999 57.2204 48.2999 57.5204 48.1099 57.7804C47.9199 58.0404 47.6499 58.2504 47.3099 58.4004C46.9599 58.5504 46.5699 58.6304 46.1199 58.6304L46.1099 58.6504Z" fill="#1A1A1A"/>
<path d="M53.9297 58.5302V52.8502H52.7197V52.3002H53.9297V51.0902C53.9297 50.7002 54.0597 50.3702 54.3297 50.1102C54.5997 49.8502 54.9497 49.7202 55.3997 49.7202C55.6497 49.7202 55.8797 49.7602 56.0697 49.8502C56.2597 49.9402 56.4297 50.0602 56.5597 50.2202L56.3297 50.7002C56.1797 50.5302 56.0197 50.4202 55.8497 50.3602C55.6797 50.3002 55.5197 50.2702 55.3697 50.2702C55.0997 50.2702 54.8897 50.3402 54.7397 50.4902C54.5897 50.6402 54.5197 50.8402 54.5197 51.1002V52.3002H56.2197V52.8502H54.5197V58.5302H53.9197H53.9297Z" fill="#1A1A1A"/>
<path d="M60.0201 58.0504C60.5101 58.0504 60.9601 57.9404 61.3401 57.7004C61.7301 57.4704 62.0301 57.1504 62.2501 56.7504C62.4701 56.3504 62.5801 55.8904 62.5801 55.3704C62.5801 54.8504 62.4701 54.4204 62.2501 54.0204C62.0301 53.6204 61.7301 53.3104 61.3401 53.0904C60.9501 52.8704 60.5101 52.7504 60.0201 52.7504C59.5301 52.7504 59.0701 52.8604 58.6801 53.0904C58.2901 53.3104 57.9901 53.6204 57.7701 54.0204C57.5501 54.4204 57.4401 54.8704 57.4401 55.3704C57.4401 55.8704 57.5501 56.3504 57.7701 56.7504C57.9901 57.1504 58.2901 57.4704 58.6801 57.7004C59.0701 57.9304 59.5101 58.0504 60.0201 58.0504ZM60.0201 58.6504C59.4001 58.6504 58.8501 58.5104 58.3601 58.2304C57.8801 57.9504 57.5001 57.5604 57.2201 57.0704C56.9501 56.5804 56.8101 56.0104 56.8101 55.3804C56.8101 54.7504 56.9501 54.2104 57.2201 53.7204C57.4901 53.2404 57.8701 52.8604 58.3601 52.5804C58.8401 52.3104 59.4001 52.1704 60.0201 52.1704C60.6401 52.1704 61.1901 52.3104 61.6801 52.5804C62.1601 52.8504 62.5401 53.2304 62.8101 53.7204C63.0801 54.2004 63.2201 54.7604 63.2201 55.3804C63.2201 56.0004 63.0801 56.5804 62.8101 57.0704C62.5401 57.5604 62.1601 57.9504 61.6801 58.2304C61.2001 58.5104 60.6501 58.6504 60.0201 58.6504Z" fill="#1A1A1A"/>
<path d="M64.4697 58.5304V52.3004H65.0497L65.0997 53.5004C65.2597 53.1404 65.4997 52.8304 65.8197 52.5604C66.1397 52.3004 66.5497 52.1704 67.0297 52.1704C67.1697 52.1704 67.2897 52.1804 67.4097 52.2004C67.5197 52.2204 67.6297 52.2404 67.7297 52.2704L67.5497 52.9604C67.4397 52.9104 67.3297 52.8804 67.2297 52.8604C67.1297 52.8404 67.0297 52.8404 66.9597 52.8404C66.5397 52.8404 66.1797 52.9404 65.9097 53.1304C65.6297 53.3304 65.4197 53.5804 65.2897 53.9004C65.1497 54.2204 65.0897 54.5504 65.0897 54.9104V58.5304H64.4897H64.4697Z" fill="#1A1A1A"/>
<path d="M74.5197 58.0504C74.9697 58.0504 75.3897 57.9404 75.7497 57.7104C76.1097 57.4804 76.3997 57.1704 76.6097 56.7704C76.8197 56.3704 76.9297 55.9204 76.9297 55.4004C76.9297 54.8804 76.8297 54.4404 76.6197 54.0404C76.4097 53.6504 76.1297 53.3404 75.7597 53.1004C75.3997 52.8704 74.9797 52.7604 74.5197 52.7604C74.0597 52.7604 73.6297 52.8704 73.2697 53.1004C72.9097 53.3304 72.6197 53.6404 72.4097 54.0404C72.1997 54.4404 72.0997 54.8904 72.0997 55.4004C72.0997 55.9104 72.1997 56.3604 72.4097 56.7604C72.6097 57.1604 72.8997 57.4804 73.2597 57.7104C73.6197 57.9404 74.0397 58.0604 74.5297 58.0604L74.5197 58.0504ZM74.4397 58.6504C73.8697 58.6504 73.3697 58.5104 72.9197 58.2304C72.4697 57.9504 72.1197 57.5704 71.8597 57.0804C71.5997 56.5904 71.4697 56.0404 71.4697 55.4204C71.4697 54.8004 71.5997 54.2304 71.8697 53.7404C72.1397 53.2504 72.4897 52.8704 72.9397 52.5904C73.3897 52.3104 73.8897 52.1704 74.4397 52.1704C74.9897 52.1704 75.4497 52.3004 75.8797 52.5504C76.3097 52.8004 76.6397 53.1304 76.8597 53.5404L76.9097 52.3104H77.4897V58.5404H76.8897V57.2504C76.6697 57.6704 76.3397 58.0104 75.8997 58.2704C75.4697 58.5304 74.9797 58.6604 74.4397 58.6604V58.6504Z" fill="#1A1A1A"/>
<path d="M84.6099 58.6504C84.0699 58.6504 83.5799 58.5404 83.1599 58.3304C82.7399 58.1204 82.4099 57.8604 82.1899 57.5604L82.6499 57.1704C83.0999 57.7704 83.7599 58.0704 84.6499 58.0704C85.1299 58.0704 85.5199 57.9704 85.8199 57.7704C86.1199 57.5704 86.2699 57.3004 86.2699 56.9404C86.2699 56.6304 86.1199 56.3604 85.8299 56.1504C85.6899 56.0604 85.5199 55.9704 85.3099 55.8904C85.0999 55.8104 84.8599 55.7304 84.5799 55.6504C84.1599 55.5204 83.7999 55.4004 83.4999 55.2904C83.2099 55.1804 82.9699 55.0404 82.7999 54.8704C82.5499 54.6204 82.4199 54.3004 82.4199 53.9204C82.4199 53.5804 82.5099 53.2704 82.6899 53.0104C82.8699 52.7504 83.1199 52.5404 83.4499 52.3904C83.7699 52.2404 84.1299 52.1704 84.5399 52.1704C84.9899 52.1704 85.4199 52.2604 85.8299 52.4504C86.2499 52.6404 86.5899 52.8804 86.8599 53.1704L86.4499 53.6104C86.2099 53.3504 85.9399 53.1304 85.6299 52.9604C85.3199 52.7904 84.9699 52.7104 84.5699 52.7104C84.1299 52.7104 83.7699 52.8204 83.4799 53.0404C83.1899 53.2604 83.0499 53.5404 83.0499 53.8704C83.0499 54.1204 83.1499 54.3204 83.3499 54.4904C83.4899 54.6004 83.6699 54.7004 83.8899 54.7804C84.1199 54.8604 84.3999 54.9504 84.7399 55.0404C85.0399 55.1204 85.3099 55.2004 85.5399 55.2804C85.7699 55.3604 85.9699 55.4604 86.1399 55.5704C86.6399 55.8904 86.8999 56.3304 86.8999 56.8704C86.8999 57.2204 86.7999 57.5204 86.6099 57.7804C86.4199 58.0404 86.1499 58.2504 85.8099 58.4004C85.4599 58.5504 85.0699 58.6304 84.6199 58.6304L84.6099 58.6504Z" fill="#1A1A1A"/>
<path d="M90.5601 58.6501C89.7901 58.6501 89.2201 58.4401 88.8601 58.0301C88.4901 57.6101 88.3101 56.9701 88.3101 56.0801V52.3101H88.9101V56.0601C88.9101 56.7501 89.0501 57.2701 89.3201 57.5901C89.5901 57.9201 90.0101 58.0801 90.5801 58.0801C90.9701 58.0801 91.3301 57.9901 91.6401 57.8101C91.9501 57.6301 92.2101 57.3801 92.4001 57.0901C92.5901 56.7901 92.6801 56.4701 92.6801 56.1301V52.3201H93.2801V58.5501H92.7001L92.6501 57.4001C92.5401 57.6301 92.3701 57.8401 92.1501 58.0401C91.9301 58.2301 91.6801 58.3801 91.3901 58.5001C91.1101 58.6101 90.8301 58.6701 90.5501 58.6701L90.5601 58.6501Z" fill="#1A1A1A"/>
<path d="M97.0499 58.6504C96.5099 58.6504 96.0199 58.5404 95.5999 58.3304C95.1799 58.1204 94.8499 57.8604 94.6299 57.5604L95.0899 57.1704C95.5399 57.7704 96.1999 58.0704 97.0899 58.0704C97.5699 58.0704 97.9599 57.9704 98.2599 57.7704C98.5599 57.5704 98.7099 57.3004 98.7099 56.9404C98.7099 56.6304 98.5599 56.3604 98.2699 56.1504C98.1299 56.0604 97.9599 55.9704 97.7499 55.8904C97.5399 55.8104 97.2999 55.7304 97.0199 55.6504C96.5999 55.5204 96.2399 55.4004 95.9399 55.2904C95.6499 55.1804 95.4099 55.0404 95.2399 54.8704C94.9899 54.6204 94.8599 54.3004 94.8599 53.9204C94.8599 53.5804 94.9499 53.2704 95.1299 53.0104C95.3099 52.7504 95.5599 52.5404 95.8899 52.3904C96.2099 52.2404 96.5699 52.1704 96.9799 52.1704C97.4299 52.1704 97.8599 52.2604 98.2699 52.4504C98.6899 52.6404 99.0299 52.8804 99.2999 53.1704L98.8899 53.6104C98.6499 53.3504 98.3799 53.1304 98.0699 52.9604C97.7599 52.7904 97.4099 52.7104 97.0099 52.7104C96.5699 52.7104 96.2099 52.8204 95.9199 53.0404C95.6299 53.2604 95.4899 53.5404 95.4899 53.8704C95.4899 54.1204 95.5899 54.3204 95.7899 54.4904C95.9299 54.6004 96.1099 54.7004 96.3299 54.7804C96.5599 54.8604 96.8399 54.9504 97.1799 55.0404C97.4799 55.1204 97.7499 55.2004 97.9799 55.2804C98.2099 55.3604 98.4099 55.4604 98.5799 55.5704C99.0799 55.8904 99.3399 56.3304 99.3399 56.8704C99.3399 57.2204 99.2399 57.5204 99.0499 57.7804C98.8599 58.0404 98.5899 58.2504 98.2499 58.4004C97.8999 58.5504 97.5099 58.6304 97.0599 58.6304L97.0499 58.6504Z" fill="#1A1A1A"/>
<path d="M101.71 58.5299V52.8499H100.22V52.2899H101.71V50.6299H102.31V52.2899H103.99V52.8499H102.31V58.5299H101.71Z" fill="#1A1A1A"/>
<path d="M107.57 58.0499C108.02 58.0499 108.44 57.9399 108.8 57.7099C109.16 57.4799 109.45 57.1699 109.66 56.7699C109.87 56.3699 109.98 55.9199 109.98 55.3999C109.98 54.8799 109.88 54.4399 109.67 54.0399C109.46 53.6499 109.18 53.3399 108.81 53.0999C108.45 52.8699 108.03 52.7599 107.57 52.7599C107.11 52.7599 106.68 52.8699 106.32 53.0999C105.96 53.3299 105.67 53.6399 105.46 54.0399C105.25 54.4399 105.15 54.8899 105.15 55.3999C105.15 55.9099 105.25 56.3599 105.46 56.7599C105.66 57.1599 105.95 57.4799 106.31 57.7099C106.67 57.9399 107.09 58.0599 107.58 58.0599L107.57 58.0499ZM107.49 58.6499C106.92 58.6499 106.42 58.5099 105.97 58.2299C105.52 57.9499 105.17 57.5699 104.91 57.0799C104.65 56.5899 104.52 56.0399 104.52 55.4199C104.52 54.7999 104.65 54.2299 104.92 53.7399C105.19 53.2499 105.54 52.8699 105.99 52.5899C106.44 52.3099 106.94 52.1699 107.49 52.1699C108.04 52.1699 108.5 52.2999 108.93 52.5499C109.36 52.7999 109.69 53.1299 109.91 53.5399L109.96 52.3099H110.54V58.5399H109.94V57.2499C109.72 57.6699 109.39 58.0099 108.95 58.2699C108.52 58.5299 108.03 58.6599 107.49 58.6599V58.6499Z" fill="#1A1A1A"/>
<path d="M112.3 52.3002H112.9V58.5302H112.3V52.3002ZM112.6 50.9902C112.23 50.9902 112.05 50.8102 112.05 50.4502C112.05 50.2902 112.1 50.1602 112.2 50.0602C112.29 49.9602 112.43 49.9102 112.61 49.9102C112.98 49.9102 113.16 50.0902 113.16 50.4502C113.16 50.6102 113.11 50.7402 113.01 50.8402C112.92 50.9402 112.78 50.9902 112.6 50.9902Z" fill="#1A1A1A"/>
<path d="M114.67 58.5299V52.2999H115.25L115.3 53.4499C115.41 53.2199 115.58 52.9999 115.82 52.8099C116.05 52.6099 116.32 52.4599 116.62 52.3399C116.92 52.2299 117.24 52.1699 117.58 52.1699C118.24 52.1699 118.75 52.3799 119.1 52.7999C119.45 53.2199 119.63 53.8699 119.63 54.7599V58.5299H119.03V54.7799C119.03 54.0899 118.89 53.5699 118.62 53.2399C118.35 52.9099 117.94 52.7399 117.41 52.7399C117 52.7399 116.64 52.8299 116.32 53.0099C116 53.1899 115.75 53.4399 115.56 53.7399C115.38 54.0399 115.29 54.3699 115.29 54.7099V58.5199H114.68L114.67 58.5299Z" fill="#1A1A1A"/>
<path d="M123.92 58.0499C124.37 58.0499 124.79 57.9399 125.15 57.7099C125.51 57.4799 125.8 57.1699 126.01 56.7699C126.22 56.3699 126.33 55.9199 126.33 55.3999C126.33 54.8799 126.23 54.4399 126.02 54.0399C125.81 53.6499 125.53 53.3399 125.16 53.0999C124.8 52.8699 124.38 52.7599 123.92 52.7599C123.46 52.7599 123.03 52.8699 122.67 53.0999C122.31 53.3299 122.02 53.6399 121.81 54.0399C121.6 54.4399 121.5 54.8899 121.5 55.3999C121.5 55.9099 121.6 56.3599 121.81 56.7599C122.01 57.1599 122.3 57.4799 122.66 57.7099C123.02 57.9399 123.44 58.0599 123.93 58.0599L123.92 58.0499ZM123.84 58.6499C123.27 58.6499 122.77 58.5099 122.32 58.2299C121.87 57.9499 121.52 57.5699 121.26 57.0799C121 56.5899 120.87 56.0399 120.87 55.4199C120.87 54.7999 121 54.2299 121.27 53.7399C121.54 53.2499 121.89 52.8699 122.34 52.5899C122.79 52.3099 123.29 52.1699 123.84 52.1699C124.39 52.1699 124.85 52.2999 125.28 52.5499C125.71 52.7999 126.04 53.1299 126.26 53.5399L126.31 52.3099H126.89V58.5399H126.29V57.2499C126.07 57.6699 125.74 58.0099 125.3 58.2699C124.87 58.5299 124.38 58.6599 123.84 58.6599V58.6499Z" fill="#1A1A1A"/>
<path d="M131.6 58.0499C132.08 58.0499 132.5 57.9399 132.87 57.6999C133.23 57.4699 133.52 57.1499 133.72 56.7499C133.92 56.3499 134.03 55.8999 134.03 55.3999C134.03 54.8999 133.93 54.4399 133.72 54.0399C133.51 53.6499 133.23 53.3399 132.86 53.0999C132.5 52.8699 132.08 52.7599 131.61 52.7599C131.14 52.7599 130.72 52.8699 130.36 53.0999C130 53.3299 129.71 53.6399 129.5 54.0399C129.29 54.4399 129.19 54.8899 129.19 55.3999C129.19 55.9099 129.29 56.3799 129.51 56.7699C129.72 57.1699 130.01 57.4799 130.37 57.7099C130.73 57.9399 131.14 58.0499 131.61 58.0499H131.6ZM131.68 58.6499C131.14 58.6499 130.66 58.5199 130.23 58.2599C129.8 57.9999 129.47 57.6699 129.25 57.2599L129.2 58.5299H128.62V49.6699H129.22V53.6099C129.43 53.1899 129.76 52.8499 130.2 52.5799C130.64 52.3099 131.13 52.1699 131.67 52.1699C132.21 52.1699 132.72 52.3099 133.17 52.5899C133.62 52.8699 133.97 53.2499 134.24 53.7399C134.51 54.2299 134.64 54.7899 134.64 55.4199C134.64 56.0499 134.51 56.5999 134.25 57.0799C133.99 57.5699 133.64 57.9499 133.19 58.2299C132.74 58.5099 132.23 58.6499 131.67 58.6499H131.68Z" fill="#1A1A1A"/>
<path d="M136.53 49.6602H135.93V58.5202H136.53V49.6602Z" fill="#1A1A1A"/>
<path d="M140.69 52.7699C140.08 52.7699 139.55 52.9499 139.12 53.3199C138.69 53.6899 138.43 54.2199 138.35 54.9299H142.84V54.8599C142.84 54.5399 142.76 54.2199 142.6 53.8999C142.44 53.5799 142.21 53.3099 141.89 53.0999C141.57 52.8899 141.17 52.7799 140.68 52.7799L140.69 52.7699ZM140.78 58.6499C140.18 58.6499 139.65 58.5099 139.18 58.2399C138.71 57.9699 138.35 57.5899 138.08 57.0999C137.82 56.6099 137.68 56.0499 137.68 55.3999C137.68 54.7499 137.81 54.2199 138.06 53.7399C138.31 53.2499 138.67 52.8699 139.12 52.5899C139.57 52.3099 140.09 52.1699 140.68 52.1699C141.27 52.1699 141.76 52.2999 142.18 52.5499C142.6 52.7999 142.91 53.1499 143.13 53.5999C143.35 54.0499 143.45 54.5699 143.42 55.1599V55.4799H138.31C138.33 56.2599 138.56 56.8899 139 57.3599C139.44 57.8299 140.06 58.0599 140.87 58.0599C141.16 58.0599 141.47 58.0099 141.78 57.9199C142.09 57.8199 142.44 57.6199 142.83 57.2999L143.14 57.7399C142.88 57.9899 142.55 58.2099 142.14 58.3899C141.74 58.5699 141.27 58.6599 140.76 58.6599L140.78 58.6499Z" fill="#1A1A1A"/>
<path d="M149.43 58.53L147.23 52.3H147.92L149.61 57.3L151.42 53.23H151.78L153.55 57.23L155.28 52.29H155.93L153.73 58.52H153.5L151.6 54.14L149.69 58.52H149.43V58.53Z" fill="#1A1A1A"/>
<path d="M159.44 58.0499C159.93 58.0499 160.38 57.9399 160.76 57.6999C161.15 57.4699 161.45 57.1499 161.67 56.7499C161.89 56.3499 162 55.8899 162 55.3699C162 54.8499 161.89 54.4199 161.67 54.0199C161.45 53.6199 161.15 53.3099 160.76 53.0899C160.37 52.8699 159.93 52.7499 159.44 52.7499C158.95 52.7499 158.49 52.8599 158.1 53.0899C157.71 53.3099 157.41 53.6199 157.19 54.0199C156.97 54.4199 156.86 54.8699 156.86 55.3699C156.86 55.8699 156.97 56.3499 157.19 56.7499C157.41 57.1499 157.71 57.4699 158.1 57.6999C158.49 57.9299 158.93 58.0499 159.44 58.0499ZM159.44 58.6499C158.82 58.6499 158.27 58.5099 157.78 58.2299C157.3 57.9499 156.92 57.5599 156.64 57.0699C156.37 56.5799 156.23 56.0099 156.23 55.3799C156.23 54.7499 156.37 54.2099 156.64 53.7199C156.91 53.2399 157.29 52.8599 157.78 52.5799C158.26 52.3099 158.82 52.1699 159.44 52.1699C160.06 52.1699 160.61 52.3099 161.1 52.5799C161.58 52.8499 161.96 53.2299 162.23 53.7199C162.5 54.1999 162.64 54.7599 162.64 55.3799C162.64 55.9999 162.5 56.5799 162.23 57.0699C161.96 57.5599 161.58 57.9499 161.1 58.2299C160.62 58.5099 160.07 58.6499 159.44 58.6499Z" fill="#1A1A1A"/>
<path d="M163.9 58.5299V52.2999H164.48L164.53 53.4999C164.69 53.1399 164.93 52.8299 165.25 52.5599C165.57 52.2999 165.98 52.1699 166.46 52.1699C166.6 52.1699 166.72 52.1799 166.84 52.1999C166.95 52.2199 167.06 52.2399 167.16 52.2699L166.98 52.9599C166.87 52.9099 166.76 52.8799 166.66 52.8599C166.56 52.8399 166.46 52.8399 166.39 52.8399C165.97 52.8399 165.61 52.9399 165.34 53.1299C165.06 53.3299 164.85 53.5799 164.72 53.8999C164.58 54.2199 164.52 54.5499 164.52 54.9099V58.5299H163.92H163.9Z" fill="#1A1A1A"/>
<path d="M168.65 49.6602H168.05V58.5202H168.65V49.6602Z" fill="#1A1A1A"/>
<path d="M172.87 58.0499C173.32 58.0499 173.74 57.9399 174.1 57.7099C174.46 57.4799 174.75 57.1699 174.96 56.7699C175.17 56.3699 175.28 55.9199 175.28 55.3999C175.28 54.8799 175.18 54.4399 174.97 54.0399C174.76 53.6499 174.48 53.3399 174.11 53.0999C173.75 52.8699 173.33 52.7599 172.87 52.7599C172.41 52.7599 171.98 52.8699 171.62 53.0999C171.26 53.3299 170.97 53.6399 170.76 54.0399C170.55 54.4399 170.45 54.8899 170.45 55.3999C170.45 55.9099 170.55 56.3599 170.76 56.7599C170.96 57.1599 171.25 57.4799 171.61 57.7099C171.97 57.9399 172.39 58.0599 172.88 58.0599L172.87 58.0499ZM172.79 58.6499C172.22 58.6499 171.72 58.5099 171.27 58.2299C170.82 57.9499 170.47 57.5699 170.21 57.0799C169.95 56.5899 169.82 56.0399 169.82 55.4199C169.82 54.7999 169.95 54.2299 170.22 53.7399C170.49 53.2499 170.84 52.8699 171.29 52.5899C171.74 52.3099 172.24 52.1699 172.79 52.1699C173.34 52.1699 173.81 52.2999 174.25 52.5599C174.68 52.8199 175.01 53.1599 175.24 53.5699V49.6699H175.84V58.5299H175.26L175.22 57.2599C174.99 57.6699 174.66 57.9999 174.23 58.2599C173.8 58.5199 173.32 58.6499 172.79 58.6499Z" fill="#1A1A1A"/>
<path d="M178.09 58.6497C177.74 58.6497 177.56 58.4497 177.56 58.0497C177.56 57.8697 177.61 57.7297 177.7 57.6197C177.79 57.5097 177.92 57.4497 178.08 57.4497C178.43 57.4497 178.61 57.6497 178.61 58.0497C178.61 58.2297 178.56 58.3697 178.47 58.4797C178.37 58.5897 178.25 58.6497 178.09 58.6497Z" fill="#1A1A1A"/>
<path d="M57.48 34.4401V12.3501H63L63.08 15.9901C63.8 14.7901 64.76 13.8101 65.95 13.0401C67.13 12.2801 68.39 11.8901 69.69 11.8901C70.19 11.8901 70.66 11.9301 71.09 11.9901C71.52 12.0501 71.89 12.1501 72.2 12.2601L70.65 18.5301C70.34 18.3701 69.95 18.2201 69.48 18.1101C69.01 18.0001 68.53 17.9401 68.06 17.9401C66.7 17.9401 65.54 18.4101 64.61 19.3401C63.68 20.2701 63.21 21.4501 63.21 22.8801V34.4301H57.48V34.4401Z" fill="#1A1A1A"/>
<path d="M84.55 16.7898C81.4 16.7898 79.5 18.2098 78.86 21.0598H89.32V20.8898C89.24 19.6898 88.74 18.7098 87.84 17.9398C86.93 17.1698 85.84 16.7898 84.55 16.7898ZM85.14 34.8598C82.77 34.8598 80.69 34.3698 78.91 33.3898C77.12 32.4098 75.74 31.0698 74.75 29.3698C73.76 27.6698 73.27 25.7198 73.27 23.5098C73.27 21.2998 73.75 19.2098 74.71 17.4698C75.67 15.7298 77 14.3498 78.68 13.3498C80.36 12.3498 82.31 11.8398 84.52 11.8398C86.5 11.8398 88.28 12.3198 89.86 13.2798C91.44 14.2398 92.66 15.5498 93.54 17.1898C94.42 18.8398 94.83 20.7198 94.77 22.8398L94.73 24.6398H78.83C79.14 26.2298 79.9 27.4898 81.11 28.4098C82.32 29.3298 83.87 29.7898 85.73 29.7898C86.73 29.7898 87.65 29.6398 88.47 29.3298C89.29 29.0198 90.18 28.4798 91.13 27.6998L93.89 31.5498C92.69 32.6098 91.32 33.4298 89.77 33.9998C88.22 34.5698 86.68 34.8598 85.15 34.8598H85.14Z" fill="#1A1A1A"/>
<path d="M106.65 34.8602C104.61 34.8602 102.8 34.5302 101.21 33.8602C99.6199 33.1902 98.3399 32.2402 97.3599 31.0102L100.96 27.9602C101.79 28.8802 102.74 29.5402 103.8 29.9502C104.86 30.3602 105.94 30.5602 107.02 30.5602C107.89 30.5602 108.58 30.3602 109.11 29.9702C109.64 29.5802 109.91 29.0402 109.91 28.3402C109.91 27.7302 109.66 27.2402 109.16 26.8702C108.66 26.5402 107.46 26.1202 105.56 25.6202C102.74 24.9002 100.75 23.9002 99.5799 22.6502C98.5499 21.5302 98.0299 20.1502 98.0299 18.5102C98.0299 17.2002 98.4199 16.0502 99.1999 15.0602C99.9799 14.0702 101.01 13.3002 102.3 12.7402C103.58 12.1802 104.98 11.9102 106.49 11.9102C108.22 11.9102 109.85 12.2202 111.38 12.8302C112.92 13.4502 114.2 14.2802 115.23 15.3402L112.13 18.7302C111.35 18.0102 110.45 17.4002 109.43 16.9102C108.41 16.4202 107.47 16.1802 106.61 16.1802C104.6 16.1802 103.6 16.8802 103.6 18.2702C103.63 18.9402 103.94 19.4702 104.52 19.8602C105.08 20.2502 106.35 20.7102 108.33 21.2402C110.98 21.9402 112.85 22.8602 113.94 24.0002C114.89 24.9802 115.36 26.2702 115.36 27.8902C115.36 29.2302 114.98 30.4302 114.21 31.4902C113.44 32.5502 112.4 33.3802 111.09 33.9802C109.78 34.5802 108.3 34.8802 106.65 34.8802V34.8602Z" fill="#1A1A1A"/>
<path d="M120.24 12.3499H125.97V34.4399H120.24V12.3499ZM123.09 7.74994C121.97 7.74994 121.1 7.46994 120.47 6.91994C119.84 6.35994 119.53 5.59994 119.53 4.61994C119.53 3.63994 119.85 2.89994 120.47 2.31994C121.1 1.72994 121.97 1.43994 123.09 1.43994C124.21 1.43994 125.07 1.71994 125.68 2.27994C126.29 2.83994 126.6 3.61994 126.6 4.61994C126.6 5.53994 126.28 6.28994 125.66 6.87994C125.03 7.46994 124.18 7.75994 123.09 7.75994V7.74994Z" fill="#1A1A1A"/>
<path d="M138.15 3.47998H132.46V34.44H138.15V3.47998Z" fill="#1A1A1A"/>
<path d="M144.8 12.3499H150.53V34.4399H144.8V12.3499ZM147.65 7.74994C146.53 7.74994 145.66 7.46994 145.03 6.91994C144.4 6.35994 144.09 5.59994 144.09 4.61994C144.09 3.63994 144.41 2.89994 145.03 2.31994C145.66 1.72994 146.53 1.43994 147.65 1.43994C148.77 1.43994 149.63 1.71994 150.24 2.27994C150.85 2.83994 151.16 3.61994 151.16 4.61994C151.16 5.53994 150.84 6.28994 150.22 6.87994C149.59 7.46994 148.74 7.75994 147.65 7.75994V7.74994Z" fill="#1A1A1A"/>
<path d="M167.19 29.8801C168.31 29.8801 169.31 29.6001 170.2 29.0201C171.09 28.4501 171.78 27.6701 172.27 26.7001C172.76 25.7201 173 24.6101 173 23.3501C173 22.0901 172.75 20.9801 172.27 20.0001C171.78 19.0201 171.09 18.2601 170.2 17.7001C169.31 17.1401 168.3 16.8601 167.19 16.8601C166.08 16.8601 165.03 17.1401 164.13 17.7001C163.24 18.2601 162.54 19.0201 162.04 20.0001C161.54 20.9801 161.29 22.0901 161.29 23.3501C161.29 24.6101 161.54 25.7201 162.04 26.7001C162.54 27.6801 163.24 28.4501 164.13 29.0201C165.02 29.5901 166.04 29.8801 167.19 29.8801ZM167.19 34.8601C164.93 34.8601 162.92 34.3601 161.16 33.3801C159.4 32.3901 158.02 31.0301 157.02 29.3001C156.02 27.5701 155.51 25.5901 155.51 23.3601C155.51 21.1301 156.01 19.1901 157.02 17.4601C158.02 15.7301 159.41 14.3701 161.16 13.3801C162.92 12.3901 164.93 11.8901 167.19 11.8901C169.45 11.8901 171.38 12.3901 173.13 13.3801C174.89 14.3701 176.27 15.7301 177.27 17.4601C178.28 19.1901 178.78 21.1601 178.78 23.3601C178.78 25.5601 178.28 27.5701 177.27 29.3001C176.27 31.0301 174.88 32.3901 173.13 33.3801C171.37 34.3701 169.39 34.8601 167.19 34.8601Z" fill="#1A1A1A"/>
</svg>
