<svg width="1280" height="29" viewBox="0 0 1280 29" preserveAspectRatio="xMinYMin slice" fill="none" xmlns="http://www.w3.org/2000/svg">
<path d="M1787 28.5002C1735.04 28.5002 1735.04 0.500048 1683.05 0.500053C1631.06 0.500058 1631.09 28.5003 1579.1 28.5003C1527.11 28.5003 1527.14 0.500067 1475.15 0.500071C1423.16 0.500076 1423.19 28.5003 1371.2 28.5003C1319.24 28.5003 1319.24 0.500085 1267.25 0.500089C1215.29 0.500094 1215.29 28.5003 1163.3 28.5003C1111.31 28.5003 1111.31 0.500103 1059.35 0.500107C1007.39 0.500112 1007.39 28.5003 955.396 28.5003C903.406 28.5003 903.406 0.500121 851.445 0.500126C799.484 0.50013 799.484 28.5003 747.495 28.5003C695.505 28.5003 695.505 0.500139 643.544 0.500144C591.554 0.500148 591.554 28.5003 539.593 28.5004C487.633 28.5004 487.603 0.500157 435.643 0.500162C383.653 0.500167 383.653 28.5004 331.692 28.5004C279.732 28.5004 279.732 0.500176 227.742 0.50018C175.752 0.500185 175.781 28.5004 123.791 28.5004C71.8014 28.5004 71.8014 0.500194 19.8408 0.500198C-32.1492 0.500203 -32.1493 28.5004 -84.1099 28.5004C-136.071 28.5004 -136.1 0.500212 -188.09 0.500217C-240.08 0.500221 -240.08 28.5004 -292.04 28.5004C-344.03 28.5004 -344.03 0.50023 -396.02 0.500235C-448.01 0.500239 -448.01 28.5004 -500 28.5004" fill="white"/>
<path d="M1787 28.5002C1735.04 28.5002 1735.04 0.500048 1683.05 0.500053C1631.06 0.500058 1631.09 28.5003 1579.1 28.5003C1527.11 28.5003 1527.14 0.500067 1475.15 0.500071C1423.16 0.500076 1423.19 28.5003 1371.2 28.5003C1319.24 28.5003 1319.24 0.500085 1267.25 0.500089C1215.29 0.500094 1215.29 28.5003 1163.3 28.5003C1111.31 28.5003 1111.31 0.500103 1059.35 0.500107C1007.39 0.500112 1007.39 28.5003 955.396 28.5003C903.406 28.5003 903.406 0.500121 851.445 0.500126C799.484 0.50013 799.484 28.5003 747.494 28.5003C695.505 28.5003 695.504 0.500139 643.544 0.500144C591.554 0.500148 591.554 28.5003 539.593 28.5004C487.633 28.5004 487.603 0.500157 435.643 0.500162C383.653 0.500167 383.653 28.5004 331.692 28.5004C279.732 28.5004 279.732 0.500176 227.742 0.50018C175.752 0.500185 175.781 28.5004 123.791 28.5004C71.8014 28.5004 71.8014 0.500194 19.8408 0.500198C-32.1492 0.500203 -32.1493 28.5004 -84.1099 28.5004C-136.071 28.5004 -136.1 0.500212 -188.09 0.500217C-240.08 0.500221 -240.08 28.5004 -292.04 28.5004C-344.03 28.5004 -344.03 0.50023 -396.02 0.500235C-448.01 0.500239 -448.01 28.5004 -500 28.5004" stroke="#87ABC1" stroke-miterlimit="10"/>
</svg>
