<svg width="697" height="879" viewBox="0 0 697 879" fill="none" xmlns="http://www.w3.org/2000/svg">
<g clip-path="url(#clip0_66_12514)">
<mask id="mask0_66_12514" style="mask-type:luminance" maskUnits="userSpaceOnUse" x="-768" y="-22" width="1438" height="1445">
<path d="M 669.4 -22 H -768 V 1422.7 H 669.4 V -22 Z" fill="white"/>
</mask>
<g mask="url(#mask0_66_12514)">
<path d="M 705.1 883.6 C 633.6 810.1 660.1 784.3 588.6 710.8 C 517 637.4 490.5 663.2 418.9 589.8 C 347.4 516.3 373.9 490.5 302.4 417 C 230.8 343.6 204.3 369.4 132.7 296 C 61.2 222.5 87.7 196.7 16.2 123.2 C -55.4 49.8 -81.9 75.7 -153.5 2.2 L -731.7 565.5 L 126.9 1446.9 L 705.1 883.6 H 705.1 Z" fill="#d1bd8f"/>
<path d="M -729.2 562.1 L 130.4 1444.5 M -715.8 549.1 C -714.1 550.8 -573.6 693.8 -571.9 695.5 C -570.3 697.2 -431 841.5 -429.3 843.2 C -427.6 844.9 -287.1 988 -285.4 989.7 C -283.7 991.4 -144.4 1135.6 -142.7 1137.4 C -141.1 1139.1 -0.5 1282.1 1.1 1283.8 C 2.8 1285.5 142.1 1429.7 143.7 1431.5 M -702.4 536 C -699.1 539.5 -561.2 678.5 -557.9 681.9 C -554.6 685.3 -419.2 826.7 -415.9 830.2 C -412.6 833.6 -274.7 972.6 -271.4 976 C -268.1 979.4 -132.7 1120.9 -129.4 1124.3 C -126 1127.7 11.8 1266.7 15.1 1270.2 C 18.5 1273.6 153.8 1415 157.1 1418.4 M -689 523 C -684 528.2 -548.9 663.2 -543.9 668.3 C -538.9 673.4 -407.5 812 -402.5 817.1 C -397.5 822.3 -262.4 957.3 -257.4 962.4 C -252.4 967.5 -121 1106.2 -116 1111.3 C -111 1116.4 24.1 1251.4 29.1 1256.5 C 34.1 1261.7 165.5 1400.2 170.5 1405.4 M -675.6 510 C -669 516.8 -536.6 647.8 -529.9 654.7 C -523.2 661.5 -395.8 797.3 -389.1 804.1 C -382.5 811 -250 942 -243.4 948.8 C -236.7 955.6 -109.2 1091.4 -102.6 1098.3 C -95.9 1105.1 36.5 1236.1 43.1 1242.9 C 49.8 1249.7 177.2 1385.5 183.9 1392.3 M -662.2 497 C -653.9 505.6 -524.2 632.5 -515.9 641.1 C -507.6 649.6 -384.1 782.6 -375.7 791.1 C -367.4 799.6 -237.7 926.6 -229.4 935.2 C -221.1 943.7 -97.5 1076.7 -89.2 1085.2 C -80.9 1093.8 48.8 1220.7 57.1 1229.3 C 65.4 1237.8 188.9 1370.8 197.3 1379.3 M -648.8 484 C -638.8 494.3 -511.9 617.2 -501.9 627.5 C -491.9 637.7 -372.3 767.8 -362.3 778.1 C -352.4 788.3 -225.4 911.3 -215.4 921.5 C -205.4 931.8 -85.8 1062 -75.8 1072.2 C -65.8 1082.5 61.1 1205.4 71.1 1215.6 C 81.1 1225.9 200.7 1356 210.6 1366.3 M -635.4 471 C -623.8 483 -499.5 601.9 -487.9 613.8 C -476.2 625.8 -360.6 753.1 -349 765.1 C -337.3 777 -213 896 -201.4 907.9 C -189.7 919.9 -74.1 1047.2 -62.4 1059.2 C -50.8 1071.2 73.5 1190.1 85.1 1202 C 96.8 1214 212.4 1341.3 224 1353.3 M -622 458 C -608.7 471.6 -487.2 586.6 -473.8 600.2 C -460.5 613.9 -348.9 738.4 -335.6 752.1 C -322.3 765.7 -200.7 880.6 -187.4 894.3 C -174.1 908 -62.4 1032.5 -49.1 1046.2 C -35.7 1059.8 85.8 1174.7 99.1 1188.4 C 112.4 1202 224.1 1326.5 237.4 1340.2 M -608.6 445 C -593.7 460.3 -474.8 571.2 -459.8 586.6 C -444.9 602 -337.2 723.7 -322.2 739 C -307.2 754.4 -188.4 865.3 -173.4 880.7 C -158.4 896.1 -50.7 1017.8 -35.7 1033.1 C -20.7 1048.5 98.1 1159.4 113.1 1174.7 C 128.1 1190.1 235.8 1311.8 250.8 1327.2 M -595.2 432 C -578.6 449.1 -462.5 555.9 -445.8 573 C -429.2 590.1 -325.4 709 -308.8 726 C -292.1 743.1 -176 850 -159.4 867.1 C -142.7 884.1 -38.9 1003 -22.3 1020.1 C -5.6 1037.2 110.5 1144 127.1 1161.1 C 143.7 1178.2 247.5 1297.1 264.1 1314.2 M -581.8 419 C -563.5 437.8 -450.1 540.6 -431.8 559.4 C -413.5 578.2 -313.7 694.2 -295.4 713 C -277.1 731.8 -163.7 834.7 -145.4 853.5 C -127.1 872.2 -27.2 988.3 -8.9 1007.1 C 9.4 1025.9 122.8 1128.7 141.1 1147.5 C 159.4 1166.3 259.2 1282.4 277.5 1301.1 M -568.4 406 C -548.5 426.5 -437.8 525.3 -417.8 545.8 C -397.8 566.3 -302 679.5 -282 700 C -262 720.5 -151.3 819.3 -131.4 839.8 C -111.4 860.3 -15.5 973.6 4.5 994.1 C 24.4 1014.6 135.1 1113.4 155.1 1133.9 C 175 1154.4 270.9 1267.6 290.9 1288.1 M -555 393 C -533.4 415.2 -425.4 510 -403.8 532.2 C -382.2 554.4 -290.2 664.8 -268.6 687 C -247 709.2 -139 804 -117.4 826.2 C -95.7 848.4 -3.8 958.8 17.8 981 C 39.5 1003.2 147.4 1098 169.1 1120.2 C 190.7 1142.5 282.6 1252.9 304.3 1275.1 M -541.6 380 C -518.3 403.9 -413.1 494.6 -389.8 518.6 C -366.5 542.5 -278.5 650.1 -255.2 674 C -231.9 697.9 -126.7 788.7 -103.4 812.6 C -80.1 836.5 7.9 944.1 31.2 968 C 54.5 991.9 159.8 1082.7 183.1 1106.6 C 206.4 1130.5 294.3 1238.1 317.6 1262 M -528.2 366.9 C -503.3 392.6 -400.7 479.3 -375.8 504.9 C -350.8 530.6 -266.8 635.3 -241.8 661 C -216.9 686.6 -114.3 773.3 -89.4 799 C -64.4 824.6 19.6 929.4 44.6 955 C 69.6 980.6 172.1 1067.4 197.1 1093 C 222 1118.6 306.1 1223.4 331 1249 M -514.8 353.9 C -488.2 381.3 -388.4 464 -361.8 491.3 C -335.2 518.7 -255.1 620.6 -228.5 647.9 C -201.8 675.3 -102 758 -75.4 785.3 C -48.7 812.7 31.4 914.6 58 942 C 84.6 969.3 184.4 1052 211.1 1079.4 C 237.7 1106.7 317.7 1208.6 344.4 1236 M -501.5 340.9 C -473.2 370 -376.1 448.7 -347.8 477.7 C -319.5 506.8 -243.3 605.9 -215 634.9 C -186.8 664 -89.6 742.7 -61.4 771.7 C -33.1 800.8 43.1 899.9 71.4 929 C 99.7 958 196.8 1036.7 225.1 1065.7 C 253.4 1094.8 329.5 1193.9 357.8 1222.9 M -488.1 327.9 C -458.1 358.7 -363.7 433.3 -333.8 464.1 C -303.8 494.8 -231.6 591.2 -201.7 621.9 C -171.7 652.7 -77.3 727.3 -47.3 758.1 C -17.4 788.8 54.8 885.2 84.8 915.9 C 114.7 946.7 209.1 1021.3 239.1 1052.1 C 269 1082.9 341.2 1179.2 371.1 1209.9 M -474.7 314.9 C -443.1 347.4 -351.4 418 -319.8 450.5 C -288.1 482.9 -219.9 576.4 -188.3 608.9 C -156.7 641.3 -65 712 -33.4 744.5 C -1.8 776.9 66.5 870.5 98.1 902.9 C 129.7 935.3 221.4 1006 253 1038.5 C 284.6 1070.9 352.9 1164.4 384.5 1196.9 M -461.3 301.9 C -428 336.1 -339 402.7 -305.7 436.9 C -272.5 471 -208.2 561.7 -174.9 595.9 C -141.6 630 -52.6 696.7 -19.3 730.8 C 13.9 765 78.2 855.7 111.5 889.9 C 144.8 924 233.7 990.7 267 1024.8 C 300.3 1059 364.6 1149.7 397.9 1183.8 M -447.9 288.9 C -412.9 324.8 -326.7 387.4 -291.7 423.3 C -256.8 459.1 -196.4 547 -161.5 582.9 C -126.5 618.7 -40.3 681.4 -5.3 717.2 C 29.6 753.1 90 841 124.9 876.8 C 159.8 912.7 246.1 975.3 281 1011.2 C 316 1047.1 376.3 1134.9 411.3 1170.8 M -434.5 275.9 C -397.9 313.5 -314.3 372.1 -277.7 409.6 C -241.1 447.2 -184.7 532.3 -148.1 569.8 C -111.5 607.4 -28 666 8.6 703.6 C 45.3 741.2 101.7 826.2 138.3 863.8 C 174.9 901.4 258.4 960 295 997.6 C 331.6 1035.2 388 1120.2 424.6 1157.8 M -421.1 262.9 C -382.8 302.2 -302 356.7 -263.7 396 C -225.4 435.3 -173 517.5 -134.7 556.8 C -96.5 596.1 -15.6 650.7 22.6 690 C 60.9 729.3 113.4 811.5 151.6 850.8 C 189.9 890.1 270.7 944.7 309 984 C 347.3 1023.2 399.7 1105.5 438 1144.7 M -407.7 249.9 C -367.7 290.9 -289.6 341.4 -249.7 382.4 C -209.8 423.4 -161.3 502.8 -121.3 543.8 C -81.4 584.8 -3.3 635.4 36.7 676.4 C 76.6 717.4 125.1 796.8 165 837.8 C 205 878.8 283.1 929.3 323 970.3 C 362.9 1011.3 411.4 1090.7 451.4 1131.7 M -394.3 236.9 C -352.7 279.6 -277.3 326.1 -235.7 368.8 C -194.1 411.5 -149.5 488.1 -107.9 530.8 C -66.3 573.5 9.1 620.1 50.7 662.8 C 92.3 705.5 136.8 782.1 178.4 824.8 C 220 867.5 295.4 914 337 956.7 C 378.6 999.4 423.2 1076 464.7 1118.7 M -380.9 223.9 C -337.6 268.3 -264.9 310.8 -221.7 355.2 C -178.4 399.6 -137.8 473.4 -94.6 517.8 C -51.3 562.2 21.4 604.7 64.7 649.1 C 107.9 693.5 148.5 767.3 191.8 811.7 C 235.1 856.1 307.7 898.7 351 943.1 C 394.2 987.5 434.9 1061.2 478.1 1105.7 M -367.5 210.8 C -322.6 257 -252.6 295.5 -207.7 341.6 C -162.7 387.7 -126.1 458.6 -81.2 504.8 C -36.2 550.9 33.7 589.4 78.7 635.5 C 123.6 681.6 160.2 752.6 205.2 798.7 C 250.1 844.8 320.1 883.3 365 929.4 C 409.9 975.5 446.6 1046.5 491.5 1092.6 M -354.1 197.8 C -307.5 245.7 -240.2 280.1 -193.6 328 C -147.1 375.8 -114.4 443.9 -67.8 491.8 C -21.2 539.6 46.1 574.1 92.7 621.9 C 139.2 669.7 172 737.9 218.6 785.7 C 265.1 833.5 332.4 868 379 915.8 C 425.6 963.7 458.3 1031.8 504.9 1079.6 M -340.7 184.8 C -292.4 234.4 -227.9 264.8 -179.6 314.4 C -131.4 363.9 -102.6 429.2 -54.4 478.7 C -6.1 528.3 58.4 558.7 106.7 608.3 C 154.9 657.8 183.7 723.1 231.9 772.7 C 280.2 822.2 344.7 852.7 393 902.2 C 441.2 951.7 470 1017 518.2 1066.6 M -327.3 171.8 C -277.4 223.1 -215.5 249.5 -165.6 300.8 C -115.7 352 -90.9 414.5 -41 465.7 C 8.9 517 70.8 543.4 120.7 594.7 C 170.6 645.9 195.4 708.4 245.3 759.6 C 295.2 810.9 357.1 837.3 407 888.6 C 456.9 939.8 481.7 1002.3 531.6 1053.5 M -313.9 158.8 C -262.3 211.8 -203.2 234.2 -151.6 287.1 C -100 340.1 -79.2 399.8 -27.6 452.7 C 24 505.6 83.1 528.1 134.7 581 C 186.2 634 207.1 693.7 258.7 746.6 C 310.3 799.6 369.4 822 421 874.9 C 472.6 927.9 493.4 987.6 545 1040.5 M -300.5 145.8 C -247.3 200.5 -190.9 218.9 -137.6 273.5 C -84.4 328.2 -67.5 385 -14.2 439.7 C 39 494.3 95.4 512.8 148.7 567.4 C 201.9 622.1 218.8 678.9 272.1 733.6 C 325.3 788.2 381.7 806.6 434.9 861.3 C 488.2 916 505.1 972.8 558.3 1027.5 M -287.1 132.8 C -232.2 189.2 -178.5 203.5 -123.6 259.9 C -68.7 316.3 -55.7 370.3 -0.8 426.7 C 54.1 483.1 107.8 497.4 162.7 553.8 C 217.6 610.2 230.6 664.2 285.5 720.6 C 340.4 776.9 394 791.3 448.9 847.7 C 503.9 904 516.8 958.1 571.7 1014.4 M -273.7 119.8 C -217.1 177.9 -166.2 188.2 -109.6 246.3 C -53 304.4 -44 355.6 12.6 413.7 C 69.2 471.7 120.1 482.1 176.7 540.2 C 233.2 598.2 242.3 649.5 298.9 707.5 C 355.4 765.6 406.4 776 462.9 834 C 519.5 892.1 528.5 943.3 585.1 1001.4 M -260.3 106.8 C -202.1 166.6 -153.8 172.9 -95.6 232.7 C -37.3 292.5 -32.3 340.9 26 400.6 C 84.2 460.4 132.4 466.8 190.7 526.5 C 248.9 586.3 254 634.7 312.2 694.5 C 370.5 754.3 418.7 760.6 476.9 820.4 C 535.2 880.2 540.3 928.6 598.5 988.4 M -246.9 93.8 C -187 155.3 -141.5 157.6 -81.6 219.1 C -21.7 280.6 -20.6 326.1 39.3 387.6 C 99.2 449.1 144.8 451.4 204.7 512.9 C 264.6 574.4 265.7 620 325.6 681.5 C 385.5 743 431 745.3 490.9 806.8 C 550.8 868.3 551.9 913.8 611.8 975.3 M -233.5 80.8 C -171.9 144 -129.1 142.3 -67.6 205.5 C -6 268.7 -8.8 311.4 52.7 374.6 C 114.3 437.8 157.1 436.1 218.7 499.3 C 280.3 562.5 277.4 605.3 339 668.5 C 400.6 731.7 443.4 730 504.9 793.2 C 566.5 856.4 563.7 899.1 625.2 962.3 M -220.1 67.8 C -156.9 132.7 -116.8 126.9 -53.6 191.9 C 9.7 256.8 2.9 296.7 66.1 361.6 C 129.4 426.5 169.5 420.8 232.7 485.7 C 295.9 550.6 289.1 590.5 352.4 655.5 C 415.6 720.4 455.7 714.6 518.9 779.5 C 582.2 844.5 575.4 884.4 638.6 949.3 M -206.7 54.7 C -141.8 121.4 -104.4 111.6 -39.6 178.2 C 25.3 244.9 14.6 282 79.5 348.6 C 144.4 415.2 181.8 405.4 246.7 472.1 C 311.6 538.7 300.9 575.8 365.7 642.4 C 430.6 709 468 699.3 532.9 765.9 C 597.8 832.5 587.1 869.6 652 936.2 M -193.3 41.7 C -126.8 110.1 -92.1 96.3 -25.5 164.6 C 41 233 26.3 267.2 92.9 335.6 C 159.5 403.9 194.1 390.1 260.7 458.5 C 327.2 526.8 312.6 561.1 379.1 629.4 C 445.7 697.7 480.4 684 546.9 752.3 C 613.5 820.6 598.8 854.9 665.3 923.2 M -179.9 28.7 C -111.7 98.8 -79.7 81 -11.5 151 C 56.7 221 38.1 252.5 106.3 322.6 C 174.5 392.6 206.5 374.8 274.7 444.8 C 342.9 514.8 324.3 546.3 392.5 616.4 C 460.7 686.4 492.7 668.6 560.9 738.6 C 629.1 808.7 610.5 840.1 678.7 910.2 M -166.5 15.7 C -96.6 87.5 -67.4 65.7 2.5 137.4 C 72.4 209.1 49.8 237.8 119.7 309.5 C 189.6 381.3 218.8 359.5 288.7 431.2 C 358.6 503 336 531.6 405.9 603.3 C 475.8 675.1 505 653.3 574.9 725 C 644.8 796.8 622.2 825.4 692.1 897.2 M 705.5 884.1 C 633.9 810.7 660.4 784.8 588.9 711.4 C 517.4 637.9 490.8 663.8 419.3 590.3 C 347.7 516.9 374.2 491 302.7 417.6 C 231.1 344.1 204.6 370 133.1 296.5 C 61.5 223.1 88.1 197.2 16.5 123.8 C -55.1 50.3 -81.6 76.2 -153.1 2.7" stroke="white" stroke-width="0.71"/>
</g>
</g>
<defs>
<clipPath id="clip0_66_12514">
<rect width="1437" height="879" fill="white" transform="translate(-740)"/>
</clipPath>
</defs>
</svg>
