<svg width="71" height="69" viewBox="0 0 71 69" fill="none" xmlns="http://www.w3.org/2000/svg">
<path d="M5.10324 47.1518C3.40216 43.2712 2.49846 38.9653 2.49846 34.5C2.49846 30.0347 3.45532 25.7288 5.10324 21.8482C10.1002 9.67488 22.114 1.01002 36.0948 1.01002C43.9622 1.01002 51.1918 3.72111 56.933 8.29276C50.8729 3.13636 43.0585 0 34.5 0C15.4692 0 0 15.4692 0 34.5C0 53.5308 15.4692 69 34.5 69C43.0585 69 50.8729 65.8636 56.8798 60.7072C51.1387 65.2789 43.9091 67.99 36.0416 67.99C22.114 67.99 10.1002 59.3783 5.10324 47.1518Z" fill="#000091"/>
<path d="M60.6542 47.6831C60.6011 47.7362 60.5479 47.8425 60.4948 47.9489C59.3253 49.9689 57.89 51.8826 56.1889 53.5305C51.0857 58.9527 43.8561 62.408 35.8291 62.408C28.0679 62.408 20.9978 59.2185 15.9478 54.0089C21.2636 59.9627 28.9716 63.6838 37.5302 63.6838C49.2251 63.6838 59.3253 56.72 63.8969 46.7262C62.6743 46.3009 61.3453 46.6199 60.6542 47.6831Z" fill="#000091"/>
<path d="M62.5147 25.7821C62.5147 25.7821 62.5147 25.8353 62.5147 25.8884C62.5678 25.9947 62.5678 26.0479 62.621 26.1542C63.0463 27.2705 63.8436 28.0679 65.0131 28.0679C65.2789 28.0679 65.4916 28.0679 65.7574 28.1211C62.7805 15.3098 51.245 5.79443 37.5832 5.79443C31.3105 5.79443 25.4631 7.81446 20.7319 11.2166C25.0909 8.34605 30.3005 6.69813 35.8822 6.69813C46.1418 6.69813 55.0725 12.2798 59.9099 20.5194C60.9731 22.1142 61.8236 23.9216 62.5147 25.7821Z" fill="#000091"/>
<path d="M11.5884 27.377V20.1475H15.7879V21.3701H13.0237V23.0712H15.3626V24.2938H13.0237V27.377H11.5884Z" fill="#000091"/>
<path d="M17.1699 27.377V20.1475H19.4026C20.2 20.1475 20.8379 20.3601 21.2631 20.7322C21.7416 21.1043 21.9542 21.6359 21.9542 22.327C21.9542 23.2307 21.5821 23.8154 20.7847 24.1875L23.0705 27.377H21.3695L19.4557 24.4533H18.7115V27.377H17.1699ZM19.4557 21.3701H18.6052V23.2307H19.4557C19.7747 23.2307 19.9873 23.1243 20.2 22.9649C20.4126 22.8054 20.4658 22.5396 20.4658 22.2738C20.4658 22.008 20.3594 21.7954 20.2 21.6359C20.0405 21.4764 19.7747 21.3701 19.4557 21.3701Z" fill="#000091"/>
<path d="M23.4961 27.377L26.2072 20.1475H28.1209L30.832 27.377H29.2904L28.5993 25.5165H25.7288L25.0377 27.377H23.4961ZM26.2072 24.2407H28.1741L27.164 21.5296L26.2072 24.2407Z" fill="#000091"/>
<path d="M32.1074 27.377V20.1475H33.968L37.2107 25.357V20.1475H38.6459V27.377H36.7854L33.5427 22.1675V27.377H32.1074Z" fill="#000091"/>
<path d="M44.0152 26.2072C44.8126 26.2072 45.4505 25.8883 45.9289 25.1972L47.0984 26.1009C46.7795 26.5793 46.3542 26.8983 45.8226 27.1641C45.291 27.4299 44.7063 27.5362 44.0684 27.5362C42.9521 27.5362 42.0484 27.1641 41.3041 26.4199C40.5599 25.6756 40.241 24.7719 40.241 23.7088C40.241 22.6456 40.6131 21.7419 41.3041 20.9977C42.0484 20.2535 42.9521 19.8813 44.0684 19.8813C44.7063 19.8813 45.291 19.9877 45.8226 20.2535C46.3542 20.5193 46.7795 20.8914 47.0984 21.3166L45.9289 22.2203C45.4505 21.5824 44.8658 21.2103 44.0152 21.2103C43.3242 21.2103 42.7926 21.4229 42.3673 21.9014C41.942 22.3798 41.7294 22.9646 41.7294 23.6556C41.7294 24.3467 41.942 24.9314 42.3673 25.4099C42.7926 25.9946 43.3242 26.2072 44.0152 26.2072Z" fill="#000091"/>
<path d="M48.4275 27.377V20.1475H52.627V21.3701H49.8628V23.0712H52.2018V24.2938H49.8628V26.1544H52.627V27.377H48.4275Z" fill="#000091"/>
<path d="M55.4977 38.9656L57.943 42.9525C58.1024 43.0588 58.2619 43.2183 58.4214 43.3246L55.3914 38.3809C55.4445 38.5935 55.4445 38.8061 55.4977 38.9656Z" fill="#E1000F" stroke="#E1000F" stroke-width="0.25" stroke-miterlimit="10"/>
<path d="M55.3914 36.0411L59.2719 43.9086C59.3783 43.9618 59.4846 44.0149 59.5909 44.0681L55.4445 35.7222C55.4445 35.8285 55.3914 35.9348 55.3914 36.0411Z" fill="#E1000F" stroke="#E1000F" stroke-width="0.25" stroke-miterlimit="10"/>
<path d="M56.0295 33.862L60.1228 44.2811C60.2291 44.3342 60.2822 44.3343 60.3886 44.3874L56.1359 33.5962C56.1359 33.7025 56.0827 33.8088 56.0295 33.862Z" fill="#E1000F" stroke="#E1000F" stroke-width="0.25" stroke-miterlimit="10"/>
<path d="M57.1992 32.1609L60.8672 44.5469C60.9203 44.5469 61.0266 44.6001 61.0798 44.6001L57.3587 32.0015C57.3055 32.0546 57.2524 32.1078 57.1992 32.1609Z" fill="#E1000F" stroke="#E1000F" stroke-width="0.25" stroke-miterlimit="10"/>
<path d="M61.6643 44.7063L58.7938 30.7256C58.7406 30.7787 58.6874 30.7787 58.6343 30.8319L61.4517 44.6C61.5048 44.7063 61.6112 44.7063 61.6643 44.7063Z" fill="#E1000F" stroke="#E1000F" stroke-width="0.25" stroke-miterlimit="10"/>
<path d="M62.1957 44.8127L60.4946 29.9814C60.4415 29.9814 60.3883 30.0346 60.282 30.0346L61.9831 44.7596C62.0362 44.8127 62.1425 44.8127 62.1957 44.8127Z" fill="#E1000F" stroke="#E1000F" stroke-width="0.25" stroke-miterlimit="10"/>
<path d="M62.7277 44.8122L62.3025 29.5557C62.2493 29.5557 62.143 29.5557 62.0898 29.5557L62.5151 44.7591C62.5683 44.8122 62.6214 44.8122 62.7277 44.8122Z" fill="#E1000F" stroke="#E1000F" stroke-width="0.25" stroke-miterlimit="10"/>
<path d="M63.206 44.8123L64.1097 29.6089C64.0566 29.6089 63.9503 29.6089 63.8971 29.6089L62.9934 44.8123C63.0997 44.8123 63.1529 44.8123 63.206 44.8123Z" fill="#E1000F" stroke="#E1000F" stroke-width="0.25" stroke-miterlimit="10"/>
<path d="M63.7373 44.8128L65.8636 30.141C65.8105 30.141 65.7573 30.0879 65.651 30.0879L63.5247 44.866C63.5778 44.8129 63.6841 44.8128 63.7373 44.8128Z" fill="#E1000F" stroke="#E1000F" stroke-width="0.25" stroke-miterlimit="10"/>
<path d="M64.2693 44.7061L67.512 31.0443C67.4589 30.9911 67.4057 30.938 67.3525 30.938L64.1099 44.7593C64.1099 44.7593 64.2162 44.7061 64.2693 44.7061Z" fill="#E1000F" stroke="#E1000F" stroke-width="0.25" stroke-miterlimit="10"/>
<path d="M64.9069 44.6004L68.8938 32.4271C68.8407 32.3739 68.7875 32.3207 68.7343 32.2676L64.6411 44.7067C64.7474 44.6004 64.8006 44.6004 64.9069 44.6004Z" fill="#E1000F" stroke="#E1000F" stroke-width="0.25" stroke-miterlimit="10"/>
<path d="M65.5978 44.3873L69.9568 34.1808C69.9037 34.0745 69.9037 34.0214 69.8505 33.915L65.332 44.4405C65.3852 44.4405 65.4915 44.3873 65.5978 44.3873Z" fill="#E1000F" stroke="#E1000F" stroke-width="0.25" stroke-miterlimit="10"/>
<path d="M66.5015 43.9621L70.5416 36.3604C70.5416 36.2541 70.5416 36.1478 70.4884 35.9883L66.1294 44.1216C66.2357 44.0684 66.3952 44.0152 66.5015 43.9621Z" fill="#E1000F" stroke="#E1000F" stroke-width="0.25" stroke-miterlimit="10"/>
<path d="M67.8837 43.0051L70.2758 39.3371C70.329 39.1245 70.3822 38.9119 70.4353 38.6992L67.4053 43.3772C67.5647 43.2709 67.7242 43.1646 67.8837 43.0051Z" fill="#E1000F" stroke="#E1000F" stroke-width="0.25" stroke-miterlimit="10"/>
<path d="M17.4365 44.4404H27.3772H17.4365Z" stroke="#E1000F" stroke-width="0.25" stroke-miterlimit="10"/>
<path d="M22.5392 29.6089C22.4329 29.6089 22.3798 29.6089 22.2734 29.6089H22.805C22.6987 29.6089 22.5924 29.6089 22.5392 29.6089Z" fill="#E1000F" stroke="#E1000F" stroke-width="0.25" stroke-miterlimit="10"/>
<path d="M22.8053 29.6089H22.2737C21.7421 29.6089 21.2636 29.7152 20.8384 29.8215H24.0811C23.6558 29.7152 23.2305 29.662 22.8053 29.6089Z" fill="#E1000F" stroke="#E1000F" stroke-width="0.25" stroke-miterlimit="10"/>
<path d="M25.6757 30.6724H18.9777C18.8714 30.7255 18.7651 30.8318 18.7119 30.885H25.8883C25.782 30.7787 25.7289 30.7255 25.6757 30.6724Z" fill="#E1000F" stroke="#E1000F" stroke-width="0.25" stroke-miterlimit="10"/>
<path d="M26.5262 31.6821H17.8082C17.755 31.7353 17.7018 31.8416 17.6487 31.8948H26.6325C26.6325 31.8416 26.5793 31.7884 26.5262 31.6821Z" fill="#E1000F" stroke="#E1000F" stroke-width="0.25" stroke-miterlimit="10"/>
<path d="M26.9515 32.7456H23.8152C23.8683 32.7988 23.9215 32.8519 23.9747 32.9582H27.0047C26.9515 32.8519 26.9515 32.7988 26.9515 32.7456Z" fill="#E1000F" stroke="#E1000F" stroke-width="0.25" stroke-miterlimit="10"/>
<path d="M17.011 32.7987L17.2236 32.905H20.2005C20.2537 32.8519 20.36 32.7455 20.4131 32.6924H17.011C17.011 32.7455 17.011 32.7987 17.011 32.7987Z" fill="#E1000F" stroke="#E1000F" stroke-width="0.25" stroke-miterlimit="10"/>
<path d="M27.0581 33.7554H24.1875C24.1875 33.8085 24.1875 33.8617 24.1875 33.9148H27.0049C27.0581 33.9148 27.0581 33.8617 27.0581 33.7554Z" fill="#E1000F" stroke="#E1000F" stroke-width="0.25" stroke-miterlimit="10"/>
<path d="M18.9246 33.968H19.403C19.4562 33.9148 19.5093 33.8085 19.5093 33.7554H18.5525L18.9246 33.968Z" fill="#E1000F" stroke="#E1000F" stroke-width="0.25" stroke-miterlimit="10"/>
<path d="M26.8986 34.8188H24.0812C24.0812 34.872 24.0281 34.9783 24.0281 35.0315H26.8986C26.8455 34.9783 26.8986 34.872 26.8986 34.8188Z" fill="#E1000F" stroke="#E1000F" stroke-width="0.25" stroke-miterlimit="10"/>
<path d="M26.4735 35.8818H23.4434C23.3903 35.935 23.3371 36.0413 23.2839 36.0945H26.3671C26.4203 35.9882 26.4735 35.935 26.4735 35.8818Z" fill="#E1000F" stroke="#E1000F" stroke-width="0.25" stroke-miterlimit="10"/>
<path d="M25.8356 36.8921H22.5398C22.4866 36.9452 22.4335 36.9984 22.3803 37.0516L22.3271 37.1047H25.6761C25.7293 37.0516 25.7825 36.9984 25.8356 36.8921Z" fill="#E1000F" stroke="#E1000F" stroke-width="0.25" stroke-miterlimit="10"/>
<path d="M24.9319 37.9551H21.4766L21.2639 38.1677H24.7192C24.7724 38.0614 24.8787 38.0082 24.9319 37.9551Z" fill="#E1000F" stroke="#E1000F" stroke-width="0.25" stroke-miterlimit="10"/>
<path d="M23.8686 38.9653H20.4133L20.2007 39.178H23.656L23.8686 38.9653Z" fill="#E1000F" stroke="#E1000F" stroke-width="0.25" stroke-miterlimit="10"/>
<path d="M22.8054 40.0283H19.3501L19.1375 40.241H22.5928L22.8054 40.0283Z" fill="#E1000F" stroke="#E1000F" stroke-width="0.25" stroke-miterlimit="10"/>
<path d="M21.7422 41.0918H18.2869L18.0742 41.3044H21.4764L21.7422 41.0918Z" fill="#E1000F" stroke="#E1000F" stroke-width="0.25" stroke-miterlimit="10"/>
<path d="M27.3772 42.1016H17.4365V42.3142H27.3772V42.1016Z" fill="#E1000F" stroke="#E1000F" stroke-width="0.25" stroke-miterlimit="10"/>
<path d="M27.3772 43.165H17.4365V43.3777H27.3772V43.165Z" fill="#E1000F" stroke="#E1000F" stroke-width="0.25" stroke-miterlimit="10"/>
<path d="M27.3772 44.228H17.4365V44.4407H27.3772V44.228Z" fill="#E1000F" stroke="#E1000F" stroke-width="0.25" stroke-miterlimit="10"/>
<path d="M51.8298 44.2808L54.2219 41.8886C54.2751 41.7292 54.3283 41.6229 54.3814 41.4634L51.4045 44.4403C51.5109 44.4403 51.6703 44.3871 51.8298 44.2808Z" fill="#E1000F" stroke="#E1000F" stroke-width="0.25" stroke-miterlimit="10"/>
<path d="M49.9162 44.7593L54.541 40.1344C54.541 40.0281 54.541 39.975 54.541 39.8687L49.6504 44.7593C49.7035 44.8124 49.8099 44.8124 49.9162 44.7593Z" fill="#E1000F" stroke="#E1000F" stroke-width="0.25" stroke-miterlimit="10"/>
<path d="M48.4279 44.7593L54.2754 38.9119C54.2754 38.8587 54.2222 38.7524 54.2222 38.6992L48.1621 44.7593C48.2684 44.7593 48.3747 44.7593 48.4279 44.7593Z" fill="#E1000F" stroke="#E1000F" stroke-width="0.25" stroke-miterlimit="10"/>
<path d="M49.2253 42.3145C49.1722 42.3145 49.1722 42.3145 49.119 42.3145L46.9927 44.4408C47.0458 44.4408 47.1522 44.494 47.2053 44.494L49.3848 42.3145C49.3848 42.3145 49.2785 42.3145 49.2253 42.3145Z" fill="#E1000F" stroke="#E1000F" stroke-width="0.25" stroke-miterlimit="10"/>
<path d="M51.6704 40.0285L53.7968 37.9021C53.7436 37.849 53.6904 37.7958 53.6904 37.7427L51.6704 39.7627C51.6704 39.869 51.6704 39.9753 51.6704 40.0285Z" fill="#E1000F" stroke="#E1000F" stroke-width="0.25" stroke-miterlimit="10"/>
<path d="M51.3512 38.965L53.1054 37.2108C53.0523 37.1577 52.9991 37.1045 52.9459 37.1045L51.2449 38.8056C51.2449 38.8587 51.298 38.9119 51.3512 38.965Z" fill="#E1000F" stroke="#E1000F" stroke-width="0.25" stroke-miterlimit="10"/>
<path d="M47.8963 42.0483L45.9294 44.0152C45.9826 44.0684 46.0358 44.0684 46.1421 44.1215L48.1089 42.1547C48.0558 42.1547 48.0026 42.1015 47.8963 42.0483Z" fill="#E1000F" stroke="#E1000F" stroke-width="0.25" stroke-miterlimit="10"/>
<path d="M47.0453 41.4634L45.1316 43.3771C45.1848 43.4303 45.2379 43.4834 45.2911 43.4834L47.2048 41.5697C47.1516 41.5697 47.0985 41.5165 47.0453 41.4634Z" fill="#E1000F" stroke="#E1000F" stroke-width="0.25" stroke-miterlimit="10"/>
<path d="M50.5007 38.2742L53.3713 35.4037C53.4776 35.2442 53.5839 35.0315 53.6371 34.8721L50.2881 38.2211C50.3944 38.2211 50.4476 38.2742 50.5007 38.2742Z" fill="#E1000F" stroke="#E1000F" stroke-width="0.25" stroke-miterlimit="10"/>
<path d="M46.4075 40.666L44.3875 42.686C44.4406 42.7392 44.4938 42.7924 44.5469 42.8455L46.5138 40.8787C46.4606 40.7723 46.4606 40.7192 46.4075 40.666Z" fill="#E1000F" stroke="#E1000F" stroke-width="0.25" stroke-miterlimit="10"/>
<path d="M49.1191 38.0083C49.1722 38.0083 49.2254 38.0083 49.3317 38.0083L53.9034 33.4367C53.9034 33.3304 53.9034 33.2772 53.9034 33.1709L49.0659 38.0083H49.1191Z" fill="#E1000F" stroke="#E1000F" stroke-width="0.25" stroke-miterlimit="10"/>
<path d="M44.7598 40.8788L43.803 41.8357C43.8561 41.8888 43.8561 41.942 43.9093 41.9952L45.5041 40.4004L44.7598 40.8788Z" fill="#E1000F" stroke="#E1000F" stroke-width="0.25" stroke-miterlimit="10"/>
<path d="M47.8961 38.0084L53.6904 32.2141C53.6904 32.1609 53.6372 32.0546 53.6372 32.0015L47.5771 38.0084H47.8961Z" fill="#E1000F" stroke="#E1000F" stroke-width="0.25" stroke-miterlimit="10"/>
<path d="M48.5872 35.563L46.7798 37.3704V37.6362L48.9061 35.563H48.5872Z" fill="#E1000F" stroke="#E1000F" stroke-width="0.25" stroke-miterlimit="10"/>
<path d="M51.0324 33.4366L53.2119 31.2571C53.1588 31.204 53.1056 31.1508 53.1056 31.0977L51.0324 33.1708C50.9793 33.224 51.0324 33.3303 51.0324 33.4366Z" fill="#E1000F" stroke="#E1000F" stroke-width="0.25" stroke-miterlimit="10"/>
<path d="M50.5008 32.4799L52.4677 30.5131C52.4145 30.4599 52.3613 30.4599 52.3082 30.4067L50.3413 32.3736C50.3945 32.3736 50.4476 32.4268 50.5008 32.4799Z" fill="#E1000F" stroke="#E1000F" stroke-width="0.25" stroke-miterlimit="10"/>
<path d="M47.1519 35.563L46.7798 35.8819V36.2009L47.4177 35.563H47.1519Z" fill="#E1000F" stroke="#E1000F" stroke-width="0.25" stroke-miterlimit="10"/>
<path d="M49.4379 32.0546L51.5111 29.9814C51.4579 29.9814 51.3516 29.9282 51.2985 29.9282L49.1721 32.0546C49.2784 32.0546 49.3848 32.0546 49.4379 32.0546Z" fill="#E1000F" stroke="#E1000F" stroke-width="0.25" stroke-miterlimit="10"/>
<path d="M46.4607 33.5958L47.0986 32.9579C47.2049 32.8516 47.2581 32.7453 47.3644 32.6921L50.3944 29.662C50.2881 29.662 50.235 29.662 50.1286 29.6089L46.248 33.4895L46.4607 33.5958Z" fill="#E1000F" stroke="#E1000F" stroke-width="0.25" stroke-miterlimit="10"/>
<path d="M45.5569 33.0642L49.0122 29.6089C48.9059 29.6089 48.7996 29.6089 48.6932 29.6089L45.3442 32.9579L45.5569 33.0642Z" fill="#E1000F" stroke="#E1000F" stroke-width="0.25" stroke-miterlimit="10"/>
<path d="M44.6002 32.4798L47.2049 29.875C47.0455 29.9282 46.886 29.9813 46.7265 30.0876L44.4407 32.3735L44.6002 32.4798Z" fill="#E1000F" stroke="#E1000F" stroke-width="0.25" stroke-miterlimit="10"/>
<path d="M42.0486 37.1577C42.0486 34.2871 40.6134 31.6823 38.487 30.0876C38.2212 29.9813 38.0086 29.9281 37.7428 29.8218C40.1881 31.3102 41.836 34.0213 41.836 37.1045C41.836 40.3472 40.0286 43.1115 37.4238 44.5999C37.6896 44.5467 37.9554 44.4404 38.1681 44.3873C40.507 42.8457 42.0486 40.1877 42.0486 37.1577Z" fill="#E1000F" stroke="#E1000F" stroke-width="0.25" stroke-miterlimit="10"/>
<path d="M42.9524 35.0315C42.7398 34.3936 42.474 33.7557 42.1019 33.2241C42.6334 34.4468 42.9524 35.7757 42.9524 37.211C42.9524 38.7526 42.5803 40.2411 41.9424 41.57C42.3145 41.0384 42.6334 40.4005 42.8461 39.7626C43.0587 38.9653 43.165 38.1147 43.165 37.211C43.2182 36.4136 43.1119 35.7226 42.9524 35.0315Z" fill="#E1000F" stroke="#E1000F" stroke-width="0.25" stroke-miterlimit="10"/>
<path d="M40.879 37.1575C40.879 33.3301 38.0616 30.1937 34.3936 29.6621C34.181 29.7153 33.9684 29.7684 33.7557 29.8216C37.6363 30.0342 40.7195 33.2237 40.7195 37.1575C40.7195 41.1976 37.4768 44.4402 33.4368 44.4934C33.6494 44.5465 33.862 44.5997 34.0747 44.6529C37.8489 44.3339 40.879 41.0912 40.879 37.1575Z" fill="#E1000F" stroke="#E1000F" stroke-width="0.25" stroke-miterlimit="10"/>
<path d="M39.7631 37.1578C39.7631 33.5962 36.8926 30.7256 33.3309 30.7256C32.4804 30.7256 31.7362 30.8851 30.992 31.1509C30.7793 31.3103 30.6199 31.4698 30.4072 31.6293C31.2578 31.1509 32.2678 30.8851 33.3309 30.8851C36.7331 30.8851 39.5505 33.7025 39.5505 37.1046C39.5505 40.6131 36.7331 43.3774 33.3309 43.3774C32.1615 43.3774 31.0983 43.0584 30.1946 42.5268C30.3541 42.6863 30.5667 42.8989 30.7262 43.0584C31.5235 43.4305 32.3741 43.59 33.3309 43.59C36.8394 43.59 39.7631 40.7194 39.7631 37.1578Z" fill="#E1000F" stroke="#E1000F" stroke-width="0.25" stroke-miterlimit="10"/>
<path d="M33.3304 35.4036C34.2873 35.4036 35.0846 36.2009 35.0846 37.1578C35.0846 38.1146 34.2873 38.912 33.3304 38.912C32.3735 38.912 31.5762 38.1146 31.5762 37.1578C31.5762 36.2009 32.3204 35.4036 33.3304 35.4036ZM33.3304 39.1247C34.3936 39.1247 35.2973 38.221 35.2973 37.1578C35.2973 36.0946 34.3936 35.1909 33.3304 35.1909C32.2672 35.1909 31.3635 36.0946 31.3635 37.1578C31.3635 38.221 32.2141 39.1247 33.3304 39.1247Z" fill="#E1000F" stroke="#E1000F" stroke-width="0.25" stroke-miterlimit="10"/>
<path d="M33.3303 34.2873C34.925 34.2873 36.2008 35.5632 36.2008 37.1579C36.2008 38.7527 34.925 40.0285 33.3303 40.0285C31.7355 40.0285 30.4597 38.7527 30.4597 37.1579C30.4597 35.5632 31.7355 34.2873 33.3303 34.2873ZM33.3303 40.2411C35.0314 40.2411 36.4135 38.859 36.4135 37.1579C36.4135 35.4568 35.0314 34.0747 33.3303 34.0747C31.6292 34.0747 30.2471 35.4568 30.2471 37.1579C30.2471 38.859 31.6292 40.2411 33.3303 40.2411Z" fill="#E1000F" stroke="#E1000F" stroke-width="0.25" stroke-miterlimit="10"/>
<path d="M33.3306 36.5726C33.6495 36.5726 33.9685 36.8384 33.9685 37.2105C33.9685 37.5294 33.7027 37.8484 33.3306 37.8484C32.9585 37.8484 32.6927 37.5826 32.6927 37.2105C32.6927 36.8384 32.9585 36.5726 33.3306 36.5726ZM33.3306 38.0078C33.809 38.0078 34.128 37.6357 34.128 37.2105C34.128 36.7852 33.7559 36.4131 33.3306 36.4131C32.9053 36.4131 32.5332 36.7852 32.5332 37.2105C32.5332 37.6357 32.8522 38.0078 33.3306 38.0078Z" fill="#E1000F" stroke="#E1000F" stroke-width="0.25" stroke-miterlimit="10"/>
<path d="M33.3308 32.0544C36.1482 32.0544 38.4341 34.3403 38.4341 37.1577C38.4341 39.9751 36.1482 42.2609 33.3308 42.2609C30.5134 42.2609 28.2276 39.9751 28.2276 37.1577C28.2276 34.3403 30.5134 32.0544 33.3308 32.0544ZM33.3308 42.4735C36.2546 42.4735 38.6467 40.0814 38.6467 37.1577C38.6467 34.2339 36.2546 31.8418 33.3308 31.8418C30.7261 31.8418 28.4934 33.7555 28.1213 36.254C28.0681 36.5729 28.0681 36.8387 28.0681 37.1577C28.0681 37.3703 28.0681 37.5298 28.0681 37.7424C28.3871 40.4535 30.6197 42.4735 33.3308 42.4735Z" fill="#E1000F" stroke="#E1000F" stroke-width="0.25" stroke-miterlimit="10"/>
<path d="M33.3303 33.1707C35.5098 33.1707 37.3172 34.9781 37.3172 37.1576C37.3172 39.3371 35.5098 41.1445 33.3303 41.1445C31.1508 41.1445 29.3434 39.3371 29.3434 37.1576C29.3434 34.9781 31.0976 33.1707 33.3303 33.1707ZM33.3303 41.4103C35.6692 41.4103 37.5298 39.4966 37.5298 37.2108C37.5298 34.9249 35.6161 33.0112 33.3303 33.0112C31.0444 33.0112 29.1307 34.9249 29.1307 37.2108C29.0776 39.4966 30.9913 41.4103 33.3303 41.4103Z" fill="#E1000F" stroke="#E1000F" stroke-width="0.25" stroke-miterlimit="10"/>
</svg>
