<?xml version="1.0" encoding="UTF-8"?>
<svg id="Calque_1" data-name="Calque 1" xmlns="http://www.w3.org/2000/svg" xmlns:xlink="http://www.w3.org/1999/xlink" viewBox="22 22 31 31">
  <defs>
    <style>
      .cls-1 {
        stroke-linecap: square;
      }

      .cls-1, .cls-2, .cls-3 {
        fill: none;
      }

      .cls-1, .cls-3 {
        stroke: #b08510;
        stroke-miterlimit: 10;
        stroke-width: .98px;
      }

      .cls-4 {
        clip-path: url(#clippath);
      }
    </style>
    <clipPath id="clippath">
      <rect class="cls-2" x="22.19" y="22.19" width="30.62" height="30.62"/>
    </clipPath>
  </defs>
  <g class="cls-4">
    <path class="cls-1" d="M52.32,52.32v-29.65h-26.24c-1.88,0-3.4,1.52-3.4,3.4v26.24h29.65Z"/>
    <path class="cls-3" d="M28.38,37.16c2.8-5.44,5.79-5.2,8.96.74,3.08,5.77,6.18,6.44,9.3,2.03-.16-.07-.31-.18-.45-.3-.33-.3-.5-.67-.5-1.1s.17-.79.5-1.1c.34-.31.74-.46,1.21-.46s.87.15,1.21.46c.33.3.5.67.5,1.1s-.17.79-.5,1.1c-.33.3-.74.46-1.21.46-.28,0-.53-.05-.76-.16M28.38,37.16c.15.07.29.17.41.28.33.3.5.67.5,1.1s-.17.79-.5,1.1c-.34.3-.74.46-1.21.46s-.87-.15-1.21-.46c-.34-.3-.5-.67-.5-1.1s.17-.79.5-1.1c.33-.31.74-.46,1.21-.46.29,0,.55.06.79.17Z"/>
  </g>
</svg>