<svg width="522" height="416" viewBox="0 0 522 416" fill="none" xmlns="http://www.w3.org/2000/svg">
<path d="M-458.226 962.967C-353.643 876.252 -388.857 842.675 -284.275 755.959C-179.692 669.244 -144.478 702.82 -39.8958 616.105C64.6868 529.389 29.4732 495.813 134.056 409.097C238.638 322.381 273.852 355.958 378.435 269.257C483.017 182.542 447.803 148.965 552.386 62.2491C656.969 -24.4664 692.182 9.11055 796.765 -77.605L1075.15 190.626L-177.206 1230.9L-456.735 964.364" fill="#D0BC8F"/>
<path d="M-458.611 962.596C-406.368 919.267 -389.098 889.297 -371.764 859.228C-354.429 829.158 -337.015 798.975 -284.676 755.588C-232.336 712.188 -197.267 698.857 -162.326 685.569C-127.385 672.28 -92.5559 659.049 -40.2967 615.734C11.9465 572.419 29.2165 542.449 46.5508 512.366C63.8849 482.296 81.2993 452.112 133.639 408.726C185.978 365.326 221.047 351.995 255.988 338.706C290.93 325.418 325.758 312.187 378.018 268.872C430.261 225.557 447.531 195.587 464.881 165.504C482.215 135.434 499.63 105.25 551.969 61.8641C604.308 18.4636 639.378 5.1326 674.319 -8.15561C709.26 -21.4438 744.089 -34.675 796.348 -77.99L796.765 -78.3322L1075.92 190.64L-177.271 1231.6L-457.184 964.706L-456.35 964.022L-177.207 1230.19L1074.32 190.597L796.316 -77.2628L796.733 -77.605L797.118 -77.2343C744.778 -33.8338 709.709 -20.5028 674.768 -7.2146C639.827 6.07361 604.998 19.3048 552.739 62.6198C500.496 105.935 483.226 135.905 465.875 165.988C448.541 196.058 431.127 226.241 378.787 269.628C326.448 313.028 291.379 326.374 256.438 339.647C221.496 352.936 186.668 366.167 134.409 409.482C82.1653 452.811 64.8953 482.767 47.545 512.85C30.2108 542.92 12.7963 573.104 -39.5431 616.49C-91.8824 659.89 -126.952 673.221 -161.893 686.51C-196.834 699.798 -231.663 713.029 -283.922 756.33C-336.165 799.659 -353.435 829.629 -370.769 859.698C-388.104 889.768 -405.518 919.951 -457.857 963.338L-458.643 962.596H-458.611Z" fill="#EAF6FA"/>
<path d="M-467.286 954.327C-415.043 911.012 -397.773 881.042 -380.423 850.958C-363.088 820.889 -345.674 790.705 -293.335 747.319C-240.995 703.918 -205.926 690.587 -170.985 677.299C-136.044 664.011 -101.215 650.78 -48.9558 607.465C-48.8436 607.379 -48.6992 607.322 -48.5389 607.322C-48.3946 607.322 -48.2502 607.393 -48.138 607.479L-48.5549 607.821L-48.4266 607.322L-48.138 607.465L-48.5549 607.807L-48.8435 607.365C-48.8435 607.365 -48.6351 607.265 -48.4266 607.308L-48.5549 607.807L-48.9879 607.479L-48.8275 607.365L-48.5389 607.807L-48.9719 607.479L-48.5389 607.793L-49.004 607.522L-48.9719 607.479L-48.5389 607.793L-49.004 607.522L-48.9719 607.465L-48.9237 607.422C3.31949 564.107 20.5895 534.137 37.9237 504.068C55.2579 473.998 72.6724 443.814 125.012 400.428C177.351 357.028 212.421 343.697 247.362 330.409C282.303 317.12 317.131 303.889 369.391 260.574C421.634 217.259 438.904 187.289 456.254 157.22C473.588 127.15 491.003 96.9667 543.342 53.5804C595.681 10.1799 630.751 -3.15109 665.692 -16.4393C700.633 -29.7275 735.462 -42.9587 787.721 -86.2737L788.138 -86.6158L1067.3 182.356L-185.898 1223.31L-465.811 956.423L-464.977 955.724L-185.834 1221.89L1065.69 182.299L787.689 -85.5608L788.106 -85.903L788.491 -85.5323C736.151 -42.1317 701.082 -28.8008 666.141 -15.5126C631.2 -2.22435 596.371 11.0068 544.112 54.3218C491.869 97.6368 474.599 127.607 457.248 157.69C439.914 187.76 422.5 217.944 370.16 261.33C317.821 304.73 282.752 318.061 247.81 331.35C212.869 344.638 178.041 357.869 125.781 401.184C73.5383 444.499 56.2682 474.469 38.934 504.538C21.5998 534.608 4.18536 564.791 -48.1541 608.178L-48.5389 607.807L-48.0578 608.078L-48.1541 608.178L-48.3786 608.292H-48.6672L-48.9558 608.149L-48.5389 607.807L-48.1541 608.178C-100.493 651.578 -135.563 664.909 -170.504 678.197C-205.445 691.486 -240.274 704.717 -292.533 748.032C-344.776 791.347 -362.046 821.316 -379.396 851.386C-396.731 881.456 -414.145 911.639 -466.484 955.025L-467.254 954.284L-467.286 954.327Z" fill="#D0BC8F"/>
</svg>
