<svg width="16" height="16" viewBox="0 0 16 16" fill="none" xmlns="http://www.w3.org/2000/svg">
<g clip-path="url(#clip0_80_137)">
<path fill-rule="evenodd" clip-rule="evenodd" d="M0.519043 1.89184C0.519043 1.56686 0.64814 1.25519 0.877935 1.0254C1.10773 0.795603 1.4194 0.666506 1.74438 0.666506H13.959C14.1201 0.666243 14.2796 0.697747 14.4285 0.759217C14.5773 0.820686 14.7126 0.910912 14.8265 1.02473C14.9405 1.13855 15.0309 1.27372 15.0925 1.42251C15.1541 1.5713 15.1858 1.73079 15.1857 1.89184V14.1065C15.1859 14.2676 15.1543 14.4271 15.0928 14.576C15.0312 14.7248 14.9409 14.8601 14.8271 14.974C14.7132 15.088 14.578 15.1783 14.4291 15.24C14.2803 15.3016 14.1208 15.3333 13.9597 15.3332H1.74438C1.58341 15.3332 1.42402 15.3015 1.27531 15.2398C1.1266 15.1782 0.991491 15.0879 0.877699 14.974C0.763908 14.8602 0.673664 14.725 0.612125 14.5763C0.550585 14.4276 0.518956 14.2681 0.519043 14.1072V1.89184ZM6.32438 6.25851H8.31038V7.25584C8.59704 6.68251 9.33038 6.16651 10.4324 6.16651C12.545 6.16651 13.0457 7.30851 13.0457 9.40384V13.2852H10.9077V9.88117C10.9077 8.68784 10.621 8.01451 9.89304 8.01451C8.88304 8.01451 8.46304 8.74051 8.46304 9.88117V13.2852H6.32438V6.25851ZM2.65771 13.1938H4.79638V6.16651H2.65771V13.1932V13.1938ZM5.10238 3.87451C5.10641 4.05762 5.07382 4.2397 5.00654 4.41005C4.93925 4.5804 4.83861 4.7356 4.71053 4.86653C4.58245 4.99746 4.42951 5.10149 4.26068 5.17251C4.09185 5.24353 3.91054 5.28012 3.72738 5.28012C3.54422 5.28012 3.3629 5.24353 3.19407 5.17251C3.02524 5.10149 2.8723 4.99746 2.74422 4.86653C2.61614 4.7356 2.51551 4.5804 2.44822 4.41005C2.38093 4.2397 2.34834 4.05762 2.35238 3.87451C2.36029 3.51508 2.50863 3.17303 2.76563 2.92163C3.02263 2.67023 3.36786 2.52945 3.72738 2.52945C4.08689 2.52945 4.43212 2.67023 4.68912 2.92163C4.94612 3.17303 5.09446 3.51508 5.10238 3.87451Z" fill="#F6F6F6"/>
</g>
<defs>
<clipPath id="clip0_80_137">
<rect width="16" height="16" fill="white" transform="translate(-0.147461)"/>
</clipPath>
</defs>
</svg>
