<svg width="720" height="720" viewBox="-33.8 -16.1 720 720" fill="none" xmlns="http://www.w3.org/2000/svg">
<g clip-path="url(#clip0_251_1367)">
<circle cx="326.2" cy="343.9" r="360" fill="white"/>
<path d="M 417.4 23 C 417.7 23.9 418.1 25 418.1 25.6 C 418.1 26 417.9 26.5 417.6 26.9 C 417.4 27.1 417.2 27.6 417 28 C 416.8 27.3 416.8 26.5 416.8 25.4 C 416.8 24.5 416.5 23.7 416.1 23 C 416.5 23 417 23 417.4 23 Z" fill="#87abc1"/>
<path d="M 387 25.6 C 388.6 25.6 389.9 25.6 391.1 25.4 C 392.1 25.2 392.7 25 392.9 24.7 C 393 24.4 393.3 24 393.8 23.3 C 395.4 21.5 396.7 20.8 398.1 20.8 C 399.5 20.8 400.2 21.1 401.4 21.8 C 401.9 22.1 402.5 22.3 403 22.8 L 403 23.7 C 402.4 24 401.7 24.1 401 24.3 C 400.2 24.4 399.3 24.5 398.9 24.8 C 398.8 24.8 398.5 25 398.4 25.1 C 398 25.2 397.5 25.5 397.4 25.8 C 397.4 26 397.5 26.3 398 26.7 C 398.2 27 398.5 27.3 398.4 27.7 C 398 29.3 397.7 29.5 396 29.6 L 395.5 29.6 C 395.1 29.8 394.7 29.8 394.4 29.8 C 393.8 29.8 393.6 29.8 393.2 29.6 C 392.9 29.6 392.6 29.6 392.2 29.5 C 392.1 29.5 391.9 29.5 391.6 29.5 C 391.5 29.5 391.4 29.5 391.2 29.5 L 391 29.5 L 390.8 29.3 C 390.8 29.2 390.7 28.9 390.5 28.8 C 390.3 28.8 390 28.8 389.9 28.8 C 387.8 28.8 386.2 27.4 384.6 26.2 L 383.8 25.4 L 384.9 25.4 C 385.6 25.4 386.3 25.4 387 25.4 L 387 25.6 Z" fill="#87abc1"/>
<path d="M 370.2 195.8 C 369.5 205.7 360.6 207.6 353.5 209.1 C 352.7 209.3 351.8 209.5 351 209.7 C 348.5 210.2 348.3 210.4 346.8 211.3 L 345.9 211.7 C 345.8 211.7 345.4 212.2 345.1 212.6 C 344.2 213.7 342.8 215 341.3 215 C 339.8 215 340.3 214.8 339.9 214.3 C 338.4 213 340.3 210.5 342.1 208.2 C 342.9 207.1 343.7 206.1 344.2 205.3 C 342.2 206.1 341.1 206 340.4 205.3 C 339.6 204.3 340.2 202.4 340.7 200.6 C 340.9 199.9 341 199.4 341.1 199 L 341.1 198.7 L 341.4 198.7 C 342.1 198.6 342.6 198.2 343.3 197.9 C 343.7 197.6 344.2 197.3 344.7 197.2 C 344.2 196.5 343.6 196 342.9 195.5 C 342 194.9 341.3 194.2 341.3 193.3 C 341.3 192.7 341.8 192.1 342.8 191.4 C 342.8 191.4 343.2 191.4 344.3 191.6 C 345.5 191.7 347.3 192 347.9 192 L 348 192 C 348.1 191.7 348.3 191.7 348.3 191.7 C 346.8 190.2 346.4 188.5 345.9 186.8 C 345.8 186.1 345.7 185.4 345.4 184.7 C 341.4 185.3 335.2 186.9 335.2 191.4 C 337.3 191.4 338 192.1 338.1 192.8 C 338.1 192.9 338.1 193.2 338.1 193.3 C 338.1 195.4 335.4 198.4 334 199.4 C 333 199.9 332.1 200.8 330.8 201.6 C 329.3 202.7 327.8 203.8 326.6 204.6 C 323 206.5 321 206.8 320 205.6 C 318.8 203.9 320 200.2 321.2 196.8 C 321.8 195.3 322.2 193.9 322.3 193.1 C 321.5 192.8 320.8 192.3 320.3 191.8 C 319.9 191.6 319.5 191.2 319 191 L 318.8 191 C 318.8 190.9 318.8 190.5 318.8 190.5 C 318.8 189.8 319.3 188.8 319.9 188.1 L 319.9 187.9 C 320 187.9 320.3 187.9 320.3 187.9 C 321.5 188.4 323 187.9 324.5 187.4 C 325.2 187.3 325.8 187 326.5 186.9 C 326 185.9 325.6 184.7 325.5 183.6 C 325.5 183.3 325.4 183.1 325.2 182.8 L 325.2 182.4 L 325.5 182.4 C 327.3 182 329.1 181.5 330.4 180 L 330.4 179.8 C 330.6 179.8 331 179.8 331 179.8 C 331.4 179.9 331.7 180 331.9 180.2 C 332.8 180.4 333.3 180.6 334.1 181.7 C 335.4 181.7 336.7 181.5 337.7 181 C 337.7 180.3 337.3 178.9 337.2 178.3 C 336.9 178.3 336.5 178.3 336.1 178.3 C 335.6 178.3 335.2 178.3 334.8 178.3 L 334.4 178.3 L 334.4 177.8 C 334.4 175.9 335.4 174.8 336.2 173.9 C 337 173 337.7 172.2 337.7 171 C 337.7 170 337.2 169.2 336.5 168.4 C 335.4 167 334.3 165.6 335.1 162.6 L 335.1 162.2 L 335.5 162.2 C 335.9 162.2 336.3 162.2 336.7 162.2 C 338.7 162.2 340.2 161.6 341.8 161.1 C 342.9 160.8 344 160.4 345.3 160.1 L 345.8 160.1 L 345.7 160.7 C 345.1 162.9 345.5 165.4 346.4 166.4 C 347.2 167.5 348.4 167.1 350.1 165.5 L 350.3 165.2 L 350.6 165.5 C 350.9 165.8 351.2 166 351.4 166.3 C 351.6 166.3 351.7 166.6 351.8 166.7 L 352 166.7 C 352 166.9 352 167.1 352 167.1 C 351.8 168.9 351 170.4 350.3 171.7 C 349.2 173.7 348.4 175.2 350.3 177.4 C 351.8 177.2 353.8 177.4 354.9 177.7 L 355.3 177.7 L 355.1 178.3 C 354.7 179.3 354.6 181 354.9 182.5 C 355.4 182.9 356.1 183.6 356.6 184.2 C 358.4 184.2 359.7 185.4 360.2 187.4 C 360.5 187.4 360.9 187.4 361.2 187.4 C 361.7 187.4 362.3 187.4 362.5 187.4 L 362.8 187.4 L 363 187.4 C 363.2 187.6 363.4 187.9 363.5 188.1 C 363.8 188.4 363.9 188.7 364.2 188.7 L 364.7 188.7 C 364.7 188.8 364.5 189.4 364.5 189.4 C 364.2 189.9 363.9 190.7 363.6 191.4 C 363.5 192.1 363.2 192.8 363 193.3 C 364.6 194.6 366.8 195.1 369.1 194.9 L 369.7 194.9 L 369.7 195.3 L 370.2 195.8 Z" fill="#87abc1"/>
<path d="M 416.2 22.9 C 416.5 23.6 416.9 24.4 416.9 25.2 C 416.9 26.3 416.9 27 417.2 27.8 C 417.2 27.4 417.4 27 417.7 26.7 C 418 26.3 418.1 26 418.3 25.5 C 418.3 24.8 418 23.9 417.6 22.9 C 417.2 22.9 416.8 22.9 416.2 22.9 Z M 409.6 129.8 C 407.7 136 405.5 137.2 408.5 143.3 C 410.7 142.4 413.1 143 415.1 142.8 C 415.3 146.4 419.5 150.8 423.1 150.8 C 422.5 152.3 421.2 153.4 419.6 154 C 419.5 153.8 419.4 153.7 419.2 153.5 C 418.5 153.8 417.9 154.2 417.3 154.5 C 416.8 154.2 416.3 153.8 415.8 153.7 C 412.9 157.5 416.2 158.6 416.8 162.1 C 417 164.1 415.5 164.9 415.8 166.6 C 415.9 168 418 169.6 418.4 170.8 C 416.9 171.9 414.8 172.9 412.9 173.4 C 413.2 173.9 413.6 174.5 414 175.1 C 410.6 178.3 408 175.4 405.5 181.1 C 414.7 180.3 422.1 180 428.6 173.3 C 429.1 172.8 431.6 170.3 431.7 169.5 C 432.1 167 430.1 167.5 429.8 165.1 C 429.5 161.8 430.5 156.2 431 152.5 C 439.1 161.6 436.8 151.8 437.2 145.3 C 435.8 144.1 435.2 142.2 434.5 140.6 C 434.3 140.6 434.2 140.8 433.9 140.8 C 429 150.8 415.3 143.1 417.9 134.6 C 411 128.6 415 123.2 415 114.7 C 410.9 116.1 410.4 126.1 409.3 129.8 L 409.6 129.8 Z M 509.5 207.2 C 510.6 209.7 513.2 211.2 516.1 211.1 L 516.8 211.1 L 516.5 211.6 C 515.9 213.5 514.2 215 511.5 216 C 510.8 217.5 510.8 219.4 511.3 221.3 L 511.3 221.8 L 511.1 221.9 C 509.7 222.6 508.6 222.6 506.9 222 L 506.4 222 C 506.4 221.9 506.7 221.3 506.7 221.3 C 506.9 220.8 507.1 220 507.2 219 C 507.2 218.3 507.3 217.8 507.5 217.1 C 506.8 217.1 506 217 505.3 216.8 C 503.8 216.5 502.4 216.3 501.3 216.7 C 500.9 216.7 500.5 216.4 500.2 216.1 L 499.9 215.9 L 500.2 215.6 C 500.3 215.3 500.6 214.8 500.9 214.2 C 501.2 213.5 501.3 213 501.6 212.4 C 501.6 212.4 501.3 212.3 501.3 212.2 C 498 213.4 495.3 213.7 493.1 212.7 C 493.2 214.2 493.8 215.4 494.2 216.5 C 495.1 219.2 496 221.2 492.8 224.6 C 494.4 225.9 494.6 227.4 494.9 229 C 494.9 229.3 494.9 229.6 495 229.9 L 494.6 229.9 L 494.7 230.3 C 494.4 230.4 493.3 232.1 493.3 232.5 C 493.3 233 493.8 233.3 494.2 233.6 C 494.6 233.8 495 234.2 495 234.8 C 495.4 238.9 496.6 240.3 498.4 242.2 C 499.2 243 500.2 244.1 501.2 245.6 L 501.2 245.9 C 501.3 245.9 500.9 246.6 500.9 246.6 C 500.1 247.8 499 249.5 497.6 250.7 C 497.7 250.7 498 250.7 498.2 250.6 C 499.7 250.2 501.2 249.8 502.3 248.8 C 503.2 247.8 503.9 246.5 504.6 245.1 C 505.3 243.9 505.8 242.6 506.7 241.8 C 507.2 241.2 507.8 241.1 508.4 240.8 C 509.1 240.6 509.8 240.3 510.4 239.7 C 510.8 239.3 511.3 238.4 512 237.4 C 512.6 236.4 513 235.9 513.1 235.8 C 514.6 234.4 519.2 233.6 524.5 232.5 C 531.5 231.1 540.3 229.3 542.2 226.3 C 542.6 225.7 542.6 225.2 542.6 224.5 C 542.1 223.7 540.8 222.2 540 221.3 C 536.7 222.2 536 221.2 534.9 219.7 C 534.5 219 534 218.3 533.2 217.6 C 531 216 529.6 215.7 527.1 215.2 C 526.4 215.2 525.5 215.2 524.6 215.2 L 524.4 215.2 L 524.4 214.9 C 523.5 212.8 519.4 210.9 516.4 210.2 C 516.3 210.2 516 210.2 515.9 210.2 L 515.4 210.2 L 515.4 209.8 C 515.4 207.9 516.3 206 517 204.2 C 516.4 203.8 515.6 203.5 515 203.4 C 514.8 203.8 514.5 204.1 514.2 204.3 C 513.8 204.6 513.5 205 513.2 205.4 L 513.2 205.7 L 512.8 205.7 C 511.1 205.6 510.6 205.8 509.7 207.5 L 509.5 207.2 Z M 532.2 273.1 C 529.4 275.4 520.2 274 518.2 272.3 C 517.9 272.3 517.5 272.4 517.1 272.5 C 516.8 272.5 516.5 272.7 516.3 272.8 C 516.3 273.2 516.3 273.6 516.3 274 C 516.3 274.7 516.3 275.3 516.5 276.1 L 516.5 276.4 C 516.7 276.4 516.5 276.7 516.5 276.7 C 514.3 278.6 511.9 279.1 509.8 278.3 C 507.3 277.3 505.6 274.6 505 271 C 504.5 270.9 504.1 270.8 503.5 270.6 C 502 270.2 500.3 269.8 499.8 268.6 C 499.5 267.9 499.5 266.9 500.1 265.8 C 499.4 264.2 497.9 263.2 496.2 262 C 495.7 261.6 495.1 261.1 494.4 260.7 L 494 260.5 L 494.4 260.2 C 494.9 259.9 495.1 259.1 495.5 258.5 C 495.5 258.4 495.5 258.3 495.7 258.1 C 494.6 258 493.8 257.3 493.5 256.3 C 493.2 255.5 493.2 254.7 493.5 253.9 C 493.1 254.1 492.5 254.3 491.8 254.3 C 490.7 256.8 487.9 257.4 485 258 C 482.2 258.5 479.3 259.2 478 261.6 L 478 261.8 C 477.8 261.8 477.4 261.7 477.4 261.7 C 477 261.7 476.6 261.6 476.2 261.4 C 476.2 261.4 476.1 261.4 475.9 261.4 C 476.7 262.2 478 262.9 479.3 263.6 C 482.4 265.3 485.9 267.2 485 271.2 C 485.8 272.4 486.8 273.5 487.9 274.5 C 488.1 274.7 488.5 275.1 488.8 275.4 L 489.4 276 L 488.5 276 C 488.1 276.1 487.6 276.4 486.9 276.5 C 486.3 276.8 485.7 276.9 485.1 277.1 C 486.6 278.6 486.9 280.6 485.8 282.6 C 489 284.5 489.1 288 488.8 291.2 L 488.8 292 L 488.1 291.6 C 486.3 290.4 485.2 288.3 484.2 286.5 C 483.3 285 482.5 283.7 481.4 282.6 C 480.7 282 479.9 281.9 479.1 281.7 C 477.6 281.5 475.8 281 476.1 277.6 C 476.1 277.6 476.1 277.6 476.1 277.3 C 476.1 277.1 475.8 276.5 475.6 276.1 C 472.8 275 470.7 272.4 468.6 269.9 C 467.7 268.7 466.6 267.5 465.5 266.4 C 464.4 265.3 463.7 264.3 463.2 263.5 C 462.6 262.4 462.5 261.6 462.3 260.6 C 462.3 259.6 462.1 258.4 461.4 256.9 C 460.4 254.8 460 254.7 458.8 254.3 C 458.2 254.1 457.4 253.9 456.3 253.3 C 451.3 250.7 447 247.8 442.8 245.1 C 438.9 242.5 434.7 239.7 430.2 237.4 C 429.9 238 429.4 238.5 429 238.9 C 428.7 239.2 428.6 239.3 428.4 239.5 L 428 240.3 L 427.7 239.5 C 426.9 237 425.1 235.6 422.9 235.6 C 422.3 236.4 422 237.1 422.1 237.7 C 422.1 238.1 422.7 238.4 423.3 238.8 C 424 239.2 424.7 239.5 425.3 240.3 C 425.7 240.8 426.2 241.2 426.8 241.8 C 427.3 242.2 427.7 242.6 428.2 243 C 428.6 243.4 428.4 244.3 428.4 245 C 428.4 245.5 428.4 246.3 428.4 246.6 C 430.6 249.8 436 252.9 440 254.7 C 440.8 255.1 441.6 255.4 442.6 255.7 C 443.7 256.1 444.9 256.5 446.1 257.2 C 447.4 257.9 448.3 258.7 449.3 259.5 C 449.8 260 450.3 260.3 450.7 260.6 C 451.2 260.9 452.2 261.3 453.3 261.7 C 455.3 262.5 457.9 263.5 459.4 265 C 460.1 265.7 460.5 266.5 460.5 267.6 L 460.5 268.1 L 460.1 268.1 C 458.9 268 457.7 268.1 456.4 268.3 C 454.8 268.6 453 268.8 451.1 268.1 C 451.1 268.4 451.1 268.8 451.1 269.1 C 451.5 269.2 451.9 269.4 452.3 269.5 C 453.4 269.9 454.4 270.3 455.6 270.3 L 455.9 270.3 L 455.9 270.6 C 456.7 272.8 455.5 274.2 454.4 275.6 C 453.1 276.9 452.2 278.2 453.1 280.2 L 453.1 280.5 C 452.9 281.3 451.9 283.4 451.2 284.3 L 450.9 284.6 L 450.7 284.6 C 450.7 284.3 450.4 284.3 450.3 284.2 C 449.6 285.9 450.5 287.5 452 289.7 L 452.3 290 L 452 290.2 C 450.3 291.9 447.9 291.8 445.9 291.8 L 445.6 291.8 C 444.6 291.1 443 290.5 441.3 290 C 437.2 288.6 432.5 286.9 433.2 284.2 L 433.2 283.8 L 433.8 283.9 C 436.8 285 443 283.9 446.4 280.8 C 447.6 279.7 449 277.8 448.5 275.1 C 448.1 274.9 447.5 274.7 447.1 274.5 C 444.8 273.5 442.2 272.4 442.7 268.8 C 440.5 267.5 438.7 267.2 436.7 266.9 C 435.2 266.6 433.6 266.5 432 265.7 C 428.7 264.3 424.9 261.6 421.6 259.1 C 420.5 258.3 419.5 257.6 418.5 256.9 C 417.6 256.2 416.3 254.8 415.1 253.3 C 413.1 250.9 410.3 248 408.8 248.4 C 407.3 248.8 406.7 250.6 406.2 252.2 C 405.8 253.7 405.2 255.2 404 255.8 C 403.2 256.2 401.9 256.1 400.6 255.4 C 400.3 255.4 400.2 255.7 400 255.7 C 400 256.6 399.7 257.7 399.5 258.7 C 399.3 259.4 399.1 259.9 398.8 260.5 L 398.8 260.9 C 398.6 260.9 398.2 260.6 398.2 260.6 C 390.7 256.2 380 255 374.2 262.2 C 375.3 262.8 376.7 263.3 377.8 263.5 C 378.1 263.2 378.5 262.9 378.5 262.9 L 379.2 262.7 L 379.2 263.3 C 378.9 267.2 375.7 269.9 372.6 272.4 C 368.9 275.6 365.3 278.4 366.3 283.4 C 367.6 283.1 368.9 283.4 370 284.3 C 371.1 285.3 371.6 286.7 371.6 288.3 C 371.6 288.5 371.5 288.6 371.5 288.6 C 370 289.8 368.6 291.6 367.4 293.4 C 366.3 294.9 365.2 296.6 363.8 297.7 C 361.7 299.4 359.8 299.8 357.9 300.1 C 356.8 300.3 355.7 300.5 354.4 300.9 C 352.5 301.6 350.7 302.7 349.2 303.7 C 347 305.1 345.1 306.3 343.2 306.3 C 341.3 306.3 341.3 306 340.2 305.2 C 339.2 304.5 338.4 303.4 337.4 301.8 C 336.6 302.2 335.5 302.3 334.5 302.3 C 333.9 302.3 333.3 302.3 332.8 302.6 L 332.2 302.6 C 332.2 302.7 332.2 302.2 332.2 302.2 C 332.2 299.3 331.8 298.5 331.3 298.2 C 330.3 297.8 328.4 299.4 326.6 300.9 C 324.9 302.3 323.6 303.6 322.3 303.8 L 321.9 303.8 L 321.9 303.6 C 321.5 302.5 321.9 300 322.3 297.4 C 322.9 293.5 323.6 288.9 322.1 287.8 C 321.5 287.4 320.8 287.5 319.9 287.8 L 319.3 288 L 319.3 287.5 C 319.3 285.3 320.1 282.3 321.2 278.7 C 323.4 271.6 326 262.8 320.4 259.4 L 320.1 259.4 C 320.1 259.2 320.3 258.8 320.3 258.8 C 320.3 258.7 320.4 258.4 320.5 258.3 L 320.5 258 L 321 258 C 321.4 258 321.8 258 322.2 258 L 322.7 258 C 323.8 256.8 324.5 255.8 324.4 253.9 L 324.4 253.3 L 324.9 253.3 C 327 253.6 328.9 254 330.7 254.3 C 333.3 254.8 335.8 255.4 338.5 255.4 C 340.3 255.4 342.5 255.9 344.8 256.3 C 349.2 257.2 354.3 258.1 356.8 257 C 358 256.5 358.8 255.7 359.4 254.3 C 360.8 251 359.5 244.8 356.1 237.1 C 356 236.9 355.8 236.3 355.5 235.8 C 355.1 234.5 354.4 232.6 353.9 232.2 C 352.9 231.4 352 231.4 351 231.5 C 350.1 231.5 349.1 231.5 347.9 231.1 C 346.4 230.4 340.6 225.5 340.2 222.4 C 340 221.5 340.4 220.9 340.7 220.7 C 341.7 219.8 342.9 220.9 344 221.8 C 344.4 222.2 345.1 222.7 345.4 222.7 C 345.9 222.7 346.2 222.3 346.6 221.9 C 347 221.5 347.6 220.9 348.4 220.8 C 351.7 220.5 354.7 220.8 357.3 221.5 C 358 220 359 218.5 360.2 217.4 L 360.6 216.8 L 360.8 216.8 C 362 216.5 362.8 215 363.8 213.5 C 364.6 212 365.6 210.5 366.8 209.5 L 366.9 209.5 L 367.1 209.5 C 368.2 209.8 374.8 203.9 376.7 201.4 C 379.7 197.7 379 195 378.2 191.2 L 377.9 189.6 L 378.5 189.6 C 382 189.4 386.8 189.1 387.1 184.3 L 387.1 183.6 L 387.8 184 C 388.2 184.3 388.8 184.4 389.3 184.6 C 389.7 184.6 390.1 184.7 390.5 184.8 C 391.1 183.6 391.2 182.2 391.1 181 C 387.1 179.3 387.7 174.4 388.1 170.3 C 388.1 169.2 388.2 168.4 388.4 167.4 L 388.4 166.9 L 388.9 166.9 C 389.9 167 391 167.3 392.2 167.7 C 394.9 168.5 398.1 169.3 399.9 168.1 C 400.8 167.4 401.4 166.2 401.5 164.3 C 399.9 163.2 396.2 164.3 392.7 165.4 C 391.2 165.9 389.7 166.3 388.5 166.4 C 388.2 166.4 387.9 166.4 387.7 166.4 C 386.4 166.4 385.1 166.9 383.5 167.1 C 379.3 168 374.4 168.9 372.6 164.4 L 372.6 164.1 L 372.6 164 C 373 163.4 373.5 162.9 373.9 162.5 C 375.4 160.8 376.8 159.4 377 157 C 375.7 157 374.6 156.7 373.5 156.4 C 373.1 156.4 372.7 156.3 372.3 156.2 L 371.7 156.2 L 372 155.5 C 372.2 155.1 372.4 154.6 372.7 154.1 C 373.1 153.1 373.5 152.2 374.1 151.4 C 372.8 149.7 372 147.2 372.8 144.8 C 371.3 144.5 370.5 143.8 370.1 142.8 C 369 139.7 374.1 134.1 377.8 129.9 C 379.2 128.4 380.4 127.1 380.8 126.4 C 382.4 123.5 382.2 120.1 382 116.8 C 381.8 113.3 381.6 109.9 383.5 107.2 C 383.1 107 382.7 106.9 382.2 106.7 L 381.9 106.7 L 381.9 106.5 C 381.5 105.5 381.1 104.8 380.7 104.1 C 379.8 102.6 379.3 101.7 379.7 100.7 C 380.1 99.7 381.2 99.1 384.1 98 C 385.2 97.6 386.3 97.3 387.4 96.9 C 391 95.9 393.6 95.1 394 90.8 L 394 90.6 L 394.3 90.6 C 394.7 90.4 395.2 90.3 395.6 90.1 C 395.8 90.1 395.9 90.1 396 90.1 L 396.2 90.1 L 396.3 90.1 C 397.1 90.7 397.3 91.2 397.4 91.8 L 397.7 91.8 C 397.7 92.1 397.7 92.1 397.7 92.1 C 398 92.1 398.8 91.1 399.1 90.8 C 399.3 90.6 399.5 90.4 399.6 90.3 C 399.9 90 400.2 89.7 400.4 89.5 C 401.4 88.6 402.4 87.8 403.4 87.3 C 403.6 87.3 403.7 87.3 404 87.1 C 404.5 87 405.2 86.7 405.6 86.4 C 405.9 86.3 406.1 86 406.2 85.9 C 406.5 85.6 406.7 85.2 407.2 84.9 C 407.8 84.5 408.7 84.4 409.3 84.1 C 410.3 84 411.1 83.7 412 83 L 412.6 82.5 L 412.6 83.3 C 412.9 84.9 414.2 85.3 416.2 85.6 C 416.9 85.6 417.6 85.9 418.1 86.2 C 418.4 86.2 418.5 86.4 418.7 86.7 C 418.8 86.8 419 87.1 419.2 87.1 C 419.5 87.3 419.8 87.3 420.2 87.3 C 420.5 87.3 420.6 87.3 420.9 87.3 C 421.7 87.4 422.3 87.8 422.7 88.2 C 422.9 88.5 423.2 88.6 423.6 88.9 C 424.4 89.3 425.7 89.5 426.8 89.6 C 427.1 89.6 427.3 89.6 427.5 89.6 C 429.1 89.7 429.5 90.1 430.5 90.7 C 430.6 90.7 430.9 91 431 91.1 C 431.7 91.5 432.3 91.5 433 91.5 C 433.5 91.5 434.1 91.5 434.7 91.8 C 435.6 92.1 436.1 92.6 436.7 93.2 C 437.1 93.6 437.5 94 438 94.1 C 438.3 94.1 438.4 94.4 438.6 94.4 C 439.3 94.7 439.8 94.9 440.5 95.8 C 440.9 96.3 441.3 96.7 441.9 97 C 442 97 442.3 97 442.6 97.1 C 443 97.1 443.4 97.1 443.7 97.4 C 444.2 97.8 444.5 98.2 444.3 98.8 C 444.3 99.3 443.8 100 442.8 100.4 L 442.4 100.4 C 441.6 101 441.3 101.1 441.5 102.1 C 441.5 102.2 441.5 102.4 441.5 102.4 C 441.5 102.4 441.5 102.4 441.3 102.5 C 441.3 102.5 441.1 102.8 440.9 103 C 440.9 103.2 440.4 103.2 440.4 103.2 C 439.7 102.6 437.8 101.5 437.2 101.9 C 437.1 101.9 437.1 102.4 437.2 102.6 L 437.2 103.3 L 436.7 103.2 C 436.4 103.2 436.1 103.2 436.1 103.2 C 436 103.5 436.1 104.1 436.5 104.6 C 436.5 104.6 436.7 104.6 436.9 104.6 C 437.2 104.6 437.5 104.6 437.9 105 C 438.2 105.2 438.2 105.5 438.3 105.8 C 438.3 106.1 438.4 106.3 438.6 106.5 C 439 106.9 439.5 107.2 440.1 107.3 C 440.6 107.4 441.2 107.7 441.7 108.1 C 442.6 108.8 442.7 108.8 443.4 108.8 C 443.7 108.8 444.1 108.8 444.5 108.8 C 445.2 108.8 445.4 108.8 445.6 109.2 C 445.6 109.2 445.6 109.4 446 109.6 C 446.1 109.8 446.4 109.9 446.4 110 C 446.7 110.3 446.7 110.3 447.1 110 C 447.8 109.6 447.6 109.2 447.4 108.1 C 447.4 107.8 447.2 107.6 447.2 107.3 C 447.1 107.2 446.8 106.9 447 106.5 C 447 106.1 447.2 105.9 447.5 105.8 C 447.5 105.4 447.5 105.1 447.5 104.8 C 447.5 104.6 447.4 104.3 447.2 103.9 C 447.2 103.6 447.2 103.2 447.2 102.9 C 447.2 102.6 447.2 102.4 447.2 102.2 C 447.2 102.1 447.2 101.8 447.2 101.7 C 447.2 101.1 447.2 100.8 447.5 100.2 C 447.5 99.9 447.8 99.6 447.8 99.5 C 448.2 98.7 448.5 98 448.6 97 C 448.6 96.3 448.6 95.6 448.6 94.9 C 448.6 94.1 448.5 93.3 448.6 92.5 C 448.9 90.8 448.6 89.3 448.6 87.8 C 448.6 87.1 448.5 86.3 448.3 85.5 C 448.3 85.2 448.3 84.8 448.3 84.4 C 448.3 84 448.3 83.6 448.2 83.1 C 448.2 82.7 448.2 82.5 448.5 82.2 C 448.5 81.9 448.6 81.8 448.6 81.6 C 448.6 81.1 448.5 80.7 448.2 80.1 C 448.1 79.6 447.8 79 447.8 78.5 C 447.8 77.2 448.3 75.5 449.4 74.8 C 450 74.4 450.8 74.2 451.6 74.2 C 452.3 74.2 453 74.1 453.4 73.7 C 453.7 73.5 453.8 72.7 454 72.3 C 454 72.2 454 72 454 71.9 C 453.5 71.3 453 71.1 452.6 70.9 C 451.9 70.5 450.7 70 449.7 70.2 L 449.7 70 L 449.7 70.5 L 449.4 70.5 C 448.3 69.8 447.6 69.6 446.7 69.6 C 446 69.6 445.6 69.6 445 69.7 C 444.6 69.7 444.2 69.8 443.8 70 C 443.5 70 443.3 70 443 69.8 C 442.8 69.8 442.6 69.7 442.4 69.8 C 442.2 69.8 442.2 69.8 442 70.1 C 442 70.2 441.9 70.5 441.6 70.7 C 440.8 71.3 440.4 71.5 439.7 71.5 C 439 71.5 439.3 71.5 439 71.5 L 438.4 71.5 C 437.3 71.5 436.4 71.2 435.2 70.7 C 434.6 70.4 434.1 70.2 433.5 70.2 L 433.4 70.2 C 433.2 70.2 433.1 70.2 432.8 70.2 C 432.4 70.2 431.9 70.2 431.3 69.8 C 430.8 69.6 430.6 69.1 430.3 68.7 C 430.2 68.5 429.9 68.2 429.7 67.9 C 429.5 67.9 429.4 67.6 429.1 67.5 C 428.8 67.4 428.6 67.1 428.3 66.8 C 427.6 66.1 427.3 65.4 426.9 64.6 C 426 63.8 425.4 62.3 425.1 60.9 L 424.9 59.8 L 425.8 60.4 C 426.8 60.9 427.6 61.6 428.4 62.3 C 429.5 63.1 430.5 63.9 431.7 64.6 C 432.1 64.9 432.7 65 433.2 65.3 C 433.8 65.6 434.5 65.8 435.2 66.3 L 435.4 66.3 C 436.3 66.8 437.9 67.9 438.7 67.8 L 439 67.8 L 439.1 67.9 C 439.1 67.9 439.3 68 439.4 68.2 C 440 68.2 440.6 68.2 441.2 68.5 C 442.6 67.5 444.2 67.6 445.9 67.6 C 446.7 67.6 447.4 67.6 448.1 67.2 C 448.5 67.1 448.9 66.9 449.3 66.8 C 450.1 66.7 451.1 66.7 451.9 66.7 C 452.4 66.7 452.9 66.7 453.4 66.7 C 453.8 66.7 454.2 66.7 454.8 66.7 C 455.5 66.7 456.3 66.7 456.8 66.7 C 457.4 65.8 458.3 65.3 459.2 65.4 C 459.7 65.4 460.1 65.7 460.4 66.3 C 460.8 66.3 461.1 66.3 461.4 66.3 C 461.6 66.3 462.1 66.3 462.3 66.3 C 462.6 66.3 463.2 65.8 463.6 65.6 C 463.8 65.3 464.3 65.2 464.5 65 L 464.7 65 L 464.8 65 C 465.2 65.3 465.6 65 465.9 65 C 466 64.5 466.3 63.8 466.9 63.2 L 467 63.2 L 467.3 63.2 L 467.4 63.2 L 467.5 63.2 C 468.5 63.7 469.2 64.5 469.5 65.3 C 469.6 65.3 469.7 65.3 470 65.3 C 470.6 65.3 471.3 65.6 471.8 66 C 472.8 66.8 472.8 67.6 472.6 68.3 C 472.6 68.5 472.6 68.6 472.6 68.7 C 473.3 68.5 474.4 68.2 475.2 68.2 C 474.8 67.9 474.7 67.4 474.5 67.1 C 474.5 66.8 474.4 66.5 474.1 66.3 C 473.9 66 473.6 66 473.2 66 C 472.8 66 472.2 65.8 471.8 65.3 C 471.5 64.9 471.4 64.3 471.3 63.9 C 471.3 63.5 471.1 63.2 471 63.1 C 471 63 470.7 62.8 470.6 62.6 C 470.3 62.3 470 61.9 470 61.5 C 469.7 61.5 469.5 61.3 469.1 61.2 C 468.5 61.2 468.1 60.9 467.7 60.8 C 467.7 60.9 467.4 61 467.4 61 C 466.7 61 466.2 60.8 465.9 60.5 C 465.6 60.4 465.5 60.2 465.2 60.1 C 464.5 60.1 464.4 60.1 464.1 60.1 C 463.8 60.1 463.6 60.4 463 60.5 C 461.9 60.8 460.7 60.9 459.6 60.1 C 455.7 62.6 452.9 63.4 450.9 62.6 C 450 62.1 449.4 61.6 448.9 61 C 448.5 60.8 448.2 60.4 447.6 59.9 C 446.8 59.4 446.4 59.4 445.9 59.4 C 445.4 59.4 444.8 59.4 444.1 59.1 C 443.3 58.9 442.7 58.2 442 57.5 C 441.7 57.1 441.3 56.8 441.1 56.5 C 440.4 56 439.5 55.7 438.6 55.6 C 437.9 55.4 437.1 55.3 436.5 54.9 C 435.4 54.2 435.3 53.2 435.2 52.3 C 435.2 51.9 435.2 51.3 434.9 50.8 C 434.5 49.5 433.5 48.6 432.3 48 L 432 48 L 432 47.6 C 432 47.3 432.5 46.2 432.5 46.2 C 432.5 46.1 432.7 46.1 432.7 46.1 C 433.9 45.8 434.6 46.2 435.3 46.6 C 436 47 436.5 47.5 437.6 47 C 439.8 46.4 442 46.2 444.5 46.6 C 444.5 46.6 444.5 46.5 444.5 46.4 C 444.3 46.4 444.2 46.4 444.1 46.4 C 443.5 46.4 443 46.4 442.6 46.4 C 442 46.4 441.7 45.9 441.6 45.8 C 441.5 45.8 441.3 45.7 441.3 45.5 C 440.6 45.3 440.1 45.3 439.5 45.3 C 438.9 45.3 438.2 45.3 437.5 44.9 C 436.1 44.2 435 42.5 434.7 41.8 C 434.6 41.6 434.5 41.1 434.5 40.7 C 434.5 40.3 434.3 39.9 434.1 39.8 C 434.1 39.8 433.8 39.8 433 40 L 432.7 40 L 432.4 40 C 431.6 39.2 431 38.4 430.8 37.4 C 428.7 38 427.5 36.8 426.5 35.7 C 426 35.1 425.4 34.4 424.7 34 C 424.4 34 424.2 33.9 423.9 33.9 C 423.6 33.9 423.2 33.9 422.8 33.7 C 422.5 33.6 422.4 33.3 422.4 33 C 422.4 32.8 422.3 32.6 422.1 32.5 C 422 32.5 421.7 32.5 421.4 32.5 C 421.2 32.5 420.7 32.5 420.5 32.4 C 420.1 32.2 419.9 32 419.8 31.8 C 420.1 32.8 420.1 33.7 419.6 34.6 L 419.4 35.1 L 419 34.6 C 418.7 34.1 418.4 33.7 418.1 33.3 C 417.7 32.5 417.2 31.7 416.5 31.1 C 416.3 31 415.4 30.6 414.8 30.3 C 414 29.9 413.3 29.6 412.9 29.3 L 412.5 29.1 C 412 28.7 411.4 28.2 410.9 27.8 C 410.2 27.4 409.6 27 408.9 26.5 C 407.4 25.4 405.9 24.3 404.4 23.4 L 404.4 22.5 C 404.5 22.5 404.7 22.3 404.8 22.2 C 405.1 21.8 405.1 21.5 405.1 21.5 C 405.1 21.5 404.8 21.2 404.7 21.1 C 404.3 20.8 403.6 20.4 403.2 19.5 L 402.9 19 L 403.3 19 C 405.6 18.2 409.3 18.5 411.7 19 C 412.8 19.3 413.7 19.9 414.6 20.4 C 415 20.7 415.4 21 415.8 21.1 C 415.8 20.7 415.7 20.1 415.8 19.6 C 414.4 19 413.6 18.2 412.6 17.4 C 412.2 17.1 411.8 16.7 411.4 16.3 C 410.6 15.6 409.2 15.2 408 14.8 C 407.6 14.7 407.3 14.5 406.9 14.4 C 405.9 14.1 404.8 13.8 403.4 13.6 C 400.3 13 396.6 12.2 395.1 9.4 L 394.4 8.2 L 395.6 8.8 C 396.4 9.2 397.4 9 398.4 9 C 398.9 9 399.6 9 400.3 9 C 400.6 9 401 9 401.4 9.2 C 402.6 9.4 404.1 9.6 405.1 9.2 C 404.7 8.9 404.1 8.8 403.4 8.6 C 402.8 8.6 401.9 8.5 401.3 8.5 C 400.3 8.5 399.3 8.5 398.4 8.2 L 397.4 7.9 C 396 7.5 394.7 7.2 393.3 7 L 392.3 7 C 391 6.6 389.6 6.3 388.4 6.1 L 387.7 6.1 C 385.9 6 384.5 5.9 382.6 5.3 C 381.5 5.1 380.5 5.1 379.6 5.2 C 378.7 5.2 377.9 5.2 377.1 5.2 C 375.6 5.1 373.5 4.4 372.2 3.7 C 371.1 3.1 370 2.7 368.9 2.4 C 368.2 2.3 367.5 2 366.7 1.8 C 365.2 1.2 364.3 0.2 363.5 -0.6 C 363.1 -1 362.7 -1.4 362.1 -1.8 L 361.7 -1.5 C 361.6 -1.5 361.2 -1.7 361.2 -2.2 C 361.2 -2.4 361.3 -2.5 361.3 -2.5 C 361.4 -2.6 361.6 -2.8 361.7 -2.9 C 362.4 -3.5 363.4 -3.9 364.2 -3.7 C 364.7 -4 365.3 -4.1 365.8 -4.3 C 421 1.8 472.3 20.6 516.8 49.2 C 516.8 49.2 517 49.2 517.1 49.4 C 518.3 50.2 519.6 51 520.7 51.9 C 592.4 100 645.4 174.1 666.1 260.7 C 666.1 264.2 666.4 268 666.7 271.7 C 667.1 277.8 667.5 284.1 666.8 289.3 C 666.8 290.1 667 290.9 667 292.2 L 667 293.3 L 666.3 292.4 C 664.2 290.2 662.9 288.3 662.3 285.4 C 659.3 283.5 657.1 280.2 658.3 276.8 C 657.2 276 656.5 275.4 655.2 275.4 L 655 275.4 C 654.8 275.3 654.6 275 654.5 274.9 C 655.3 279.7 656.4 284.1 657.5 288.9 C 657.8 290 658 291.1 658.3 292.2 C 659 295 660.2 309 659.1 311.1 L 658.7 311.8 L 658.3 311.1 C 655.6 306.3 654.5 300.5 653.4 294.9 C 653.1 293.1 652.7 291.3 652.3 289.7 C 652.1 289.7 651.9 289.6 651.7 289.6 C 651.5 289.6 651.2 289.3 650.6 289.3 L 650.4 289.3 L 650.4 288.9 C 650.4 288.3 650 287.9 649.7 287.4 C 649.3 286.7 649 286 648.9 285.2 C 646.9 284.8 646.4 284.2 645.1 283 C 643.4 283.7 642.1 283.2 641.4 282.7 C 639.7 281.2 639.2 277.6 639.8 275 C 639.8 275 639.5 274.9 639.5 274.7 C 638.6 275.1 637.3 275.7 636.4 276.1 C 636.2 278.2 635.5 279.4 634 280.2 C 634 280.2 634 280.4 634 280.5 C 634 280.8 634 281.2 633.8 281.5 L 633.6 281.5 C 633.2 281.7 632.7 281.9 632.2 282 C 630.6 282.6 629.2 283.1 628.1 284.2 L 627.7 284.6 L 627.4 284.1 C 626.8 282.8 626.3 281.5 625.9 280.1 C 625.8 279.5 625.7 279 625.5 278.4 L 624.4 278.4 C 624 279.5 623.6 280.9 623.3 282.3 C 622.8 284.8 622.2 287.2 620.7 288.6 L 620.4 288.9 L 620.2 288.5 C 618.7 286.5 617.1 286 615.5 286.8 L 615.2 286.8 C 615.2 286.9 615 286.8 615 286.8 C 614.7 286.7 614.5 286.4 614.4 286.1 C 614.4 286 614.1 285.7 614 285.6 C 612.8 286 611.7 285.9 610.8 285.3 C 610.1 284.8 609.7 283.9 609.7 282.7 C 607.8 282 606.2 280.5 604.5 279 C 603.1 277.8 601.6 276.4 600 275.7 C 600.4 277.6 601.8 279 603.1 280.4 C 604.2 281.6 605.3 282.7 605.9 284.1 L 605.9 284.5 C 606 284.5 605.6 284.5 605.6 284.5 C 604.2 284.9 602.9 284.9 601.6 284.8 C 601.1 284.8 600.4 284.8 599.9 284.8 C 600.8 285.6 601.9 286.3 603.1 286.9 C 604.8 287.9 606.4 288.9 607.7 290.4 C 608.2 291.1 609.5 293.4 610.4 295.3 L 610.4 295.6 C 611 296.3 611.2 297.1 611.5 297.9 C 611.9 298.9 612.3 299.8 612.8 300.7 C 614.7 299 613.3 296.3 612.8 295.5 L 612.5 294.9 L 613 294.9 C 615.9 294.2 616.7 296 617.6 297.5 C 618.1 298.6 618.7 299.6 619.6 300.1 C 620.3 299.2 620.9 298.2 621.4 297.2 C 622.6 295 623.7 292.8 626.5 291.9 L 626.8 291.9 L 626.9 291.9 C 629 293.4 631 294.9 633.6 295 C 635.7 295.2 636.6 294.8 637.7 294.1 C 638.6 293.7 639.4 293.1 640.8 292.8 L 641 292.8 L 641.2 293.1 C 642.3 296 642.3 299.8 641.2 304.5 L 641.9 304.5 C 641.9 304.5 641.9 304.7 641.9 304.8 C 641.3 310.7 639.7 320.2 636.8 328 C 635.3 332.2 634.3 335.7 634 339.8 C 634 341.2 634 342.5 634 343.9 C 634 346.6 634.3 349.3 633.3 352 C 632.8 353.8 632.1 355.4 631.3 357.1 C 630.5 359.1 629.5 361.1 629.1 363.1 C 628.8 364.2 628.5 365.3 628.4 366.4 C 627.7 369.8 627.2 373 624.6 376 C 623.3 377.4 622 378.4 620.6 379.2 C 619.2 380 617.7 381 616.6 382.3 C 615.4 383.7 614.8 385.2 614.1 386.9 C 613.3 388.9 612.5 391 610.4 392.5 L 610.1 392.8 L 609.9 392.8 C 609.9 392.5 609.7 392.5 609.6 392.4 C 605.9 389.5 604.8 384.3 603.7 379.7 C 603.7 379.2 603.4 378.8 603.4 378.4 C 602.7 375.6 601.6 373.3 600.4 370.9 C 599.4 369.2 598.5 367.2 597.8 365.2 C 597.5 365.2 597.1 365.2 596.7 365.2 C 596.3 365.2 595.9 365 595.5 365.2 L 595.1 365.2 L 595.1 364.9 C 594 361.3 591.9 358.6 588.5 356 C 587.5 355.3 586.3 354.7 585.2 354.2 C 583.7 353.5 582 352.8 580.9 351.6 L 580.4 351 L 581.1 351 C 582.6 350.5 583.4 349.9 583.7 349 C 584.6 345.6 577.6 338.7 574.7 335.8 C 574.3 335.3 573.9 335 573.5 334.6 C 570.6 331.6 567.3 328.7 563.9 325.5 C 561.8 323.6 559.6 321.7 557.4 319.7 C 557.2 320 556.8 320.4 556.3 320.7 C 555.8 321.1 555.2 321.5 555 322.1 L 554.7 322.5 L 554.3 322.2 C 553.7 321.9 553.7 321.5 553.6 321.3 C 553.6 321.3 553.6 321.3 553.6 321.1 C 551 321.1 549.9 319.5 548.7 317.8 C 548 316.9 547.3 315.9 546.3 315.4 C 546.5 315.6 546.6 316 546.7 316.5 C 548 319.5 549.8 323.6 552.6 323.3 L 552.9 323.3 L 552.9 323.6 C 553.7 325.8 555.4 327.7 557.9 329.6 L 558 329.6 L 558 330 C 558 331.1 558.1 332.1 558.4 333.2 C 558.5 333.7 558.7 334.3 558.8 334.8 C 560.1 335.1 560.7 335.8 561.6 336.4 C 562.2 336.9 562.9 337.5 563.9 337.6 L 564.4 337.6 L 564.2 338.3 C 564 338.6 563.9 339.1 563.8 339.6 C 563.8 340.2 563.5 340.7 563.3 341.2 C 564.4 342.1 565.7 343.2 567.1 344.2 C 571.3 347.6 576.2 351.6 577.5 356.3 C 577.8 357.5 577.9 358.9 578 360.4 C 578.3 363.5 578.4 366.7 580.6 369.3 C 581.3 370.1 582 370.3 582.8 370.4 C 583.5 370.5 584.5 370.8 585.2 371.5 C 586 372.3 586.5 373.3 587.1 374.4 C 587.5 375.2 588.1 376 588.6 376.6 L 588.7 376.6 C 588.7 376.7 588.7 377 588.7 377 C 587.4 381.5 590.8 383 594.1 384.5 C 594.5 384.7 594.9 384.8 595.2 385.1 C 595.9 385.4 596.4 385.4 597 385.4 C 597.8 385.4 598.6 385.4 599.9 386.6 C 600.5 387.3 600.7 388.2 600.7 389.3 C 600.7 390.4 600.8 391.5 601.6 392.4 C 602.7 391.9 605.2 391.7 607 391.8 C 608.1 391.8 608.8 392.1 609.3 392.5 C 609.5 392.5 609.6 392.8 609.7 392.9 C 610.4 393.9 609.7 395.1 609.2 396.2 C 608.8 396.9 608.4 397.6 608.6 397.8 C 608.6 397.8 609.1 398.3 610.4 398.3 L 610.8 398.3 L 610.8 398.7 C 610.8 400.4 611.5 402.2 613.2 403.5 C 614.8 402.5 615.8 401 616.6 399.6 C 617.3 398.5 617.8 397.4 618.8 396.7 L 618.9 396.7 L 619.2 396.7 C 619.6 396.7 620 396.7 620.4 396.7 C 620.7 396.7 621.1 396.7 621.4 396.7 C 622.6 394.3 624.3 392.5 625.9 390.8 C 626.8 390 627.4 389.2 628.1 388.4 C 629.6 386.3 629.9 384.5 630.2 382.5 C 630.3 381 630.5 379.4 631.3 377.7 L 631.3 377.4 L 631.7 377.4 C 631.7 377.4 632 377.4 632.2 377.4 C 632.7 377.4 633.1 377.4 633.3 377.4 L 633.6 377.4 L 633.6 377.7 C 633.8 378.2 633.9 378.5 634.2 378.8 C 635.8 388.8 633.1 399.9 630.7 409.6 C 630 412.4 629.5 415 629 417.5 C 627.2 425.8 624.4 434.6 620.6 444.2 C 620 445.7 619.3 447.2 618.8 448.8 C 618 451.1 617 453.4 616 455.8 C 615 458.2 613.4 460.4 611.9 462.3 C 610.3 464.5 608.8 466.6 607.8 469.1 C 606.7 471.8 605.2 474.7 604 477.4 C 601.6 482.1 599.3 486.9 598.5 491.2 C 597.8 494.9 596.1 496.9 594.5 499.1 C 593.5 500.4 592.6 501.6 591.6 503.2 C 591.2 503.9 590.8 504.6 590.2 505.4 C 588.2 508.7 585.9 512.3 588.7 514.8 L 588.7 515 C 589.1 519.7 586.8 524.2 584.9 528.1 L 584.3 529.2 C 581.5 534.9 581.3 535.5 581.6 541.4 C 582 549.6 578.9 559.1 573.8 564.9 C 572.3 566.6 570.2 568.3 568.1 570.1 C 567.2 570.9 566.2 571.7 565.4 572.4 C 564.7 573 563.5 573.5 562.2 574.2 C 561 574.7 559.8 575.3 559.2 575.8 C 558.7 576.4 558.4 577.2 558.1 577.9 C 557.7 579 557.3 580.1 556.2 580.9 C 554.3 582.4 552 583 549.8 583.4 C 547.3 583.9 545.1 584.5 543.3 586.1 C 542.8 586.7 542.2 587.6 541.8 588.7 C 541.2 589.8 540.7 590.9 540 591.8 C 539.2 592.5 538.4 592.9 537.5 593.3 C 536.6 593.7 535.6 594.1 534.7 595.2 C 533.7 596.3 533.2 597.4 532.6 598.4 C 531.9 599.9 531.1 601.4 528.9 602.6 C 527.9 603.2 527 603.4 525.9 603.6 C 524.9 603.7 524 604 523.3 604.4 C 522.4 604.8 521.6 605.5 520.8 606.3 C 519.4 607.5 518.1 608.8 516.3 608.9 C 515 609.1 514.1 608.5 513.1 608.1 C 512.3 607.5 511.5 607.1 510.5 607.3 C 509.3 607.3 508.4 608 507.6 608.5 C 506.7 609.1 505.7 609.7 504.3 609.7 C 502.5 609.7 501.2 608.9 499.8 608.1 C 499 607.7 498.3 607.1 497.3 606.9 C 493.8 605.6 492.9 606.6 492 607.7 C 491 608.6 489.9 609.7 487.2 609.7 C 485.9 615 485.4 616.1 481.5 619.6 C 482.1 621 482 622.4 482 623.9 C 482 624.3 482 624.6 482 625 L 482 625.3 L 481.7 625.3 C 481.3 625.5 481 625.7 480.7 625.9 C 480.7 625.9 480.6 625.9 480.4 626.1 C 482.6 628.1 483.6 630.2 483.6 632.1 C 483.6 635.4 480.2 637.9 477 640.3 C 475 641.9 473 643.5 471.8 645.2 C 471 646.4 471 647.2 471 648 C 471 648.7 471 649.5 470.4 650.5 C 469.9 651.9 468.9 652.7 468 653.7 C 467.3 654.3 466.6 655 466 656 C 465.2 657.4 464.7 658.7 464.1 659.7 C 463 661.9 462.6 663 461.8 663 C 460.8 663 460.3 661.5 458.8 656 C 458.8 656 457 650.6 456.7 649.5 C 455.6 648.4 454.2 648 452.7 647.8 C 450.3 647.2 447.8 646.5 447 642.1 C 446.4 642.1 446.1 641.9 445.9 641.7 C 445.6 641.6 445.4 641.4 445.2 641.4 L 444.5 641.4 C 444.5 641.3 444.9 640.8 444.9 640.8 C 447.2 637.9 448.1 634.7 448.7 631.6 C 448.2 629.5 446.5 627.2 445 624.8 C 444.1 623.3 443.1 622 442.4 620.7 C 442.2 620.2 441.9 619.6 441.5 619.1 C 440.2 616.9 438.6 614.3 439 611.9 C 439.3 610.3 440.2 609.3 441.2 608.4 C 441.9 607.5 442.7 606.9 443.3 605.6 C 443.8 604.4 443.8 602.7 443.9 601.2 C 443.9 599.9 444.1 598.5 444.5 597.4 C 445.2 595.3 445.7 594.6 446.5 593.8 C 447 593.4 447.4 592.9 447.9 592 C 449.8 589.2 452 587.5 454.1 585.9 C 456 584.4 457.9 583 459.4 580.6 C 459.3 580.4 459.2 580.1 459 579.8 C 456 579.3 456 576 456 573.2 C 456 570.5 456 572 456 571.5 C 456 571.5 455.1 567.1 455.3 565.6 C 454.9 565.3 454.5 565.3 454.1 565.6 C 453.7 565.6 453.1 565.8 452.4 565.6 C 451.2 565.3 450 565.1 448.7 565.1 C 447.1 565.1 445.3 565 443.4 564.3 C 442.7 564 442 563.9 441.5 563.8 C 439 563.1 437.2 562.5 435 559.6 L 434.7 559.4 L 435 559.1 C 437.9 556.5 439.1 554.2 439 551.6 C 437.9 551.3 437.1 550.6 436.8 549.6 C 436.5 548.5 437.1 547 438.2 545.9 C 437.5 545.4 436.3 544.8 435.2 544.3 C 432.5 543.2 429.9 541.9 429.5 539.7 C 429.4 538.5 429.9 537.3 431.3 535.9 C 431.2 535.9 430.9 535.6 430.8 535.5 C 430.5 535.2 430.1 534.9 429.8 534.8 L 428.8 534.4 L 429.8 534 C 431.2 533.4 432.8 533.6 434.3 533.7 C 435.8 533.8 437.3 534.1 438 533.4 C 438.6 532.9 438.7 531.8 438.4 530.3 C 438.3 529 437.2 527.9 436.3 526.8 C 435 525.5 433.5 523.8 433.2 521.6 C 432.5 520.3 432.5 518.5 432.7 516.7 L 432.7 516.3 L 433.1 516.3 C 436 516 437.6 515.3 438.2 513.8 C 436.1 513.8 434.2 513.8 432.7 512.6 C 431.3 511.6 430.9 510.2 430.6 509 C 430.3 508 430.1 507.2 429.4 506.5 C 427.7 505.2 426.9 505.9 425.3 507.4 C 424.2 508.5 422.9 509.6 421.2 509.8 L 420.9 509.8 L 420.7 509.7 C 420.5 509.3 420.1 509 419.6 508.7 C 419.4 508.6 419.1 508.3 418.8 508.2 C 416.3 509.7 412.8 509.6 411 508 C 410.2 507.4 409.1 505.7 410.4 502.7 C 409.9 502.3 409.3 501.9 408.9 501.5 C 407.2 500.1 405.5 498.7 403.6 498.3 C 402.8 498.3 401.9 498 401.1 497.8 C 400.2 497.5 399.2 497.1 398 497.3 C 397.3 497.3 395.9 498.4 394.7 499.3 C 393.7 499.9 392.7 500.5 392.1 500.9 L 391.9 500.9 L 391.8 500.9 C 387 498.7 385.3 499.8 382.3 502 C 381.8 502.4 381.1 502.8 380.4 503.4 C 377.6 505.2 372.3 506.9 369 505.3 C 366 507.8 359.7 513 355.5 510 C 352.9 510 350.5 511.1 348 512 C 343.6 513.7 339.1 515.5 334.3 512.8 C 329.2 517.5 320.4 514.9 308.5 505.3 C 307.1 504.2 305.7 503.1 304.5 501.9 C 302 499.8 299.5 497.6 296.9 495.8 C 296.3 495.4 295.2 495 293.8 494.5 C 291 493.5 288 492.4 287.2 490.3 C 286.9 489.7 286.9 488.8 287.2 488.1 C 285.5 487.2 282.7 484.9 281.8 482.1 C 281.6 481.1 281.6 480.3 281.8 479.5 C 280.7 479.8 279.8 480.5 279 481 C 277.3 482 275.7 483.1 273.3 482.4 C 273.3 482.5 273.3 482.7 273.2 482.8 C 273.1 483.2 272.9 483.6 272.6 483.9 L 272.4 484.3 L 272 484 C 270.3 482.7 269.2 480.9 268.7 478.7 C 266.1 476.9 264.8 474.7 265.2 472.4 C 263.6 470.7 261.8 467.7 261.9 465.1 C 261.9 463.3 262.9 462.1 263.7 461 C 264.6 459.7 265.4 458.8 265.2 457 C 264.1 456 264 455.6 263.7 454.5 C 263.7 454.2 263.7 454 263.5 453.6 C 261.9 450.7 263.9 447.7 265.6 444.9 C 266.3 443.8 267 442.7 267.4 441.6 C 268 440.2 268.3 438.5 268.5 436.7 C 269.1 433.2 269.6 429.5 272.2 427.3 C 268.4 422.8 269.8 417.3 271.1 412 C 271.8 409.1 272.6 405.9 272.5 403.2 C 272.5 401.8 272.4 400.6 272.2 399.4 C 271.8 395.4 271.4 392.1 274.3 388.1 C 275.3 386.7 276.6 385.5 278 384.3 C 279.9 382.6 281.8 380.8 282.7 378.6 C 281.6 377.3 281.2 375.6 281.4 373.5 C 281.8 370 284.5 365.9 287.3 363.8 L 287.6 363.8 C 287.6 363.7 287.9 363.8 287.9 363.8 C 289.8 365 290.6 364.1 292 362.6 C 292.5 361.9 293.2 361.2 293.9 360.6 C 295.8 359.4 297.5 358.9 299.3 358.2 C 300.1 357.9 300.9 357.6 301.9 357.2 C 306.1 355.6 314 350.1 313.7 344.6 C 311.5 342.1 313.5 337 314.8 333.6 C 315.1 333.1 315.2 332.7 315.3 332.2 C 315.6 331.6 315.7 331 315.9 330.5 C 316.3 329.1 316.4 328.4 318.6 326.2 C 319 325.7 319.6 325.2 320 324.8 C 321.4 323.6 322.5 322.5 323.3 320.8 L 323.6 320.4 L 324 320.7 C 325.1 321.4 326.2 321.5 327.3 321.3 C 328.8 320.8 330.3 319.3 331.3 317.6 C 331.3 317.4 331.5 317.3 331.5 317.3 C 332.8 317.1 333.9 316.3 334.5 315.1 C 335.2 313.7 335.4 311.9 334.5 310.6 C 334.5 310.4 334.5 310.3 334.5 310.3 C 335.2 308.1 336.2 306.8 337.7 306.8 C 339.2 306.8 341.3 308.4 342.9 309.9 C 343.9 310.7 344.7 311.4 345.4 311.7 C 345.8 311.7 348.8 311.4 350.1 311.2 C 350.5 311.2 350.7 311.2 350.9 311.2 C 351.6 311.2 352.3 311.2 352.9 311.2 C 354.3 311.2 355.8 311.2 357.6 310.7 C 360.6 309.6 362.4 308.1 364.3 306.4 C 365.7 305.2 367.2 304 369.3 302.7 C 370.8 301.9 372.3 301.5 373.7 301.1 C 376 300.5 378.2 299.8 380.1 297.4 L 380.1 297.1 C 380.3 297.1 380.5 297.1 380.5 297.1 C 382.2 297.7 383.8 297.1 385.6 296.4 C 387.1 295.9 388.8 295.3 390.5 295.5 C 391.4 295.5 392.2 296 392.9 296.6 C 393.7 297.1 394.5 297.8 395.5 297.7 C 396.6 297.7 397.3 297 398.1 296.3 C 398.8 295.7 399.3 295.2 400.2 294.9 C 401.8 294.4 403.9 294.1 405.6 293.8 C 407 293.7 408.4 293.4 409.6 293.1 C 410.7 292.8 411.7 292.4 412.9 291.9 C 414.8 291.1 416.9 290.4 418.7 290.2 L 419 290.2 L 419 290.5 C 419.5 291.6 421 295.2 423.1 295.7 C 423.9 295.9 424.7 295.7 425.7 294.9 L 426 294.6 L 426.2 294.9 C 427.5 296.4 428 298.5 428.7 300.5 C 429.3 302.5 429.8 304.5 431 306.3 L 431 306.6 C 431.2 306.6 431 306.8 431 306.8 C 431 307 430.6 307.3 430.3 307.5 C 429.3 308.6 426.9 311.2 427.2 312.5 C 427.5 313.7 428.4 314 429.4 314.3 C 430.3 314.5 432 314.9 432.3 317.1 C 432.4 317.1 432.7 317 433 316.9 L 432.7 316.3 C 433.2 316 434.1 315.9 434.9 315.9 C 435 315.9 435.3 315.6 435.4 315.5 L 436.8 314.3 L 436.1 315.9 C 438.2 316.2 440.6 317 442.8 317.8 C 444.1 318.2 445.3 318.7 446.3 318.9 L 446.8 318.9 C 449.3 319.7 449.6 319.7 452.7 319.6 C 453.3 319.6 453.8 319.6 454.2 319.6 C 456.8 319.5 456.8 319.5 458.5 321.1 C 458.8 321.4 459 321.7 459.4 322.1 C 460 322.6 459.9 323.5 459.7 324 C 459.6 324.8 459.4 325.5 460 325.8 C 460.3 325.8 461.5 325.8 462.2 325.5 C 463 325.4 463.8 325.2 464.3 325.2 C 466.6 325.2 468.4 325.8 470.4 326.2 L 471.1 326.2 C 474.1 327 479.8 327.3 481.8 325.2 C 482.5 324.6 482.8 323.5 482.5 322.2 C 480 320.7 478.8 318.5 479.1 315.9 C 479.3 312.5 482.1 309 485.5 307.7 C 486.8 307.3 493.3 305.1 495.5 305.9 C 497.6 306.6 498.2 307.7 498.7 308.5 C 499.2 309.5 499.8 310.1 502.1 310.6 C 504.3 310.8 508 310.6 513 309.3 C 513.5 309.3 513.9 308.8 514.3 308.4 C 514.9 307.8 515.4 307.1 516.4 307 C 517.1 307 517.9 307.3 518.9 307.5 C 519.7 307.8 520.4 308.2 520.9 308.1 C 522.7 308.1 527.7 306.7 529.3 306.3 L 529.4 306.3 C 529.7 306.3 530.1 306.2 530.4 306 C 533 305.3 534.7 304.9 534.2 300.7 L 534.2 300 L 534.8 300.3 C 536.3 300.8 537.4 300.9 538.2 300.4 C 539.5 299.7 539.7 297.5 539.9 295.6 C 539.9 295 539.9 294.6 540 294.2 C 540 293.9 539.9 293.7 539.6 293.3 C 539.2 292.7 538.8 292.2 538.9 291.3 C 538.9 290.8 539.6 290.1 540.3 289.6 C 540.7 289.1 541.1 288.7 541.4 288.3 C 541.8 287.5 542.3 286.8 542.8 286.3 C 543.6 285.4 544.1 284.8 544.1 283.2 C 542.5 281.7 542.6 279 542.6 276.4 C 542.6 274.7 542.6 273.1 542.3 271.7 C 542.1 270.8 541.7 269.8 541.1 269 C 540.2 267 539.2 265.1 540 262 C 539.9 261.7 539.5 260.9 539.2 260.3 C 538.8 261.1 538.5 262 538.1 262.9 C 537.4 264.4 536.7 266.1 535.9 267.5 L 535.6 267.9 L 535.2 267.6 C 533.7 266.6 532.9 266.8 531.8 268 C 533.4 270.2 532.9 271.6 531.9 272.3 L 532.2 273.1 Z" fill="#87abc1"/>
<path d="M 263.6 3.4 C 262.9 4.1 261.9 4.6 260.4 4.9 C 260.7 4.8 261 4.6 261.4 4.5 C 262.1 4.2 262.9 3.8 263.6 3.5 L 263.6 3.4 Z" fill="#87abc1"/>
<path d="M 259.7 8.9 C 259.5 8.9 259.2 8.9 258.9 8.9 L 257.1 8.9 C 257.1 8.8 258.8 8.1 258.8 8.1 C 259.2 7.9 259.3 7.7 259.6 7.4 C 258.9 7.1 258.2 6.6 258 5.9 L 257.7 5.3 L 258.4 5.3 C 259.1 5.3 259.6 5.2 260.2 5.1 L 260.4 5.1 C 261.9 4.8 262.9 4.2 263.6 3.5 L 262.9 0.1 C 268 -0.9 273.1 -1.7 278.3 -2.4 L 277.9 -1.5 C 277.6 -1.1 277.2 -0.6 276.8 -0.3 C 276.5 0 276.2 0.1 276.1 0.4 C 276.6 0.7 276.9 0.5 277.5 0.4 C 277.9 0.2 278.4 0.1 279.1 0.1 C 280.1 0.2 280.7 0.8 281.2 1.3 C 281.4 1.6 281.6 1.8 281.8 1.9 C 282.5 2 283.1 1.9 283.8 1.6 C 284.3 1.3 285 1.1 285.7 1.2 C 286.4 1.2 286.8 1.6 287.2 2 C 287.6 2.3 287.9 2.6 288.3 2.6 C 289.7 2.9 290.9 2.6 292.4 2.2 C 293.5 1.9 294.6 1.8 295.7 1.6 C 297.8 1.6 300 1.6 302 1.9 L 303.7 1.9 L 303.7 2.3 C 303.8 3 303.8 3.5 303.5 4.1 C 303.3 4.5 303 4.8 302.6 5.1 C 302.6 5.1 302.6 5.1 302.7 5.1 C 304.1 4.8 305.5 4.5 307.1 4.8 C 308.2 4.9 309.3 5.1 310.4 5.2 C 311.4 5.2 312.3 5.5 313.3 5.6 L 313.5 5.6 L 313.5 5.9 C 313.7 6.3 313.7 6.6 313.5 6.8 C 313.5 7 313.5 7.1 313.5 7.1 C 311.8 8.1 310.1 8.1 308.5 8.2 C 307.6 8.2 307 8.2 306.1 8.3 C 305 8.5 304.2 8.9 303.3 9.3 C 302.2 9.7 301.2 10.3 299.8 10.4 C 298.9 10.5 297.9 10.5 297.1 10.4 C 295.8 10.4 294.6 10.4 293.5 10.8 C 291.5 11.6 289.9 13.7 288.7 15.3 C 289 15.6 289.4 15.8 289.8 16 C 290.2 16.2 290.6 16.4 290.9 16.7 L 291.3 17 L 291 17.3 C 289.3 19 286.9 19.7 284.7 20.4 C 284 20.7 283.4 20.8 282.7 21.1 C 281.3 21.7 280.2 22.5 279 23.3 C 277.6 24.3 276.4 25.2 274.6 25.9 L 274.4 25.9 L 274.3 25.9 C 271.4 25 269.4 24 268 22.9 L 267.6 22.6 L 268 22.3 C 268 22.3 268.3 21.9 268.4 21.7 C 268.4 21.7 268.4 21.4 268.5 21.2 C 267.6 21.2 266.5 21.4 265.4 21.8 C 264.3 22.1 263.2 22.3 262.2 22.3 L 261.5 22.3 C 260.2 22.2 258.1 22.1 256.9 21.5 C 255.4 20.8 254.5 20.1 254.5 19.3 C 254.5 17.7 257.6 16.3 260.4 14.9 C 261.5 14.4 262.6 13.8 263.5 13.4 C 262.9 13.4 262.1 13.4 261.4 13.4 C 259.1 13.4 256.7 13.4 256.2 12.2 L 256.2 11.8 C 256 11.8 256.3 11.6 256.3 11.6 C 256.9 11.4 257.7 11.1 258.4 10.8 C 259.6 10.4 260.7 10.1 261.3 9.3 C 260.7 9.3 260.2 9.2 259.6 9.2 L 259.7 8.9 Z" fill="#87abc1"/>
<path d="M 213.2 129 C 213.1 129 212.8 129 212.4 129.3 L 212.3 129.3 L 212.1 129.3 C 209.4 128 209.9 124 210.3 121.8 C 211.4 116.9 212.8 112.9 214.7 109.1 C 215.1 108.3 215.6 107.6 216 106.7 C 216.4 105.9 216.9 105.2 217.2 104.4 C 217.5 103.9 217.6 103.3 217.7 102.8 C 218.2 101.4 218.6 99.9 219.8 98.9 C 220.4 98.4 220.9 98.2 221.5 98 C 222 97.7 222.7 97.4 223.2 96.7 C 224.5 95.2 225.3 94.8 226.5 93.8 L 227.4 93.3 C 227.8 93 228.5 92.3 229 91.8 C 230.4 90.4 232 88.8 233.5 88.8 C 235 88.8 235 89.2 235.5 90.1 C 235.7 89.7 236 89.3 236.3 88.9 C 236.6 88.4 236.8 87.8 237.2 87.3 L 237.2 87 C 237.4 87 237.6 87 237.6 87 C 238.3 87 238.6 86.7 239 86.3 C 239.3 86 239.6 85.7 240 85.6 C 240.4 84.5 240.8 83.6 241.5 82.3 L 241.5 81.9 C 241.6 81.9 242 82 242 82 C 242 82 242.2 82 242.3 82 C 242.6 82 243.3 81.8 244.2 79.8 C 244.4 79.6 244.5 79.3 244.6 79 C 244.9 78.5 244.5 77.8 243.4 77.1 L 243.1 77.1 C 243.1 77 243.1 76.7 243.1 76.7 C 243.4 75.5 244 74.9 245.1 74.9 C 245.6 73.7 246.8 71.5 247.8 70.5 C 248.4 70 248.9 69.7 249.5 69.4 C 250.1 69 250.8 68.6 251.4 67.9 C 251.6 67.5 251.8 66.8 251.9 66.3 C 252.1 65.7 252.2 65 252.5 64.6 C 253.3 63.2 253.6 63.1 254.3 63 C 254.5 63 254.8 63 255.5 62.6 C 258.4 60.8 257.8 59.1 257.3 58.2 C 256.7 57.2 256.2 57.2 255.5 57.2 C 254.9 57.2 254.5 57.2 254 56.7 C 253.4 56.1 253.4 55.3 253.4 54.6 C 253.4 54 253.4 53.5 253.2 53.2 C 253 52.9 252.5 52.9 252.1 52.8 C 251.5 52.8 251.1 52.7 250.7 52.4 C 250.3 52.1 248.5 49.8 248.2 49.4 C 247.8 48.4 247.7 47.6 247.7 46.9 C 247.7 45.8 247.4 44.9 246.6 43.9 C 245.6 42.8 244.1 41.6 243.1 42.2 C 243.6 43.3 244.1 44.4 244.8 45 L 244.8 45.3 C 245.5 48.6 242.7 49.2 240.5 49.8 C 239.3 50.1 238.2 50.3 237.6 50.9 L 237.4 51.2 L 237.1 50.8 C 234.2 47 233.4 42.4 234.6 36.8 C 234.9 35.7 235.3 34.7 235.9 33.7 C 236.4 32.6 237 31.5 237.1 30.4 C 237.2 29.3 236.8 28.2 236.4 27.3 C 236.4 27 236.3 26.7 236.1 26.5 L 236.7 25.2 C 236.8 25.2 237.1 25 237.2 25 C 238.1 24.4 238.7 24 239.4 23.7 L 241.2 23.7 C 241.8 24.3 242 24.5 242.3 24.7 C 242.6 24.5 243 24.3 243.3 24.1 C 243.8 23.7 244.4 23.3 245.2 23.3 L 245.5 23.3 L 245.5 23.6 L 245.7 23.6 L 245.7 24 C 245.7 25 246.4 25.6 247.4 25.9 L 247.7 25.9 L 247.7 26.3 C 247.7 27 248.2 27.4 248.9 28 C 249.5 28.5 250.3 28.9 250.6 29.8 C 251.4 30 252.2 30 252.9 29.8 C 252.6 29.3 252.6 28.9 252.5 28.5 C 252.5 28.2 252.5 28.1 252.3 27.8 L 252.3 27.4 C 252.2 27.4 252.6 27.4 252.6 27.4 C 253.7 27.1 254.4 26.9 254.9 26.3 L 255.1 26.3 C 255.1 26.2 255.4 26.3 255.4 26.3 C 255.8 26.3 256.3 26.3 256.7 26.3 C 257 26.3 257.1 26.3 257.4 26.3 L 257.7 26.3 C 258.4 26.3 258.8 26.5 259.2 26.6 C 259.5 26.6 259.9 26.9 260.3 26.9 C 261.8 27.1 263.3 27.4 264.5 26.9 C 264.8 26.6 265.5 26.6 266.2 26.6 C 268.9 26.6 273.6 28.2 274.4 30.4 C 274.6 30.9 274.6 31.4 274.4 32 C 275.4 31.1 276.8 31 277.7 31.7 C 279.2 31.1 280.3 30.7 281.8 31 C 283.1 31 286.1 31.7 287.3 32.2 C 288.2 32.6 288.8 33 289.4 33.6 C 290.1 34.1 290.8 34.7 291.9 35.1 C 292.1 35.1 292.5 35.4 293.1 35.5 C 294.3 35.9 296 36.6 296.8 36.3 L 297.4 36.3 L 297.4 36.8 C 297.4 37.3 297.4 37.9 297.1 38.1 C 296.7 38.7 296 38.7 295.2 38.7 C 294.9 38.7 294.6 38.7 294.2 38.7 C 294.2 38.7 294.2 39 294.3 39.1 C 294.5 39.4 294.6 39.8 294.9 39.9 L 295.2 40.2 L 294.7 40.5 C 294.3 40.7 294.2 41.1 294.2 41.4 C 294.2 42 295.2 42.7 296.3 43.1 C 297.4 43.5 298.6 43.1 299.8 42.8 C 300.8 42.5 301.7 42.2 302.7 42.4 L 302.8 42.4 C 305.6 43.9 308.6 44 311.2 42.7 L 311.5 42.7 L 311.8 42.7 C 312.6 43.3 314.6 43.8 316 44 L 316.4 44 L 316.4 44.6 C 316.4 44.9 316.3 45.3 316.2 45.5 C 316 46.1 315.7 46.8 315.7 47.3 C 316.7 47.3 317.7 47.7 318.4 48.4 L 318.6 48.7 L 318.4 49 C 318.2 49.2 318.1 49.4 317.8 49.5 C 317 50.3 316.3 51.2 316.7 52.3 C 316.7 52.4 316.7 52.5 316.7 52.5 C 316.7 52.5 316.7 52.7 316.6 52.8 C 317.1 52.9 317.9 52.7 318.6 52.4 C 319 52.1 319.6 52 320 51.9 C 320.5 51.9 321.2 51.9 321.9 51.9 C 322.2 51.9 322.5 51.9 322.7 51.9 C 323.6 51.9 324.1 51.7 324.7 51.3 L 325.1 51 L 325.1 51.6 C 325.6 52.5 325.4 53.8 324.7 54.9 C 323.8 56.1 322.5 56.8 321.4 56.7 C 320.5 57.9 317.5 63.9 317.1 65 L 317 65.3 C 317 65.4 316.7 65.7 316.6 65.8 C 315.7 66.9 315.3 67.6 315.9 68.5 C 316 69.8 315.7 70.8 315.5 71.8 C 315.3 72.4 315.1 73 315.1 73.5 C 315.1 73.5 315.1 73.7 315.3 73.9 C 315.6 74.2 316 74.6 315.9 75.5 C 315.7 76.6 314.9 77 314.4 77.4 C 314 77.7 313.7 77.8 313.4 78.2 C 312.9 78.8 312.5 79.3 312.2 79.8 C 311.4 80.9 310.7 81.9 309 82.9 L 307.9 83.6 C 306.8 84.1 305.7 84.8 304.6 85.5 C 304.4 85.6 304.1 85.9 303.9 86.3 C 303.7 86.6 303.4 87 303.1 87.3 C 302.7 87.5 302.3 87.5 302 87.5 C 301.6 87.5 301.3 87.5 301.2 87.8 C 300.5 88.6 300.8 89 301.2 89.7 C 301.5 90.1 301.6 90.6 301.7 91.1 C 302 92.9 301.6 95.6 300.2 97 C 299.4 98 298.5 98.2 297.4 97.8 C 297.4 98.7 297.4 99.3 296.8 100 C 293.8 104.3 280.6 105.8 275 105.8 C 269.4 105.8 272.6 105.8 271.8 105.5 C 271.5 105.7 271.4 105.9 271.1 106.2 C 268.9 108.1 265.9 110.9 263.5 111.7 C 262.9 111.8 262.4 111.7 261.8 111.7 C 261.4 111.7 261.1 111.7 260.8 111.7 C 260.4 111.7 260.2 112 259.9 112.2 C 259.5 112.5 258.9 112.8 258.2 112.9 C 257.1 112.9 256.2 112.9 255.1 112.6 C 254.3 112.6 253.6 112.4 252.7 112.4 L 252.5 112.4 C 251.2 112.4 250 112.4 248.8 112.4 C 247.5 112.4 246.3 112.4 245.2 112.4 C 245.1 112.8 244.9 113.3 244.8 113.7 C 244.6 114.6 244.4 115.4 243.8 116.2 C 243.4 116.6 242.9 117 242.2 117.6 C 241.6 118 240.9 118.4 240.7 118.7 C 240.4 119 240 119.4 239.7 119.8 C 239.3 120.3 238.9 120.7 238.3 121.3 C 237.2 122.4 236.6 122.5 235.9 122.8 C 235.6 122.8 235.3 122.9 234.9 123.2 C 233 124 231.7 125.6 230.5 127.1 C 228.9 129.1 227.1 131.3 223.4 131.5 C 223.1 132 222.7 132.7 222.4 133.2 C 221.5 135.2 220.6 136.8 219 136.8 C 217.3 136.8 217.3 136.4 216.2 135.6 L 216 135.6 C 214.3 134.2 214.2 134.1 213.8 131.7 C 213.8 131.5 213.8 131 213.8 130.6 C 213.8 129.3 213.8 128.7 213.1 128.7 L 213.2 129 Z" fill="#87abc1"/>
<path d="M 239.6 23.7 C 238.9 24 238.2 24.5 237.4 25 C 237.2 25 237 25.2 236.8 25.2 C 236.8 25 236.8 24.8 236.8 24.5 C 236.8 23 236.8 23 237.6 23 C 238.5 23 238.3 23 238.7 23 C 238.7 23 239.3 23.3 239.7 23.6 L 239.6 23.7 Z" fill="#87abc1"/>
<path d="M 228.9 47.3 C 228.2 47.9 226.4 48.7 225.3 48.7 C 225.3 48.7 225.3 48.7 225.2 48.7 C 226.3 48.4 227.8 48 229 47.3 L 228.9 47.3 Z" fill="#87abc1"/>
<path d="M 212.8 40.9 C 213.1 40.9 213.4 40.9 213.5 40.9 C 213.5 40.9 213.8 40.9 213.9 40.9 C 214.5 39.8 215.4 39.5 216.2 39.4 C 216.8 39.4 217.2 39.1 217.7 38.8 C 218.2 38.5 218.3 38 218.3 37.6 L 218.3 37.3 L 221.6 35.9 C 222.4 35.9 223 35.9 223.5 36.2 C 223.9 36.3 224.2 36.5 224.6 36.5 C 225.4 36.5 226.1 36.2 226.9 35.9 C 227.4 35.8 227.9 35.5 228.5 35.4 L 229.3 35.4 C 229.3 35.2 229 35.9 229 35.9 C 228.5 37.4 227.1 38.8 225.6 39.6 C 226.4 39.4 227.4 38.8 228.2 38.3 C 229 37.7 229.8 37.3 230.5 37 L 232.8 36.2 L 230.8 37.7 C 230.2 38.1 230.4 38.5 230.8 39.6 C 231.2 40.5 231.6 41.7 231.2 42.8 C 230.5 44.6 229.3 44.9 228 44.9 C 226.8 44.9 227.4 44.9 227.1 44.9 C 226.7 44.9 226.3 44.9 225.7 44.9 C 225.2 44.9 224.6 44.9 224.1 44.9 C 220.4 44.9 217.2 45.1 213.9 47 L 211.6 44.3 C 212.3 43.8 213.1 43.5 213.9 43.3 C 213.2 43.1 212.3 42.8 212.3 41.7 L 212.3 41.1 L 212.8 41.1 L 212.8 40.9 Z" fill="#87abc1"/>
<path d="M 206.9 57.2 C 206.8 58.2 206.6 59 205.7 59.7 C 205.7 59.7 205.3 59.9 205 60.1 C 204.7 60.1 204.3 60.1 204 60.1 C 204.3 59.5 204.6 59 204.8 58.4 C 205.1 57.9 205.3 57.5 205.5 57.1 C 205.5 57.1 205.7 57.1 205.7 56.9 C 205.8 56.8 206.1 56.5 206.2 56.4 L 206.6 56.4 C 206.6 56.2 206.9 56.2 207 56.1 C 207 56.5 206.9 56.9 206.8 57.3 L 206.9 57.2 Z" fill="#87abc1"/>
<path d="M 225.3 48.6 C 226.4 48.6 228.2 47.9 228.9 47.2 C 227.6 47.7 226.1 48.1 225 48.4 C 225 48.4 225 48.4 225.2 48.4 L 225.3 48.6 Z M 179.6 105.4 C 179.6 102.2 179.5 97 176.8 96.7 L 176.6 96.7 L 176.6 96.5 C 176.6 95.9 176.6 95.4 176.6 94.8 C 176.8 93.7 177.7 92.7 178.4 91.8 C 179.9 89.7 180.7 88.4 179.5 87 L 179.2 86.7 L 179.5 86.4 C 181 85.1 181.9 83.3 181.5 82.3 C 181.1 81.5 179.9 81.4 178.8 81.5 L 177.5 81.5 L 178.6 80.5 C 181 78.3 181.8 77.5 185.4 77.9 C 187 76.4 189.5 76.8 191.7 77.1 C 194.1 77.5 196.3 77.8 197.4 75.7 L 197.2 75.7 C 197.2 75.5 197.4 75.2 197.7 75 C 198 74.8 198.1 74.5 198.3 74.2 L 198.3 73.8 C 198.4 73.8 198.5 73.8 198.5 73.8 L 198.9 73.8 C 198.9 73.7 198.9 73.5 198.9 73.5 C 198.8 73.5 198.5 73.5 198.4 73.5 C 197 73.5 195.9 73.7 195.7 73 C 195.4 72.4 196.1 71.8 196.7 71.2 C 198 70.9 199.5 70.7 200.3 70.1 C 199.2 70.1 198.1 69.8 197.2 69 L 196.6 68.6 L 197.2 68.3 C 197.4 68.2 197.8 67.9 198.3 67.5 C 199.1 66.8 200 66.1 200.9 66 C 201.7 66 202.4 66.3 202.8 66.5 C 203.2 66.8 203.6 67.1 204.2 67.1 C 204.2 67.1 204.4 66.9 204.6 66.8 C 204.6 66.8 204.6 66.8 204.7 66.7 C 204.7 64.8 205.8 64.2 206.8 63.8 C 207.5 63.4 208.1 63.1 208.6 62.1 C 208.6 61.9 208.8 61.5 208.6 61.3 C 208.3 60.9 207.2 60.9 206.4 60.9 C 205.5 60.9 205.5 60.9 205.1 60.9 L 205.1 60.1 C 205.3 59.9 205.5 59.8 205.7 59.7 C 206.6 59 206.8 58.2 206.9 57.2 C 206.9 56.8 207 56.4 207.2 56 L 206.8 56 L 206.4 56.2 C 206.4 56.5 206.1 56.7 205.8 56.8 L 203.9 56.2 C 204.4 56 205.1 55.7 205.8 55.4 C 206.1 55 206.4 54.6 206.6 54.2 C 207.2 53.2 207.9 52.3 208.7 51.7 C 209.5 51 210.3 50.9 211.2 50.8 C 212.4 50.5 213.1 50.3 213.2 48.4 L 213.2 48.1 L 213.9 48.1 C 216.8 47.7 219.3 47.5 221.9 46.2 C 223.8 45.3 226.1 44.9 228.5 45 C 229.1 45 229.8 45 230.5 45.3 L 230.9 45.3 L 230.9 45.8 C 230.9 46.5 230.2 47 229.4 47.5 L 229.7 47.5 C 230 47.9 230.5 48.1 231.1 48.3 C 232.3 48.8 233.7 49.5 234.1 50.6 L 234.1 50.9 L 234.1 51.2 C 233.3 51.9 233.3 52.7 233.3 53.6 C 233.3 54.6 233.3 56.2 231.3 57.1 C 229.7 57.8 228.7 56.8 227.8 56.1 C 227.1 55.6 226.5 55.1 225.8 55.1 C 226.1 55.6 226.5 55.8 227.1 56.1 C 227.6 56.4 228.3 56.7 228.7 57.3 L 229 57.8 L 228.6 58 C 228.5 58 228.2 58.3 228 58.6 C 228 58.6 227.8 58.9 227.6 59 C 227.6 59 227.8 59.3 227.9 59.4 C 227.9 59.5 227.9 59.8 227.9 59.8 C 227.5 61.5 226.5 62.4 225.7 63.2 C 225.2 63.8 224.6 64.3 224.2 65 C 224.1 65.3 223.9 65.6 223.8 65.7 C 223.4 66.3 223.4 66.4 223.1 67.2 C 223.1 67.5 223.1 67.8 223.1 68.2 C 223.1 68.7 223.2 69.3 223.1 69.7 C 222.4 72.3 220.9 72.8 219.3 73.5 C 218.8 73.7 218.4 73.8 218.2 74.1 C 217.3 74.5 216.9 75 216.4 75.6 C 215.8 76.1 215.4 76.8 214.6 77.1 C 214.3 77.7 214.3 78.3 214.3 78.9 C 214.3 79.4 214.3 80 214.2 80.4 C 214 80.9 213.8 81.5 213.5 81.9 C 213.1 82.7 212.7 83.6 212.8 84.2 C 212.8 84.2 213.1 84.5 213.4 84.7 C 213.8 84.9 214.5 85.3 214.5 86 C 214.7 87.7 213.9 88.5 213.1 89.5 C 212.9 89.6 212.8 89.7 212.7 90 L 212.7 90.3 C 212.5 90.3 212.3 90.3 212.3 90.3 C 211.6 90.1 210.5 90.6 209.4 91 C 208.6 91.2 207.6 91.7 206.8 91.8 C 206.2 91.8 205.7 91.8 205.4 91.8 C 204.7 91.8 204.3 91.8 203.3 92.2 C 202.6 92.6 202 93.3 201.4 94 C 200.9 94.7 200.5 94.9 200 95.4 L 199.8 95.6 L 199.5 95.4 C 198.9 94.8 198.9 94.7 198.8 94.7 L 198.8 94.4 C 198.7 94.4 198.8 94.1 198.8 94.1 C 199.4 93.6 199.6 92.7 199.8 91.9 C 199.9 91.2 200 90.6 200.5 89.9 C 200.7 89.3 201.1 88.9 201.6 88.5 C 202.1 87.9 202.5 87.4 202.6 86.7 C 200.2 87.8 198.3 89 196.3 92.1 C 196.2 92.3 195.9 93.3 195.7 94.1 C 194.8 97 194.1 98.9 193 99.2 C 192.9 99.2 192.6 99.2 192.4 99.2 C 192.1 100 191.4 100.4 190.7 100.4 C 190 100.4 189.3 99.9 188.9 99.2 C 188.8 99.5 188.5 99.6 188.4 99.9 C 187.7 100.7 187 101.8 185.4 101.4 L 185.1 101.4 L 185.1 101 C 185.1 100.2 185.2 99.3 185.5 98.7 C 185.8 97.7 185.9 96.9 185.8 96.3 C 185.5 97.1 184.9 97.8 184.3 98.4 C 183.7 98.9 183.3 99.5 183 100.3 C 182.6 101.3 182.7 102.2 182.7 103.3 C 182.7 105.1 182.7 106.9 181.1 108.1 L 180.4 108.7 L 180.4 107.8 C 180.4 107.3 180.4 106.7 180.4 106.1 L 179.6 105.4 Z" fill="#87abc1"/>
<path d="M 131.8 181.3 C 131.3 181.1 130.6 180.9 130.2 180.4 C 129.9 180.2 129.6 179.9 129.4 179.6 C 129.1 179.2 128.8 178.8 128.4 178.7 L 127.8 178.4 L 128.3 178 C 129.1 177 130.7 177.2 132.1 177.2 C 133.1 177.2 134 177.3 134.4 177 C 134.4 177 134.4 177 134.4 176.9 L 134.2 176.9 C 133.3 176.3 132.5 175.9 131.8 175.5 L 131.3 175.1 L 131.8 174.8 C 132.5 174.4 133.2 174.1 134 173.9 C 135 173.6 135.9 173.2 136.6 172.6 C 136.9 172.4 137.2 171.9 137.5 171.5 C 137.7 171 138.1 170.3 138.7 169.9 C 139.2 169.5 139.8 169.5 140.5 169.3 C 141 169.3 141.6 169.2 142 168.8 C 142.4 168.5 142.7 168 142.8 167.5 C 143.1 166.9 143.5 166.2 144.2 165.8 C 145 165.2 146.2 164.9 147.2 164.8 C 147.6 164.8 148 164.7 148.4 164.5 C 148.7 164.5 149 164.4 149.4 164.4 C 150.9 164.1 153 163.7 153.8 162.6 L 156 161.1 C 156 161.1 156.1 161.2 156.3 161.4 C 156.4 161.6 156.5 161.8 156.8 161.9 L 157.1 161.9 L 157.1 162.2 C 157.1 164.5 155.6 164.9 154.1 165.4 C 153.7 165.4 153.1 165.6 152.8 165.8 C 152 166.2 151.5 166.7 150.8 167.3 C 150.1 167.8 149.4 168.5 148.6 168.9 C 148.4 168.9 148.2 168.9 147.5 169.2 C 146.7 169.2 144.3 169.7 144.2 170.3 C 144.2 170.3 144.2 170.7 144.7 171 C 145 171.3 146.2 171 147.1 170.8 C 147.7 170.7 148.4 170.6 149 170.6 L 149.3 170.6 L 149.3 170.8 L 149.8 170.8 C 149.8 171 149.5 171.5 149.5 171.5 C 148.8 172.5 147.7 172.9 146.8 173.3 C 146.5 173.3 146.2 173.4 146 173.6 C 146.2 174 146.5 174.3 146.9 174.4 L 147.5 174.4 C 147.5 174.5 147.2 175.1 147.2 175.1 C 147.2 175.1 147.1 175.5 146.9 175.6 C 146.8 175.8 146.9 175.9 146.9 176.1 C 147.5 176.2 147.9 176.1 148.6 176.1 C 149.1 176.1 149.8 175.9 150.4 176.1 C 150.9 175.6 151.2 175.6 151.9 175.8 C 152 175.8 152.1 175.8 152.4 175.8 L 152.8 175.8 L 152.8 176.2 C 152.7 177.6 152 178.3 151.3 179.1 C 151 179.3 150.8 179.6 150.5 180 C 149.5 181.4 149.5 182 149.7 183.1 C 149.7 183.5 149.7 184.2 149.7 184.8 C 149.7 186.3 149.4 187 148.8 187.3 C 148.2 187.6 147.5 187.2 146.7 186.5 C 145.4 185.5 144.5 185 143.8 185.7 L 143.5 185.9 L 143.2 185.7 C 143.1 185.4 142.8 185.3 142.7 185 C 142.1 184.3 141.6 183.6 140.9 183.6 C 140.9 183.9 141 184.3 141.2 184.6 C 141.6 185.8 142 187.3 141.3 188.1 C 141 188.4 140.6 188.7 140.1 188.7 C 139.2 188.7 138.7 187.3 137.9 185 C 137.9 185 137.9 184.8 137.9 184.7 C 135.9 184.4 135.3 183.6 134.4 182.6 C 134 182.2 133.6 181.8 133.1 181.4 C 132.8 181.3 132.4 181.1 132 181 L 131.8 181.3 Z" fill="#87abc1"/>
<path d="M 118 167.4 L 117.6 167.4 C 116.9 167.1 116.2 166.7 115.6 166.2 C 116.2 166.2 116.6 166.4 117.3 167 C 117.6 167.1 117.7 167.3 118 167.4 Z" fill="#87abc1"/>
<path d="M 124.3 111.8 C 123.9 112.1 123.3 112.4 122.9 112.6 C 121.1 113.6 119.5 114.3 118.2 116.8 C 117.4 118.3 116.3 119.5 115.2 120.7 C 113.7 122.4 112.3 123.9 111.8 125.8 C 114.1 124.7 116 122.4 118 120.1 C 118.8 119.1 119.5 118.3 120.2 117.6 C 121.7 116.1 123 113.9 124.3 112 L 124.3 111.8 Z M 115.6 166 C 116.2 166.6 116.9 167 117.6 167.1 L 118 167.1 C 117.7 167.1 117.6 167 117.3 166.9 C 116.6 166.3 116.2 166 115.6 166 Z M 129.2 108.9 L 129.5 108.4 C 129.6 108.1 129.8 107.7 130 107.4 C 132.5 103.5 137.5 102.4 140.9 101.7 C 141.3 101.7 141.8 101.5 142.4 101.4 C 146 100.7 151.3 99.7 150.8 95.6 L 150.8 95.1 L 151.2 95.1 C 155.6 95.4 157.4 93.6 160.1 90.4 L 160.4 90.1 L 160.7 90.1 C 162.2 91.4 163.4 90.1 165.2 87.9 C 166.3 86.6 167.4 85.3 168.6 85.1 L 168.9 85.1 L 169 85.1 C 169 85.1 169.8 86.2 170 86.3 C 170 86.4 170 86.7 170 86.7 C 170 86.8 170 87 169.8 87.1 C 169.6 87.7 169.3 88.4 169.3 89 C 169.8 89 170.4 89 170.8 89.5 C 171.5 90 171.6 91.1 171.6 92.2 C 171.9 92.2 172.2 92.2 172.3 92.2 C 172.6 92.2 173 92.2 173.3 92.2 L 173.8 92.2 L 173.8 92.6 C 173.8 93.2 173.8 93.8 173.7 94.3 C 173.3 96 171.8 97.6 170.5 98.9 C 170.1 99.5 169.7 99.9 169.3 100.3 C 169.7 100.3 170.3 100.3 170.7 100.3 C 171.1 100.3 171.6 100.3 172 100.2 L 172.6 100.2 L 172.6 100.7 C 172.3 102.8 170.1 103.9 168.2 104.8 C 167.1 105.4 166.1 105.9 165.6 106.5 C 164.8 107.3 164.6 107.7 164.4 108.5 C 164.4 108.9 164.2 109.4 163.9 109.9 C 163.7 110.7 163.1 111.4 162.7 112.2 C 162.2 112.9 161.7 113.6 161.6 114.3 C 161.3 115.7 161.5 115.8 161.5 115.9 C 161.7 115.9 163 115.4 163.4 115.1 C 165 114.2 166.4 113.7 168.1 113.2 C 169.8 112.6 171.2 111.4 172.6 110.2 C 173.7 109.2 174.9 108.1 176.3 107.4 L 177 107.2 L 177 107.8 C 177 110.3 174.9 112.6 173.1 115 C 171.6 116.8 170.3 118.6 169.8 120.2 C 169.7 120.9 169.7 121.7 169.6 122.5 C 169.6 123.9 169.4 125.3 168.7 126.4 C 168.1 127.5 168.3 127.1 168.2 127.3 L 167.9 127.7 C 167.9 127.9 167.9 128 167.8 128.3 C 167.8 128.4 167.5 128.7 167.4 128.8 C 167.1 130.4 166.8 131.6 166 132.3 C 165.3 132.8 164.8 133 164.2 133.1 C 163.7 133.1 163.3 133.2 162.7 134.1 C 162.4 134.6 162.2 135.8 162.2 137.5 C 162.2 138.5 162.3 139.3 162.4 140.2 C 162.7 141.6 163 143 162.6 144.4 C 162.6 144.9 162.2 145.5 161.9 145.9 C 161.2 147 160.8 147.6 162.2 148.6 L 162.2 148.7 C 164.2 153.5 160.5 157 157.6 159.9 C 157.2 160.3 156.8 160.7 156.4 161.1 L 154.2 162.6 C 153.9 162.6 153.7 162.6 153.5 162.7 C 149.7 163.7 146.4 164.4 145.1 163.6 C 144.3 163.7 143.5 164.1 142.7 164.5 C 140.5 165.5 138.1 166.4 135.8 165.5 C 134.6 165.1 133.7 164.1 132.8 163.3 C 132.4 163 132.1 162.6 131.7 162.3 C 131.4 162.1 130.9 161.6 130.6 161.4 L 130 161 C 129.8 160.8 129.5 160.5 129.2 160.4 C 128.8 160.1 128.4 159.9 128 159.4 C 127.4 158.9 127 158.4 126.6 157.9 C 125.8 156.8 125.1 156 123.3 155.7 C 121.8 155.6 121.4 155.7 120.6 156.4 C 120.2 156.7 119.6 157.1 118.7 157.5 C 117 158.2 115.2 158.2 113.6 158.2 C 111.9 158.2 110.4 158.2 108.9 158.8 C 111.1 158.8 113.3 159 115.5 159.3 L 117.4 159.3 C 118.7 158.5 120 158.2 121 158.8 C 121.9 159.2 122.5 160.4 122.5 161.9 C 122.6 162.7 122.8 163.3 123.3 164 L 123.3 164.3 C 123.3 166.2 121.8 168.4 119.8 168.5 C 119.3 168.5 118.9 168.5 118.7 168.4 L 117.3 168.6 C 117.3 168.6 117.3 168.6 117.1 168.8 C 117.1 168.8 116.9 169.1 116.7 169.2 C 116.7 169.3 116.7 169.5 116.9 169.6 C 116.9 169.9 117 170.3 117.3 170.4 L 117.3 170.7 C 117.3 172.1 115.6 172.9 114 173.7 C 113.3 174.1 112.6 174.4 112.1 174.8 C 112.3 175.2 112.3 175.4 112.9 175.4 L 113 175.4 L 113 175.6 C 113.6 176.7 113.4 177.8 112.8 178.7 C 112.9 178.9 113.2 179.1 113.6 179.1 C 115.2 178.1 116 178.5 116.5 178.7 C 116.9 178.9 117.1 179.5 117 180 C 116.7 180.9 115.9 181.8 114 182.2 C 114.1 182.6 114.7 183.2 116.3 183.3 C 118.4 182.8 123.2 180 123.9 178.3 L 125.2 174.5 L 124.7 178.5 C 124.7 178.5 124.7 178.7 124.7 178.8 C 124.7 179.2 124.7 179.8 124.7 180.2 C 124.7 181 124.8 181.8 124.7 182.6 C 124.4 183.6 123.9 184 123.5 184.4 C 123.2 184.7 122.9 185 122.6 185.3 C 121.9 186.8 122.4 188 122.9 189.2 C 123.3 190.2 123.7 191.2 123.7 192.4 L 123.7 192.7 L 123.5 192.7 C 123.5 192.7 123.2 192.7 123 192.8 C 122.9 192.8 122.8 192.9 122.6 192.9 L 122.4 192.9 L 122.2 192.9 C 121.8 192.5 121.4 192.1 121.1 191.7 C 120.3 190.7 119.8 190.1 118.5 190.2 C 117.3 191.6 115.8 190.5 114.8 189.8 C 114.8 189.8 114.7 189.6 114.5 189.6 C 112.5 190.3 111.4 189.6 110.1 189 C 109.5 188.5 108.6 188.1 107.8 188 C 107.3 188 106.4 188.4 105.6 188.8 C 104.2 189.5 102.5 190.5 101.2 189.1 C 100 190.5 97.8 191.6 95.9 191.3 L 95.2 191.3 L 95.6 190.6 C 96 190.1 96.3 189.4 96.7 188.5 C 97.4 187.2 98.1 185.5 99.4 184.6 C 100.7 183.7 101.9 183.7 103.1 183.7 C 103.7 183.7 104.4 183.7 105.1 183.6 C 105.5 183.2 105.6 182.9 105.5 182.8 C 105.3 182.2 104 182 102.9 181.7 C 101.6 181.4 100.3 181.1 99.6 180.4 C 99.3 180.7 99 180.9 98.9 181 C 97.7 182.1 97.4 182.2 95.2 181.8 L 94.6 181.8 C 93.1 181.3 92.8 181.3 90.8 181.8 C 90.5 181.8 90.2 182 90 182.1 C 88.7 182.4 87.8 182.6 86.5 183.7 C 86.4 183.9 86.1 184.2 86 184.3 C 85.2 185.1 84.1 186.2 82.7 186.1 C 82.7 186.6 83 187.4 83.2 188.1 C 83.5 189.4 83.9 190.3 83.5 191 C 82.8 192.7 81.9 192.3 81 191.8 C 80.8 191.7 80.4 191.6 79.9 191.6 C 79.4 191.6 79 191.6 78.6 191.6 C 77.5 191.6 76.8 191.6 75.1 190.5 C 74.6 190.1 74.2 189.8 74 189.5 C 73.6 189.1 73.5 189 72.3 189.8 C 71.6 190.2 71 190.7 70.3 191.3 C 69.5 192.1 68.6 193.1 67 193.5 C 66.6 193.6 66.1 193.6 65.4 193.8 C 64.7 193.8 64 193.8 63.6 194 C 63.5 194 63.3 194.4 63.2 194.7 C 63.1 195 62.9 195.4 62.5 195.7 C 61.7 196.4 60.6 196.8 59.5 197.2 C 57.4 198 55.4 198.8 55.5 200.6 L 55.5 200.9 L 55.2 201 C 53.6 201.9 52.1 206 51.5 207.2 C 51.3 207.8 51.1 208.4 51 209.1 C 50.7 210.5 50.4 211.9 49.3 212.4 C 48.7 212.7 47.8 212.6 46.6 212 C 45.5 213.2 43.6 213.5 42.1 213.7 C 41.8 213.7 41.5 213.7 41.2 213.7 C 38.4 214.1 37.8 213.7 36.4 211.7 C 36.3 211.6 36.2 211.3 35.9 211.1 C 35.6 211.1 34.5 212.3 34 213 C 33.1 213.9 32.5 214.9 31.8 215.2 C 31.2 215.4 30.7 215.7 30.3 215.9 C 28.5 216.7 27.5 217.1 26.3 219.6 C 26 220.1 25.9 220.7 25.6 221.2 C 25.5 221.8 25.3 222.2 25 222.7 C 24.6 223.8 24.2 224.2 23.7 224.6 C 23.4 224.9 23.1 225.2 22.9 225.5 C 21.9 226.8 21.8 228.1 21.6 229.6 C 21.6 230.4 21.5 231.2 21.2 232.2 C 20.2 236 18.3 241.4 15.3 245.6 C 13.9 247.4 13 248.8 12.3 251.3 C 12.1 251.8 12 252.4 12 253 C 11.7 255.1 11.2 257.9 8.9 258.4 L 8.4 258.4 L 8.4 258 C 8 255.7 8.6 252.4 9 249.6 C 9 248.9 9.3 248.4 9.3 247.8 C 9.5 245.5 10.5 243.7 11.5 241.8 C 12 240.6 12.7 239.3 13.1 237.8 C 13.5 236.6 13.7 235.2 13.9 234 C 14.3 231.8 14.6 229.6 16 227.4 L 16.4 226.8 C 17.6 224.9 20 221.1 18.7 219.3 C 18.5 219.6 18 219.7 17.6 219.8 C 17.4 219.8 17.2 220 17.1 220.1 L 16.5 220.5 L 16.5 219.8 C 16.3 218.5 16.5 217.2 16.7 216 C 16.9 214.9 17.1 213.8 16.9 212.7 C 16.9 212.3 16.9 211.7 16.9 211.1 C 16.9 209.7 16.9 207.6 16.4 206.8 C 16 207.2 15.6 207.6 15.2 208.2 C 14.8 208.7 14.2 209.4 13.5 209.8 L 13 210.1 L 13 209.4 C 12.4 207.1 12.6 201.4 13.1 199 C 13.4 197.9 13.8 196.6 14.2 195.4 C 15 192.9 16 190.3 15.7 187.9 C 14.1 191.4 11.9 195.1 10.4 197.7 C 9.7 198.8 9.1 200.1 8.7 201.2 C 7.8 203.2 6.8 205.4 5 207.1 C 50 101.1 146 22.1 262.1 0.5 L 262.8 4 C 261.9 4.2 261.3 4.6 260.6 4.9 C 259.9 5.2 259.9 5.2 259.6 5.3 L 259.3 5.3 C 257.4 4.8 255.6 5.5 253.8 6.3 L 253.2 6.6 C 252.2 7 251.1 7.4 250 7.8 C 248.5 8.3 246.8 8.9 245.5 9.6 C 244 10.3 242.5 10.8 241.1 11.4 C 239.7 11.9 238.5 12.3 237.2 12.9 C 236.6 13.1 235.7 13.8 234.8 14.5 C 232.8 15.9 230.8 17.5 228.6 17.3 C 228 18.1 227.5 18.1 226.9 18.2 C 226.7 18.2 226.3 18.2 226 18.5 C 225.4 18.9 224.9 19.5 224.5 20.1 C 224.1 20.7 223.5 21.4 222.8 21.8 C 221.7 22.6 220.6 23 219.5 23.4 C 218.7 23.7 217.9 24.1 217.2 24.5 C 216.4 25.1 215.1 25.6 213.9 26.2 C 212 27 209.8 28.1 208.4 29.3 L 208.7 29.3 C 210.7 28.8 213.4 28.1 214.9 27.3 L 215.4 27 L 215.4 27.7 C 215.4 28.1 215.4 28.5 215.1 28.9 C 216.4 27.3 217.7 25.8 219.4 25.1 C 220.1 24.8 221 24.7 221.9 24.5 C 222.3 24.5 222.8 24.4 223.1 24.3 C 223.5 24.3 223.9 24 224.2 24 C 225 23.7 225.7 23.4 226.7 23.6 C 226.3 22.8 225.2 22.6 224.1 22.6 L 223.2 22.6 L 223.8 21.9 C 224.5 21 229.4 19.2 231.6 19.3 C 232 19.3 232.3 19.5 232.6 19.6 L 232.8 19.3 C 233.8 18.5 234.6 17.7 235.7 17 C 235.6 16.7 235.7 16.4 235.7 16 C 236.7 14.2 244.4 12.1 246 12.1 L 246.6 12.1 L 246.6 12.5 C 246.4 14 245.2 14.5 244.1 14.9 C 243.6 15.2 243 15.3 242.7 15.6 C 241.9 16.3 241.2 17.4 241.5 17.8 C 241.5 18 242 18.1 243 17.8 L 244.5 17.5 L 243.4 18.6 C 243.3 18.6 243.1 18.9 243.1 19 C 243.7 19 244.2 19 244.9 19 C 245.7 19 246.4 18.9 247.1 19 L 247.9 19.3 L 247.3 19.9 C 245.9 20.8 244.5 21.8 242.7 22.2 C 242.3 23 241.5 23.6 240.7 24 L 238.9 24 L 238.9 23.9 C 238.3 23.6 237.9 23.3 237.9 23.3 C 237.5 23.3 237.1 23.3 236.8 23.3 C 236 23.3 236 23.3 236 24.8 C 236 25.1 236 25.4 236 25.6 L 235.5 26.9 C 235 27.1 234.6 27.3 234.4 27.4 C 233.4 27.8 232.4 27.8 231.6 27.8 C 230.8 27.8 230.1 27.8 229.3 28.1 C 228.7 28.2 228.2 28.7 227.8 29.1 C 226.9 29.8 226.1 30.4 224.9 30.2 C 224.9 30.2 224.9 30.2 224.9 30.3 C 225.8 30.9 227.1 30.3 228.3 29.9 C 228.7 29.8 229.1 29.6 229.6 29.5 L 230 29.5 L 230 29.8 C 230.5 32.2 227.5 33.2 224.7 34.1 C 223.4 34.6 222 35 221.2 35.7 C 221.2 35.7 221.2 35.7 221.2 35.8 L 217.9 37.2 C 217.1 37.2 216.1 37.2 215.3 37.2 C 213.2 37.2 211.3 36.9 210.2 38.3 C 210.7 38.3 211.3 38.5 211.4 39 C 211.8 39.5 211.7 40.2 211.4 40.9 L 211.4 41 C 210.5 42.7 208.7 42.4 207.3 42.1 C 207.2 42.1 206.9 42.1 206.8 42.1 C 205 41.8 203.5 42.1 202 42.7 C 200.7 42.9 199.4 43.3 197.8 43.3 C 196.3 43.3 197.8 43.3 197.7 43.3 L 197 43.3 L 197.3 42.8 C 197.7 41.8 198.4 41 199.1 40.3 C 200.5 38.8 201.3 37.9 199.4 36.1 L 199.1 35.8 L 199.4 35.5 C 200.2 34.7 200.6 33.7 200.6 32.9 C 199.4 34 197.2 35.9 195.9 37.7 L 196.1 37.7 C 196.1 38.3 195.8 39 195.1 39.8 C 195.1 39.9 195.1 40.2 195.1 40.3 C 195.4 39.9 195.6 39.5 195.9 39.1 C 196.2 38.7 196.3 38.5 196.3 38.5 L 197.2 38.8 C 197.2 39.1 196.9 39.4 196.6 39.6 C 196.3 40 195.8 40.7 195.6 41.3 L 195.4 41.8 L 195.1 41.8 C 195.1 42.8 194 43.5 193.2 44 C 192.8 44.3 192.4 44.6 191.9 45 C 192.1 45 192.2 45 192.6 45 L 192.9 45 C 193 45 193.2 45.1 193.3 45.1 C 193.5 45.1 193.3 45.1 193.5 45.1 C 195 43.9 196.3 44.7 197.3 45.4 C 197.8 45.8 198.4 46.2 198.9 46.2 C 199.4 46.2 199.9 45.9 200.6 45.5 C 201.7 45 202.6 44.4 203.6 45 C 204.2 45.3 204.4 45.9 204.6 46.9 C 205.1 46.9 205.8 46.8 206.1 46.6 C 206.6 46.2 207 45.8 207.5 45.4 C 208 45 209.6 43.9 211.2 44.4 L 213.5 47.2 C 213.2 47.2 213.1 47.5 212.8 47.6 C 212 48.1 211.2 48.6 210.3 49 C 209.2 49.5 208.3 50.1 207.5 50.6 C 207 51 206.8 51.4 206.4 51.9 C 206.1 52.3 205.8 52.7 205.4 53.1 C 205.1 53.4 205 53.5 204.7 53.6 C 204.3 54 204 54.3 203.2 54.7 C 202.6 55 202.1 54.7 201.8 54.5 C 201.8 54.5 201.7 54.5 201.6 54.3 C 200.7 54.7 199.9 55.3 199.2 56 C 198.4 56.7 197.6 57.3 196.5 57.9 C 196.1 58 195.6 58.2 195 58.3 C 195 58.3 195 58.3 194.8 58.3 C 195.2 58.3 195.5 58.3 195.8 58.6 L 196.1 58.6 C 198.3 58.2 199.9 57.8 201.4 55.8 L 201.6 55.8 C 201.6 55.7 201.7 55.7 201.7 55.7 C 201.7 55.7 201.7 55.7 202 55.7 L 202.4 55.7 C 202.5 56.1 202.6 56.2 202.8 56.2 C 202.8 56.2 203.1 56.2 203.2 56.5 L 205.1 57.1 C 205.1 57.1 205.1 57.1 205 57.2 C 204.7 57.6 204.4 58 204.3 58.6 C 204 59.1 203.7 59.7 203.5 60.2 C 203.7 60.2 204 60.2 204.4 60.2 L 204.4 61 C 203.5 61.6 201.4 62.4 200.9 62.6 C 200 62.7 199.4 62.7 198.9 62.8 C 198 62.8 197.8 62.8 196.7 64.6 C 196.6 64.9 196.5 65 196.3 65.3 C 195.5 66.7 195 67.2 192.9 68 C 192.5 68.2 191.9 68.3 191.5 68.5 C 191.1 68.5 190.7 68.7 190.3 68.9 C 190 68.9 189.6 69.1 189.2 69.4 C 188.5 69.8 188 70.2 187.4 70.2 C 187.3 70.2 187.1 70.2 187 70.2 C 185.8 70.2 184.5 69.6 183.4 68.9 C 182.3 68.2 182.7 68.5 182.3 68.2 C 181.5 67.8 180.8 67.5 180.1 67.5 C 180.1 67.6 179.9 67.9 179.9 68 C 179.6 68.7 179.3 69.4 179 70 C 178.5 71.2 178.1 72.4 177.5 73.7 L 177.5 74.1 C 176.6 75.7 175.1 78.9 173.1 80.3 C 172.7 80.5 172.2 80.8 171.8 80.9 L 171.2 80.9 L 171.2 80.5 C 171.2 79.6 171.8 78.8 172.5 77.9 C 172.5 77.9 172.6 77.7 172.7 77.5 C 172.7 77.5 172.7 77.4 172.7 77.2 C 172.7 77.2 172.7 77.2 172.7 77.1 C 172.3 77.1 171.9 77.1 171.5 77.1 C 171.2 77.1 170.8 77.1 170.5 77.1 L 170 77.1 L 170 76.6 C 170 76.3 170.3 75.9 170.5 75.5 C 169.6 75.9 168.5 76.6 167.7 77.2 C 167.2 77.5 167 77.7 166.6 77.9 C 167.1 77.9 167.8 78.2 168.3 78.1 L 168.7 78.1 L 168.7 78.5 C 168.7 79.6 168.2 80.5 167.2 81.4 C 165 83.1 160.7 84 158.3 83.4 L 157.8 83.4 L 157.9 82.9 C 158.2 82.2 158.7 81.6 159.3 81.1 C 159.8 80.5 160.2 80.1 160.4 79.4 C 159.1 79.2 156.8 80.1 155.8 80.5 C 154.3 81.1 153.2 82 152 83.1 C 151.6 83.4 151.2 83.8 150.8 84.1 L 150.6 84.1 C 150.4 84.1 150.2 84.1 149.9 84.1 C 149.3 84.1 148.6 84.1 148.3 83.4 C 147.9 82.2 150.1 80.4 154.5 77.5 C 155 77.1 155.4 76.8 155.6 76.7 C 156.4 76 156.9 75 157.6 74.2 C 158.2 73.5 158.6 72.7 159.1 72.2 C 160 71.3 160.9 71.2 162 70.9 C 163.5 70.7 163.9 70.5 163.9 69.6 L 163.9 69 L 164.4 69 C 165.5 69.1 165.7 69.8 166 70.5 C 166.1 70.9 166.3 71.2 166.7 71.5 C 167.4 70.9 167.7 70.2 168.1 69.4 C 167.4 69.3 166.7 68.9 166.3 68.6 C 165.6 68.2 165 67.8 164.1 67.8 C 162.8 67.8 161.1 68.5 158.9 70.1 C 158.5 70.4 158 70.8 157.6 71.3 C 156.4 72.6 155 74.1 153 73.3 L 152.4 73 L 153.1 72.3 C 153.8 71.6 154.5 70.8 154.6 70 C 153.7 70.7 152.7 71.1 151.7 71.6 C 150.9 72 150.2 72.4 149.4 73 C 148 73.8 146.9 75 145.7 76.3 C 144.7 77.2 143.9 78.2 142.8 79 C 141.6 80 140.3 80.7 139.2 81.5 C 136.6 83.1 134.6 84.4 133.3 87.9 C 133.9 87.8 134.3 87.4 134.8 87 C 135.4 86.4 136.1 86 136.8 85.7 L 137.3 85.7 L 137.3 86.2 C 137.3 87.8 135.9 89.5 134.8 90.8 C 134.4 91.4 134 91.9 133.6 92.5 C 132.5 94.3 131.6 96.2 131.6 98.4 C 131.6 101.4 131.6 101.8 129.9 104.1 C 129.5 104.7 129.2 105.4 128.8 106.1 C 128.8 106.2 128.5 106.5 128.5 106.6 C 127.8 108 127 109.4 125.9 110.3 C 125.7 110.6 125.4 110.9 125 111 C 125.9 111.1 126.7 111.4 127.6 111.7 L 128.1 111.7 C 128.7 112.1 129.1 112.2 129.4 112.4 C 130.2 112.6 130.2 112.6 132 111.8 L 132.2 111.8 C 133.6 111 136.8 109.4 136.8 108 C 136.8 107.6 136.4 107.2 135.7 106.7 C 134.3 107.7 131.4 108.9 129.6 108.9 L 128.8 108.9 L 129.2 108.9 Z" fill="#87abc1"/>
<path d="M 135.9 581.1 C 135.9 581.7 135.9 582.4 136.2 583.4 C 136.2 583.8 136.6 584.1 136.9 584.5 C 137.3 585 137.6 585.6 137.7 586.3 C 138 588.1 137.5 590 135.8 591.4 L 135.8 591.6 L 135.5 591.6 L 135.5 591.9 L 135.9 591.9 C 135.9 592.5 135.9 592.9 135.9 593.3 C 135.9 594 136.1 594.6 135.9 595.3 C 135.7 596 135.1 596.6 134.7 597.1 C 134.3 597.5 133.9 597.9 133.7 598.4 C 133.6 599 133.7 599.9 133.7 600.8 C 134 602.5 134.3 604.4 132.7 605.9 C 130.7 607.7 129.4 606.4 128 605.4 C 127.4 604.8 126.8 604.4 126.2 604.1 C 125.2 603.7 124.4 603.4 123.5 603 C 122.6 602.7 121.7 602.5 120.8 602.1 L 120.3 601.8 C 119.3 601.4 118.7 601.1 118.5 601.1 C 118.4 601.1 118.2 601.6 118 602.3 C 118 602.6 117.7 603 117.6 603.4 C 117.3 604.3 116.7 605.1 116.2 605.9 C 115.5 606.9 114.9 607.8 114.7 608.9 C 114.7 609.2 114.7 609.6 114.7 610 C 114.7 610.6 114.7 611.3 114.7 611.7 C 114.5 612.6 114.1 613.7 113.8 614.5 C 113.8 614.8 113.7 615.1 113.6 615.4 C 113.3 616.2 113 617.2 112.5 618 C 31.6 554.7 -20.7 456.6 -21.6 346.2 L -18.7 346.2 C -18.7 346.6 -18.7 346.9 -18.5 347.2 C -18.5 347.3 -18.2 347.6 -18 348 C -17.6 349.8 -17.2 351.5 -17.1 352.8 C -17 352.8 -16.8 352.7 -16.7 352.7 L -16.3 352.4 L -16 352.8 C -15 354.3 -14.6 356 -14.3 357.5 C -14.1 358.5 -13.8 359.5 -13.4 360.5 C -13.2 360.9 -13.1 361.6 -12.8 362.3 C -12.6 363.4 -11.7 366 -11.2 367 C -10.8 365.2 -10.9 363.5 -10.9 361.6 C -10.9 360.4 -11 359 -10.9 357.8 C -10.9 357.6 -10.8 357.5 -10.8 357.5 C -9.5 356.5 -8.2 357.8 -7.1 358.6 C -6.7 358.9 -6 359.4 -5.8 359.4 C -5.8 359.4 -5.4 359.1 -5.7 356.8 C -5.7 355.8 -6 354.9 -6.2 354.1 C -6.5 353.1 -6.8 352.1 -6.8 351.2 C -6.8 350.5 -6.8 349.9 -6.7 349.3 C -6.7 348.3 -6.4 347.3 -6.7 346.4 L -6.9 345.7 L -6.2 345.7 C -5.4 346 -4.6 347.6 -3.9 349.1 L -3.1 349.1 C -3.1 349.3 -3.1 349.7 -3.1 349.9 C -3.1 350.5 -3.1 351.2 -2.8 351.7 C -2.8 352.1 -2.5 352.4 -2.4 352.7 C -1.6 351.2 0.6 349.4 2.4 349.7 L 2.5 349.7 L 2.5 349.8 C 3.8 351.7 3.6 353.6 3.5 355.6 C 3.5 356.5 3.5 357.5 3.5 358.5 C 3.8 361.7 4.5 364.8 5.4 367.1 L 5.4 367.5 C 6.7 370.5 7.8 373 8.2 376.6 C 8.3 377.8 8.2 378.8 8.2 379.7 C 8 381.4 7.9 382.3 9.7 383.3 C 9.8 383.2 10.1 383 10.2 382.9 L 10.5 382.9 C 10.5 382.7 12.4 384.9 12.4 384.9 C 12.6 384.9 12.7 384.9 12.8 384.9 L 13.1 384.9 L 13.2 384.9 C 14.3 386.2 14.3 387.8 14.3 389.3 C 14.3 390 14.3 390.7 14.3 391.4 C 14.5 391.4 14.6 391.4 14.9 391.4 L 15.2 391.4 L 15.2 391.7 C 15.4 392.1 15.6 392.5 15.7 392.8 C 16.3 393.9 16.7 394.7 17.5 395.8 C 17.8 396.1 17.9 396.2 18 396.5 C 18.5 396.9 18.9 397.2 19.3 398.1 C 19.6 398.7 19.7 399.5 19.7 400.2 C 19.7 400.7 19.8 401.3 20 401.7 C 20.2 402.5 20.9 403.1 21.5 403.7 C 21.9 404.2 22.4 404.7 22.9 405.3 C 23.9 406.8 23.8 407.6 23.8 409 C 23.8 409.4 23.8 409.8 23.8 410.3 C 23.8 411 23.9 411.7 24.1 412.5 C 24.4 413.3 24.5 414.3 24.4 415.4 C 24.4 416.2 23.8 416.8 23.4 417.5 C 22.9 418.3 22.3 419 22.6 419.7 C 22.7 420.5 23.4 421 24.1 421.6 C 24.6 422.1 25.3 422.7 25.7 423.4 C 26 423.9 26.3 424.5 26.6 425 C 27.1 426.2 27.5 427.2 29 427.8 C 29 427.3 29.3 426.8 29.4 426.4 C 30.1 423.8 30.9 421.2 31.2 418.7 C 31.2 417.6 31.2 416.8 30.8 415.8 C 30.7 415.3 30.5 414.7 30.4 414 C 30.1 412.5 30.4 411.7 30.8 410.6 C 30.8 410.3 31.1 409.9 31.2 409.5 L 31.2 409.1 L 31.8 409.1 C 31.9 409.1 32 409.1 32 409.1 C 32.5 408.1 32.5 407.2 32.3 406.1 C 32.3 405.3 32.3 404.6 32.3 403.6 L 32.3 403.3 L 32.6 403.3 C 33.3 403.2 34 403.3 34.4 403.5 C 35.2 404 35.3 405.4 35.6 406.5 C 35.6 407.2 35.8 408 36 408.4 C 36.3 408.8 36.6 409 36.9 409.2 C 37.3 409.5 37.8 409.8 38.1 410.5 C 38.4 411 38.4 412 38.4 412.9 C 38.4 413.2 38.4 413.6 38.4 413.9 C 38.5 415.5 38.6 417.2 38.9 419.3 C 39 420.8 39.5 421.7 40 422 C 40.4 422.1 41 422 41.8 421.6 L 42.1 421.3 L 42.3 421.6 C 42.6 422 42.8 422.4 43 422.8 L 43.7 423.4 C 43.7 423.5 43.6 423.6 43.4 423.8 C 43.7 424.5 44 425.2 44 425.8 L 43.4 425.8 C 43.6 426.1 43.9 426.4 44 426.5 C 44.3 426.8 44.5 427.1 44.8 427.3 C 45.2 427.9 45.5 428.3 45.8 428.7 C 46.2 429.4 46.6 430 47.7 430.6 C 48.4 430.9 49.2 431.3 50 431.6 C 52.4 432.4 55 433.4 55.8 435.7 C 55.9 436.1 56 436.4 56.2 436.5 L 56.5 436.8 C 57.3 439.8 60.5 445.1 62.7 447.9 C 63.3 448.9 64.3 449.6 65.1 450.1 C 66.1 451 67.2 451.8 68.1 453.1 C 68.7 454.5 68.3 455.8 67.9 456.9 C 67.6 457.8 67.3 458.8 67.6 459.7 C 68 461 69 461.4 69.9 461.8 C 70.5 462.1 71.2 462.3 71.6 462.8 C 72.8 463.9 73.2 465.4 73.8 467 C 74 467.7 74.2 468.4 74.5 468.9 C 74.6 469.3 74.9 469.8 75.1 470.2 C 75.6 471 76.1 471.8 76.2 472.8 C 76.4 473.5 76.4 474 76.2 474.6 C 76.2 475.2 76.2 475.8 76.5 476.5 C 76.8 477.2 77.5 477.7 78.2 478.1 C 79 478.8 79.8 479.5 80.2 480.6 C 80.6 481.8 80.2 483.1 79.9 484.2 C 79.7 485 79.5 485.7 79.5 486.4 C 79.5 488.3 80.2 489.9 81.5 490.6 C 82.6 491.3 83.9 491.3 85.4 490.6 L 85.7 490.6 L 86 490.6 C 86.5 491 86.9 491.7 87.4 492.3 C 87.9 493.1 88.6 493.9 89.3 494.3 C 89.8 494.6 90.1 494.6 90.5 494.5 C 90.8 494.5 91.2 494.3 91.9 494.5 C 92.8 494.9 93.3 495.7 93.7 496.5 C 93.9 497.2 94.4 497.8 94.9 498.2 C 95.7 498.7 96 498.6 96.4 498.4 C 96.8 498.4 97.4 498.2 98.1 498.4 C 99 498.9 99.8 500.2 100.5 501.5 C 100.8 502 101.2 502.6 101.5 502.8 C 102.3 506.1 105.2 507.9 107.9 509.6 C 108.9 510.1 109.7 510.7 110.6 511.2 C 111.2 511.8 111.8 512.3 112.3 513 C 113.3 514.1 114.1 515 115.9 515.2 C 117.1 515.2 118.2 514.8 119.3 514.4 C 120.2 514.1 121 513.7 121.9 513.5 L 122.5 513.5 L 122.5 513.9 C 122.5 514.9 122.2 515.6 122.1 516.1 C 121.8 517 121.8 517.1 123 517.9 C 123.5 518.2 123.7 518.2 124.1 518.2 C 124.7 518.2 125.2 518.2 126.1 519 C 126.8 519.7 127.3 520.4 127.8 521.2 C 128.4 522 128.9 522.7 129.6 523.3 C 129.6 523.3 129.8 523.3 129.9 523.3 C 130.2 523.3 130.9 523 131.3 523.6 C 131.8 524.2 131.7 525.1 131.7 525.8 C 131.7 526.2 131.7 526.4 131.7 526.8 C 132.4 530.1 134.6 532.6 137.6 533.4 C 138 533.4 138.4 533.6 138.7 533.6 C 139.4 533.6 139.9 533.7 140.9 534.3 C 141.3 534.5 141.7 535.1 141.8 535.4 C 141.8 535.6 142.1 535.9 142.3 535.9 C 142.3 535.9 142.4 535.9 142.7 535.8 L 142.8 535.8 C 146.7 534.9 148 538.9 149.3 542.2 C 149.5 542.8 149.7 543.3 149.9 543.9 C 150.2 544.4 150.4 545 150.6 545.5 C 152.4 549.6 153.8 552.9 150.9 557.9 C 149.7 559.9 149.1 561 146.5 561.7 C 146.2 561.7 146 561.8 145.7 562 C 144.2 562.4 142 563.1 141.2 564 C 140.6 564.7 140.2 565.8 139.9 566.9 C 139.4 568.4 139 570.2 137.6 570.8 C 136.8 571.2 135.8 571 134.6 570.6 C 134.4 571.2 134.2 571.6 134 572 C 133.5 573.1 133.2 573.8 133.5 575 C 133.7 575.8 134 576.4 134.3 576.8 C 134.7 577.5 135.1 578.2 135.3 579.5 C 135.3 580.1 135.3 580.5 135.3 580.9 L 135.9 581.1 Z" fill="#87abc1"/>
<path d="M -17.8 342.7 C -17.8 343.1 -18 343.4 -18.2 343.8 C -18.5 344.6 -18.7 345.3 -18.7 346.1 L -21.6 346.1 C -21.6 344.6 -21.6 343.1 -21.6 341.6 C -21.6 308.1 -16.7 275.8 -7.8 245.2 L -7.3 245 L -7.1 245.5 C -6.1 247.7 -6.8 250.6 -7.3 253 C -7.3 253.3 -7.5 253.7 -7.5 254 C -8 256.6 -8 257.9 -8 260.3 C -8 262.4 -8.4 264.3 -8.9 266.2 C -9 267 -9.3 267.9 -9.4 268.7 C -9.8 270.6 -9.7 272.1 -9.4 273.8 C -9.4 274.9 -9.3 276.1 -9.4 277.5 C -9.4 279 -10 280.4 -10.4 281.7 C -10.8 283.1 -11.3 284.3 -11.3 285.7 C -11.3 286.8 -11.3 287.9 -11.3 288.9 C -11.3 290.8 -11.2 292.7 -11.6 294.6 C -12.4 297.9 -12.6 301.1 -12.6 304.5 C -12.6 306.7 -12.6 309 -13 311.2 C -13.2 313.8 -14.2 316.7 -15.2 319.6 C -15.4 320.6 -15.9 321.5 -16.1 322.5 C -16.8 325 -17.5 332 -15.6 332.9 L -15.3 332.9 C -15.3 333.1 -15.4 333.5 -15.4 333.5 C -16.1 334.8 -16.4 336.6 -16.7 338.6 C -17 339.9 -17.2 341.4 -17.6 342.8 L -17.8 342.7 Z" fill="#87abc1"/>
</g>
<defs>
</defs>
</svg>
