<svg width="864" height="148" viewBox="0 0 864 148" fill="none" xmlns="http://www.w3.org/2000/svg">
<path d="M863.167 2.66675C863.167 4.13951 861.973 5.33341 860.5 5.33341C859.027 5.33341 857.833 4.13951 857.833 2.66675C857.833 1.19399 859.027 8.13007e-05 860.5 8.13007e-05C861.973 8.13007e-05 863.167 1.19399 863.167 2.66675ZM0.5 147.167C0.223816 147.167 0 146.943 0 146.667C0 146.391 0.223816 146.167 0.5 146.167V146.667V147.167ZM860.5 2.66675H861V126.667H860.5H860V2.66675H860.5ZM840.5 146.667V147.167H0.5V146.667V146.167H840.5V146.667ZM860.5 126.667H861C861 137.989 851.822 147.167 840.5 147.167V146.667V146.167C851.27 146.167 860 137.436 860 126.667H860.5Z" fill="#11333F"/>
</svg>
