<svg width="45" height="45" viewBox="0 0 45 45" fill="none" xmlns="http://www.w3.org/2000/svg">
<path d="M38.5679 26.9656C38.5679 26.9656 38.5781 26.92 38.5781 26.8896C38.5781 26.6666 38.4412 26.5145 37.98 26.6716L35.6382 27.5384L31.4363 17.1323L36.0032 14.6943C36.0032 14.6943 36.5607 14.4358 36.4847 14.1773C36.4188 13.9847 36.2921 13.9289 36.0995 14.01C34.883 14.6537 33.6614 15.2924 32.45 15.9462C31.9938 16.1946 31.492 16.4379 31.0511 16.6964C30.8483 16.8181 30.7672 16.8485 30.8331 17.107C30.9243 17.477 31.1778 17.8774 31.2741 18.2424C31.2791 18.2626 31.2893 18.2829 31.2842 18.3083C30.7317 18.4958 30.2198 18.6935 29.6318 18.7492C28.6485 18.8405 28.0757 18.5972 27.1735 18.3488C25.8911 17.994 24.6189 18.0193 23.3517 18.4248C22.9462 18.5566 22.5153 18.8455 22.0845 18.7138C21.8412 18.6377 21.5827 18.5009 21.3293 18.4198C20.1939 18.0548 19.0179 17.9991 17.8471 18.2626C17.1729 18.4147 16.5444 18.7239 15.8399 18.7644C14.9782 18.8151 14.2381 18.5718 13.4221 18.3742L13.3815 18.3437C13.5336 17.8825 13.7718 17.4466 13.8884 16.9752L13.8276 16.8181C12.1904 15.8803 10.5076 15.0339 8.84504 14.1316C8.60681 14.0151 8.32803 13.8174 8.20639 14.1874C8.16077 14.4307 8.47503 14.5371 8.69805 14.6841L13.2548 17.1425L9.09848 27.5992C9.09848 27.5992 6.74153 26.7477 6.3411 26.6361C5.94068 26.5246 5.9204 26.9707 6.08767 27.0315C6.25494 27.0923 8.07967 27.807 8.91094 28.0655C9.02752 28.1061 9.18465 28.1669 9.3063 28.1517C9.38233 28.1365 9.42288 28.0605 9.45836 27.9996C9.65097 27.6752 9.78782 27.219 9.95509 26.8744C9.9703 26.844 9.9855 26.7983 10.0058 26.773C10.0159 26.7578 10.0058 26.7426 10.0362 26.7527C10.4772 27.1227 10.9486 27.4522 11.3895 27.8172C11.6126 28.0047 11.8457 28.172 11.9674 28.4406C12.1194 28.7751 12.1296 29.0641 12.3627 29.3986C12.7733 29.9866 13.4272 30.1133 14.0962 30.2045C14.1621 30.7114 14.2483 31.2233 14.5778 31.6288C14.9782 32.1256 15.5915 32.2624 16.1997 32.3232C16.3721 32.9467 16.4937 33.7577 17.0969 34.1176C17.5632 34.3963 18.1917 34.3862 18.7189 34.4217C18.7848 34.6092 18.8203 34.8069 18.8912 34.9944C19.2815 36.0031 20.3155 36.439 21.3293 36.0487C21.5168 35.9778 21.679 35.8663 21.8564 35.7852C21.897 35.7852 22.1453 36.0639 22.2062 36.1146C22.7586 36.6063 23.3973 36.7685 24.1069 36.5151C24.7912 36.2718 25.1257 35.6635 25.3335 35.0096C26.0888 35.3138 26.8592 35.3797 27.5283 34.8373C27.9845 34.4622 28.1264 33.9503 28.2481 33.3877C28.4812 33.4029 28.7144 33.4434 28.9475 33.4333C29.6825 33.3927 30.3212 32.9061 30.5492 32.2117C30.6405 31.938 30.6608 31.6592 30.6861 31.3703C31.1474 31.2943 31.6187 31.2233 32.0141 30.9699C32.9011 30.4073 32.7795 29.3631 32.6071 28.4609L34.8424 27.2545L35.2682 28.0807C35.3797 28.2328 35.6686 28.0959 35.8258 28.0503C36.6418 27.7867 38.1118 27.2393 38.2588 27.1836C38.4057 27.1278 38.5223 27.0568 38.5527 26.9656H38.5679ZM14.451 29.3935C13.4981 29.9815 12.2766 29.0184 12.6314 27.9641C12.7429 27.6296 13.2396 27.1582 13.5083 26.9099C13.7414 26.6919 14.0506 26.4131 14.3902 26.3878C15.3685 26.3219 16.144 27.3762 15.5966 28.2531C15.4242 28.5217 14.7298 29.2263 14.4561 29.3935H14.451ZM15.7436 31.6744C14.8565 31.5224 14.3801 30.4478 14.9782 29.7331C15.1759 29.5 15.4445 29.2364 15.6625 29.0134C16.0021 28.6636 16.4076 28.2429 16.7776 27.9337C16.9702 27.7715 17.2084 27.655 17.4669 27.6397C18.4908 27.5789 19.1953 28.8106 18.5364 29.6216C18.1512 30.1031 17.4973 30.7012 17.0411 31.1372C16.6407 31.5122 16.3417 31.7758 15.7436 31.6694V31.6744ZM18.947 33.5195C17.7457 34.5332 16.1744 33.0024 17.1881 31.7961C17.2743 31.6947 17.3909 31.5781 17.4821 31.4818C17.8927 31.0459 18.4148 30.5086 18.8608 30.1183C19.0484 29.9561 19.3018 29.8193 19.5552 29.7939C20.3054 29.7179 20.8832 30.2805 20.9288 31.0155C20.944 31.2588 20.8934 31.3602 20.7818 31.568C20.645 31.8265 20.4625 32.009 20.2648 32.2168C19.8746 32.6324 19.3727 33.1545 18.947 33.5195ZM21.679 35.0147C21.2482 35.4354 20.9846 35.7497 20.3206 35.5976C19.5502 35.4151 19.094 34.4876 19.5299 33.7982C19.8087 33.3674 20.5487 32.6375 21.0758 32.602C21.8159 32.5513 22.4849 33.2153 22.414 33.9604C22.3785 34.3355 21.9426 34.7613 21.679 35.0147ZM22.6877 35.7547C22.5356 35.628 22.414 35.4557 22.2822 35.3087C22.5407 35.0046 22.7891 34.7157 22.8955 34.3152C22.9969 33.9503 22.9563 33.6208 22.9107 33.2559L23.5139 33.0734L24.4262 34.0415C25.3589 35.2124 23.8636 36.7482 22.6826 35.7497L22.6877 35.7547ZM30.2248 30.4579L25.9519 26.2104C25.6782 25.9519 25.293 26.2864 25.5464 26.5804L29.8396 30.8989C30.7267 32.1053 29.1756 33.5853 27.9389 32.4804C26.9201 31.568 25.9975 30.4579 24.9889 29.5304C24.6848 29.2415 24.2894 29.5811 24.5834 29.9004C25.4146 30.8229 26.4537 31.6542 27.2647 32.5817C28.3545 33.8337 26.7325 35.405 25.5211 34.3406C24.8723 33.7729 24.2945 33.0176 23.6457 32.4601C23.5899 32.4094 23.4378 32.2928 23.3567 32.2979C23.2604 32.303 23.1337 32.4449 23.0678 32.5158C23.0273 32.5564 22.8702 32.7845 22.8347 32.7845L21.3546 31.9025C21.3698 31.715 21.4408 31.5274 21.4661 31.3348C21.5371 30.7722 21.4154 30.2805 21.0454 29.8497C20.6298 29.3682 20.0063 29.2161 19.393 29.211C19.3525 28.7853 19.3271 28.3747 19.1142 27.9946C18.8 27.4319 18.1157 27.0568 17.472 27.0974C17.107 27.1177 16.7624 27.2697 16.438 27.4167C16.1389 26.8288 15.9108 26.2864 15.2671 26.0026C13.8935 25.3892 13.047 26.5905 12.165 27.3964C12.1397 27.4167 11.9826 27.5586 11.9724 27.5586C11.7038 27.3508 11.425 27.143 11.1614 26.9301C10.7255 26.5804 10.1578 26.2813 10.4417 25.6224L13.1281 18.9317C13.787 19.0179 14.4257 19.2004 15.0846 19.2815C16.22 19.4183 16.737 19.1142 17.7609 18.8455C18.6733 18.6124 19.6059 18.5921 20.5284 18.7796C20.9643 18.8709 21.38 19.0229 21.8108 19.1142L21.7905 19.1547L19.2612 20.5638C17.3351 21.9375 18.6631 24.8925 21.0353 24.2133C22.2163 23.8788 23.3517 23.3364 24.5124 22.9563C25.3031 22.6978 25.9671 22.789 26.5957 23.3466C28.2531 25.0243 29.9461 26.6716 31.6035 28.3544C31.7455 28.4964 31.8823 28.6129 32.004 28.7802C32.8302 29.9409 31.4008 31.3399 30.235 30.463L30.2248 30.4579ZM32.0293 28.1263H31.9938L31.6694 27.6448L26.9555 22.9309C26.1091 22.1706 25.3082 22.0997 24.2488 22.4595C23.1793 22.8245 22.1301 23.2807 21.0505 23.6304C20.1483 23.9244 19.2105 23.6811 18.9368 22.6826C18.7189 21.8817 19.0027 21.3698 19.6718 20.9744C20.7514 20.3408 21.9527 19.6819 23.0932 19.1649C24.4719 18.5364 25.5515 18.435 27.0214 18.876C28.0605 19.1801 28.7499 19.4183 29.8751 19.2662C30.4428 19.1902 30.9801 18.9976 31.5123 18.7949L34.6955 26.7071L32.0242 28.1314L32.0293 28.1263Z" fill="white"/>
<path d="M7.33442 6.24977C7.26853 6.18388 7.17222 6.15854 7.08098 6.17881L2.63066 7.23817C2.48873 7.27365 2.39243 7.42065 2.42791 7.56764C2.46339 7.71463 2.61038 7.8008 2.75737 7.77039L6.26492 6.93405C2.22516 11.1411 0 16.6457 0 22.5001C0 24.8621 0.364947 27.1886 1.0847 29.4138C1.12018 29.5303 1.22663 29.6013 1.34321 29.6013C1.36855 29.6013 1.39896 29.6013 1.42431 29.5861C1.56623 29.5405 1.64733 29.3884 1.60171 29.2465C0.902228 27.072 0.547421 24.8063 0.547421 22.5001C0.547421 16.7673 2.73203 11.3793 6.70083 7.26351L5.9608 10.8724C5.93039 11.0194 6.02669 11.1614 6.17369 11.1918C6.26999 11.212 6.36123 11.1766 6.42205 11.1157C6.45753 11.0803 6.48287 11.0346 6.49301 10.9839L7.41552 6.50321C7.43579 6.41197 7.40538 6.32074 7.33949 6.25484L7.33442 6.24977Z" fill="white"/>
<path d="M22.5001 45.0001C16.4379 45.0001 10.7508 42.6228 6.48804 38.3094C6.38159 38.2029 6.38159 38.0306 6.48804 37.9241C6.59448 37.8177 6.76682 37.8228 6.87326 37.9241C11.0296 42.1362 16.5798 44.4526 22.495 44.4526C24.8824 44.4526 27.2343 44.0725 29.4797 43.3172C29.6216 43.2666 29.7737 43.3477 29.8244 43.4896C29.8751 43.6315 29.7939 43.7836 29.652 43.8342C27.3508 44.6047 24.9432 44.995 22.495 44.995L22.5001 45.0001Z" fill="white"/>
<path d="M38.0708 38.6338C37.9999 38.6338 37.9289 38.6084 37.8782 38.5527C37.7718 38.4463 37.7769 38.2739 37.8782 38.1675C42.1157 34.0061 44.4523 28.4406 44.4523 22.5001C44.4523 20.209 44.1026 17.9484 43.4082 15.7841C43.3626 15.6421 43.4386 15.4901 43.5856 15.4445C43.7275 15.3988 43.8796 15.4749 43.9252 15.6219C44.6348 17.8369 44.9947 20.1533 44.9947 22.5001C44.9947 28.5876 42.6023 34.2899 38.2584 38.5527C38.2077 38.6034 38.1367 38.6287 38.0658 38.6287L38.0708 38.6338Z" fill="white"/>
<path d="M38.1015 6.94413C38.0305 6.94413 37.9646 6.91878 37.9088 6.8681C33.7728 2.79286 28.2986 0.547417 22.4949 0.547417C22.3428 0.547417 22.2212 0.425772 22.2212 0.273711C22.2212 0.121649 22.3428 0 22.4949 0C28.4456 0 34.0516 2.30119 38.289 6.47781C38.3954 6.58425 38.3954 6.75659 38.289 6.86303C38.2383 6.91879 38.1673 6.94413 38.0964 6.94413H38.1015Z" fill="white"/>
<path d="M2.85878 36.8952C1.4953 36.8952 0.385254 35.7851 0.385254 34.4217C0.385254 33.0582 1.4953 31.9481 2.85878 31.9481C4.22226 31.9481 5.33231 33.0582 5.33231 34.4217C5.33231 35.7851 4.22226 36.8952 2.85878 36.8952ZM2.85878 32.4854C1.79435 32.4854 0.927605 33.3521 0.927605 34.4166C0.927605 35.481 1.79435 36.3478 2.85878 36.3478C3.92321 36.3478 4.78996 35.481 4.78996 34.4166C4.78996 33.3521 3.92321 32.4854 2.85878 32.4854Z" fill="white"/>
<path d="M34.3656 44.108C33.0021 44.108 31.8921 42.9979 31.8921 41.6344C31.8921 40.2709 33.0021 39.1609 34.3656 39.1609C35.7291 39.1609 36.8391 40.2709 36.8391 41.6344C36.8391 42.9979 35.7291 44.108 34.3656 44.108ZM34.3656 39.6982C33.3012 39.6982 32.4344 40.5649 32.4344 41.6294C32.4344 42.6938 33.3012 43.5605 34.3656 43.5605C35.43 43.5605 36.2968 42.6938 36.2968 41.6294C36.2968 40.5649 35.43 39.6982 34.3656 39.6982Z" fill="white"/>
<path d="M41.3554 13.1584C39.9919 13.1584 38.8818 12.0483 38.8818 10.6848C38.8818 9.32135 39.9919 8.2113 41.3554 8.2113C42.7188 8.2113 43.8289 9.32135 43.8289 10.6848C43.8289 12.0483 42.7188 13.1584 41.3554 13.1584ZM41.3554 8.75366C40.2909 8.75366 39.4242 9.6204 39.4242 10.6848C39.4242 11.7493 40.2909 12.616 41.3554 12.616C42.4198 12.616 43.2865 11.7493 43.2865 10.6848C43.2865 9.6204 42.4198 8.75366 41.3554 8.75366Z" fill="white"/>
<path d="M38.1015 6.94413C38.0305 6.94413 37.9646 6.91878 37.9088 6.8681C33.7728 2.79286 28.2986 0.547417 22.4949 0.547417C22.3428 0.547417 22.2212 0.425772 22.2212 0.273711C22.2212 0.121649 22.3428 0 22.4949 0C28.4456 0 34.0516 2.30119 38.289 6.47781C38.3954 6.58425 38.3954 6.75659 38.289 6.86303C38.2383 6.91879 38.1673 6.94413 38.0964 6.94413H38.1015Z" fill="white"/>
<path d="M7.33442 6.24977C7.26853 6.18388 7.17222 6.15854 7.08098 6.17881L2.63066 7.23817C2.48873 7.27365 2.39243 7.42065 2.42791 7.56764C2.46339 7.71463 2.61038 7.8008 2.75737 7.77039L6.26492 6.93405C2.22516 11.1411 0 16.6457 0 22.5001C0 24.8621 0.364947 27.1886 1.0847 29.4138C1.12018 29.5303 1.22663 29.6013 1.34321 29.6013C1.36855 29.6013 1.39896 29.6013 1.42431 29.5861C1.56623 29.5405 1.64733 29.3884 1.60171 29.2465C0.902228 27.072 0.547421 24.8063 0.547421 22.5001C0.547421 16.7673 2.73203 11.3793 6.70083 7.26351L5.9608 10.8724C5.93039 11.0194 6.02669 11.1614 6.17369 11.1918C6.26999 11.212 6.36123 11.1766 6.42205 11.1157C6.45753 11.0803 6.48287 11.0346 6.49301 10.9839L7.41552 6.50321C7.43579 6.41197 7.40538 6.32074 7.33949 6.25484L7.33442 6.24977Z" fill="white"/>
<path d="M41.3554 13.1584C39.9919 13.1584 38.8818 12.0483 38.8818 10.6848C38.8818 9.32135 39.9919 8.2113 41.3554 8.2113C42.7188 8.2113 43.8289 9.32135 43.8289 10.6848C43.8289 12.0483 42.7188 13.1584 41.3554 13.1584ZM41.3554 8.75366C40.2909 8.75366 39.4242 9.6204 39.4242 10.6848C39.4242 11.7493 40.2909 12.616 41.3554 12.616C42.4198 12.616 43.2865 11.7493 43.2865 10.6848C43.2865 9.6204 42.4198 8.75366 41.3554 8.75366Z" fill="white"/>
<path d="M38.5679 26.9656C38.5679 26.9656 38.5781 26.92 38.5781 26.8896C38.5781 26.6666 38.4412 26.5145 37.98 26.6716L35.6382 27.5384L31.4363 17.1323L36.0032 14.6943C36.0032 14.6943 36.5607 14.4358 36.4847 14.1773C36.4188 13.9847 36.2921 13.9289 36.0995 14.01C34.883 14.6537 33.6614 15.2924 32.45 15.9462C31.9938 16.1946 31.492 16.4379 31.0511 16.6964C30.8483 16.8181 30.7672 16.8485 30.8331 17.107C30.9243 17.477 31.1778 17.8774 31.2741 18.2424C31.2791 18.2626 31.2893 18.2829 31.2842 18.3083C30.7317 18.4958 30.2198 18.6935 29.6318 18.7492C28.6485 18.8405 28.0757 18.5972 27.1735 18.3488C25.8911 17.994 24.6189 18.0193 23.3517 18.4248C22.9462 18.5566 22.5153 18.8455 22.0845 18.7138C21.8412 18.6377 21.5827 18.5009 21.3293 18.4198C20.1939 18.0548 19.0179 17.9991 17.8471 18.2626C17.1729 18.4147 16.5444 18.7239 15.8399 18.7644C14.9782 18.8151 14.2381 18.5718 13.4221 18.3742L13.3815 18.3437C13.5336 17.8825 13.7718 17.4466 13.8884 16.9752L13.8276 16.8181C12.1904 15.8803 10.5076 15.0339 8.84504 14.1316C8.60681 14.0151 8.32803 13.8174 8.20639 14.1874C8.16077 14.4307 8.47503 14.5371 8.69805 14.6841L13.2548 17.1425L9.09848 27.5992C9.09848 27.5992 6.74153 26.7477 6.3411 26.6361C5.94068 26.5246 5.9204 26.9707 6.08767 27.0315C6.25494 27.0923 8.07967 27.807 8.91094 28.0655C9.02752 28.1061 9.18465 28.1669 9.3063 28.1517C9.38233 28.1365 9.42288 28.0605 9.45836 27.9996C9.65097 27.6752 9.78782 27.219 9.95509 26.8744C9.9703 26.844 9.9855 26.7983 10.0058 26.773C10.0159 26.7578 10.0058 26.7426 10.0362 26.7527C10.4772 27.1227 10.9486 27.4522 11.3895 27.8172C11.6126 28.0047 11.8457 28.172 11.9674 28.4406C12.1194 28.7751 12.1296 29.0641 12.3627 29.3986C12.7733 29.9866 13.4272 30.1133 14.0962 30.2045C14.1621 30.7114 14.2483 31.2233 14.5778 31.6288C14.9782 32.1256 15.5915 32.2624 16.1997 32.3232C16.3721 32.9467 16.4937 33.7577 17.0969 34.1176C17.5632 34.3963 18.1917 34.3862 18.7189 34.4217C18.7848 34.6092 18.8203 34.8069 18.8912 34.9944C19.2815 36.0031 20.3155 36.439 21.3293 36.0487C21.5168 35.9778 21.679 35.8663 21.8564 35.7852C21.897 35.7852 22.1453 36.0639 22.2062 36.1146C22.7586 36.6063 23.3973 36.7685 24.1069 36.5151C24.7912 36.2718 25.1257 35.6635 25.3335 35.0096C26.0888 35.3138 26.8592 35.3797 27.5283 34.8373C27.9845 34.4622 28.1264 33.9503 28.2481 33.3877C28.4812 33.4029 28.7144 33.4434 28.9475 33.4333C29.6825 33.3927 30.3212 32.9061 30.5492 32.2117C30.6405 31.938 30.6608 31.6592 30.6861 31.3703C31.1474 31.2943 31.6187 31.2233 32.0141 30.9699C32.9011 30.4073 32.7795 29.3631 32.6071 28.4609L34.8424 27.2545L35.2682 28.0807C35.3797 28.2328 35.6686 28.0959 35.8258 28.0503C36.6418 27.7867 38.1118 27.2393 38.2588 27.1836C38.4057 27.1278 38.5223 27.0568 38.5527 26.9656H38.5679ZM14.451 29.3935C13.4981 29.9815 12.2766 29.0184 12.6314 27.9641C12.7429 27.6296 13.2396 27.1582 13.5083 26.9099C13.7414 26.6919 14.0506 26.4131 14.3902 26.3878C15.3685 26.3219 16.144 27.3762 15.5966 28.2531C15.4242 28.5217 14.7298 29.2263 14.4561 29.3935H14.451ZM15.7436 31.6744C14.8565 31.5224 14.3801 30.4478 14.9782 29.7331C15.1759 29.5 15.4445 29.2364 15.6625 29.0134C16.0021 28.6636 16.4076 28.2429 16.7776 27.9337C16.9702 27.7715 17.2084 27.655 17.4669 27.6397C18.4908 27.5789 19.1953 28.8106 18.5364 29.6216C18.1512 30.1031 17.4973 30.7012 17.0411 31.1372C16.6407 31.5122 16.3417 31.7758 15.7436 31.6694V31.6744ZM18.947 33.5195C17.7457 34.5332 16.1744 33.0024 17.1881 31.7961C17.2743 31.6947 17.3909 31.5781 17.4821 31.4818C17.8927 31.0459 18.4148 30.5086 18.8608 30.1183C19.0484 29.9561 19.3018 29.8193 19.5552 29.7939C20.3054 29.7179 20.8832 30.2805 20.9288 31.0155C20.944 31.2588 20.8934 31.3602 20.7818 31.568C20.645 31.8265 20.4625 32.009 20.2648 32.2168C19.8746 32.6324 19.3727 33.1545 18.947 33.5195ZM21.679 35.0147C21.2482 35.4354 20.9846 35.7497 20.3206 35.5976C19.5502 35.4151 19.094 34.4876 19.5299 33.7982C19.8087 33.3674 20.5487 32.6375 21.0758 32.602C21.8159 32.5513 22.4849 33.2153 22.414 33.9604C22.3785 34.3355 21.9426 34.7613 21.679 35.0147ZM22.6877 35.7547C22.5356 35.628 22.414 35.4557 22.2822 35.3087C22.5407 35.0046 22.7891 34.7157 22.8955 34.3152C22.9969 33.9503 22.9563 33.6208 22.9107 33.2559L23.5139 33.0734L24.4262 34.0415C25.3589 35.2124 23.8636 36.7482 22.6826 35.7497L22.6877 35.7547ZM30.2248 30.4579L25.9519 26.2104C25.6782 25.9519 25.293 26.2864 25.5464 26.5804L29.8396 30.8989C30.7267 32.1053 29.1756 33.5853 27.9389 32.4804C26.9201 31.568 25.9975 30.4579 24.9889 29.5304C24.6848 29.2415 24.2894 29.5811 24.5834 29.9004C25.4146 30.8229 26.4537 31.6542 27.2647 32.5817C28.3545 33.8337 26.7325 35.405 25.5211 34.3406C24.8723 33.7729 24.2945 33.0176 23.6457 32.4601C23.5899 32.4094 23.4378 32.2928 23.3567 32.2979C23.2604 32.303 23.1337 32.4449 23.0678 32.5158C23.0273 32.5564 22.8702 32.7845 22.8347 32.7845L21.3546 31.9025C21.3698 31.715 21.4408 31.5274 21.4661 31.3348C21.5371 30.7722 21.4154 30.2805 21.0454 29.8497C20.6298 29.3682 20.0063 29.2161 19.393 29.211C19.3525 28.7853 19.3271 28.3747 19.1142 27.9946C18.8 27.4319 18.1157 27.0568 17.472 27.0974C17.107 27.1177 16.7624 27.2697 16.438 27.4167C16.1389 26.8288 15.9108 26.2864 15.2671 26.0026C13.8935 25.3892 13.047 26.5905 12.165 27.3964C12.1397 27.4167 11.9826 27.5586 11.9724 27.5586C11.7038 27.3508 11.425 27.143 11.1614 26.9301C10.7255 26.5804 10.1578 26.2813 10.4417 25.6224L13.1281 18.9317C13.787 19.0179 14.4257 19.2004 15.0846 19.2815C16.22 19.4183 16.737 19.1142 17.7609 18.8455C18.6733 18.6124 19.6059 18.5921 20.5284 18.7796C20.9643 18.8709 21.38 19.0229 21.8108 19.1142L21.7905 19.1547L19.2612 20.5638C17.3351 21.9375 18.6631 24.8925 21.0353 24.2133C22.2163 23.8788 23.3517 23.3364 24.5124 22.9563C25.3031 22.6978 25.9671 22.789 26.5957 23.3466C28.2531 25.0243 29.9461 26.6716 31.6035 28.3544C31.7455 28.4964 31.8823 28.6129 32.004 28.7802C32.8302 29.9409 31.4008 31.3399 30.235 30.463L30.2248 30.4579ZM32.0293 28.1263H31.9938L31.6694 27.6448L26.9555 22.9309C26.1091 22.1706 25.3082 22.0997 24.2488 22.4595C23.1793 22.8245 22.1301 23.2807 21.0505 23.6304C20.1483 23.9244 19.2105 23.6811 18.9368 22.6826C18.7189 21.8817 19.0027 21.3698 19.6718 20.9744C20.7514 20.3408 21.9527 19.6819 23.0932 19.1649C24.4719 18.5364 25.5515 18.435 27.0214 18.876C28.0605 19.1801 28.7499 19.4183 29.8751 19.2662C30.4428 19.1902 30.9801 18.9976 31.5123 18.7949L34.6955 26.7071L32.0242 28.1314L32.0293 28.1263Z" fill="white"/>
<path d="M38.0708 38.6338C37.9999 38.6338 37.9289 38.6084 37.8782 38.5527C37.7718 38.4463 37.7769 38.2739 37.8782 38.1675C42.1157 34.0061 44.4523 28.4406 44.4523 22.5001C44.4523 20.209 44.1026 17.9484 43.4082 15.7841C43.3626 15.6421 43.4386 15.4901 43.5856 15.4445C43.7275 15.3988 43.8796 15.4749 43.9252 15.6219C44.6348 17.8369 44.9947 20.1533 44.9947 22.5001C44.9947 28.5876 42.6023 34.2899 38.2584 38.5527C38.2077 38.6034 38.1367 38.6287 38.0658 38.6287L38.0708 38.6338Z" fill="white"/>
<path d="M2.85878 36.8952C1.4953 36.8952 0.385254 35.7851 0.385254 34.4217C0.385254 33.0582 1.4953 31.9481 2.85878 31.9481C4.22226 31.9481 5.33231 33.0582 5.33231 34.4217C5.33231 35.7851 4.22226 36.8952 2.85878 36.8952ZM2.85878 32.4854C1.79435 32.4854 0.927605 33.3521 0.927605 34.4166C0.927605 35.481 1.79435 36.3478 2.85878 36.3478C3.92321 36.3478 4.78996 35.481 4.78996 34.4166C4.78996 33.3521 3.92321 32.4854 2.85878 32.4854Z" fill="white"/>
<path d="M22.5001 45.0001C16.4379 45.0001 10.7508 42.6228 6.48804 38.3094C6.38159 38.2029 6.38159 38.0306 6.48804 37.9241C6.59448 37.8177 6.76682 37.8228 6.87326 37.9241C11.0296 42.1362 16.5798 44.4526 22.495 44.4526C24.8824 44.4526 27.2343 44.0725 29.4797 43.3172C29.6216 43.2666 29.7737 43.3477 29.8244 43.4896C29.8751 43.6315 29.7939 43.7836 29.652 43.8342C27.3508 44.6047 24.9432 44.995 22.495 44.995L22.5001 45.0001Z" fill="white"/>
<path d="M34.3656 44.108C33.0021 44.108 31.8921 42.9979 31.8921 41.6344C31.8921 40.2709 33.0021 39.1609 34.3656 39.1609C35.7291 39.1609 36.8391 40.2709 36.8391 41.6344C36.8391 42.9979 35.7291 44.108 34.3656 44.108ZM34.3656 39.6982C33.3012 39.6982 32.4344 40.5649 32.4344 41.6294C32.4344 42.6938 33.3012 43.5605 34.3656 43.5605C35.43 43.5605 36.2968 42.6938 36.2968 41.6294C36.2968 40.5649 35.43 39.6982 34.3656 39.6982Z" fill="white"/>
</svg>
