<svg width="49" height="45" viewBox="0 0 49 45" fill="none" xmlns="http://www.w3.org/2000/svg">
<path d="M48.321 39.2801C48.2305 38.8931 47.8435 38.6518 47.4565 38.7373L26.4317 43.5574H25.7933C29.935 41.3358 40.2991 37.8225 47.5922 37.4505C47.7329 37.4455 47.8384 37.3249 47.8284 37.1892C47.8234 37.0484 47.6927 36.9278 47.567 36.9529C41.0832 37.2847 31.7695 40.1295 26.8488 42.4516C31.2116 39.461 39.8618 34.9776 46.3708 33.4949C46.5065 33.4647 46.5919 33.329 46.5618 33.1933C46.5316 33.0576 46.3959 32.9722 46.2602 33.0023C39.7562 34.4851 30.6788 39.0841 26.2457 42.2305C29.95 38.4457 37.982 32.0674 44.3 29.2427C44.4256 29.1874 44.4859 29.0366 44.4256 28.9109C44.3703 28.7853 44.2196 28.725 44.0939 28.7853C36.9415 31.982 27.0599 39.9888 24.386 43.5574H24.014C21.3401 39.9888 11.4585 31.982 4.30612 28.7853C4.18047 28.725 4.02968 28.7853 3.97439 28.9109C3.9191 29.0366 3.97439 29.1874 4.10005 29.2427C10.418 32.0674 18.45 38.4407 22.1543 42.2305C17.7212 39.079 8.64377 34.4851 2.13478 33.0023C1.99908 32.9722 1.86337 33.0576 1.83321 33.1933C1.80305 33.329 1.8885 33.4647 2.02421 33.4949C8.52817 34.9776 17.1834 39.461 21.5462 42.4516C16.6255 40.1345 7.31182 37.2847 0.827961 36.9529C0.692252 36.9328 0.571624 37.0535 0.566598 37.1892C0.561572 37.3299 0.66712 37.4455 0.802828 37.4505C8.09591 37.8225 18.46 41.3358 22.6017 43.5574H21.908L0.88325 38.7373C0.496229 38.6518 0.109207 38.888 0.0187349 39.2801C-0.0717376 39.6671 0.174549 40.0541 0.56157 40.1446L21.6618 44.9798C21.712 44.9899 21.7673 45 21.8226 45H26.5071C26.5623 45 26.6176 44.9949 26.6679 44.9798L47.7681 40.1446C48.1551 40.0541 48.3964 39.6671 48.3109 39.2801H48.321Z" fill="white"/>
<path d="M28.9502 22.206C30.4128 20.5423 31.6493 18.9088 32.5339 17.4411C33.504 15.8327 34.4741 13.7318 33.5844 12.8421C32.2726 11.5353 28.1711 14.0132 24.2255 17.4763C20.2799 14.0132 16.1735 11.5303 14.8616 12.8421C13.5498 14.154 16.0328 18.2554 19.4958 22.206C16.0328 26.1516 13.5498 30.2581 14.8616 31.5699C15.1029 31.8112 15.4447 31.9268 15.8619 31.9268C17.6914 31.9268 21.0087 29.7554 24.2255 26.9357C25.8892 28.3983 27.5278 29.6348 28.9904 30.5194C30.1515 31.2231 31.5689 31.9217 32.6043 31.9217C33.0014 31.9217 33.3432 31.8162 33.5894 31.5699C34.9013 30.2581 32.4183 26.1566 28.9552 22.206H28.9502ZM33.2275 13.199C34.0569 14.0283 32.3379 17.5618 28.6135 21.824C27.9852 21.1254 27.3318 20.4317 26.6633 19.7633C25.9948 19.0948 25.3012 18.4413 24.6025 17.8131C28.8648 14.0836 32.3982 12.3696 33.2275 13.199ZM28.2767 22.206C27.6685 22.8896 27.0101 23.5832 26.3064 24.2919C25.5977 25.0006 24.9041 25.654 24.2205 26.2622C23.5269 25.6389 22.8282 24.9855 22.1346 24.2919C21.4259 23.5832 20.7725 22.8896 20.1643 22.206C20.7725 21.5224 21.4309 20.8288 22.1346 20.1201C22.8433 19.4114 23.5369 18.758 24.2205 18.1498C24.9041 18.758 25.5977 19.4114 26.3064 20.1201C27.0151 20.8288 27.6685 21.5224 28.2767 22.206ZM15.2135 13.199C15.3492 13.0633 15.5653 12.9929 15.8418 12.9929C17.2391 12.9929 20.285 14.7018 23.8435 17.8131C23.1399 18.4413 22.4463 19.0948 21.7778 19.7633C21.1093 20.4317 20.4559 21.1254 19.8276 21.824C16.0981 17.5618 14.3841 14.0283 15.2135 13.199ZM15.2135 31.213C14.3841 30.3837 16.1031 26.8503 19.8276 22.588C20.4559 23.2866 21.1093 23.9803 21.7778 24.6488C22.4613 25.3323 23.1499 25.9807 23.8385 26.5989C19.5763 30.3234 16.0428 32.0424 15.2135 31.213ZM33.2275 31.213C32.7299 31.7106 31.2371 31.2935 29.2468 30.0872C27.8193 29.2226 26.226 28.0214 24.6025 26.5989C25.3012 25.9707 25.9948 25.3173 26.6633 24.6488C27.3468 23.9652 27.9952 23.2766 28.6135 22.588C32.3379 26.8503 34.0569 30.3837 33.2275 31.213Z" fill="white"/>
<path d="M23.3916 21.3767C23.1704 21.5978 23.0498 21.8944 23.0498 22.206C23.0498 22.5176 23.1704 22.8142 23.3916 23.0353C23.6228 23.2665 23.9193 23.3771 24.2209 23.3771C24.5225 23.3771 24.8241 23.2615 25.0502 23.0353C25.2714 22.8142 25.392 22.5176 25.392 22.206C25.392 21.8944 25.2714 21.5978 25.0502 21.3767C24.6079 20.9343 23.8339 20.9343 23.3916 21.3767ZM24.6984 22.6835C24.437 22.9448 24.0098 22.9448 23.7485 22.6835C23.6228 22.5578 23.5524 22.3869 23.5524 22.206C23.5524 22.025 23.6228 21.8592 23.7485 21.7285C23.8741 21.6028 24.045 21.5325 24.2259 21.5325C24.4069 21.5325 24.5728 21.6028 24.7034 21.7285C24.8291 21.8541 24.8995 22.025 24.8995 22.206C24.8995 22.3869 24.8291 22.5528 24.7034 22.6835H24.6984Z" fill="white"/>
<path d="M47.3814 23.7088C47.2407 23.7088 47.1301 23.5982 47.1301 23.4575C47.1301 10.8014 36.8314 0.502625 24.1753 0.502625C11.5192 0.502625 1.2204 10.8014 1.2204 23.4575C1.2204 23.5982 1.10982 23.7088 0.969086 23.7088C0.828351 23.7088 0.717773 23.5982 0.717773 23.4575C0.717773 10.525 11.2427 0 24.1753 0C37.1078 0 47.6328 10.525 47.6328 23.4575C47.6328 23.5982 47.5222 23.7088 47.3814 23.7088Z" fill="white"/>
</svg>
