<svg width="43" height="45" viewBox="0 0 43 45" fill="none" xmlns="http://www.w3.org/2000/svg">
<path d="M36.2103 11.0696H31.2393V10.9794C31.094 9.26058 30.0667 7.74722 29.6307 7.10078C29.5355 6.96047 29.4753 6.87027 29.4553 6.83018C29.1446 6.2088 28.9792 5.4872 28.9792 4.75056C28.9792 2.13475 31.109 0 33.7298 0C36.3506 0 38.4804 2.12973 38.4804 4.75056C38.4804 5.61247 38.33 6.28396 38.0143 6.81013C38.0043 6.83018 37.9843 6.85523 37.9592 6.89031L37.9342 6.92539C36.9019 8.38363 36.3256 9.74666 36.2254 10.9794V11.0696H36.2103ZM31.6652 10.5935H35.7794C35.9548 9.36581 36.5461 8.04287 37.5383 6.64978L37.5784 6.59465C37.5784 6.59465 37.5984 6.5696 37.6034 6.55958C37.869 6.1186 37.9993 5.52729 37.9993 4.75056C37.9993 2.39532 36.085 0.481069 33.7298 0.481069C31.3746 0.481069 29.4603 2.39532 29.4603 4.75056C29.4603 5.41203 29.6056 6.05846 29.8863 6.6147C29.9013 6.64477 29.9564 6.72495 30.0115 6.80512L30.0266 6.83018C30.4475 7.45156 31.4297 8.89477 31.6702 10.5885L31.6652 10.5935Z" fill="white"/>
<path d="M36.08 12.1068H31.3695C31.2994 12.1068 31.2393 12.0467 31.2393 11.9715V11.741C31.2393 11.6658 31.2994 11.6057 31.3695 11.6057H36.08C36.1502 11.6057 36.2103 11.6658 36.2103 11.741V11.9715C36.2103 12.0467 36.1552 12.1068 36.08 12.1068Z" fill="white"/>
<path d="M36.08 13.1192H31.3695C31.2994 13.1192 31.2393 13.059 31.2393 12.9839V12.7533C31.2393 12.6782 31.2994 12.618 31.3695 12.618H36.08C36.1502 12.618 36.2103 12.6782 36.2103 12.7533V12.9839C36.2103 13.059 36.1552 13.1192 36.08 13.1192Z" fill="white"/>
<path d="M33.7249 15.2239C32.6425 15.2239 31.7605 14.5624 31.7605 13.7456V13.6504H35.6892V13.7456C35.6892 14.5624 34.8073 15.2239 33.7249 15.2239Z" fill="white"/>
<path d="M30.7032 25.1559L30.638 25.2461C30.608 25.2862 30.5929 25.3263 30.5829 25.3664C30.5528 25.5217 30.6581 25.6771 30.8184 25.7071C31.7254 25.8825 33.2538 26.544 33.2538 27.902V36.4159C33.2538 36.5763 33.3841 36.7066 33.5445 36.7066C33.7048 36.7066 33.8351 36.5763 33.8351 36.4159V27.902C33.8351 26.1331 32.0011 25.3313 30.9187 25.1359C30.8836 25.1309 30.8485 25.1309 30.8084 25.1359L30.7032 25.1559ZM26.0929 25.1309C26.0929 25.1309 26.0629 25.1309 26.0478 25.1309C24.9654 25.3263 23.1313 26.1331 23.1313 27.897V36.4109C23.1313 36.5713 23.2616 36.7016 23.422 36.7016C23.5824 36.7016 23.7126 36.5713 23.7126 36.4109V27.897C23.7126 26.539 25.241 25.8825 26.143 25.7071C26.3084 25.6771 26.4136 25.5267 26.3836 25.3664C26.3786 25.3263 26.3585 25.2862 26.3285 25.2461L26.2583 25.1559L26.1531 25.1359C26.1531 25.1359 26.113 25.1309 26.0929 25.1309Z" fill="white"/>
<path d="M20.5806 17.534L20.5155 17.6242C20.4854 17.6643 20.4654 17.7044 20.4603 17.7444C20.4303 17.9048 20.5355 18.0551 20.6959 18.0852C20.8011 18.1052 23.1313 18.5663 23.1313 20.2801V22.8107C23.1313 22.9711 23.2616 23.1014 23.4219 23.1014C23.5823 23.1014 23.7126 22.9711 23.7126 22.8107V20.2801C23.7126 18.5112 21.8785 17.7094 20.7961 17.5089C20.761 17.5039 20.7259 17.5039 20.6858 17.5089L20.5806 17.529V17.534ZM15.9754 17.5039C15.9754 17.5039 15.9403 17.5039 15.9253 17.5039C14.8429 17.6993 13.0088 18.5061 13.0088 20.2701C13.0088 20.4304 13.1391 20.5607 13.2994 20.5607C13.4598 20.5607 13.5901 20.4304 13.5901 20.2701C13.5901 18.5613 15.9253 18.0952 16.0255 18.0752C16.1859 18.0451 16.2911 17.8948 16.261 17.7344C16.256 17.6943 16.236 17.6542 16.2059 17.6142L16.1407 17.524L16.0355 17.5039C16.0355 17.5039 15.9904 17.4989 15.9704 17.4989L15.9754 17.5039Z" fill="white"/>
<path d="M28.4833 24.4443C26.9549 24.4443 25.7122 23.2015 25.7122 21.6731C25.7122 20.1447 26.9549 18.902 28.4833 18.902C30.0117 18.902 31.2545 20.1447 31.2545 21.6731C31.2545 23.2015 30.0117 24.4443 28.4833 24.4443ZM28.4833 19.4833C27.2756 19.4833 26.2935 20.4655 26.2935 21.6731C26.2935 22.8808 27.2756 23.863 28.4833 23.863C29.691 23.863 30.6732 22.8808 30.6732 21.6731C30.6732 20.4655 29.691 19.4833 28.4833 19.4833Z" fill="white"/>
<path d="M18.3608 17.128C16.8324 17.128 15.5896 15.8852 15.5896 14.3569C15.5896 12.8285 16.8324 11.5857 18.3608 11.5857C19.8892 11.5857 21.1319 12.8285 21.1319 14.3569C21.1319 15.8852 19.8892 17.128 18.3608 17.128ZM18.3608 12.167C17.1531 12.167 16.1709 13.1492 16.1709 14.3569C16.1709 15.5645 17.1531 16.5467 18.3608 16.5467C19.5684 16.5467 20.5506 15.5645 20.5506 14.3569C20.5506 13.1492 19.5684 12.167 18.3608 12.167Z" fill="white"/>
<path d="M15.6497 28.4281L15.5846 28.5183C15.5545 28.5584 15.5395 28.5985 15.5294 28.6386C15.4994 28.7939 15.6046 28.9493 15.765 28.9794C16.672 29.1547 18.2004 29.8162 18.2004 31.1742V39.6882C18.2004 39.8485 18.3307 39.9788 18.491 39.9788C18.6514 39.9788 18.7817 39.8485 18.7817 39.6882V31.1742C18.7817 29.4053 16.9476 28.6035 15.8652 28.4081C15.8301 28.4031 15.795 28.4031 15.7549 28.4081L15.6497 28.4281ZM11.0395 28.4031C11.0395 28.4031 11.0094 28.4031 10.9944 28.4031C9.91196 28.5985 8.07788 29.4053 8.07788 31.1692V39.6831C8.07788 39.8435 8.20817 39.9738 8.36853 39.9738C8.52888 39.9738 8.65917 39.8435 8.65917 39.6831V31.1692C8.65917 29.8112 10.1876 29.1547 11.0896 28.9794C11.2549 28.9493 11.3602 28.799 11.3301 28.6386C11.3251 28.5985 11.3051 28.5584 11.275 28.5183L11.2048 28.4281L11.0996 28.4081C11.0996 28.4081 11.0595 28.4031 11.0395 28.4031Z" fill="white"/>
<path d="M13.4247 27.7166C11.8963 27.7166 10.6536 26.4739 10.6536 24.9455C10.6536 23.4171 11.8963 22.1743 13.4247 22.1743C14.9531 22.1743 16.1959 23.4171 16.1959 24.9455C16.1959 26.4739 14.9531 27.7166 13.4247 27.7166ZM13.4247 22.7556C12.217 22.7556 11.2349 23.7378 11.2349 24.9455C11.2349 26.1532 12.217 27.1353 13.4247 27.1353C14.6324 27.1353 15.6146 26.1532 15.6146 24.9455C15.6146 23.7378 14.6324 22.7556 13.4247 22.7556Z" fill="white"/>
<path d="M6.4794 38.9917C6.41426 38.9917 6.35412 38.9666 6.30401 38.9215C2.23998 34.9176 0 29.5707 0 23.868C0 12.2171 9.48107 2.74109 21.1269 2.74109C23.2717 2.74109 25.3864 3.0618 27.4109 3.69321C27.5412 3.73329 27.6164 3.87361 27.5763 4.00891C27.5362 4.1392 27.3959 4.21436 27.2606 4.17427C25.2812 3.5579 23.2166 3.24721 21.1269 3.24721C9.75167 3.24721 0.501114 12.5028 0.501114 23.8731C0.501114 29.4404 2.68597 34.662 6.65479 38.5707C6.75501 38.6659 6.75501 38.8263 6.65479 38.9265C6.60468 38.9766 6.53953 39.0017 6.47439 39.0017L6.4794 38.9917Z" fill="white"/>
<path d="M21.1319 44.995C17.0027 44.995 13.0089 43.8023 9.56622 41.5523C9.45096 41.4772 9.4209 41.3218 9.49607 41.2066C9.57123 41.0913 9.72658 41.0562 9.84183 41.1364C13.1993 43.3363 17.103 44.4989 21.1319 44.4989C32.5072 44.4989 41.7578 35.2433 41.7578 23.873C41.7578 19.3831 40.3396 15.1136 37.6587 11.5306C37.5735 11.4204 37.5985 11.26 37.7088 11.1798C37.819 11.0946 37.9744 11.1197 38.0595 11.2299C40.8057 14.9031 42.2589 19.2728 42.2589 23.873C42.2589 35.5239 32.7778 45 21.1319 45V44.995Z" fill="white"/>
</svg>
