<svg width="99" height="118" viewBox="0 0 99 118" fill="none" xmlns="http://www.w3.org/2000/svg">
<path d="M9.48519 78.7237C9.51835 78.7237 9.54737 78.7221 9.57058 78.7188C14.486 77.9921 58.5223 71.6028 90.8219 70.9948C91.4495 70.9833 91.9543 70.4694 91.9485 69.8508C91.8756 62.117 91.9444 35.2184 91.9585 29.9043C91.9601 29.3127 91.5108 28.8249 90.9131 28.7718C84.042 28.1523 47.8525 24.4151 10.0912 11.6577C9.89639 11.5922 9.68748 11.5791 9.48685 11.62L8.21178 11.8802C7.68036 11.9891 7.29402 12.4563 7.29402 12.9923L7.29402 77.3997C7.29402 77.9349 7.67953 78.4021 8.21012 78.5118L9.07399 78.6893C9.08808 78.6918 9.32601 78.7245 9.48436 78.7245L9.48519 78.7237ZM9.7198 11.6773C9.8367 11.6773 9.9536 11.6961 10.0655 11.7338C47.8359 24.4945 84.0337 28.2325 90.9064 28.8519C91.4611 28.9019 91.8772 29.3536 91.8764 29.9035C91.8623 35.2167 91.7935 62.1162 91.8665 69.8508C91.8723 70.4253 91.403 70.9015 90.821 70.9122C77.1874 71.1691 59.8206 72.4841 39.2031 74.8204C23.2747 76.6256 10.9153 78.4365 9.55814 78.637C9.43545 78.655 9.09305 78.6075 9.08974 78.6075L8.22836 78.4308C7.7359 78.3293 7.37859 77.8956 7.37859 77.3989L7.37859 12.9915C7.37859 12.494 7.73673 12.0603 8.23002 11.9596L9.50509 11.6994C9.57639 11.6847 9.64851 11.6773 9.72063 11.6773H9.7198Z" fill="#87ABC1"/>
<path d="M90.9131 28.7718C91.5108 28.8249 91.9601 29.3127 91.9585 29.9043C91.9444 35.2184 91.8756 62.117 91.9485 69.8508C91.9543 70.4694 91.4495 70.9833 90.8219 70.9948C58.5223 71.6028 14.486 77.9921 9.57058 78.7188C9.54737 78.7221 9.51835 78.7237 9.48519 78.7237L9.48436 78.7245C9.32601 78.7245 9.08808 78.6918 9.07399 78.6893L8.21012 78.5118C7.67953 78.4021 7.29402 77.9349 7.29402 77.3997L7.29402 12.9923C7.29402 12.4563 7.68036 11.9891 8.21178 11.8802L9.48685 11.62C9.68748 11.5791 9.89639 11.5922 10.0912 11.6577C47.8525 24.4151 84.042 28.1523 90.9131 28.7718ZM90.9131 28.7718L90.9089 28.8127M9.7198 11.6773C9.8367 11.6773 9.9536 11.6961 10.0655 11.7338C47.8359 24.4945 84.0337 28.2325 90.9064 28.8519C91.4611 28.9019 91.8772 29.3536 91.8764 29.9035C91.8623 35.2167 91.7935 62.1162 91.8665 69.8508C91.8723 70.4253 91.403 70.9015 90.821 70.9122C77.1874 71.1691 59.8206 72.4841 39.2031 74.8204C23.2747 76.6256 10.9153 78.4365 9.55815 78.637C9.43545 78.655 9.09305 78.6075 9.08973 78.6075L8.22836 78.4308C7.7359 78.3293 7.37859 77.8956 7.37859 77.3989L7.37859 12.9915C7.37859 12.494 7.73673 12.0603 8.23002 11.9596L9.50509 11.6994C9.57638 11.6847 9.64851 11.6773 9.72063 11.6773H9.7198Z" stroke="#87ABC1" stroke-width="0.3"/>
<path d="M9.12425 78.6983V78.6484L9.53711 11.6085L8.23633 11.8745C7.69082 11.9858 7.29537 12.4653 7.29537 13.0152L7.29537 77.3743C7.29537 77.9234 7.69083 78.4029 8.23468 78.515L9.12425 78.6983ZM9.4542 11.71L9.04217 78.5985L8.25209 78.4356C7.74555 78.3317 7.37828 77.8857 7.37828 77.3751L7.37828 13.0152C7.37828 12.5037 7.74638 12.0578 8.25375 11.9547L9.4542 11.7092V11.71Z" fill="#87ABC1" stroke="#87ABC1" stroke-width="0.3"/>
<path d="M9.12292 75.8653C9.13453 75.8653 9.14531 75.8653 9.15692 75.8628C11.1367 75.587 58.0133 69.0954 91.2049 68.6134C91.3318 68.6118 91.4337 68.5136 91.4321 68.3949C91.3359 62.0719 91.4304 30.8125 91.4346 29.4844C91.4346 29.3707 91.3442 29.2774 91.2232 29.2684C87.0572 28.9476 49.373 25.7693 9.60294 13.1469C9.56398 13.1346 9.52169 13.1322 9.4819 13.1395L9.44956 13.1461V13.1788L9.04499 75.8555L9.07732 75.862C9.09308 75.8653 9.10883 75.8661 9.12459 75.8661L9.12292 75.8653ZM91.219 29.3076L91.2157 29.3469C91.2945 29.3535 91.3542 29.4124 91.3533 29.4844C91.3492 30.8117 91.2547 62.0727 91.3508 68.3958C91.3517 68.471 91.2853 68.5332 91.2024 68.5349C58.0067 69.0169 11.1242 75.5085 9.14448 75.7851C9.13702 75.7859 9.13039 75.7867 9.12292 75.7867L9.52667 13.2148C9.54325 13.2148 9.55983 13.2173 9.57558 13.2222C26.3554 18.5477 44.7884 22.8406 64.3621 25.9796C79.5104 28.4091 90.0617 29.2585 91.2149 29.3469L91.2182 29.3076H91.219Z" fill="#87ABC1" stroke="#87ABC1" stroke-width="0.3"/>
<path d="M39.0404 91.6611C39.0445 91.6611 39.0495 91.6611 39.0537 91.6603L44.5751 90.8977C44.9871 90.8404 45.4705 90.7037 45.565 90.5728C45.6578 90.4443 45.7134 89.9443 45.7134 89.536V71.3245C45.7134 71.0954 45.6222 70.8843 45.4572 70.7313C45.2922 70.5774 45.0734 70.5005 44.8421 70.5144L38.0306 70.9178C37.5531 70.9465 37.1643 71.3532 37.1643 71.8262V91.3297C37.1643 91.3584 37.185 91.3813 37.2132 91.3862L39.0255 91.6611C39.0305 91.6611 39.0354 91.662 39.0396 91.662L39.0404 91.6611ZM44.8951 70.5938C45.0858 70.5938 45.264 70.6625 45.4008 70.7902C45.5492 70.9285 45.6313 71.1175 45.6313 71.3237V89.5352C45.6313 90.0172 45.5625 90.4353 45.4978 90.5245C45.4357 90.6096 45.0369 90.7512 44.5635 90.8166L39.0421 91.5793L37.2472 91.3076V71.8253C37.2472 71.3957 37.6012 71.0242 38.0356 70.9989L44.847 70.5954C44.8628 70.5946 44.8785 70.5938 44.8943 70.5938H44.8951Z" fill="#87ABC1" stroke="#87ABC1" stroke-width="0.3"/>
<path d="M39.0305 91.6562H39.0513L44.6498 90.9157C45.0552 90.8617 45.5195 90.7307 45.5941 90.6031C45.6662 90.4803 45.7085 89.9926 45.7085 89.5925V71.7697C45.7085 71.5455 45.6198 71.3409 45.4581 71.1936C45.2965 71.0463 45.0834 70.9743 44.8571 70.9915L39.8496 71.372C39.3837 71.4072 39.004 71.8123 39.004 72.2738V91.6317L39.0297 91.6571L39.0305 91.6562ZM44.9226 71.0594C45.1058 71.0594 45.2774 71.1241 45.4092 71.2452C45.556 71.3794 45.6364 71.5651 45.6364 71.7689V89.5916C45.6364 90.0671 45.5817 90.4795 45.5311 90.5663C45.483 90.6481 45.105 90.7823 44.6399 90.8437L39.0761 91.5793V72.2722C39.0761 71.8466 39.426 71.4743 39.8554 71.4416L44.8629 71.0611C44.8828 71.0594 44.9027 71.0586 44.9226 71.0586V71.0594Z" fill="#87ABC1" stroke="#87ABC1" stroke-width="0.3"/>
<path d="M32.1684 102.242C32.602 102.242 33.1317 102.125 33.4633 101.944L49.7648 93.0416C50.1603 92.8256 50.8492 92.6251 51.3002 92.594L85.4751 90.2561C85.6633 90.243 86.1043 90.1996 86.1375 90.0712C86.1425 90.0507 86.1433 90.0122 86.0886 89.9779C85.936 89.8821 85.4171 89.8469 85.0034 89.869L53.4831 91.5359C53.0288 91.5597 52.2943 91.522 51.8449 91.4516L44.4863 90.2954C44.0312 90.2242 43.2908 90.2226 42.8357 90.2929L37.5787 91.1014C37.2488 91.1522 37.2057 91.2184 37.2048 91.2708C37.2048 91.3232 37.2463 91.3903 37.5754 91.4459L45.3129 92.7528C45.5085 92.7855 45.6296 92.8534 45.6453 92.9369C45.6602 93.0212 45.5707 93.1251 45.3983 93.2233L30.8751 101.484C30.6678 101.602 30.5658 101.733 30.5882 101.852C30.6106 101.97 30.754 102.055 30.9911 102.09L31.8915 102.224C31.976 102.236 32.0697 102.243 32.1675 102.243L32.1684 102.242ZM85.4693 90.1743L51.2944 92.5122C50.8335 92.5433 50.1296 92.7487 49.725 92.9696L33.4236 101.872C33.0306 102.086 32.3491 102.207 31.9048 102.142L31.0044 102.009C30.8112 101.98 30.6861 101.915 30.6711 101.836C30.6562 101.757 30.7482 101.651 30.9174 101.554L45.4405 93.2937C45.6478 93.1758 45.7498 93.0441 45.7282 92.9221C45.7058 92.8002 45.5641 92.711 45.3286 92.6717L37.5912 91.3649C37.3275 91.3207 37.2919 91.2733 37.2886 91.2683C37.2886 91.2683 37.3292 91.2217 37.592 91.1816L42.849 90.3731C43.2966 90.3044 44.0262 90.3052 44.4739 90.3756L51.8325 91.5318C52.286 91.603 53.0288 91.6415 53.4881 91.6169L85.0083 89.9501C85.4958 89.9247 85.9377 89.9795 86.0446 90.0466C86.0496 90.0499 86.0529 90.0523 86.0546 90.054C86.0264 90.0843 85.8598 90.1473 85.4693 90.1743Z" fill="#87ABC1" stroke="#87ABC1" stroke-width="0.3"/>
<path d="M32.0378 105.174C32.3528 105.174 32.6778 105.101 32.9099 104.961L49.7818 94.8222C50.1681 94.5898 50.8488 94.3763 51.2998 94.3452L85.4746 92.0064C85.662 91.9933 86.1014 91.95 86.1345 91.824C86.1395 91.8043 86.1403 91.7675 86.0873 91.7339C85.9505 91.648 85.4746 91.6006 85.0037 91.6251L53.4835 93.292C53.0292 93.3157 52.2946 93.2781 51.8453 93.2077L44.4867 92.0515C44.0324 91.9803 43.292 91.9778 42.8369 92.0457L37.526 92.8436C37.1944 92.8935 37.1554 92.9614 37.1546 93.008C37.1546 93.0547 37.1919 93.1234 37.5227 93.1791L45.3149 94.5006C45.513 94.5342 45.6366 94.6054 45.6548 94.6962C45.673 94.787 45.586 94.9 45.416 95.0047L30.8696 104.013C30.6707 104.136 30.567 104.292 30.5786 104.452C30.5902 104.612 30.7154 104.752 30.9302 104.846L31.4093 105.055C31.5884 105.134 31.8114 105.171 32.0386 105.171L32.0378 105.174ZM85.4696 91.932L51.2948 94.2699C50.8338 94.301 50.1374 94.5203 49.7428 94.7576L32.8709 104.896C32.4896 105.126 31.8479 105.166 31.44 104.988L30.9608 104.779C30.7726 104.696 30.664 104.579 30.6541 104.449C30.645 104.318 30.7353 104.187 30.9094 104.079L45.4558 95.071C45.6573 94.9466 45.7543 94.8091 45.7286 94.6839C45.7037 94.5587 45.5611 94.4679 45.3273 94.4286L37.5351 93.1071C37.2607 93.0604 37.2317 93.0121 37.2301 93.0089C37.2301 93.0089 37.2624 92.9606 37.5368 92.9197L42.8477 92.1218C43.2962 92.0547 44.0257 92.0572 44.4742 92.1275L51.8328 93.2838C52.2863 93.355 53.0283 93.3935 53.4876 93.3689L85.0079 91.702C85.4962 91.6758 85.9389 91.7315 86.0458 91.7986C86.0583 91.8068 86.0608 91.8109 86.0608 91.8109C86.0483 91.833 85.8825 91.9033 85.4696 91.932Z" fill="#87ABC1" stroke="#87ABC1" stroke-width="0.3"/>
<path d="M37.206 93.0441C37.2267 93.0441 37.2441 93.0269 37.2441 93.0064V91.2323C37.2441 91.2119 37.2267 91.1947 37.206 91.1947C37.1853 91.1947 37.1679 91.2119 37.1679 91.2323V93.0064C37.1679 93.0269 37.1853 93.0441 37.206 93.0441Z" fill="#87ABC1" stroke="#87ABC1" stroke-width="0.3"/>
<path d="M30.6275 104.521C30.6491 104.521 30.6665 104.504 30.6665 104.482V101.815C30.6665 101.794 30.6491 101.777 30.6275 101.777C30.606 101.777 30.5886 101.794 30.5886 101.815V104.482C30.5886 104.504 30.606 104.521 30.6275 104.521Z" fill="#87ABC1" stroke="#87ABC1" stroke-width="0.3"/>
<path d="M86.1088 91.8567C86.1296 91.8567 86.147 91.8396 86.147 91.8191V90.0458C86.147 90.0254 86.1296 90.0082 86.1088 90.0082C86.0881 90.0082 86.0707 90.0254 86.0707 90.0458V91.8191C86.0707 91.8396 86.0881 91.8567 86.1088 91.8567Z" fill="#87ABC1" stroke="#87ABC1" stroke-width="0.3"/>
<path d="M10.1434 77.497C10.1434 77.497 10.1517 77.497 10.1558 77.497L10.6541 77.4446C10.7138 77.4381 10.7627 77.3849 10.7627 77.3252V77.168C10.7627 77.1386 10.7511 77.1108 10.7295 77.0903C10.7088 77.0698 10.6814 77.0592 10.6516 77.0592H10.6499L10.1509 77.0878C10.0903 77.0911 10.0406 77.1435 10.0406 77.2032V77.3947C10.0406 77.425 10.053 77.452 10.0746 77.4716C10.0937 77.4888 10.1177 77.497 10.1434 77.497ZM10.6524 77.1165C10.6649 77.1165 10.6781 77.1214 10.6881 77.1312C10.698 77.141 10.7038 77.1541 10.7038 77.168V77.3252C10.7038 77.3554 10.6781 77.3833 10.6475 77.3865L10.1492 77.4389C10.1351 77.4397 10.1227 77.4364 10.1135 77.4283C10.1044 77.4201 10.0995 77.4078 10.0995 77.3947V77.2032C10.0995 77.1738 10.1243 77.1476 10.1542 77.1459L10.6516 77.1173L10.6524 77.1165Z" fill="#87ABC1" stroke="#87ABC1" stroke-width="0.3"/>
<mask id="mask0_7_204965" style="mask-type:luminance" maskUnits="userSpaceOnUse" x="8" y="13" width="84" height="63">
<path d="M91.2191 29.3077C88.3125 29.0835 49.7379 25.9265 9.58978 13.1838C9.55745 13.1732 9.52263 13.1715 9.48864 13.1781L9.08407 75.822C9.10645 75.8261 9.12883 75.8269 9.15121 75.8236C10.5871 75.6231 57.8899 69.057 91.2042 68.5742C91.3095 68.5726 91.3932 68.4932 91.3916 68.3959C91.297 62.1677 91.3866 31.9754 91.394 29.4853C91.394 29.3928 91.3186 29.3159 91.2191 29.3086V29.3077Z" fill="white" stroke="white" stroke-width="0.3"/>
</mask>
<g mask="url(#mask0_7_204965)">
<path d="M13.2578 8.87012L13.3164 8.92798L-58.8212 80.1314L-58.8799 80.0736L13.2578 8.87012Z" fill="#87ABC1" stroke="#87ABC1" stroke-width="0.3"/>
<path d="M14.4316 8.86975L14.4902 8.92761L-57.6474 80.131L-57.706 80.0732L14.4316 8.86975Z" fill="#87ABC1" stroke="#87ABC1" stroke-width="0.3"/>
<path d="M15.6045 8.86938L15.6631 8.92725L-56.4746 80.1307L-56.5332 80.0728L15.6045 8.86938Z" fill="#87ABC1" stroke="#87ABC1" stroke-width="0.3"/>
<path d="M16.7783 8.87048L16.8369 8.92834L-55.3007 80.1318L-55.3593 80.0739L16.7783 8.87048Z" fill="#87ABC1" stroke="#87ABC1" stroke-width="0.3"/>
<path d="M17.9511 8.87012L18.0098 8.92798L-54.1279 80.1314L-54.1865 80.0736L17.9511 8.87012Z" fill="#87ABC1" stroke="#87ABC1" stroke-width="0.3"/>
<path d="M19.1255 8.87024L19.1841 8.9281L-52.9536 80.1315L-53.0122 80.0737L19.1255 8.87024Z" fill="#87ABC1" stroke="#87ABC1" stroke-width="0.3"/>
<path d="M20.2978 8.86987L20.3564 8.92773L-51.7812 80.1312L-51.8398 80.0733L20.2978 8.86987Z" fill="#87ABC1" stroke="#87ABC1" stroke-width="0.3"/>
<path d="M21.4721 8.87012L21.5308 8.92798L-50.6069 80.1314L-50.6655 80.0736L21.4721 8.87012Z" fill="#87ABC1" stroke="#87ABC1" stroke-width="0.3"/>
<path d="M22.646 8.86975L22.7046 8.92761L-49.433 80.131L-49.4917 80.0732L22.646 8.86975Z" fill="#87ABC1" stroke="#87ABC1" stroke-width="0.3"/>
<path d="M23.8183 8.86938L23.877 8.92725L-48.2607 80.1307L-48.3193 80.0728L23.8183 8.86938Z" fill="#87ABC1" stroke="#87ABC1" stroke-width="0.3"/>
<path d="M24.9926 8.87048L25.0513 8.92834L-47.0864 80.1318L-47.145 80.0739L24.9926 8.87048Z" fill="#87ABC1" stroke="#87ABC1" stroke-width="0.3"/>
<path d="M26.1655 8.87012L26.2241 8.92798L-45.9135 80.1314L-45.9721 80.0736L26.1655 8.87012Z" fill="#87ABC1" stroke="#87ABC1" stroke-width="0.3"/>
<path d="M27.3393 8.87024L27.3979 8.9281L-44.7397 80.1315L-44.7983 80.0737L27.3393 8.87024Z" fill="#87ABC1" stroke="#87ABC1" stroke-width="0.3"/>
<path d="M28.5122 8.86987L28.5708 8.92773L-43.5668 80.1312L-43.6255 80.0733L28.5122 8.86987Z" fill="#87ABC1" stroke="#87ABC1" stroke-width="0.3"/>
<path d="M29.6865 8.87012L29.7451 8.92798L-42.3925 80.1314L-42.4511 80.0736L29.6865 8.87012Z" fill="#87ABC1" stroke="#87ABC1" stroke-width="0.3"/>
<path d="M30.8598 8.86975L30.9185 8.92761L-41.2192 80.131L-41.2778 80.0732L30.8598 8.86975Z" fill="#87ABC1" stroke="#87ABC1" stroke-width="0.3"/>
<path d="M32.0332 8.86999L32.0918 8.92786L-40.0458 80.1313L-40.1045 80.0734L32.0332 8.86999Z" fill="#87ABC1" stroke="#87ABC1" stroke-width="0.3"/>
<path d="M33.207 8.86963L33.2656 8.92749L-38.872 80.1309L-38.9306 80.0731L33.207 8.86963Z" fill="#87ABC1" stroke="#87ABC1" stroke-width="0.3"/>
<path d="M34.3794 8.87012L34.438 8.92798L-37.6997 80.1314L-37.7583 80.0736L34.3794 8.87012Z" fill="#87ABC1" stroke="#87ABC1" stroke-width="0.3"/>
<path d="M35.5537 8.87024L35.6123 8.9281L-36.5253 80.1315L-36.584 80.0737L35.5537 8.87024Z" fill="#87ABC1" stroke="#87ABC1" stroke-width="0.3"/>
<path d="M36.7265 8.86987L36.7852 8.92773L-35.3525 80.1312L-35.4111 80.0733L36.7265 8.86987Z" fill="#87ABC1" stroke="#87ABC1" stroke-width="0.3"/>
<path d="M37.9004 8.87012L37.959 8.92798L-34.1787 80.1314L-34.2373 80.0736L37.9004 8.87012Z" fill="#87ABC1" stroke="#87ABC1" stroke-width="0.3"/>
<path d="M39.0742 8.86975L39.1328 8.92761L-33.0048 80.131L-33.0634 80.0732L39.0742 8.86975Z" fill="#87ABC1" stroke="#87ABC1" stroke-width="0.3"/>
<path d="M40.2475 8.86999L40.3062 8.92786L-31.8315 80.1313L-31.8901 80.0734L40.2475 8.86999Z" fill="#87ABC1" stroke="#87ABC1" stroke-width="0.3"/>
<path d="M41.4209 8.86963L41.4795 8.92749L-30.6581 80.1309L-30.7168 80.0731L41.4209 8.86963Z" fill="#87ABC1" stroke="#87ABC1" stroke-width="0.3"/>
<path d="M42.5942 8.87073L42.6528 8.92859L-29.4848 80.132L-29.5434 80.0742L42.5942 8.87073Z" fill="#87ABC1" stroke="#87ABC1" stroke-width="0.3"/>
<path d="M43.768 8.87036L43.8267 8.92822L-28.311 80.1317L-28.3696 80.0738L43.768 8.87036Z" fill="#87ABC1" stroke="#87ABC1" stroke-width="0.3"/>
<path d="M44.9404 8.86999L44.999 8.92786L-27.1386 80.1313L-27.1972 80.0734L44.9404 8.86999Z" fill="#87ABC1" stroke="#87ABC1" stroke-width="0.3"/>
<path d="M46.1147 8.87012L46.1733 8.92798L-25.9643 80.1314L-26.0229 80.0736L46.1147 8.87012Z" fill="#87ABC1" stroke="#87ABC1" stroke-width="0.3"/>
<path d="M47.2881 8.86975L47.3467 8.92761L-24.791 80.131L-24.8496 80.0732L47.2881 8.86975Z" fill="#87ABC1" stroke="#87ABC1" stroke-width="0.3"/>
<path d="M48.4614 8.86999L48.52 8.92786L-23.6176 80.1313L-23.6762 80.0734L48.4614 8.86999Z" fill="#87ABC1" stroke="#87ABC1" stroke-width="0.3"/>
<path d="M49.6352 8.86963L49.6938 8.92749L-22.4438 80.1309L-22.5024 80.0731L49.6352 8.86963Z" fill="#87ABC1" stroke="#87ABC1" stroke-width="0.3"/>
<path d="M50.8086 8.86987L50.8672 8.92773L-21.2705 80.1312L-21.3291 80.0733L50.8086 8.86987Z" fill="#87ABC1" stroke="#87ABC1" stroke-width="0.3"/>
<path d="M51.9819 8.87036L52.0405 8.92822L-20.0971 80.1317L-20.1557 80.0738L51.9819 8.87036Z" fill="#87ABC1" stroke="#87ABC1" stroke-width="0.3"/>
<path d="M53.1557 8.86999L53.2144 8.92786L-18.9233 80.1313L-18.9819 80.0734L53.1557 8.86999Z" fill="#87ABC1" stroke="#87ABC1" stroke-width="0.3"/>
<path d="M54.3291 8.87012L54.3877 8.92798L-17.7499 80.1314L-17.8086 80.0736L54.3291 8.87012Z" fill="#87ABC1" stroke="#87ABC1" stroke-width="0.3"/>
<path d="M55.5024 8.86975L55.561 8.92761L-16.5766 80.131L-16.6352 80.0732L55.5024 8.86975Z" fill="#87ABC1" stroke="#87ABC1" stroke-width="0.3"/>
<path d="M56.6758 8.86999L56.7344 8.92786L-15.4033 80.1313L-15.4619 80.0734L56.6758 8.86999Z" fill="#87ABC1" stroke="#87ABC1" stroke-width="0.3"/>
<path d="M57.8496 8.86963L57.9082 8.92749L-14.2294 80.1309L-14.2881 80.0731L57.8496 8.86963Z" fill="#87ABC1" stroke="#87ABC1" stroke-width="0.3"/>
<path d="M59.0224 8.86987L59.0811 8.92773L-13.0566 80.1312L-13.1152 80.0733L59.0224 8.86987Z" fill="#87ABC1" stroke="#87ABC1" stroke-width="0.3"/>
<path d="M60.1963 8.87036L60.2549 8.92822L-11.8828 80.1317L-11.9414 80.0738L60.1963 8.87036Z" fill="#87ABC1" stroke="#87ABC1" stroke-width="0.3"/>
<path d="M61.3706 8.8706L61.4292 8.92847L-10.7084 80.1319L-10.7671 80.074L61.3706 8.8706Z" fill="#87ABC1" stroke="#87ABC1" stroke-width="0.3"/>
<path d="M62.5429 8.87024L62.6016 8.9281L-9.53608 80.1315L-9.5947 80.0737L62.5429 8.87024Z" fill="#87ABC1" stroke="#87ABC1" stroke-width="0.3"/>
<path d="M63.7168 8.86987L63.7754 8.92773L-8.36225 80.1312L-8.42087 80.0733L63.7168 8.86987Z" fill="#87ABC1" stroke="#87ABC1" stroke-width="0.3"/>
<path d="M64.8901 8.86999L64.9487 8.92786L-7.18891 80.1313L-7.24753 80.0734L64.8901 8.86999Z" fill="#87ABC1" stroke="#87ABC1" stroke-width="0.3"/>
<path d="M66.0634 8.86963L66.1221 8.92749L-6.01557 80.1309L-6.07419 80.0731L66.0634 8.86963Z" fill="#87ABC1" stroke="#87ABC1" stroke-width="0.3"/>
<path d="M67.2368 8.86987L67.2954 8.92773L-4.84223 80.1312L-4.90085 80.0733L67.2368 8.86987Z" fill="#87ABC1" stroke="#87ABC1" stroke-width="0.3"/>
<path d="M68.4106 8.86951L68.4692 8.92737L-3.6684 80.1308L-3.72702 80.0729L68.4106 8.86951Z" fill="#87ABC1" stroke="#87ABC1" stroke-width="0.3"/>
<path d="M69.5844 8.8706L69.6431 8.92847L-2.49457 80.1319L-2.55319 80.074L69.5844 8.8706Z" fill="#87ABC1" stroke="#87ABC1" stroke-width="0.3"/>
<path d="M70.7573 8.87024L70.8159 8.9281L-1.32172 80.1315L-1.38034 80.0737L70.7573 8.87024Z" fill="#87ABC1" stroke="#87ABC1" stroke-width="0.3"/>
<path d="M71.9306 8.86987L71.9893 8.92773L-0.148381 80.1312L-0.207003 80.0733L71.9306 8.86987Z" fill="#87ABC1" stroke="#87ABC1" stroke-width="0.3"/>
<path d="M73.104 8.86999L73.1626 8.92786L1.02496 80.1313L0.966337 80.0734L73.104 8.86999Z" fill="#87ABC1" stroke="#87ABC1" stroke-width="0.3"/>
<path d="M74.2778 8.86963L74.3364 8.92749L2.19879 80.1309L2.14017 80.0731L74.2778 8.86963Z" fill="#87ABC1" stroke="#87ABC1" stroke-width="0.3"/>
<path d="M75.4511 8.86987L75.5098 8.92773L3.37213 80.1312L3.3135 80.0733L75.4511 8.86987Z" fill="#87ABC1" stroke="#87ABC1" stroke-width="0.3"/>
<path d="M76.6245 8.86951L76.6831 8.92737L4.54547 80.1308L4.48684 80.0729L76.6245 8.86951Z" fill="#87ABC1" stroke="#87ABC1" stroke-width="0.3"/>
<path d="M77.7988 8.8706L77.8574 8.92847L5.71978 80.1319L5.66116 80.074L77.7988 8.8706Z" fill="#87ABC1" stroke="#87ABC1" stroke-width="0.3"/>
<path d="M78.9717 8.87024L79.0303 8.9281L6.89264 80.1315L6.83401 80.0737L78.9717 8.87024Z" fill="#87ABC1" stroke="#87ABC1" stroke-width="0.3"/>
<path d="M80.1455 8.87036L80.2041 8.92822L8.06646 80.1317L8.00784 80.0738L80.1455 8.87036Z" fill="#87ABC1" stroke="#87ABC1" stroke-width="0.3"/>
<path d="M81.3183 8.87012L81.377 8.92798L9.23931 80.1314L9.18069 80.0736L81.3183 8.87012Z" fill="#87ABC1" stroke="#87ABC1" stroke-width="0.3"/>
<path d="M82.4917 8.86975L82.5503 8.92761L10.4127 80.131L10.354 80.0732L82.4917 8.86975Z" fill="#87ABC1" stroke="#87ABC1" stroke-width="0.3"/>
<path d="M83.665 8.86987L83.7236 8.92773L11.586 80.1312L11.5274 80.0733L83.665 8.86987Z" fill="#87ABC1" stroke="#87ABC1" stroke-width="0.3"/>
<path d="M84.8388 8.86951L84.8975 8.92737L12.7598 80.1308L12.7012 80.0729L84.8388 8.86951Z" fill="#87ABC1" stroke="#87ABC1" stroke-width="0.3"/>
<path d="M86.0127 8.86975L86.0713 8.92761L13.9337 80.131L13.875 80.0732L86.0127 8.86975Z" fill="#87ABC1" stroke="#87ABC1" stroke-width="0.3"/>
<path d="M87.1855 8.87024L87.2441 8.9281L15.1065 80.1315L15.0479 80.0737L87.1855 8.87024Z" fill="#87ABC1" stroke="#87ABC1" stroke-width="0.3"/>
<path d="M88.3598 8.87048L88.4185 8.92834L16.2808 80.1318L16.2222 80.0739L88.3598 8.87048Z" fill="#87ABC1" stroke="#87ABC1" stroke-width="0.3"/>
<path d="M89.5327 8.87012L89.5913 8.92798L17.4537 80.1314L17.395 80.0736L89.5327 8.87012Z" fill="#87ABC1" stroke="#87ABC1" stroke-width="0.3"/>
<path d="M90.706 8.86975L90.7646 8.92761L18.627 80.131L18.5684 80.0732L90.706 8.86975Z" fill="#87ABC1" stroke="#87ABC1" stroke-width="0.3"/>
<path d="M91.8794 8.86987L91.938 8.92773L19.8003 80.1312L19.7417 80.0733L91.8794 8.86987Z" fill="#87ABC1" stroke="#87ABC1" stroke-width="0.3"/>
<path d="M93.0527 8.86951L93.1113 8.92737L20.9737 80.1308L20.9151 80.0729L93.0527 8.86951Z" fill="#87ABC1" stroke="#87ABC1" stroke-width="0.3"/>
<path d="M94.227 8.86975L94.2856 8.92761L22.148 80.131L22.0894 80.0732L94.227 8.86975Z" fill="#87ABC1" stroke="#87ABC1" stroke-width="0.3"/>
<path d="M95.3999 8.87024L95.4585 8.9281L23.3209 80.1315L23.2622 80.0737L95.3999 8.87024Z" fill="#87ABC1" stroke="#87ABC1" stroke-width="0.3"/>
<path d="M96.5742 8.87048L96.6328 8.92834L24.4952 80.1318L24.4366 80.0739L96.5742 8.87048Z" fill="#87ABC1" stroke="#87ABC1" stroke-width="0.3"/>
<path d="M97.7466 8.87012L97.8052 8.92798L25.6675 80.1314L25.6089 80.0736L97.7466 8.87012Z" fill="#87ABC1" stroke="#87ABC1" stroke-width="0.3"/>
<path d="M98.9209 8.87024L98.9795 8.9281L26.8419 80.1315L26.7832 80.0737L98.9209 8.87024Z" fill="#87ABC1" stroke="#87ABC1" stroke-width="0.3"/>
<path d="M100.094 8.86987L100.152 8.92773L28.0147 80.1312L27.9561 80.0733L100.094 8.86987Z" fill="#87ABC1" stroke="#87ABC1" stroke-width="0.3"/>
<path d="M101.267 8.86963L101.326 8.92749L29.188 80.1309L29.1294 80.0731L101.267 8.86963Z" fill="#87ABC1" stroke="#87ABC1" stroke-width="0.3"/>
<path d="M102.441 8.86975L102.5 8.92761L30.3624 80.131L30.3037 80.0732L102.441 8.86975Z" fill="#87ABC1" stroke="#87ABC1" stroke-width="0.3"/>
<path d="M103.614 8.86938L103.673 8.92725L31.5352 80.1307L31.4766 80.0728L103.614 8.86938Z" fill="#87ABC1" stroke="#87ABC1" stroke-width="0.3"/>
<path d="M104.788 8.87048L104.847 8.92834L32.709 80.1318L32.6504 80.0739L104.788 8.87048Z" fill="#87ABC1" stroke="#87ABC1" stroke-width="0.3"/>
<path d="M105.961 8.87012L106.02 8.92798L33.8819 80.1314L33.8233 80.0736L105.961 8.87012Z" fill="#87ABC1" stroke="#87ABC1" stroke-width="0.3"/>
<path d="M107.135 8.87036L107.194 8.92822L35.0562 80.1317L34.9976 80.0738L107.135 8.87036Z" fill="#87ABC1" stroke="#87ABC1" stroke-width="0.3"/>
<path d="M108.308 8.86999L108.366 8.92786L36.2286 80.1313L36.17 80.0734L108.308 8.86999Z" fill="#87ABC1" stroke="#87ABC1" stroke-width="0.3"/>
<path d="M109.482 8.87012L109.541 8.92798L37.4029 80.1314L37.3443 80.0736L109.482 8.87012Z" fill="#87ABC1" stroke="#87ABC1" stroke-width="0.3"/>
<path d="M110.655 8.86975L110.714 8.92761L38.5762 80.131L38.5176 80.0732L110.655 8.86975Z" fill="#87ABC1" stroke="#87ABC1" stroke-width="0.3"/>
<path d="M111.828 8.86938L111.887 8.92725L39.7491 80.1307L39.6905 80.0728L111.828 8.86938Z" fill="#87ABC1" stroke="#87ABC1" stroke-width="0.3"/>
<path d="M113.002 8.87048L113.061 8.92834L40.9234 80.1318L40.8648 80.0739L113.002 8.87048Z" fill="#87ABC1" stroke="#87ABC1" stroke-width="0.3"/>
<path d="M114.175 8.87012L114.234 8.92798L42.0962 80.1314L42.0376 80.0736L114.175 8.87012Z" fill="#87ABC1" stroke="#87ABC1" stroke-width="0.3"/>
<path d="M115.349 8.87036L115.408 8.92822L43.2701 80.1317L43.2115 80.0738L115.349 8.87036Z" fill="#87ABC1" stroke="#87ABC1" stroke-width="0.3"/>
<path d="M116.522 8.86999L116.581 8.92786L44.4429 80.1313L44.3843 80.0734L116.522 8.86999Z" fill="#87ABC1" stroke="#87ABC1" stroke-width="0.3"/>
<path d="M117.696 8.87012L117.755 8.92798L45.6172 80.1314L45.5586 80.0736L117.696 8.87012Z" fill="#87ABC1" stroke="#87ABC1" stroke-width="0.3"/>
<path d="M118.87 8.86975L118.928 8.92761L46.7906 80.131L46.732 80.0732L118.87 8.86975Z" fill="#87ABC1" stroke="#87ABC1" stroke-width="0.3"/>
<path d="M120.042 8.86938L120.101 8.92725L47.9634 80.1307L47.9048 80.0728L120.042 8.86938Z" fill="#87ABC1" stroke="#87ABC1" stroke-width="0.3"/>
<path d="M121.216 8.86963L121.275 8.92749L49.1373 80.1309L49.0786 80.0731L121.216 8.86963Z" fill="#87ABC1" stroke="#87ABC1" stroke-width="0.3"/>
<path d="M122.389 8.87012L122.448 8.92798L50.3101 80.1314L50.2515 80.0736L122.389 8.87012Z" fill="#87ABC1" stroke="#87ABC1" stroke-width="0.3"/>
<path d="M123.563 8.87036L123.622 8.92822L51.4844 80.1317L51.4258 80.0738L123.563 8.87036Z" fill="#87ABC1" stroke="#87ABC1" stroke-width="0.3"/>
<path d="M124.736 8.86999L124.795 8.92786L52.6573 80.1313L52.5987 80.0734L124.736 8.86999Z" fill="#87ABC1" stroke="#87ABC1" stroke-width="0.3"/>
<path d="M125.91 8.87024L125.969 8.9281L53.8311 80.1315L53.7725 80.0737L125.91 8.87024Z" fill="#87ABC1" stroke="#87ABC1" stroke-width="0.3"/>
<path d="M127.084 8.86987L127.143 8.92773L55.0049 80.1312L54.9463 80.0733L127.084 8.86987Z" fill="#87ABC1" stroke="#87ABC1" stroke-width="0.3"/>
<path d="M128.257 8.86999L128.316 8.92786L56.1783 80.1313L56.1197 80.0734L128.257 8.86999Z" fill="#87ABC1" stroke="#87ABC1" stroke-width="0.3"/>
<path d="M129.431 8.86963L129.489 8.92749L57.3516 80.1309L57.293 80.0731L129.431 8.86963Z" fill="#87ABC1" stroke="#87ABC1" stroke-width="0.3"/>
<path d="M130.603 8.87012L130.662 8.92798L58.5245 80.1314L58.4658 80.0736L130.603 8.87012Z" fill="#87ABC1" stroke="#87ABC1" stroke-width="0.3"/>
<path d="M131.778 8.87036L131.836 8.92822L59.6988 80.1317L59.6402 80.0738L131.778 8.87036Z" fill="#87ABC1" stroke="#87ABC1" stroke-width="0.3"/>
<path d="M132.95 8.86999L133.009 8.92786L60.8712 80.1313L60.8125 80.0734L132.95 8.86999Z" fill="#87ABC1" stroke="#87ABC1" stroke-width="0.3"/>
<path d="M134.124 8.87024L134.183 8.9281L62.0455 80.1315L61.9868 80.0737L134.124 8.87024Z" fill="#87ABC1" stroke="#87ABC1" stroke-width="0.3"/>
<path d="M135.298 8.86987L135.356 8.92773L63.2188 80.1312L63.1602 80.0733L135.298 8.86987Z" fill="#87ABC1" stroke="#87ABC1" stroke-width="0.3"/>
<path d="M136.471 8.86999L136.53 8.92786L64.3921 80.1313L64.3335 80.0734L136.471 8.86999Z" fill="#87ABC1" stroke="#87ABC1" stroke-width="0.3"/>
<path d="M137.645 8.86963L137.704 8.92749L65.566 80.1309L65.5074 80.0731L137.645 8.86963Z" fill="#87ABC1" stroke="#87ABC1" stroke-width="0.3"/>
<path d="M138.817 8.87012L138.876 8.92798L66.7383 80.1314L66.6797 80.0736L138.817 8.87012Z" fill="#87ABC1" stroke="#87ABC1" stroke-width="0.3"/>
<path d="M139.992 8.87036L140.05 8.92822L67.9127 80.1317L67.854 80.0738L139.992 8.87036Z" fill="#87ABC1" stroke="#87ABC1" stroke-width="0.3"/>
<path d="M141.165 8.86999L141.223 8.92786L69.0855 80.1313L69.0269 80.0734L141.165 8.86999Z" fill="#87ABC1" stroke="#87ABC1" stroke-width="0.3"/>
<path d="M142.339 8.87024L142.397 8.9281L70.2598 80.1315L70.2012 80.0737L142.339 8.87024Z" fill="#87ABC1" stroke="#87ABC1" stroke-width="0.3"/>
<path d="M143.512 8.86987L143.571 8.92773L71.4332 80.1312L71.3745 80.0733L143.512 8.86987Z" fill="#87ABC1" stroke="#87ABC1" stroke-width="0.3"/>
<path d="M144.686 8.87012L144.744 8.92798L72.6065 80.1314L72.5479 80.0736L144.686 8.87012Z" fill="#87ABC1" stroke="#87ABC1" stroke-width="0.3"/>
<path d="M145.859 8.86975L145.917 8.92761L73.7798 80.131L73.7212 80.0732L145.859 8.86975Z" fill="#87ABC1" stroke="#87ABC1" stroke-width="0.3"/>
<path d="M147.032 8.86987L147.091 8.92773L74.9532 80.1312L74.8946 80.0733L147.032 8.86987Z" fill="#87ABC1" stroke="#87ABC1" stroke-width="0.3"/>
<path d="M148.206 8.87036L148.265 8.92822L76.127 80.1317L76.0684 80.0738L148.206 8.87036Z" fill="#87ABC1" stroke="#87ABC1" stroke-width="0.3"/>
<path d="M149.379 8.86999L149.438 8.92786L77.2999 80.1313L77.2412 80.0734L149.379 8.86999Z" fill="#87ABC1" stroke="#87ABC1" stroke-width="0.3"/>
<path d="M150.553 8.87024L150.611 8.9281L78.4737 80.1315L78.4151 80.0737L150.553 8.87024Z" fill="#87ABC1" stroke="#87ABC1" stroke-width="0.3"/>
<path d="M151.727 8.86987L151.785 8.92773L79.6475 80.1312L79.5889 80.0733L151.727 8.86987Z" fill="#87ABC1" stroke="#87ABC1" stroke-width="0.3"/>
<path d="M152.9 8.87012L152.958 8.92798L80.8209 80.1314L80.7622 80.0736L152.9 8.87012Z" fill="#87ABC1" stroke="#87ABC1" stroke-width="0.3"/>
<path d="M154.073 8.86975L154.132 8.92761L81.9942 80.131L81.9356 80.0732L154.073 8.86975Z" fill="#87ABC1" stroke="#87ABC1" stroke-width="0.3"/>
<path d="M155.247 8.86987L155.305 8.92773L83.1675 80.1312L83.1089 80.0733L155.247 8.86987Z" fill="#87ABC1" stroke="#87ABC1" stroke-width="0.3"/>
</g>
</svg>
