<svg width="164" height="112" viewBox="30 8 102 102" fill="none" xmlns="http://www.w3.org/2000/svg">
<g clip-path="url(#clip0_7_202508)">
<path d="M71.3962 82.2594C71.0901 82.429 70.6715 82.5359 70.3297 82.5161L65.7895 82.2533C65.3471 82.2277 64.6354 82.267 64.2016 82.3407L62.2542 82.6737C61.8135 82.7494 61.0875 82.7947 60.6365 82.7757L31.9115 81.5641C31.4382 81.5443 31.04 81.2633 31.0233 80.9375C31.0084 80.6505 30.6532 80.4053 30.2308 80.3923L29.2563 80.3614C28.8138 80.3472 28.1146 80.426 27.6977 80.5358L25.3939 81.1446C25.1594 81.2064 25.0109 81.2044 24.9512 81.1391C24.8924 81.0732 24.9449 80.9694 25.1091 80.8301L30.2944 76.4307C30.5862 76.183 30.9097 75.7209 31.0161 75.4007L31.2401 74.7259C31.3492 74.3957 31.673 73.9136 31.9619 73.6514L74.7923 34.6393C75.0787 34.3784 75.6041 34.0003 75.9634 33.7966L77.0376 33.1865C77.3921 32.9854 77.9275 32.6226 78.2317 32.3784L79.5673 31.3036C79.8793 31.0532 80.5031 30.8128 80.9577 30.7691L82.724 30.599C83.161 30.5566 83.7989 30.3585 84.147 30.1562L85.185 29.5529C85.5454 29.3438 86.2003 29.1259 86.6485 29.0668L118.035 24.9242C118.495 24.8637 119.055 25.0134 119.284 25.2581C119.492 25.4792 119.993 25.5809 120.401 25.4858L127.02 23.9337C127.314 23.8644 127.43 23.91 127.477 23.9598C127.523 24.0101 127.538 24.1075 127.347 24.2882L122.447 28.9261C122.187 29.1725 122.089 29.5028 122.233 29.6477C122.404 29.8206 122.322 30.1935 122.051 30.4795L79.1534 75.6765C78.8917 75.952 78.3831 76.3407 78.0191 76.5423L76.741 77.2502C76.3843 77.4478 75.8786 77.8253 75.6143 78.0919L71.6709 82.0609C71.5985 82.1332 71.5051 82.201 71.3982 82.2602L71.3962 82.2594ZM25.3589 81.0722L27.6626 80.4634C28.0904 80.3504 28.8073 80.2704 29.2599 80.2847L30.2344 80.3155C30.708 80.3305 31.1068 80.6083 31.1243 80.9336C31.1393 81.2206 31.4945 81.4696 31.9166 81.4875L60.6416 82.6991C61.0846 82.7178 61.7982 82.6727 62.2305 82.5988L64.178 82.2658C64.6193 82.1908 65.345 82.1503 65.7959 82.1769L70.3361 82.4396C70.7678 82.4646 71.328 82.2735 71.5865 82.0139L75.5299 78.045C75.7995 77.7735 76.3146 77.3889 76.6778 77.1877L77.9559 76.4798C78.3126 76.2822 78.8116 75.9017 79.068 75.631L121.966 30.4341C122.21 30.1771 122.293 29.8376 122.149 29.6921C121.977 29.5185 122.074 29.1534 122.365 28.8778L127.265 24.2399C127.402 24.1112 127.419 24.0322 127.391 24.0018C127.363 23.971 127.258 23.9554 127.048 24.0053L120.429 25.5574C119.981 25.6622 119.43 25.5467 119.198 25.3012C118.989 25.0783 118.474 24.9424 118.05 24.9982L86.6636 29.1408C86.2288 29.1981 85.5894 29.4074 85.2445 29.6117L84.2065 30.215C83.8449 30.4229 83.1864 30.6296 82.7346 30.6735L80.9684 30.8437C80.5336 30.8857 79.9375 31.1146 79.6401 31.3541L78.3045 32.4289C77.9976 32.6755 77.4562 33.0426 77.0977 33.2459L76.0236 33.856C75.6691 34.0571 75.1521 34.4296 74.8693 34.6865L32.0398 73.6981C31.7595 73.9537 31.445 74.4222 31.3377 74.7428L31.1137 75.4176C31.0038 75.7482 30.6702 76.2244 30.3696 76.4799L25.1844 80.8793C25.0298 81.0104 25.0173 81.0769 25.034 81.0951C25.0508 81.1133 25.1376 81.1295 25.3583 81.0716L25.3589 81.0722Z" fill="#87ABC1" stroke="#87ABC1" stroke-width="0.3"/>
<path d="M79.6381 74.2525C79.5875 74.2806 79.5381 74.306 79.492 74.3259L61.7599 82.2586C61.512 82.3694 61.0761 82.4499 60.7881 82.4372L31.8162 81.2213C31.5093 81.2087 31.2645 81.0112 31.2694 80.7813L31.4054 74.5889C31.4107 74.3721 31.5635 74.0594 31.7473 73.8914L74.1275 35.2441C74.3075 35.08 74.6453 34.8494 74.8805 34.7295L85.4094 29.3889C85.646 29.2692 86.0673 29.1408 86.3492 29.1039L111.087 25.839C111.38 25.8 111.765 25.9122 111.946 26.089L118.518 32.4869C118.701 32.6655 118.709 32.9599 118.536 33.1438L80.2378 73.8078C80.1042 73.9499 79.8586 74.1294 79.6399 74.2506L79.6381 74.2525ZM74.862 34.8334C74.6417 34.9555 74.3618 35.1502 74.2049 35.293L31.8247 73.9403C31.6561 74.0942 31.5099 74.3919 31.5054 74.5903L31.3694 80.7828C31.3651 80.9725 31.5675 81.1348 31.8204 81.1452L60.7923 82.3611C61.0639 82.3725 61.4733 82.2971 61.7061 82.1928L79.4383 74.2601C79.6735 74.1543 79.9936 73.9326 80.1511 73.7649L118.45 33.1009C118.596 32.9451 118.589 32.685 118.434 32.534L111.863 26.1362C111.706 25.9827 111.357 25.8817 111.102 25.9151L86.3639 29.18C86.0946 29.2156 85.6903 29.3383 85.4633 29.4536L74.9345 34.7943C74.911 34.8063 74.8859 34.8192 74.8598 34.8337L74.862 34.8334Z" fill="#87ABC1" stroke="#87ABC1" stroke-width="0.3"/>
<path d="M80.5365 74.2613C80.4859 74.2894 80.4365 74.3148 80.3905 74.3346L62.6583 82.2674C62.4104 82.3782 61.9745 82.4587 61.6865 82.446L32.7147 81.2301C32.4077 81.2175 32.1629 81.02 32.1678 80.7901L32.3038 74.5977C32.3091 74.3809 32.462 74.0682 32.6457 73.9002L75.0259 35.2529C75.2059 35.0888 75.5446 34.8577 75.7789 34.7383L86.3078 29.3977C86.5444 29.278 86.9658 29.1496 87.2477 29.1127L111.986 25.8478C112.278 25.8088 112.663 25.921 112.845 26.0978L119.416 32.495C119.599 32.6737 119.607 32.9681 119.434 33.152L81.1356 73.8159C81.002 73.958 80.7565 74.1376 80.5377 74.2587L80.5365 74.2613ZM32.7193 81.1556L61.6911 82.3716C61.9627 82.3829 62.3721 82.3076 62.6049 82.2032L80.3371 74.2705C80.5724 74.1648 80.8924 73.9431 81.0499 73.7754L119.349 33.1114C119.495 32.9555 119.488 32.6955 119.333 32.5439L112.762 26.1466C112.604 25.9926 112.255 25.8916 112.001 25.9256L87.2627 29.1905C86.9934 29.2261 86.5892 29.3487 86.3622 29.4641L75.8333 34.8047C75.6032 34.9208 75.2762 35.1445 75.1021 35.3043L32.7219 73.9516C32.5533 74.1056 32.4071 74.4033 32.4026 74.6017L32.2666 80.7941C32.2623 80.9838 32.4647 81.1462 32.7176 81.1566L32.7193 81.1556Z" fill="#87ABC1" stroke="#87ABC1" stroke-width="0.3"/>
<path d="M71.6182 83.0554C71.5725 83.0807 71.5255 83.1048 71.4774 83.1277C70.9868 83.3635 70.4609 83.4144 69.9137 83.2803C68.6995 82.9819 67.7814 81.8873 67.5497 81.4337C67.093 80.5435 67.9133 79.6642 70.0559 78.7471C71.2729 78.2264 72.1275 78.0634 72.6701 78.2502C73.0094 78.367 73.2159 78.6113 73.3216 79.0193C73.4952 79.6925 73.2945 82.1269 71.6182 83.0554ZM67.6452 81.4063C67.8982 81.8993 68.8326 82.9337 69.9463 83.2073C70.4629 83.3347 70.9593 83.286 71.4234 83.063C73.166 82.2294 73.392 79.6891 73.2223 79.0327C73.1237 78.651 72.935 78.4234 72.6283 78.3178C72.1259 78.1448 71.2771 78.3111 70.107 78.8116C68.0152 79.7071 67.2097 80.5555 67.6454 81.4053L67.6452 81.4063Z" fill="#87ABC1" stroke="#87ABC1" stroke-width="0.3"/>
<path d="M70.9461 80.4069C70.8742 80.4467 70.7982 80.486 70.7188 80.5233C70.0131 80.8584 69.3205 80.9553 69.1416 80.7439C68.9627 80.5326 69.3751 80.1055 70.0801 79.7709C70.7858 79.4358 71.4784 79.3389 71.6573 79.5502C71.8162 79.7376 71.5092 80.095 70.9461 80.4069ZM69.9084 79.9511C69.3633 80.253 69.1136 80.5702 69.2272 80.7041C69.3549 80.8548 69.963 80.7924 70.6647 80.4596C71.3655 80.1273 71.6992 79.7418 71.5714 79.5911C71.4437 79.4404 70.8357 79.5028 70.134 79.8356C70.0539 79.8734 69.9778 79.9127 69.9076 79.9515L69.9084 79.9511Z" fill="#87ABC1" stroke="#87ABC1" stroke-width="0.3"/>
<path d="M28.4392 80.2292C26.5686 81.2653 25.4006 81.6747 24.7641 81.5181C24.6546 81.4917 24.5865 81.4395 24.5621 81.365C24.4319 80.9668 25.7 79.9871 25.754 79.9459C25.8689 79.8425 28.6408 77.3732 30.1766 78.0272C30.3471 78.1087 30.4369 78.2237 30.4441 78.3701C30.465 78.8137 29.6787 79.5436 28.4398 80.2298L28.4392 80.2292ZM27.8254 78.5752C26.7668 79.1616 25.8464 79.9818 25.8304 79.9963C25.4697 80.2727 24.5636 81.05 24.6616 81.3468C24.6775 81.3948 24.7217 81.428 24.7966 81.4462C25.3909 81.5921 26.5634 81.1745 28.3793 80.1687C29.5921 79.4969 30.3634 78.7915 30.3433 78.373C30.3377 78.2512 30.2658 78.1594 30.1251 78.0926C29.4982 77.8257 28.6225 78.1347 27.826 78.5759L27.8254 78.5752Z" fill="#87ABC1" stroke="#87ABC1" stroke-width="0.3"/>
<path d="M28.653 79.6433C28.1029 79.948 27.4161 80.1439 27.2182 79.944C27.0203 79.7442 27.4712 79.3099 28.0213 79.0052C28.5714 78.7006 29.2582 78.5047 29.4561 78.7045C29.6539 78.9044 29.2031 79.3386 28.653 79.6433ZM28.0812 79.0657C27.4699 79.4043 27.1788 79.7766 27.2992 79.8982C27.4196 80.0198 27.9806 79.9202 28.5919 79.5816C29.2032 79.243 29.4943 78.8707 29.3738 78.7491C29.2534 78.6275 28.6925 78.7272 28.0812 79.0657Z" fill="#87ABC1" stroke="#87ABC1" stroke-width="0.3"/>
<path d="M52.8724 55.7933C52.4578 56.0229 52.0205 56.0892 51.877 55.9443C51.7336 55.7995 51.9459 55.5059 52.3605 55.2762C52.7751 55.0466 53.2125 54.9804 53.3559 55.1252C53.4993 55.2701 53.287 55.5637 52.8724 55.7933ZM52.421 55.3374C52.0334 55.5521 51.8661 55.8056 51.9587 55.8991C52.0512 55.9926 52.4242 55.9469 52.8119 55.7322C53.1996 55.5175 53.3669 55.2639 53.2743 55.1704C53.1817 55.0769 52.8087 55.1226 52.421 55.3374Z" fill="#87ABC1" stroke="#87ABC1" stroke-width="0.3"/>
<path d="M80.7371 31.5992C80.1119 31.9455 79.4849 32.0779 79.3094 31.9007C79.1339 31.7235 79.4863 31.3135 80.1114 30.9672C80.7366 30.6209 81.3636 30.4885 81.5391 30.6657C81.7146 30.8429 81.3623 31.2529 80.7371 31.5992ZM80.1653 31.0216C79.5418 31.367 79.2568 31.734 79.382 31.8605C79.5073 31.987 80.0597 31.8902 80.6832 31.5448C81.3068 31.1994 81.5917 30.8324 81.4665 30.7059C81.3412 30.5794 80.7888 30.6762 80.1653 31.0216Z" fill="#87ABC1" stroke="#87ABC1" stroke-width="0.3"/>
<path d="M81.4648 32.2426C81.1939 32.3927 80.9321 32.515 80.7187 32.5944C80.1164 32.8182 79.022 33.15 78.4535 32.8554C78.1841 32.716 78.0741 32.4542 78.1248 32.0779C78.2916 30.8461 80.0719 30.2064 80.0898 30.2002C80.0955 30.1971 81.2452 29.653 82.5885 30.1828C82.893 30.3027 83.0462 30.4753 83.0425 30.695C83.035 31.1979 82.2179 31.8265 81.4662 32.2428L81.4648 32.2426ZM79.5478 30.5411C79.023 30.8318 78.3245 31.3503 78.2243 32.0852C78.1773 32.4321 78.2739 32.6701 78.5103 32.7927C79.0556 33.0755 80.2044 32.7004 80.6727 32.5262C81.5684 32.1928 82.9298 31.2921 82.9389 30.6937C82.9415 30.5049 82.8071 30.3551 82.539 30.249C81.2496 29.7405 80.1483 30.2606 80.1371 30.2659C80.1277 30.2692 79.871 30.3621 79.5478 30.5411Z" fill="#87ABC1" stroke="#87ABC1" stroke-width="0.3"/>
<path d="M127.674 24.3448C126.786 24.8362 120.313 28.3241 119.378 28.8182C118.79 29.129 118.268 29.3803 117.829 29.3094C117.591 29.2708 117.387 29.1414 117.206 28.9131C116.675 28.2405 117.633 27.7402 117.641 27.7353C117.73 27.694 126.3 23.6623 126.997 23.3653C127.39 23.1979 127.795 23.3291 127.977 23.538C128.149 23.7367 128.174 24.0666 127.674 24.3437L127.674 24.3448ZM119.32 28.7568C120.255 28.2627 126.727 24.7757 127.614 24.2843C128.057 24.0388 128.041 23.7523 127.892 23.5813C127.736 23.4018 127.386 23.2888 127.048 23.4329C126.352 23.729 117.784 27.7594 117.698 27.7997C117.662 27.8164 116.812 28.264 117.295 28.8752C117.461 29.0845 117.643 29.2022 117.851 29.2353C118.251 29.299 118.753 29.0558 119.321 28.7564L119.32 28.7568Z" fill="#87ABC1" stroke="#87ABC1" stroke-width="0.3"/>
<path d="M119.417 28.3021C118.904 28.5864 118.369 28.6761 118.201 28.5055C118.032 28.335 118.302 27.9789 118.816 27.6946C119.329 27.4102 119.863 27.3206 120.032 27.4911C120.201 27.6617 119.93 28.0178 119.417 28.3021ZM118.877 27.7563C118.377 28.033 118.167 28.3436 118.283 28.461C118.399 28.5783 118.859 28.5178 119.357 28.2416C119.856 27.9654 120.067 27.6543 119.951 27.537C119.835 27.4196 119.375 27.4801 118.877 27.7563Z" fill="#87ABC1" stroke="#87ABC1" stroke-width="0.3"/>
<path d="M98.5327 54.7308C98.3793 54.8158 98.2068 54.8687 98.0415 54.878C97.8844 54.8864 97.7525 54.8554 97.661 54.7859C97.4314 54.614 96.7518 53.9977 96.2404 53.522C96.0699 53.3638 96.0075 53.1987 96.0553 53.0312C96.12 52.8004 96.4076 52.5664 96.8239 52.4049L96.912 52.3712C99.8412 51.2352 100.786 50.8654 101.062 50.7557C101.423 50.6124 101.799 50.6175 101.976 50.7683C102.129 50.9001 102.092 51.1063 101.874 51.334L101.704 51.5112C100.985 52.2594 99.0785 54.2468 98.798 54.5328C98.7216 54.6101 98.6319 54.6778 98.5339 54.732L98.5327 54.7308ZM96.3202 53.475C96.8304 53.9495 97.5062 54.5631 97.7333 54.7326C97.8043 54.7851 97.9083 54.8098 98.0348 54.8022C98.2742 54.7888 98.5407 54.6649 98.7156 54.4866C98.9953 54.2011 100.903 52.2143 101.622 51.4661L101.791 51.2889C101.981 51.0922 102.02 50.92 101.9 50.8179C101.757 50.6954 101.425 50.6974 101.111 50.8225C100.834 50.9323 99.8888 51.3025 96.9596 52.4385L96.8714 52.4732C96.4812 52.6241 96.214 52.8392 96.1551 53.0478C96.1149 53.1922 96.1707 53.3354 96.3202 53.475Z" fill="#87ABC1" stroke="#87ABC1" stroke-width="0.3"/>
<path d="M98.4939 53.0441C97.965 53.337 97.4179 53.4328 97.2491 53.2623C97.0803 53.0917 97.3624 52.7282 97.8912 52.4353C98.4201 52.1424 98.9672 52.0466 99.136 52.2171C99.3048 52.3876 99.0227 52.7511 98.4939 53.0441ZM97.9523 52.497C97.4365 52.7827 97.2151 53.1003 97.3313 53.2177C97.4475 53.335 97.9182 53.2692 98.434 52.9835C98.9498 52.6978 99.1712 52.3803 99.055 52.2629C98.9388 52.1456 98.4681 52.2113 97.9523 52.497Z" fill="#87ABC1" stroke="#87ABC1" stroke-width="0.3"/>
<path d="M60.8976 74.2372C60.3018 74.5672 59.6664 74.6541 59.4504 74.436C59.2344 74.2178 59.531 73.7885 60.1267 73.4585C60.7225 73.1285 61.358 73.0415 61.574 73.2597C61.79 73.4779 61.4934 73.9072 60.8976 74.2372ZM60.1872 73.5196C59.6559 73.8139 59.3559 74.2129 59.532 74.3908C59.7081 74.5686 60.3058 74.4703 60.8371 74.176C61.3684 73.8818 61.6684 73.4828 61.4924 73.3049C61.3163 73.1271 60.7186 73.2254 60.1872 73.5196Z" fill="#87ABC1" stroke="#87ABC1" stroke-width="0.3"/>
<path d="M61.8072 75.1557C61.2115 75.4857 60.576 75.5727 60.36 75.3545L59.4512 74.4365L59.5328 74.3913L60.4416 75.3093C60.6177 75.4872 61.2154 75.3889 61.7467 75.0946C62.278 74.8003 62.5781 74.4014 62.402 74.2235L61.4932 73.3055L61.5748 73.2603L62.4836 74.1783C62.6996 74.3965 62.403 74.8257 61.8072 75.1557Z" fill="#87ABC1" stroke="#87ABC1" stroke-width="0.3"/>
<path d="M60.7283 74.066C60.4059 74.2446 60.0587 74.2883 59.9377 74.1661C59.8167 74.0438 59.9739 73.8082 60.2962 73.6296C60.6186 73.4511 60.9658 73.4073 61.0868 73.5296C61.2078 73.6518 61.0506 73.8875 60.7283 74.066ZM60.3568 73.6908C60.0662 73.8517 59.9455 74.0463 60.0193 74.1209C60.0931 74.1954 60.3772 74.1658 60.6678 74.0049C60.9583 73.844 61.079 73.6494 61.0052 73.5748C60.9314 73.5002 60.6473 73.5298 60.3568 73.6908Z" fill="#87ABC1" stroke="#87ABC1" stroke-width="0.3"/>
<path d="M36.3215 74.3264C35.5192 74.7708 34.7219 74.9483 34.5059 74.7301C34.2899 74.512 34.7495 73.9934 35.5518 73.549C36.3541 73.1046 37.1513 72.9271 37.3673 73.1453C37.5833 73.3635 37.1237 73.8821 36.3215 74.3264ZM35.6123 73.6101C34.8051 74.0572 34.4308 74.5266 34.5875 74.6849C34.7443 74.8432 35.4538 74.7124 36.261 74.2653C37.0681 73.8182 37.4424 73.3488 37.2857 73.1905C37.129 73.0322 36.4195 73.163 35.6123 73.6101Z" fill="#87ABC1" stroke="#87ABC1" stroke-width="0.3"/>
<path d="M37.2284 75.2425C36.4261 75.6869 35.6289 75.8645 35.4129 75.6463L34.5059 74.7301L34.5875 74.6849L35.4945 75.6011C35.6512 75.7594 36.3607 75.6285 37.1679 75.1814C37.9751 74.7343 38.3494 74.2649 38.1927 74.1066L37.2856 73.1904L37.3673 73.1452L38.2743 74.0614C38.4903 74.2796 38.0307 74.7982 37.2284 75.2425Z" fill="#87ABC1" stroke="#87ABC1" stroke-width="0.3"/>
<path d="M36.1521 74.1553C35.7799 74.3614 35.3093 74.5038 35.1695 74.3626C35.0297 74.2214 35.3491 73.9262 35.7213 73.7201C36.0934 73.514 36.5641 73.3716 36.7039 73.5127C36.8436 73.6539 36.5243 73.9491 36.1521 74.1553ZM35.7818 73.7812C35.3574 74.0163 35.1864 74.252 35.2511 74.3174C35.3159 74.3828 35.6664 74.3297 36.0916 74.0941C36.5168 73.8586 36.687 73.6233 36.6222 73.558C36.5575 73.4926 36.207 73.5457 35.7818 73.7812Z" fill="#87ABC1" stroke="#87ABC1" stroke-width="0.3"/>
<path d="M70.6229 73.6719C69.9088 74.0675 69.1688 74.1944 68.9383 73.9615C68.7078 73.7286 69.0859 73.2362 69.8 72.8407C70.5142 72.4452 71.2541 72.3182 71.4847 72.5511C71.7152 72.784 71.3371 73.2764 70.6229 73.6719ZM69.8605 72.9018C69.215 73.2594 68.8299 73.7244 69.0199 73.9163C69.2099 74.1082 69.9161 73.9688 70.5624 73.6108C71.2088 73.2528 71.5931 72.7882 71.4031 72.5963C71.2131 72.4044 70.5069 72.5438 69.8605 72.9018Z" fill="#87ABC1" stroke="#87ABC1" stroke-width="0.3"/>
<path d="M71.9924 75.055C71.2783 75.4506 70.4929 75.5316 70.2043 75.2401L68.9639 73.9872L69.0455 73.942L70.2859 75.1949C70.5364 75.4479 71.2749 75.3578 71.9319 74.9939C72.5889 74.63 72.9195 74.128 72.669 73.8749L71.4286 72.622L71.5102 72.5768L72.7507 73.8297C73.0393 74.1213 72.7065 74.6595 71.9924 75.055Z" fill="#87ABC1" stroke="#87ABC1" stroke-width="0.3"/>
<path d="M70.4413 73.4879C70.0511 73.704 69.6579 73.7676 69.5272 73.6356C69.3965 73.5036 69.5925 73.2407 69.9826 73.0247C70.3727 72.8086 70.766 72.745 70.8967 72.877C71.0274 73.009 70.8314 73.2719 70.4413 73.4879ZM70.0431 73.0858C69.6881 73.2824 69.5289 73.5097 69.6088 73.5904C69.6887 73.671 70.0249 73.6239 70.3807 73.4268C70.7366 73.2297 70.8949 73.0029 70.8151 72.9222C70.7352 72.8416 70.3989 72.8887 70.0431 73.0858Z" fill="#87ABC1" stroke="#87ABC1" stroke-width="0.3"/>
<path d="M73.0323 74.7128L71.5421 75.5383C71.3984 75.6178 71.1361 75.6694 70.9584 75.6534L70.215 75.5853C70.0331 75.5688 69.8209 75.4847 69.7314 75.3942C69.6673 75.3294 69.5165 75.324 69.4005 75.3816L65.1394 77.5146C64.9918 77.5889 64.7272 77.6408 64.5503 77.6318L59.8456 77.3816C59.6616 77.3719 59.4505 77.2608 59.3754 77.1339L59.1916 76.8231C59.1198 76.702 59.0875 76.4984 59.1175 76.3692C59.1442 76.257 59.0898 76.0846 58.9984 75.9923L58.8362 75.8285C58.7291 75.7203 58.6627 75.5243 58.6869 75.3917L58.9163 74.1479C58.9413 74.0149 59.0789 73.8412 59.2234 73.7612L59.4682 73.6255C59.6053 73.5496 59.7231 73.4503 59.7429 73.409C59.7776 73.3368 59.9365 73.2318 60.0674 73.1688L67.4435 69.651C67.5912 69.5806 67.8532 69.5159 68.0286 69.5067L69.9677 69.4065C70.1541 69.3969 70.3866 69.4773 70.4979 69.5898L72.0802 71.188C72.1855 71.2944 72.2771 71.4878 72.2843 71.6201L72.3296 72.4419C72.336 72.5595 72.4096 72.727 72.4907 72.8089C72.5615 72.8804 72.7103 72.8878 72.823 72.8254L73.1045 72.6695C73.2147 72.6084 73.2916 72.6236 73.3273 72.6379C73.3629 72.6522 73.422 72.6914 73.4153 72.7945L73.3126 74.322C73.3039 74.4574 73.1774 74.6334 73.0321 74.7139L73.0323 74.7128ZM59.2853 73.8224C59.1621 73.8907 59.04 74.0444 59.0189 74.1583L58.7894 75.4021C58.7682 75.516 58.8279 75.6912 58.9193 75.7835L59.0814 75.9473C59.1885 76.0554 59.2507 76.251 59.2186 76.3832C59.1908 76.498 59.2211 76.6857 59.2855 76.7929L59.4693 77.1036C59.5297 77.2055 59.706 77.2981 59.8541 77.306L64.5588 77.5561C64.714 77.5648 64.9545 77.5168 65.0836 77.4519L69.3446 75.3189C69.506 75.238 69.7168 75.2518 69.8136 75.3496C69.8862 75.423 70.0765 75.4965 70.2278 75.5101L70.9712 75.5782C71.1239 75.592 71.3589 75.546 71.4822 75.4778L72.9724 74.6523C73.0949 74.5845 73.2045 74.4311 73.2124 74.3178L73.3152 72.7903C73.3181 72.7461 73.3056 72.7143 73.2813 72.705C73.2563 72.6952 73.2144 72.7051 73.1671 72.7314L72.8855 72.8873C72.728 72.9746 72.5151 72.96 72.4111 72.8548C72.3185 72.7613 72.2371 72.5783 72.23 72.446L72.1847 71.6241C72.1782 71.5066 72.0938 71.3281 72.0006 71.234L70.4183 69.6358C70.3288 69.5453 70.1269 69.4754 69.9771 69.4836L68.038 69.5839C67.8803 69.5918 67.6343 69.6523 67.5004 69.7161L60.1242 73.2338C59.9806 73.302 59.8605 73.395 59.8401 73.4357C59.8068 73.5042 59.6564 73.6178 59.5299 73.6879L59.2851 73.8235L59.2853 73.8224Z" fill="#87ABC1" stroke="#87ABC1" stroke-width="0.3"/>
<path d="M73.3258 75.0092L71.8355 75.8346C71.6919 75.9142 71.4296 75.9658 71.2519 75.9497L70.5091 75.8823C70.3271 75.8657 70.115 75.7817 70.0254 75.6912C69.9613 75.6264 69.8106 75.621 69.6945 75.6786L65.4335 77.8116C65.2858 77.8858 65.0213 77.9377 64.8444 77.9288L60.1397 77.6786C59.9557 77.6689 59.7445 77.5577 59.6695 77.4309L59.4856 77.1201C59.4138 76.999 59.3816 76.7954 59.4122 76.6668C59.4388 76.5546 59.3844 76.3822 59.2931 76.2899L59.1309 76.1261C59.0238 76.0179 58.9574 75.8219 58.9815 75.6893L59.211 74.4455C59.2359 74.3125 59.3736 74.1388 59.518 74.0587L59.7629 73.9231C59.9 73.8472 60.0178 73.7479 60.0376 73.7066C60.0722 73.6344 60.2305 73.5288 60.362 73.4663L67.7382 69.9486C67.8858 69.8782 68.1478 69.8135 68.3233 69.8043L70.2623 69.7041C70.4487 69.6945 70.6812 69.7749 70.7925 69.8874L72.3748 71.4856C72.4801 71.592 72.5718 71.7854 72.5789 71.9177L72.6242 72.7395C72.6307 72.8571 72.7042 73.0245 72.7853 73.1064C72.8561 73.1779 73.005 73.1854 73.1176 73.123L73.3992 72.967C73.5094 72.906 73.5863 72.9212 73.6219 72.9355C73.6576 72.9498 73.7166 72.989 73.71 73.0921L73.6072 74.6196C73.5985 74.755 73.4721 74.931 73.3268 75.0115L73.3258 75.0092ZM59.5788 74.1188C59.4555 74.1871 59.3335 74.3408 59.3123 74.4547L59.0828 75.6985C59.0617 75.8124 59.1213 75.9875 59.2127 76.0798L59.3749 76.2436C59.482 76.3518 59.5441 76.5473 59.5121 76.6796C59.4842 76.7944 59.5153 76.9816 59.5783 77.0886L59.7622 77.3994C59.8226 77.5013 59.9989 77.5938 60.147 77.6017L64.8516 77.8519C65.0076 77.8601 65.2474 77.8125 65.3765 77.7476L69.6375 75.6146C69.7988 75.5338 70.0096 75.5476 70.1064 75.6454C70.1791 75.7187 70.3693 75.7922 70.5212 75.8065L71.264 75.8739C71.4167 75.8877 71.6518 75.8418 71.775 75.7735L73.2653 74.9481C73.3877 74.8803 73.4973 74.7268 73.5053 74.6136L73.608 73.0861C73.611 73.0418 73.5984 73.01 73.5735 73.0001C73.5486 72.9903 73.5066 73.0003 73.4593 73.0265L73.1777 73.1824C73.0202 73.2697 72.8074 73.2551 72.7033 73.15C72.6107 73.0565 72.5294 72.8735 72.5222 72.7411L72.4769 71.9193C72.4704 71.8017 72.386 71.6233 72.2928 71.5291L70.7105 69.9309C70.621 69.8404 70.4191 69.7705 70.2693 69.7788L68.3302 69.879C68.1725 69.8869 67.9266 69.9474 67.7926 70.0112L60.4164 73.529C60.2729 73.5971 60.1527 73.6902 60.1323 73.7308C60.0991 73.7994 59.9487 73.913 59.8222 73.983L59.5773 74.1186L59.5788 74.1188Z" fill="#87ABC1" stroke="#87ABC1" stroke-width="0.3"/>
<path d="M53.3434 56.278C52.8734 56.5384 52.425 56.6892 52.3844 56.7032C52.2931 56.7424 50.0246 57.7008 49.5626 57.7192C49.4155 57.725 49.3057 57.6958 49.2383 57.6329C49.1201 57.5224 49.1839 57.3507 49.1868 57.3434L49.1959 57.3309L52.8819 53.7108C53.0912 53.5049 53.3113 53.4246 53.5361 53.4704C54.0135 53.5685 54.3618 54.233 54.4579 54.8393C54.5559 55.4541 53.9319 55.9521 53.3434 56.278ZM49.2823 57.371C49.2738 57.3994 49.2433 57.5166 49.3181 57.5858C49.3641 57.6285 49.4439 57.6477 49.5567 57.643C49.9067 57.6289 51.5296 56.977 52.3384 56.635C52.3649 56.626 54.5244 55.8983 54.3566 54.8481C54.2506 54.1819 53.8861 53.621 53.5085 53.5434C53.3272 53.5057 53.1429 53.5775 52.9614 53.7566L49.2817 57.3704L49.2823 57.371Z" fill="#87ABC1" stroke="#87ABC1" stroke-width="0.3"/>
<path d="M95.9247 56.1752C88.8373 60.1008 81.3921 62.982 74.8275 64.3289C67.8866 65.7526 62.7318 65.2966 60.311 63.0442L58.0849 60.7956L58.1665 60.7504L60.3914 62.9978C62.7833 65.2236 67.9015 65.6706 74.8 64.2552C81.7189 62.836 89.6177 59.7083 97.0438 55.4484C112.458 46.6061 121.057 35.5689 116.213 30.8442L114.171 28.7814L114.252 28.7362L116.294 30.7984C118.661 33.1078 117.965 36.9524 114.331 41.6239C110.706 46.2855 104.589 51.2164 97.1059 55.5086C96.7133 55.7336 96.3191 55.9557 95.9241 56.1745L95.9247 56.1752Z" fill="#87ABC1" stroke="#87ABC1" stroke-width="0.3"/>
<path d="M86.027 46.3523C81.153 49.052 76.0211 50.0169 74.4594 48.4943C73.6786 47.7325 73.8921 46.4777 75.0586 44.9601C76.218 43.452 78.1827 41.8613 80.5897 40.4798C82.9989 39.0981 85.5607 38.0927 87.8084 37.6455C90.0703 37.1961 91.7468 37.368 92.527 38.1293C93.3077 38.8911 93.0942 40.1459 91.9278 41.6635C90.7684 43.1716 88.8037 44.7623 86.3967 46.1438C86.2745 46.2143 86.1502 46.2841 86.027 46.3523ZM81.0248 40.3297C80.8999 40.3988 80.7749 40.469 80.651 40.5405C78.254 41.9154 76.2987 43.4991 75.1454 44.9981C74.0006 46.4877 73.7843 47.7128 74.539 48.4484C76.1062 49.9765 81.397 48.913 86.3337 46.084C88.7307 44.7091 90.686 43.1254 91.8393 41.6264C92.9842 40.1368 93.2005 38.9117 92.4457 38.1761C91.6916 37.4412 90.0532 37.2784 87.8336 37.7195C85.7146 38.1409 83.3116 39.063 81.0248 40.3297Z" fill="#87ABC1" stroke="#87ABC1" stroke-width="0.3"/>
<path d="M78.6035 35.5898C78.2117 35.8068 77.824 36.0253 77.433 36.2494C69.961 40.5357 63.8523 45.4589 60.2329 50.1125C56.622 54.7556 55.9223 58.5698 58.2633 60.8541C60.6052 63.1379 65.7117 63.6216 72.6429 62.2174C79.5893 60.8096 87.5296 57.674 95.0025 53.3872C110.416 44.5449 119.016 33.5077 114.171 28.783C109.45 24.1775 93.6703 27.2445 78.6026 35.5902L78.6035 35.5898ZM93.8811 54.1143C86.7488 58.0648 79.2627 60.9545 72.6698 62.2906C65.696 63.7041 60.5516 63.2101 58.1829 60.9005C55.8142 58.5909 56.5114 54.7459 60.1446 50.0743C63.77 45.4127 69.8874 40.4818 77.3701 36.1897C84.8519 31.8979 92.8057 28.7568 99.7649 27.3465C106.739 25.933 111.883 26.427 114.252 28.7366C116.62 31.0467 115.923 34.8912 112.29 39.5628C108.665 44.2244 102.547 49.1552 95.0646 53.4474C94.6712 53.6729 94.2761 53.8955 93.8811 54.1143Z" fill="#87ABC1"/>
<path d="M77.5439 36.3819C70.1751 40.6091 64.1515 45.4625 60.5828 50.0473C57.0192 54.6245 56.3249 58.3855 58.6326 60.6362C60.9404 62.8868 65.9769 63.3611 72.8104 61.9731C79.6559 60.5833 87.4843 57.4917 94.8533 53.2634C110.054 44.544 118.538 33.6634 113.765 29.0087C109.114 24.4724 93.5578 27.4998 78.6999 35.7293C78.313 35.9436 77.9302 36.1594 77.5441 36.3808L77.5439 36.3819ZM77.4818 36.3217C84.8604 32.0891 92.7022 28.9919 99.5606 27.5997C106.436 26.2039 111.51 26.6873 113.845 28.9638C116.179 31.2407 115.486 35.0319 111.901 39.6371C108.325 44.2308 102.292 49.0919 94.9138 53.3245C94.5253 53.5473 94.136 53.7667 93.7458 53.9828C86.7123 57.8786 79.3324 60.7275 72.8351 62.0465C65.96 63.4423 60.8854 62.9589 58.5516 60.682C56.2178 58.4051 56.9093 54.6143 60.4945 50.0091C64.0708 45.4154 70.1032 40.5543 77.4826 36.3212L77.4818 36.3217Z" fill="#87ABC1"/>
<path d="M77.6549 36.5145C70.3901 40.6822 64.4516 45.4657 60.9319 49.9826C57.4163 54.4935 56.7267 58.2018 58.9998 60.4186C61.2734 62.6361 66.2401 63.0999 72.9764 61.7298C79.721 60.358 87.4369 57.3098 94.7024 53.1417C109.688 44.545 118.058 33.8216 113.358 29.2375C108.777 24.77 93.4447 27.7583 78.7957 35.8722C78.4138 36.0837 78.0359 36.2968 77.6555 36.5151L77.6549 36.5145ZM77.5927 36.4543C84.8673 32.2812 92.5974 29.2269 99.3549 27.8528C106.132 26.4743 111.137 26.9482 113.437 29.1909C115.736 31.4347 115.049 35.1727 111.512 39.7115C107.986 44.2369 102.038 49.0282 94.7631 53.2017C94.3803 53.4213 93.9951 53.6385 93.6098 53.8519C86.6751 57.6929 79.4011 60.5021 72.9988 61.8035C66.2224 63.1816 61.2185 62.7082 58.9179 60.4649C56.618 58.2222 57.3048 54.4842 60.842 49.9454C64.3693 45.4195 70.3152 40.6281 77.5919 36.4547L77.5927 36.4543Z" fill="#87ABC1"/>
<path d="M77.7656 36.6464C70.6035 40.7544 64.7515 45.4682 61.2808 49.9173C57.8125 54.3622 57.1277 58.0168 59.3673 60.2011C61.6069 62.3854 66.5029 62.839 73.1413 61.4863C79.7858 60.1321 87.3884 57.1277 94.5507 53.0187C109.323 44.5448 117.577 33.9781 112.949 29.464C108.438 25.0646 93.3295 28.0144 78.8911 36.0116C78.5141 36.2204 78.1411 36.4308 77.7656 36.6464ZM77.7041 36.5868C84.876 32.4734 92.493 29.4619 99.1509 28.1059C105.831 26.7454 110.764 27.2086 113.03 29.4182C115.296 31.6277 114.614 35.3129 111.124 39.7859C107.646 44.2434 101.785 48.9644 94.6128 53.0789C94.2349 53.2958 93.8553 53.5098 93.475 53.7204C86.639 57.5068 79.4718 60.2757 73.1645 61.5596C66.4854 62.9197 61.5535 62.4566 59.2877 60.247C57.0219 58.0375 57.7032 54.3527 61.1929 49.8808C64.6703 45.4233 70.532 40.7012 77.7041 36.5868Z" fill="#87ABC1"/>
<path d="M77.8756 36.7793C70.8175 40.8278 65.0505 45.4718 61.6284 49.8524C58.208 54.231 57.5287 57.8323 59.7342 59.9835C61.9397 62.1346 66.7665 62.5784 73.3064 61.2423C79.8506 59.9068 87.3415 56.9453 94.3998 52.8958C108.959 44.5442 117.096 34.1345 112.54 29.691C108.1 25.3605 93.2152 28.2706 78.9858 36.1521C78.6145 36.3578 78.2455 36.5659 77.8749 36.7787L77.8756 36.7793ZM77.8148 36.7193C84.8835 32.665 92.3886 29.6975 98.9456 28.3596C105.527 27.0167 110.39 27.4695 112.622 29.6458C114.854 31.8222 114.177 35.4543 110.734 39.8607C107.306 44.2504 101.53 48.9021 94.4619 52.956C94.0889 53.1702 93.7142 53.3815 93.3396 53.589C86.6032 57.3202 79.5405 60.0492 73.3288 61.316C66.7484 62.6584 61.8858 62.2052 59.6555 60.029C57.4237 57.8527 58.1002 54.2216 61.5413 49.8155C64.969 45.4252 70.7462 40.7736 77.815 36.7182L77.8148 36.7193Z" fill="#87ABC1"/>
<path d="M77.9863 36.912C71.0316 40.9013 65.3498 45.4745 61.9773 49.7878C58.605 54.1 57.9304 57.6486 60.1018 59.7666C62.2732 61.8846 67.0301 62.3178 73.4728 60.9997C79.9161 59.6822 87.2945 56.7641 94.2487 52.7741C108.594 44.5453 116.617 34.2923 112.133 29.9194C107.764 25.6577 93.102 28.5292 79.0823 36.2945C78.7158 36.4975 78.3518 36.7029 77.9863 36.912ZM77.9248 36.8524C84.8893 32.8576 92.282 29.9335 98.7395 28.6138C105.223 27.2882 110.016 27.7309 112.213 29.8735C114.41 32.0167 113.738 35.5954 110.344 39.9357C106.965 44.2574 101.275 48.8389 94.3102 52.8337C93.942 53.0452 93.5731 53.2533 93.2026 53.4586C86.5649 57.1351 79.609 59.8239 73.4922 61.0741C67.0105 62.3987 62.2184 61.9556 60.0214 59.8131C57.8238 57.6699 58.4954 54.0926 61.8884 49.7528C65.267 45.4304 70.9578 40.8485 77.924 36.8528L77.9248 36.8524Z" fill="#87ABC1"/>
<path d="M78.0976 37.0445C71.2469 40.9743 65.6502 45.4776 62.3268 49.7231C59.0017 53.9694 58.3325 57.4648 60.4698 59.5496C62.6071 61.6345 67.2934 62.0576 73.6382 60.7568C79.9806 59.4573 87.2465 56.5826 94.098 52.6523C108.229 44.5462 116.137 34.4505 111.725 30.1476C107.426 25.9545 92.988 28.7865 79.178 36.4356C78.8165 36.6359 78.4573 36.8386 78.0968 37.0449L78.0976 37.0445ZM78.036 36.9849C84.8973 33.0492 92.1782 30.169 98.5347 28.8674C104.92 27.5591 109.642 27.9917 111.805 30.1011C113.969 32.2112 113.301 35.7361 109.955 40.0105C106.625 44.2639 101.02 48.7756 94.159 52.7113C93.7965 52.9196 93.4311 53.1249 93.0663 53.3269C86.5273 56.9488 79.6774 59.5978 73.6564 60.83C67.2734 62.1368 62.5519 61.7038 60.3896 59.595C58.2267 57.4856 58.8928 53.9616 62.2378 49.6881C65.5674 45.4336 71.1731 40.9215 78.0352 36.9853L78.036 36.9849Z" fill="#87ABC1"/>
<path d="M78.2077 37.1764C71.4603 41.0471 65.9494 45.4802 62.6759 49.6573C59.3989 53.8373 58.7337 57.2794 60.8369 59.331C62.9401 61.3827 67.5566 61.7953 73.8042 60.5124C80.0464 59.2305 87.199 56.3996 93.9473 52.5284C107.864 44.5446 115.657 34.6061 111.317 30.3732C107.088 26.2483 92.8739 29.0417 79.2737 36.5746C78.917 36.7722 78.5636 36.9717 78.2071 37.1758L78.2077 37.1764ZM78.1462 37.1168C84.9042 33.2402 92.0725 30.4034 98.3288 29.1204C104.616 27.83 109.268 28.252 111.397 30.3283C113.526 32.4051 112.864 35.8769 109.565 40.0853C106.285 44.2715 100.765 48.7123 94.008 52.5885C93.6499 52.7935 93.2907 52.9962 92.9308 53.1955C86.4906 56.7627 79.7469 59.3709 73.8207 60.5865C67.5355 61.8761 62.8848 61.4531 60.7565 59.3775C58.6277 57.3012 59.2898 53.8305 62.5859 49.6239C65.8656 45.4377 71.3865 40.9943 78.1453 37.1172L78.1462 37.1168Z" fill="#87ABC1"/>
<path d="M78.3191 37.3089C71.6757 41.1201 66.2491 45.4838 63.0255 49.5926C59.7957 53.7067 59.1369 57.0951 61.206 59.1136C63.2751 61.1321 67.8223 61.5347 73.9714 60.2685C80.1127 59.0047 87.1543 56.2173 93.7976 52.4061C107.501 44.5451 115.178 34.7637 110.912 30.601C106.753 26.5449 92.7629 29.2992 79.3716 36.7164C79.0198 36.9113 78.6713 37.1081 78.3205 37.309L78.3191 37.3089ZM78.2576 37.2493C84.9123 33.4317 91.9688 30.639 98.1244 29.373C104.313 28.0998 108.895 28.5117 110.99 30.5548C113.085 32.5985 112.427 36.0169 109.176 40.1586C105.946 44.2769 100.511 48.6479 93.858 52.4645C93.5047 52.6668 93.1505 52.8668 92.7955 53.0634C86.4541 56.5759 79.8162 59.1443 73.9859 60.3419C67.7994 61.6137 63.2193 61.2008 61.1258 59.159C59.031 57.1159 59.6876 53.6984 62.9363 49.5587C66.1664 45.4397 71.602 41.0672 78.2576 37.2493Z" fill="#87ABC1"/>
<path d="M78.4289 37.4419C71.8888 41.194 66.5481 45.4874 63.3735 49.5283C60.1917 53.5761 59.5375 56.9118 61.5725 58.8971C63.6075 60.8824 68.0842 61.275 74.1354 60.0261C80.1764 58.7809 87.1049 56.0363 93.645 52.2842C107.135 44.5455 114.697 34.9213 110.501 30.829C106.414 26.8417 92.646 29.5568 79.4645 36.8579C79.1176 37.05 78.774 37.2441 78.4281 37.4423L78.4289 37.4419ZM78.3682 37.3818C84.9189 33.6238 91.8637 30.874 97.9189 29.6266C104.009 28.3712 108.522 28.7732 110.582 30.7826C112.642 32.7925 111.99 36.1583 108.787 40.2341C105.606 44.2841 100.257 48.5858 93.7067 52.3428C93.3584 52.5423 93.0099 52.7392 92.6597 52.9331C86.4179 56.3904 79.8854 58.9184 74.1499 60.0994C68.0621 61.3535 63.5526 60.9507 61.4932 58.942C59.4331 56.9327 60.0843 53.5684 63.2851 49.494C66.4661 45.4429 71.8166 41.1403 78.3682 37.3818Z" fill="#87ABC1"/>
<path d="M78.5395 37.5738C72.1028 41.2658 66.8477 45.49 63.7222 49.463C60.5877 53.4449 59.9384 56.7268 61.9399 58.6796C63.9408 60.6317 68.3476 61.0138 74.3015 59.7828C80.2416 58.5556 87.0576 55.8544 93.4951 52.162C106.771 44.5465 114.217 35.0784 110.095 31.0562C106.077 27.1377 92.5327 29.8137 79.5618 36.9981C79.2198 37.1875 78.8805 37.3783 78.5401 37.5744L78.5395 37.5738ZM78.4794 37.5143C84.9274 33.816 91.7583 31.1095 97.714 29.8803C103.706 28.6422 108.148 29.0341 110.174 31.0103C112.201 32.987 111.553 36.2991 108.397 40.3089C105.266 44.291 100.003 48.5225 93.5562 52.2199C93.2136 52.4163 92.8692 52.6109 92.5247 52.8017C86.3816 56.2042 79.9551 58.6926 74.3154 59.8555C68.3263 61.0918 63.8866 60.6996 61.8613 58.724C59.8354 56.7479 60.4817 53.4373 63.6345 49.4293C66.7664 45.4461 72.0305 41.2131 78.4787 37.5137L78.4794 37.5143Z" fill="#87ABC1"/>
<path d="M78.6506 37.7063C72.3172 41.3392 67.1479 45.4932 64.0715 49.3984C60.985 53.3138 60.3403 56.543 62.308 58.4616C64.2756 60.3801 68.6124 60.7527 74.4679 59.5384C80.3078 58.3288 87.0111 55.6721 93.3447 52.0381C106.407 44.5449 113.738 35.234 109.687 31.2829C105.74 27.4325 92.4196 30.0695 79.6575 37.1382C79.3205 37.3249 78.986 37.5129 78.6499 37.7057L78.6506 37.7063ZM78.5896 37.6473C84.9344 34.0081 91.6534 31.3455 97.5082 30.1344C103.403 28.9136 107.774 29.2954 109.766 31.2384C111.758 33.182 111.115 36.4407 108.008 40.3844C104.926 44.2986 99.7478 48.4603 93.4054 52.0982C93.0677 52.2919 92.729 52.4833 92.3895 52.6713C86.3451 56.0192 80.0254 58.4673 74.4799 59.6131C68.5886 60.8321 64.2204 60.4495 62.2298 58.5077C60.238 56.5647 60.8794 53.308 63.9841 49.3663C67.0656 45.4508 72.246 41.2878 78.591 37.6475L78.5896 37.6473Z" fill="#87ABC1"/>
<path d="M78.7615 37.8388C72.5322 41.4121 67.4474 45.4957 64.4206 49.3336C61.3821 53.1827 60.7422 56.3592 62.6757 58.2445C64.6098 60.1305 68.8754 60.4924 74.6338 59.2949C80.3728 58.1035 86.9637 55.4901 93.1938 51.9163C106.043 44.5459 113.258 35.3916 109.28 31.5105C105.403 27.7289 92.3058 30.3273 79.7536 37.2798C79.4214 37.4638 79.0919 37.6492 78.7615 37.8388ZM78.7006 37.7798C84.9413 34.2001 91.5486 31.5804 97.3031 30.388C103.099 29.1849 107.4 29.5562 109.358 31.4655C111.316 33.3759 110.678 36.5814 107.618 40.4585C104.585 44.3045 99.4924 48.3963 93.2533 51.9751C92.9205 52.1661 92.586 52.3542 92.2514 52.5395C86.3058 55.8327 80.0914 58.2404 74.6424 59.3687C68.8498 60.57 64.5522 60.1975 62.5949 58.2893C60.6378 56.3801 61.2737 53.1765 64.3304 49.3012C67.3628 45.4536 72.4576 41.3598 78.6991 37.7796L78.7006 37.7798Z" fill="#87ABC1"/>
<path d="M78.8716 37.9707C72.7455 41.485 67.7466 45.4983 64.7691 49.2672C61.7779 53.0505 61.1442 56.1733 63.0428 58.0259C64.9429 59.8788 69.1386 60.2301 74.7989 59.051C80.437 57.8776 86.9162 55.3071 93.0422 51.7928C105.677 44.5447 112.777 35.5481 108.87 31.737C105.064 28.0246 92.1909 30.5829 79.8484 37.4193C79.5211 37.6006 79.1973 37.7828 78.871 37.9701L78.8716 37.9707ZM78.8107 37.9117C84.9481 34.3911 91.4436 31.8155 97.0972 30.641C102.795 29.4553 107.026 29.8165 108.949 31.6926C110.873 33.5698 110.24 36.7215 107.228 40.5334C104.244 44.3115 99.2374 48.333 93.1021 51.8533C92.7742 52.0416 92.4455 52.2265 92.1157 52.4092C86.2697 55.6472 80.1613 58.0151 74.8071 59.1269C69.1132 60.3104 64.8854 59.9484 62.963 58.073C61.04 56.1969 61.6704 53.0466 64.6791 49.2376C67.6624 45.4578 72.6714 41.4343 78.8096 37.9132L78.8107 37.9117Z" fill="#87ABC1"/>
<path d="M78.982 38.1037C72.9601 41.5584 68.0462 45.5019 65.1177 49.203C62.1745 52.9199 61.5449 55.9893 63.4108 57.809C65.2768 59.6287 69.4025 59.9705 74.9652 58.8076C80.5032 57.6518 86.8696 55.1258 92.8918 51.67C105.313 44.5452 112.298 35.7048 108.464 31.9643C104.727 28.32 92.0777 30.8398 79.945 37.5599C79.6234 37.7381 79.3037 37.918 78.9823 38.1026L78.982 38.1037ZM78.9219 38.0443C84.9561 34.5827 91.3391 32.0504 96.8926 30.8936C102.493 29.7251 106.653 30.0763 108.542 31.9192C110.431 33.7627 109.804 36.8623 106.84 40.6067C103.906 44.3175 98.9837 48.2693 92.9527 51.729C92.6305 51.9141 92.3059 52.0967 91.9819 52.2762C86.2346 55.4595 80.2321 57.7877 74.9737 58.8814C69.3785 60.0472 65.2214 59.6953 63.3337 57.8536C61.4448 56.0107 62.0703 52.9142 65.031 49.1715C67.9652 45.4597 72.8885 41.5053 78.9236 38.0433L78.9219 38.0443Z" fill="#87ABC1"/>
<path d="M79.0928 38.2362C73.1749 41.6314 68.3453 45.5055 65.4667 49.1383C62.5707 52.7892 61.9465 55.8055 63.7784 57.592C65.6102 59.3785 69.6661 59.7098 75.1315 58.5649C80.5692 57.4277 86.8226 54.9444 92.7413 51.5488C104.948 44.5462 111.818 35.8635 108.056 32.193C104.39 28.6175 91.9645 31.0982 80.0406 37.7027C79.724 37.8781 79.4091 38.0553 79.0934 38.2368L79.0928 38.2362ZM79.0327 38.1767C84.9628 34.7748 91.2339 32.2864 96.6873 31.1472C102.189 29.9971 106.279 30.3371 108.134 32.1469C109.989 33.9572 109.367 37.003 106.45 40.6815C103.565 44.3245 98.7287 48.2059 92.801 51.6066C92.4837 51.789 92.1648 51.9684 91.8448 52.1456C86.1963 55.2743 80.3 57.5617 75.1365 58.6388C69.6391 59.7872 65.5535 59.445 63.699 57.6369C61.8442 55.8272 62.4649 52.7844 65.3775 49.1082C68.2612 45.464 73.1001 41.5801 79.0319 38.1772L79.0327 38.1767Z" fill="#87ABC1"/>
<path d="M79.2034 38.3681C73.3881 41.7036 68.6449 45.508 65.8154 49.073C62.9675 52.6576 62.348 55.6211 64.1451 57.3738C65.9429 59.1272 69.9289 59.448 75.2957 58.3208C80.6325 57.2016 86.7733 54.7618 92.5888 51.4252C104.583 44.5454 111.337 36.0194 107.646 32.4189C104.051 28.9122 91.8486 31.3537 80.1353 37.8415C79.8235 38.0142 79.5136 38.1887 79.2028 38.3675L79.2034 38.3681ZM79.143 38.3097C84.9705 34.9675 91.1285 32.5219 96.4816 31.4013C101.886 30.2685 105.905 30.5991 107.726 32.3746C109.548 34.1518 108.93 37.1437 106.061 40.757C103.226 44.3316 98.4748 48.1433 92.6503 51.4848C92.3379 51.6645 92.0239 51.8413 91.7097 52.0153C86.1599 55.0892 80.3695 57.3368 75.3018 58.3959C69.9026 59.526 65.8873 59.1949 64.0678 57.4195C62.2476 55.6436 62.8629 52.654 65.7275 49.0441C68.5621 45.4678 73.3159 41.6537 79.1436 38.3104L79.143 38.3097Z" fill="#87ABC1"/>
<path d="M79.3142 38.5006C73.603 41.7766 68.9448 45.5112 66.1644 49.0082C63.3637 52.5269 62.7499 55.4362 64.5135 57.1564C66.2772 58.8766 70.1932 59.1879 75.4623 58.0769C80.6982 56.9758 86.7273 54.5789 92.4393 51.3025C104.219 44.545 110.858 36.176 107.24 32.6467C103.715 29.2088 91.7363 31.6107 80.232 37.9828C79.9251 38.1528 79.6201 38.3246 79.3142 38.5006ZM79.2538 38.4422C84.9781 35.159 91.0236 32.7569 96.2763 31.6549C101.582 30.5399 105.532 30.8599 107.319 32.6022C109.107 34.3458 108.493 37.2851 105.672 40.8313C102.886 44.3381 98.2198 48.0799 92.5003 51.3615C92.1921 51.5378 91.8844 51.7121 91.5751 51.8834C86.1249 54.9022 80.4399 57.1094 75.467 58.1519C70.1664 59.2642 66.2218 58.9432 64.4362 57.2021C62.6493 55.4597 63.2605 52.5235 66.0764 48.9794C68.862 45.4709 73.5302 41.726 79.2553 38.4424L79.2538 38.4422Z" fill="#87ABC1"/>
<path d="M79.4252 38.6332C73.8173 41.85 69.2445 45.5138 66.5145 48.9431C63.7618 52.3955 63.1527 55.252 64.8822 56.939C66.6118 58.626 70.458 58.9268 75.6298 57.8338C80.7656 56.7503 86.6821 54.3978 92.2894 51.1803C103.855 44.5461 110.379 36.3333 106.833 32.874C103.378 29.5042 91.6236 31.8682 80.329 38.1241C80.027 38.2913 79.7269 38.4604 79.4261 38.6327L79.4252 38.6332ZM79.3649 38.5748C84.9859 35.3507 90.9195 32.9925 96.0713 31.9086C101.279 30.8109 105.158 31.1208 106.911 32.83C108.665 34.5404 108.056 37.4263 105.283 40.9068C102.546 44.3457 97.9658 48.0173 92.3495 51.2397C92.0471 51.4129 91.7428 51.5843 91.4392 51.7524C86.0878 54.7165 80.5087 56.884 75.6309 57.9089C70.429 59.0035 66.555 58.6925 64.8035 56.9845C63.0507 55.2754 63.6564 52.3923 66.4249 48.9151C69.1614 45.4746 73.7437 41.8 79.3649 38.5748Z" fill="#87ABC1"/>
<path d="M79.5349 38.7656C74.0311 41.9229 69.5432 45.5168 66.8624 48.8783C64.1577 52.2643 63.5532 55.0681 65.2487 56.7219C66.9442 58.3758 70.7205 58.666 75.7945 57.5903C80.8293 56.5248 86.6333 54.2157 92.138 51.0579C103.49 44.5459 109.898 36.4908 106.424 33.1015C103.04 29.8005 91.5088 32.1249 80.4232 38.2651C80.1261 38.4296 79.8308 38.596 79.5349 38.7656ZM79.476 38.7073C84.9929 35.5428 90.814 33.228 95.8664 32.1623C100.976 31.0818 104.785 31.3817 106.503 33.0571C108.223 34.7343 107.619 37.567 104.893 40.981C102.206 44.3516 97.7111 47.954 92.1975 51.1167C91.9 51.2872 91.6014 51.4554 91.3019 51.6213C86.0492 54.5307 80.577 56.658 75.7941 57.6652C70.6901 58.7425 66.8868 58.4416 65.1701 56.7664C63.4521 55.091 64.0523 52.2611 66.7728 48.8503C69.4588 45.4774 73.9569 41.8722 79.4746 38.7072L79.476 38.7073Z" fill="#87ABC1"/>
<path d="M79.646 38.8981C74.2454 41.9964 69.8434 45.52 67.2116 48.8136C64.5542 52.1337 63.9551 54.8843 65.6159 56.5044C67.2773 58.1251 70.9836 58.4059 75.9597 57.3474C80.8942 56.3006 86.5851 54.0343 91.9865 50.9356C103.125 44.5458 109.418 36.648 106.017 33.3293C102.703 30.0971 91.3946 32.3822 80.5195 38.4058C80.2273 38.5676 79.9378 38.7308 79.646 38.8981ZM79.5865 38.8393C85.0001 35.7338 90.7093 33.463 95.661 32.4143C100.672 31.3516 104.411 31.6409 106.095 33.2832C107.78 34.9266 107.182 37.7061 104.504 41.0544C101.867 44.3577 97.4575 47.8892 92.0479 50.9925C91.7553 51.1602 91.4616 51.3257 91.1678 51.4884C86.0139 54.3431 80.647 56.43 75.9598 57.4203C70.9544 58.4798 67.2217 58.189 65.539 56.548C63.855 54.9057 64.4504 52.1297 67.1228 48.7852C69.7598 45.4802 74.172 41.9452 79.5865 38.8393Z" fill="#87ABC1"/>
<path d="M79.7566 39.0306C74.46 42.0693 70.1431 45.5231 67.5604 48.7488C64.951 52.0026 64.3568 54.6994 65.9841 56.2869C67.6114 57.8745 71.2479 58.1447 76.1261 57.1035C80.9597 56.0748 86.5387 53.8524 91.8361 50.8133C102.761 44.5464 108.939 36.8056 105.609 33.5569C102.365 30.3934 91.2799 32.6394 80.6146 38.5468C80.3273 38.7059 80.0427 38.8664 79.7558 39.031L79.7566 39.0306ZM79.6962 38.9722C85.0066 35.9258 90.6034 33.6983 95.4547 32.6683C100.368 31.6229 104.036 31.9021 105.686 33.5112C107.337 35.1215 106.743 37.8477 104.113 41.1296C101.525 44.365 97.2007 47.8267 91.8952 50.8704C91.6075 51.0355 91.3196 51.1978 91.0307 51.3578C85.9755 54.1578 80.7153 56.2045 76.1237 57.1777C71.2171 58.2195 67.555 57.9388 65.9064 56.3309C64.2565 54.7219 64.847 51.9996 67.4708 48.7209C70.0587 45.4837 74.3858 42.0186 79.6971 38.9717L79.6962 38.9722Z" fill="#87ABC1"/>
<path d="M79.8674 39.1625C74.6735 42.1416 70.4422 45.5262 67.9088 48.683C65.3466 51.8708 64.7579 54.5144 66.3511 56.0688C67.9443 57.6232 71.511 57.8829 76.2913 56.859C81.0248 55.8479 86.4914 53.6689 91.6846 50.6892C102.395 44.545 108.458 36.9611 105.2 33.7824C102.027 30.6871 91.1665 32.8946 80.7101 38.6863C80.4277 38.8427 80.148 39.0005 79.8668 39.1619L79.8674 39.1625ZM79.8077 39.1048C85.014 36.1179 90.4997 33.934 95.25 32.922C100.065 31.8944 103.663 32.163 105.279 33.739C106.896 35.3161 106.307 37.9891 103.725 41.2046C101.187 44.3718 96.9478 47.7636 91.7456 50.7482C91.4636 50.9101 91.1797 51.0702 90.8957 51.2275C85.9401 53.9723 80.7845 55.9791 76.2885 56.9353C71.4805 57.9593 67.8883 57.6892 66.2738 56.1145C64.658 54.5386 65.2436 51.8701 67.8194 48.6577C70.3582 45.4885 74.5997 42.0925 79.8068 39.1052L79.8077 39.1048Z" fill="#87ABC1"/>
<path d="M79.9782 39.295C74.8884 42.2145 70.7422 45.5293 68.2578 48.6182C65.7437 51.7397 65.1597 54.3306 66.7187 55.8518C68.2778 57.373 71.7745 57.6233 76.457 56.6167C81.0895 55.6236 86.4436 53.488 91.5342 50.5681C102.031 44.5467 107.979 37.1194 104.793 34.0117C101.69 30.9852 91.0525 33.1536 80.8067 38.8286C80.5292 38.9823 80.2543 39.1374 79.978 39.2961L79.9782 39.295ZM79.9185 39.2373C85.0222 36.3101 90.3948 34.169 95.0448 33.1756C99.7615 32.1653 103.29 32.4245 104.871 33.9666C106.454 35.5106 105.87 38.1298 103.336 41.2795C100.846 44.3787 96.6929 47.7003 91.5947 50.6254C91.3176 50.7845 91.0395 50.9414 90.7604 51.096C85.9035 53.7862 80.8547 55.7527 76.4538 56.6913C71.7436 57.6981 68.2223 57.4369 66.643 55.8966C65.0619 54.3545 65.6415 51.7386 68.1698 48.5932C70.6582 45.4916 74.8152 42.1661 79.9191 39.2379L79.9185 39.2373Z" fill="#87ABC1"/>
<path d="M80.0885 39.428C75.102 42.2884 71.0416 45.5329 68.6071 48.5536C66.1402 51.6091 65.561 54.1463 67.0874 55.6345C68.6124 57.1225 72.0393 57.3622 76.6239 56.3729C81.1555 55.3979 86.3977 53.3062 91.3845 50.4448C101.668 44.5457 107.5 37.2754 104.386 34.2379C101.355 31.2802 90.9402 33.4089 80.9033 38.9682C80.6307 39.1192 80.3607 39.2716 80.0887 39.427L80.0885 39.428ZM80.0296 39.3698C85.03 36.5017 90.2893 34.4044 94.8399 33.4293C99.4586 32.4363 102.916 32.6854 104.463 34.1944C106.012 35.7052 105.433 38.2716 102.946 41.3543C100.506 44.3857 96.4381 47.6381 91.4434 50.503C91.1711 50.6595 90.8979 50.8136 90.6245 50.9651C85.8664 53.6005 80.9235 55.5273 76.6176 56.4483C72.0062 57.4373 68.5555 57.1862 67.0103 55.6791C65.4633 54.1701 66.0388 51.6076 68.5183 48.5289C70.9576 45.4953 75.029 42.239 80.0302 39.3704L80.0296 39.3698Z" fill="#87ABC1"/>
<path d="M80.1988 39.5599C75.3163 42.3608 71.3404 45.5348 68.9556 48.4882C66.5368 51.4774 65.9622 53.9618 67.4539 55.4162C68.9457 56.8706 72.3018 57.1003 76.7892 56.1289C81.2207 55.1714 86.3496 53.1236 91.2329 50.3223C101.303 44.5461 107.02 37.4325 103.977 34.4654C101.015 31.5769 90.8251 33.6666 80.9979 39.1097C80.731 39.2576 80.4651 39.4077 80.1988 39.5599ZM80.1405 39.5023C85.0369 36.6937 90.1851 34.64 94.6356 33.6824C99.1556 32.7071 102.543 32.9457 104.056 34.4215C105.57 35.8986 104.997 38.4119 102.559 41.4288C100.167 44.3923 96.1855 47.5744 91.294 50.3803C91.0267 50.534 90.7586 50.6844 90.4901 50.8331C85.8307 53.4139 80.994 55.2998 76.7838 56.2038C72.271 57.1751 68.8901 56.9345 67.379 55.4605C65.8661 53.9847 66.4368 51.476 68.8682 48.4637C71.2584 45.4979 75.2448 42.3114 80.1419 39.5024L80.1405 39.5023Z" fill="#87ABC1"/>
<path d="M80.3097 39.6925C75.5305 42.4343 71.6404 45.5381 69.3047 48.4236C66.9339 51.3465 66.3648 53.7777 67.8216 55.1994C69.2792 56.6206 72.5648 56.8402 76.9551 55.8857C81.2863 54.9468 86.3029 52.9414 91.0821 50.1996C100.937 44.546 106.539 37.5897 103.57 34.6927C100.678 31.8724 90.7123 33.9231 81.0949 39.25C80.8329 39.3951 80.5728 39.5421 80.3105 39.6921L80.3097 39.6925ZM80.25 39.6347C85.0431 36.8853 90.0788 34.8749 94.4284 33.9354C98.8506 32.9774 102.168 33.2059 103.646 34.648C105.126 36.0918 104.557 38.5513 102.166 41.5024C99.8248 44.3975 95.928 47.5098 91.1398 50.2566C90.8776 50.4066 90.6142 50.5553 90.3506 50.7013C85.7908 53.2269 81.0592 55.0736 76.944 55.96C72.5299 56.9134 69.2196 56.683 67.7433 55.2428C66.2651 53.8007 66.8302 51.3452 69.213 48.3987C71.5536 45.5001 75.4541 42.3839 80.248 39.634L80.25 39.6347Z" fill="#87ABC1"/>
<path d="M80.4205 39.825C75.7453 42.5073 71.9403 45.5413 69.6536 48.3589C67.3306 51.2165 66.7665 53.5938 68.19 54.9819C69.6135 56.37 72.8298 56.5796 77.1208 55.6423C81.3512 54.7215 86.2559 52.76 90.9312 50.0767C100.573 44.546 106.06 37.7463 103.162 34.9198C100.34 32.1682 90.5972 34.1797 81.1896 39.3905C80.9325 39.5329 80.6772 39.6772 80.4199 39.8244L80.4205 39.825ZM80.3608 39.7673C85.0506 37.0769 89.9744 35.1105 94.2231 34.189C98.548 33.249 101.794 33.4668 103.238 34.8756C104.684 36.2864 104.121 38.6926 101.777 41.5778C99.4852 44.4057 95.6728 47.4476 90.9895 50.1343C90.7322 50.2816 90.4745 50.4272 90.2158 50.5705C85.7547 53.0414 81.13 54.8478 77.1097 55.7166C72.7935 56.6527 69.5547 56.4319 68.1116 55.0253C66.6675 53.6165 67.2278 51.2147 69.5626 48.3346C71.854 45.5039 75.6695 42.4575 80.3602 39.7666L80.3608 39.7673Z" fill="#87ABC1"/>
<path d="M80.5311 39.9569C75.9595 42.579 72.2393 45.5442 70.0025 48.2935C67.7275 51.0848 67.1674 53.4088 68.5574 54.7644C69.9469 56.1193 73.0925 56.3188 77.2871 55.3989C81.4165 54.4962 86.2087 52.5781 90.7806 49.9549C100.209 44.5464 105.58 37.9044 102.754 35.1475C100.004 32.4647 90.4846 34.4372 81.2859 39.5322C81.0337 39.6719 80.7833 39.8134 80.5317 39.9575L80.5311 39.9569ZM80.472 39.8998C85.0586 37.2685 89.87 35.3455 94.0183 34.4427C98.2445 33.5203 101.421 33.7276 102.831 35.1033C104.242 36.4809 103.683 38.8338 101.388 41.6521C99.1457 44.4122 95.4198 47.3844 90.8391 50.0115C90.5867 50.156 90.3339 50.2989 90.0809 50.439C85.7186 52.8552 81.1992 54.6213 77.2746 55.4731C73.0571 56.3915 69.8881 56.1812 68.4799 54.8073C67.0699 53.4316 67.6247 51.083 69.912 48.2698C72.1536 45.5075 75.884 42.5309 80.4714 39.8992L80.472 39.8998Z" fill="#87ABC1"/>
<path d="M80.6414 40.0899C76.173 42.6529 72.5387 45.5479 70.3517 48.2289C68.124 50.9542 67.5694 53.225 68.9247 54.5468C70.2806 55.8692 73.3559 56.0576 77.4526 55.155C81.4819 54.2698 86.1608 52.3956 90.6294 49.8315C99.8442 44.5459 105.1 38.0605 102.346 35.3746C99.6654 32.7599 90.3699 34.6939 81.3809 39.6728C81.1336 39.8097 80.8881 39.9485 80.6414 40.0899ZM80.5831 40.0323C85.0656 37.4606 89.7651 35.5815 93.8133 34.6963C97.9417 33.7913 101.048 33.9891 102.423 35.331C103.801 36.6754 103.246 38.9746 100.999 41.7276C98.8066 44.4193 95.1657 47.3217 90.6883 49.8897C90.4408 50.0316 90.1937 50.1713 89.9448 50.3091C85.6813 52.6706 81.2686 54.3965 77.4396 55.2312C73.3202 56.1313 70.2225 55.9317 68.849 54.5916C67.4731 53.249 68.023 50.9543 70.2623 48.2074C72.4548 45.513 76.0996 42.6056 80.5835 40.034L80.5831 40.0323Z" fill="#87ABC1"/>
<path d="M80.7524 40.2224C76.3881 42.7258 72.8388 45.551 70.7009 48.1641C68.5213 50.8231 67.9721 53.0407 69.2933 54.3293C70.6152 55.6186 73.6212 55.797 77.6186 54.9116C81.547 54.0445 86.1142 52.2131 90.4794 49.7092C99.4795 44.5463 104.621 38.2181 101.939 35.6018C99.3291 33.0559 90.2564 34.9506 81.478 39.8129C81.2356 39.9472 80.9944 40.0826 80.7532 40.2219L80.7524 40.2224ZM80.6941 40.1648C85.074 37.6527 89.6604 35.8164 93.6082 34.9499C97.638 34.0626 100.674 34.2499 102.015 35.5587C103.359 36.8699 102.81 39.1158 100.61 41.8024C98.466 44.4262 94.9102 47.2588 90.5377 49.7668C90.2959 49.9055 90.0528 50.0429 89.8096 50.1776C85.6457 52.484 81.3376 54.1699 77.6042 54.9877C73.5835 55.87 70.5564 55.6804 69.2162 54.374C67.875 53.0652 68.4195 50.8236 70.6101 48.1425C72.7529 45.5153 76.3132 42.6783 80.6925 40.1657L80.6941 40.1648Z" fill="#87ABC1"/>
<path d="M80.8626 40.3544C76.6015 42.7988 73.1375 45.553 71.0493 48.0989C68.9169 50.6919 68.3725 52.8558 69.6603 54.1119C70.948 55.3679 73.8834 55.5363 77.7844 54.6683C81.6124 53.8199 86.0672 52.0319 90.3277 49.5869C99.1146 44.5468 104.14 38.3747 101.53 35.8294C98.9904 33.3523 90.1414 35.2074 81.5719 39.9539C81.3344 40.0855 81.0981 40.2183 80.8612 40.3542L80.8626 40.3544ZM80.8041 40.2978C85.0807 37.8449 89.5552 36.0526 93.4024 35.203C97.3342 34.3331 100.3 34.5102 101.607 35.7858C102.917 37.0628 102.372 39.2565 100.221 41.8768C98.126 44.4328 94.6561 47.1951 90.3868 49.6441C90.1499 49.78 89.912 49.9137 89.6737 50.0457C85.6084 52.2973 81.4071 53.943 77.768 54.7436C73.8451 55.6086 70.8886 55.4292 69.584 54.156C68.276 52.8809 68.8165 50.6927 70.9598 48.0774C73.0536 45.5181 76.5275 42.7508 80.8049 40.2974L80.8041 40.2978Z" fill="#87ABC1"/>
<path d="M80.9736 40.4868C76.8166 42.8717 73.4377 45.5561 71.3979 48.0335C69.3135 50.5602 68.7739 52.6713 70.0275 53.8942C71.2812 55.1171 74.1467 55.275 77.9498 54.4243C81.677 53.5939 86.0192 51.8493 90.1771 49.464C98.7501 44.5461 103.66 38.5317 101.123 36.0566C98.6543 33.6482 90.0286 35.4648 81.6688 40.0952C81.4362 40.224 81.2049 40.354 80.9736 40.4868ZM80.9145 40.4297C85.0871 38.0362 89.4499 36.2869 93.1968 35.456C97.0307 34.6033 99.9257 34.7704 101.199 36.0129C102.474 37.2567 101.935 39.3972 99.8304 41.951C97.7857 44.4387 94.4008 47.1312 90.2348 49.521C90.0028 49.6542 89.7697 49.7852 89.5363 49.9145C85.5699 52.1114 81.4745 53.7174 77.9312 54.4999C74.107 55.3471 71.2212 55.1778 69.9498 53.9382C68.6759 52.6962 69.2115 50.5618 71.3068 48.013C73.3508 45.5219 76.7404 42.824 80.9137 40.4301L80.9145 40.4297Z" fill="#87ABC1"/>
<path d="M81.0844 40.6194C77.0306 42.9451 73.7376 45.5593 71.7469 47.9688C69.7097 50.4296 69.1755 52.4875 70.3951 53.6773C71.6146 54.867 74.411 55.0149 78.1162 54.1815C81.7432 53.3687 85.9722 51.668 90.0268 49.3417C98.3859 44.5461 103.181 38.6889 100.715 36.2843C98.3164 33.9441 89.9149 35.7216 81.7649 40.2358C81.5372 40.3619 81.3115 40.4888 81.0844 40.6194ZM81.0253 40.5622C85.0946 38.2278 89.3449 36.5219 92.9915 35.7096C96.7268 34.8747 99.5519 35.0313 100.79 36.2399C102.032 37.4506 101.497 39.5373 99.4399 42.0252C97.4442 44.445 94.1458 47.0679 90.0833 49.3975C89.8562 49.5281 89.6288 49.6559 89.4003 49.7824C85.5326 51.9247 81.5434 53.4898 78.0949 54.2558C74.3694 55.0853 71.5542 54.926 70.3169 53.7196C69.0778 52.5114 69.6073 50.4295 71.6552 47.9477C73.65 45.5245 76.9538 42.8968 81.0239 40.562L81.0253 40.5622Z" fill="#87ABC1"/>
<path d="M81.1939 40.7518C77.2436 43.0174 74.0362 45.5624 72.0946 47.904C70.1054 50.2984 69.5759 52.3037 70.7616 53.4592C71.947 54.6157 74.6727 54.7536 78.2801 53.9375C81.8062 53.1427 85.9233 51.4859 89.8746 49.2188C98.0197 44.5465 102.699 38.8459 100.306 36.5108C97.978 34.2394 89.7994 35.9778 81.8591 40.3758C81.6363 40.4992 81.4155 40.6233 81.1933 40.7512L81.1939 40.7518ZM81.1362 40.6948C85.1022 38.4195 89.2399 36.758 92.7863 35.9633C96.4238 35.1457 99.1783 35.2922 100.382 36.4677C101.59 37.6452 101.059 39.6786 99.0516 42.1003C97.1056 44.4528 93.8916 47.0052 89.9332 49.2754C89.7117 49.4027 89.4885 49.5283 89.2657 49.6517C85.4967 51.7392 81.6135 53.2646 78.2609 54.0125C74.634 54.8242 71.8887 54.6755 70.6869 53.5024C69.4818 52.3274 70.0065 50.2993 72.0057 47.8832C73.9509 45.5273 77.1696 42.9694 81.1364 40.6937L81.1362 40.6948Z" fill="#87ABC1"/>
<path d="M81.305 40.8843C77.458 43.0909 74.3356 45.566 72.4447 47.8389C70.5036 50.167 69.9789 52.1184 71.1303 53.2418C72.2816 54.3652 74.9375 54.4925 78.447 53.6937C81.8722 52.917 85.8776 51.3031 89.7241 49.096C97.6553 44.5459 102.22 39.0026 99.8988 36.7385C97.6411 34.5359 89.6866 36.2352 81.9553 40.5175C81.7382 40.6378 81.5215 40.7597 81.305 40.8843ZM81.2473 40.8273C85.1093 38.6116 89.1352 36.993 92.5814 36.217C96.1209 35.4167 98.8048 35.5531 99.9757 36.695C101.149 37.8393 100.624 39.8195 98.6628 42.1747C96.7659 44.4594 93.6378 46.9415 89.7826 49.1525C89.5661 49.2772 89.3485 49.3996 89.1306 49.5203C85.4613 51.5527 81.6834 53.0377 78.4255 53.769C74.8966 54.5634 72.2227 54.4243 71.0542 53.2849C69.8832 52.143 70.403 50.1687 72.3542 47.819C74.2503 45.5309 77.384 43.0429 81.2467 40.8267L81.2473 40.8273Z" fill="#87ABC1"/>
<path d="M81.416 41.0168C77.673 43.1638 74.6357 45.5691 72.7939 47.7741C70.9 50.0363 70.3808 51.9345 71.4981 53.0248C72.6153 54.115 75.202 54.2324 78.6136 53.4509C81.9387 52.6918 85.8308 51.1217 89.5746 48.9743C97.2926 44.5471 101.742 39.1604 99.4926 36.9663C97.3046 34.8329 89.5738 36.4926 82.0531 40.6583C81.8409 40.7758 81.6291 40.895 81.4174 41.0169L81.416 41.0168ZM81.3575 40.9602C85.1168 38.8042 89.0303 37.229 92.3755 36.471C95.8164 35.6885 98.431 35.8149 99.5673 36.9231C100.706 38.0336 100.186 39.9606 98.2729 42.2505C96.4259 44.4669 93.3828 46.8792 89.6323 49.0313C89.4201 49.1526 89.2081 49.2729 88.9951 49.3909C85.4244 51.3686 81.7525 52.8138 78.5905 53.5271C75.1602 54.3038 72.557 54.1748 71.4226 53.0685C70.2857 51.9597 70.8006 50.0393 72.7038 47.7559C74.55 45.5361 77.598 43.1173 81.3581 40.9608L81.3575 40.9602Z" fill="#87ABC1"/>
<path d="M81.5267 41.1487C77.887 43.2366 74.9355 45.5717 73.1427 47.7088C71.2969 49.9046 70.7823 51.7501 71.8663 52.8067C72.9495 53.8638 75.4655 53.9711 78.7793 53.2069C82.0041 52.4664 85.7837 50.9398 89.4236 48.8508C96.9269 44.5463 101.261 39.3169 99.084 37.1928C96.966 35.1275 89.4594 36.7482 82.1476 40.7981C81.9403 40.913 81.7334 41.0294 81.5261 41.1481L81.5267 41.1487ZM81.4688 41.0927C85.1248 38.9958 88.9258 37.4639 92.1709 36.7236C95.5139 35.9583 98.0579 36.0747 99.1601 37.1497C100.265 38.2271 99.7495 40.1013 97.8846 42.3238C96.0866 44.4723 93.1286 46.8148 89.4821 48.9074C89.2748 49.026 89.0671 49.1429 88.8598 49.2578C85.3879 51.1808 81.8227 52.5858 78.7556 53.2825C75.424 54.0414 72.8905 53.923 71.7908 52.8504C70.6887 51.7755 71.1981 49.9082 73.0532 47.6911C74.8504 45.5393 77.8133 43.1903 81.4702 41.0929L81.4688 41.0927Z" fill="#87ABC1"/>
<path d="M81.6374 41.2813C78.1018 43.3097 75.2348 45.5743 73.4917 47.6442C71.693 49.7741 71.1834 51.5658 72.2333 52.5893C73.2832 53.6127 75.7286 53.7099 78.945 52.9636C82.0689 52.2412 85.736 50.758 89.2725 48.7292C96.5625 44.5475 100.781 39.4741 98.6767 37.4212C96.6294 35.4247 89.3461 37.0068 82.2441 40.9406C82.0417 41.0527 81.8397 41.1665 81.638 41.2819L81.6374 41.2813ZM81.5795 41.2254C85.1315 39.188 88.8214 37.6996 91.9656 36.9773C95.2099 36.2298 97.6841 36.3357 98.7522 37.3775C99.8226 38.4217 99.3124 40.2422 97.4953 42.3994C95.7464 44.48 92.8748 46.7528 89.331 48.7857C89.1294 48.9012 88.9266 49.0154 88.7242 49.1275C85.3511 50.9958 81.8912 52.3605 78.9205 53.0397C75.6876 53.7809 73.2248 53.6725 72.1592 52.6331C71.0911 51.5913 71.5951 49.7773 73.4022 47.6265C75.1497 45.542 78.0268 43.2632 81.5803 41.2249L81.5795 41.2254Z" fill="#87ABC1"/>
<path d="M81.7477 41.4142C78.3153 43.3835 75.5341 45.5779 73.8401 47.5799C72.0895 49.6434 71.5853 51.382 72.6003 52.3727C73.6161 53.363 75.9914 53.4507 79.1103 52.7207C82.1332 52.0163 85.6887 50.576 89.1211 48.6067C96.1973 44.5473 100.3 39.6316 98.2676 37.6487C96.2909 35.721 89.2305 37.2639 82.3382 41.0815C82.1407 41.1909 81.9444 41.3015 81.7469 41.4147L81.7477 41.4142ZM81.69 41.3572C85.1387 39.3789 88.7153 37.9344 91.76 37.2303C94.9071 36.5007 97.31 36.5959 98.344 37.6045C99.3803 38.6156 98.8749 40.3822 97.105 42.4735C95.406 44.4858 92.6195 46.6888 89.179 48.6626C88.9823 48.7754 88.7843 48.8869 88.5868 48.9963C85.3133 50.8095 81.9594 52.1343 79.0829 52.7964C75.9479 53.5203 73.5565 53.4215 72.525 52.4154C71.491 51.4067 71.9901 49.6464 73.7492 47.5621C75.4476 45.5454 78.2396 43.3365 81.6892 41.3577L81.69 41.3572Z" fill="#87ABC1"/>
<path d="M81.858 41.5461C78.5291 43.4552 75.8336 45.5804 74.1894 47.5141C72.486 49.5117 71.9873 51.1971 72.969 52.1542C73.9507 53.1113 76.2563 53.1885 79.2764 52.4762C82.1993 51.7894 85.642 50.3936 88.9706 48.4828C95.8335 44.5461 99.8211 39.7871 97.8603 37.8742C95.9536 36.0146 89.1174 37.5186 82.4349 41.22C82.2422 41.3266 82.0508 41.4345 81.8582 41.545L81.858 41.5461ZM81.8009 41.4897C85.1464 39.5705 88.6105 38.1694 91.5549 37.4839C94.6041 36.7716 96.9364 36.8567 97.9356 37.8315C98.9379 38.8095 98.438 40.5229 96.7161 42.5479C95.0662 44.4923 92.3647 46.6255 89.0291 48.5393C88.8372 48.6493 88.645 48.7577 88.4524 48.8644C85.2776 50.6228 82.0297 51.908 79.249 52.552C76.2127 53.2581 73.8912 53.1699 72.8943 52.1975C71.8951 51.2226 72.3887 49.5155 74.0997 47.4975C75.7483 45.5491 78.4561 43.4096 81.8015 41.4903L81.8009 41.4897Z" fill="#87ABC1"/>
<path d="M81.9689 41.6787C78.7441 43.5283 76.1336 45.5836 74.5379 47.4488C72.8826 49.3801 72.3885 51.0127 73.3361 51.9367C74.2837 52.8606 76.5195 52.9273 79.4424 52.2329C82.2643 51.5642 85.5946 50.2117 88.8196 48.361C95.4679 44.5471 99.3407 39.9453 97.4524 38.103C95.6163 36.3122 89.0029 37.777 82.5301 41.3622C82.3424 41.4662 82.1559 41.5713 81.9681 41.6791L81.9689 41.6787ZM81.911 41.6227C85.1532 39.7626 88.5055 38.4055 91.3489 37.738C94.2995 37.0435 96.5619 37.1181 97.5271 38.0597C98.4953 39.0045 97.9994 40.6646 96.3256 42.6232C94.7253 44.5004 92.1091 46.5627 88.8767 48.4174C88.6898 48.5247 88.5025 48.6304 88.3156 48.7339C85.2395 50.4377 82.0978 51.682 79.4119 52.3094C76.4742 52.9978 74.2234 52.9196 73.2606 51.9804C72.2955 51.0387 72.785 49.385 74.4472 47.4337C76.0461 45.5526 78.668 43.4833 81.911 41.6227Z" fill="#87ABC1"/>
<path d="M82.0799 41.8111C78.9583 43.6017 76.4329 45.5872 74.887 47.384C73.2798 49.249 72.7897 50.8283 73.7039 51.7197C74.6174 52.6105 76.7831 52.6677 79.6083 51.9895C82.3293 51.3388 85.5471 50.0297 88.6689 48.2381C95.1039 44.5471 98.8614 40.1019 97.0449 38.3296C95.2794 36.6076 88.8902 38.0333 82.6263 41.5028C82.4435 41.6041 82.2619 41.7065 82.0799 41.8111ZM82.022 41.7552C85.1601 39.9546 88.4007 38.6404 91.1446 37.9912C93.9973 37.314 96.1891 37.3784 97.1202 38.2869C98.0537 39.1979 97.5638 40.8054 95.9375 42.6971C94.3863 44.5064 91.8559 46.4984 88.7268 48.2941C88.5456 48.3982 88.3631 48.5012 88.1811 48.602C85.2039 50.251 82.1681 51.4556 79.5781 52.0649C76.7385 52.735 74.5582 52.6669 73.6294 51.7619C72.6983 50.8533 73.183 49.2534 74.7971 47.3685C76.3469 45.5553 78.8838 43.5558 82.0228 41.7548L82.022 41.7552Z" fill="#87ABC1"/>
<path d="M82.1903 41.9431C79.1727 43.6741 76.7324 45.5898 75.2356 47.3188C73.6756 49.1179 73.1918 50.6435 74.0704 51.5015C74.9499 52.3592 77.0457 52.4058 79.7737 51.7456C82.3944 51.1136 85.4999 49.8468 88.5182 48.1153C94.7394 44.5465 98.3813 40.259 96.6366 38.5567C94.9417 36.9035 88.7753 38.29 82.722 41.6429C82.5441 41.7414 82.3674 41.8412 82.1903 41.9431ZM82.133 41.8878C85.1684 40.1469 88.2965 38.876 90.939 38.2443C93.6937 37.5843 95.8147 37.6398 96.7119 38.5141C97.6113 39.3919 97.1264 40.9456 95.5478 42.772C94.0465 44.5129 91.6018 46.4358 88.5761 48.1713C88.3998 48.2727 88.2223 48.3729 88.0452 48.471C85.1675 50.065 82.237 51.2291 79.7418 51.8219C77.0001 52.4746 74.8905 52.4167 73.9972 51.545C73.1002 50.6696 73.5794 49.1228 75.1455 47.3043C76.6462 45.5589 79.0975 43.6287 82.133 41.8878Z" fill="#87ABC1"/>
<path d="M82.3007 42.0761C79.3864 43.748 77.0313 45.5928 75.5843 47.2545C74.0722 48.9872 73.5932 50.4601 74.4385 51.2846C75.2838 52.1091 77.3099 52.1452 79.9391 51.5027C82.4597 50.8883 85.4525 49.6659 88.3662 47.9934C94.3741 44.5474 97.9007 40.4166 96.2284 38.7849C94.6036 37.1998 88.6614 38.5473 82.817 41.7844C82.6439 41.8803 82.4721 41.9773 82.2993 42.0759L82.3007 42.0761ZM82.2442 42.0203C85.1764 40.3384 88.1912 39.1115 90.7342 38.4979C93.3903 37.8557 95.4414 37.9006 96.3045 38.7418C97.1698 39.5864 96.6889 41.0868 95.1584 42.8468C93.7062 44.5199 91.3465 46.3729 88.4249 48.0489C88.2535 48.1476 88.0811 48.244 87.9089 48.3394C85.1299 49.8787 82.3054 51.003 79.9061 51.5778C77.263 52.2128 75.2241 52.1649 74.3648 51.3263C73.5026 50.4847 73.9763 48.9912 75.4944 47.239C76.9452 45.5619 79.3114 43.7015 82.2444 42.0192L82.2442 42.0203Z" fill="#87ABC1"/>
<path d="M82.4114 42.2086C79.6012 43.821 77.3312 45.596 75.9332 47.1898C74.4684 48.8567 73.9942 50.2757 74.806 51.0677C75.6172 51.859 77.5726 51.885 80.1049 51.2594C82.5245 50.663 85.4048 49.484 88.2158 47.8712C94.0091 44.5479 97.4203 40.5737 95.8205 39.0126C94.2662 37.4963 88.5474 38.8052 82.9128 41.9262C82.7446 42.0193 82.5777 42.1137 82.4106 42.2091L82.4114 42.2086ZM82.3543 42.1522C85.1825 40.5299 88.0862 39.3465 90.5282 38.751C93.0865 38.1261 95.067 38.1609 95.896 38.9689C96.728 39.7799 96.2517 41.2276 94.7693 42.9212C93.3661 44.5264 91.0923 46.3092 88.274 47.9261C88.1068 48.0215 87.9399 48.1158 87.7734 48.208C85.0932 49.6926 82.3755 50.7767 80.071 51.3349C77.5266 51.9521 75.5583 51.9143 74.7323 51.1094C73.9042 50.301 74.373 48.8612 75.843 47.1754C77.2442 45.5656 79.526 43.7756 82.3543 42.1522Z" fill="#87ABC1"/>
<path d="M82.5218 42.3406C79.8148 43.8939 77.6306 45.5986 76.2825 47.1241C74.8658 48.7246 74.3962 50.0909 75.1739 50.8497C75.9517 51.6085 77.8373 51.6239 80.2716 51.0156C82.5904 50.4373 85.3582 49.3017 88.066 47.7479C93.6453 44.5469 96.9418 40.7299 95.4138 39.2388C93.9302 37.7913 88.435 39.0606 83.0093 42.0658C82.8468 42.1558 82.6848 42.2474 82.5218 42.3406ZM82.4645 42.2853C85.1894 40.722 87.9806 39.582 90.3223 39.0051C92.7818 38.398 94.6926 38.4223 95.4874 39.1971C96.2854 39.9749 95.814 41.3688 94.3788 42.9965C93.0255 44.5334 90.8367 46.2464 88.1224 47.8037C87.961 47.896 87.799 47.9876 87.6366 48.0775C85.0551 49.5074 82.4428 50.5512 80.2339 51.0924C77.7882 51.6918 75.8897 51.6646 75.0993 50.8929C74.3044 50.1181 74.7692 48.7317 76.1912 47.1123C77.5433 45.5703 79.7386 43.85 82.4643 42.2863L82.4645 42.2853Z" fill="#87ABC1"/>
<path d="M82.6329 42.473C80.0294 43.9661 77.9309 45.6017 76.6318 47.0593C75.2623 48.5939 74.7982 49.907 75.5421 50.6316C76.2857 51.3572 78.1014 51.3621 80.4371 50.7716C82.6558 50.2108 85.3109 49.1196 87.9154 47.625C93.2815 44.5468 96.4626 40.8865 95.0071 39.466C93.594 38.0872 88.3216 39.3174 83.1065 42.206C82.949 42.2932 82.7918 42.3821 82.6337 42.4726L82.6329 42.473ZM82.5756 42.4177C85.1972 40.9135 87.876 39.8169 90.1173 39.2587C92.479 38.6688 94.3191 38.683 95.0793 39.4241C95.8425 40.1682 95.3764 41.5099 93.9892 43.0713C92.685 44.5403 90.5813 46.1834 87.9711 47.6812C87.8146 47.7708 87.6574 47.8597 87.5007 47.9465C85.018 49.3216 82.5125 50.3252 80.3986 50.8488C78.0507 51.4309 76.2237 51.4133 75.4665 50.6753C74.7064 49.9342 75.1657 48.601 76.539 47.0473C77.8421 45.5732 79.9523 43.9227 82.5748 42.4181L82.5756 42.4177Z" fill="#87ABC1"/>
<path d="M82.7438 42.6056C80.2436 44.0396 78.2309 45.6049 76.9809 46.9947C75.6594 48.4629 75.2008 49.7229 75.9098 50.4147C76.6193 51.1071 78.3644 51.102 80.6031 50.5283C82.7214 49.9862 85.2642 48.9373 87.7639 47.5027C92.9161 44.5467 95.9817 41.0441 94.5979 39.6936C93.2541 38.3834 88.2065 39.5752 83.2011 42.3476C83.0485 42.4321 82.8962 42.5183 82.7438 42.6056ZM82.6865 42.5503C85.2041 41.1057 87.7718 40.0525 89.913 39.5119C92.1768 38.9394 93.9463 38.9435 94.6724 39.6514C95.4015 40.3623 94.9402 41.6502 93.6011 43.1453C92.3465 44.5471 90.3287 46.1199 87.8212 47.558C87.6695 47.6448 87.5181 47.7306 87.3663 47.8147C84.9832 49.1346 82.5828 50.0989 80.5639 50.6049C78.3148 51.1693 76.5583 51.1617 75.8353 50.4569C75.1092 49.749 75.5631 48.469 76.889 46.9822C78.1429 45.576 80.1675 43.9947 82.6865 42.5503Z" fill="#87ABC1"/>
<path d="M83.2966 42.4887C83.1489 42.5705 83.001 42.6534 82.854 42.7386C77.915 45.5717 74.9648 48.9177 76.2768 50.1982C77.5889 51.4776 82.6736 50.2161 87.613 47.3809C92.5512 44.5482 95.5022 41.2018 94.1903 39.9213C92.9171 38.6799 88.0931 39.832 83.2966 42.4887ZM87.2304 47.6837C82.3915 50.3639 77.5074 51.5114 76.2031 50.2399C74.8601 48.9293 77.8175 45.5396 82.7976 42.6828C87.7751 39.8274 92.9209 38.5689 94.2647 39.8791C95.6078 41.1897 92.6503 44.5794 87.6703 47.4362C87.5236 47.5203 87.3771 47.6033 87.231 47.6843L87.2304 47.6837Z" fill="#87ABC1"/>
<path d="M86.4415 46.7568C81.5675 49.4565 76.4348 50.4219 74.8739 48.8988C73.2734 47.3371 76.0225 43.742 81.0041 40.8843C85.988 38.0263 91.3402 36.9725 92.9421 38.5344C93.7228 39.2962 93.5093 40.551 92.3429 42.0686C91.1835 43.5767 89.2188 45.1674 86.8118 46.5489C86.6896 46.6194 86.5653 46.6892 86.4421 46.7575L86.4415 46.7568ZM81.4368 40.7355C81.3128 40.8042 81.1893 40.8735 81.0655 40.945C76.1289 43.7767 73.3871 47.3243 74.9535 48.8529C76.5206 50.3809 81.8121 49.3181 86.7482 46.4885C89.1452 45.1135 91.1005 43.5299 92.2538 42.0309C93.3986 40.5413 93.615 39.3162 92.8602 38.5806C91.332 37.0906 86.2643 38.0616 81.436 40.736L81.4368 40.7355Z" fill="#87ABC1" stroke="#87ABC1" stroke-width="0.3"/>
<path d="M87.2685 47.6624C82.428 50.3435 77.5441 51.4938 76.2424 50.2237L74.2578 48.2918L74.3383 48.2454L76.3228 50.1772C77.6302 51.4518 82.7114 50.1856 87.6465 47.3536C92.5831 44.5219 95.5361 41.18 94.2296 39.905L92.2388 37.9898L92.3192 37.9434L94.3106 39.8592C95.6518 41.168 92.6909 44.5568 87.7093 47.4145C87.5626 47.4986 87.416 47.5816 87.2691 47.663L87.2685 47.6624Z" fill="#87ABC1" stroke="#87ABC1" stroke-width="0.3"/>
<path d="M84.46 44.2461C83.4578 44.8012 82.4127 45.2135 81.4971 45.4131C80.5116 45.6277 79.7898 45.5714 79.4638 45.2523C78.8011 44.6058 80.0431 43.0586 82.2327 41.8023C83.2869 41.1976 84.4019 40.7475 85.3716 40.5359C86.357 40.3213 87.0788 40.3777 87.4048 40.6968C88.0675 41.3432 86.8255 42.8904 84.6359 44.1468C84.5769 44.1804 84.5188 44.2135 84.46 44.2461ZM82.4691 41.7641C82.4103 41.7966 82.3524 41.8287 82.294 41.8629C80.1495 43.0934 78.9153 44.5936 79.5434 45.2063C79.8422 45.4979 80.5264 45.5457 81.4679 45.3403C82.4253 45.1317 83.53 44.6864 84.5729 44.087C86.7175 42.8566 87.9516 41.3563 87.3236 40.7436C87.0248 40.4521 86.3406 40.4042 85.399 40.6097C84.4948 40.8068 83.4607 41.2148 82.4683 41.7645L82.4691 41.7641Z" fill="#87ABC1" stroke="#87ABC1" stroke-width="0.3"/>
<path d="M84.6284 44.411C83.6262 44.9661 82.5811 45.3784 81.6654 45.578C80.6799 45.7927 79.9576 45.7357 79.6322 45.4172C78.9694 44.7708 80.2114 43.2236 82.4011 41.9672C83.4575 41.3622 84.5703 40.9124 85.5399 40.7009C86.5254 40.4863 87.2478 40.5432 87.5732 40.8617C88.2359 41.5082 86.9939 43.0554 84.8043 44.3117C84.7453 44.3453 84.6871 44.3785 84.6284 44.411ZM82.6375 41.929C82.5787 41.9616 82.5208 41.9937 82.4624 42.0279C80.3179 43.2583 79.0837 44.7586 79.7118 45.3712C80.0105 45.6628 80.6948 45.7106 81.6363 45.5052C82.5937 45.2967 83.6975 44.8519 84.7413 44.2519C86.8858 43.0215 88.12 41.5213 87.492 40.9086C87.1932 40.617 86.5089 40.5692 85.5674 40.7746C84.6631 40.9717 83.6291 41.3798 82.6367 41.9295L82.6375 41.929Z" fill="#87ABC1" stroke="#87ABC1" stroke-width="0.3"/>
<path d="M57.4126 65.4237C56.394 65.9879 55.3714 66.1919 55.0581 65.8856L54.2151 65.0315L54.2967 64.9863L55.1391 65.8398C55.4167 66.11 56.4709 65.8715 57.4347 65.3159C58.3783 64.7743 58.9573 64.1006 58.7245 63.8132L57.8859 62.9623L57.9675 62.9171L58.8084 63.7715C59.074 64.0985 58.4961 64.8027 57.496 65.3766C57.4675 65.3924 57.4397 65.4078 57.412 65.4231L57.4126 65.4237Z" fill="#87ABC1" stroke="#87ABC1" stroke-width="0.3"/>
<path d="M56.5935 64.5935C55.575 65.1576 54.5524 65.3616 54.2391 65.0553C53.9171 64.7416 54.4834 64.0257 55.5286 63.4259C56.5732 62.8256 57.6454 62.6027 57.9665 62.9169C58.2877 63.2311 57.7222 63.9465 56.677 64.5463C56.6484 64.5621 56.6207 64.5775 56.5929 64.5929L56.5935 64.5935ZM55.6683 63.4432C55.6422 63.4577 55.6169 63.4717 55.5908 63.4862C54.6243 64.0404 54.0427 64.7382 54.3195 65.0089C54.5977 65.2797 55.6498 65.0405 56.6156 64.4856C57.5821 63.9314 58.1637 63.2335 57.8869 62.9629C57.6168 62.699 56.6128 62.9191 55.6685 63.4422L55.6683 63.4432Z" fill="#87ABC1" stroke="#87ABC1" stroke-width="0.3"/>
<path d="M56.1558 67.673C55.9264 67.8 55.5343 67.9529 55.2701 68.0178L54.0463 68.3172C53.7623 68.3864 53.3758 68.3024 53.1849 68.13L51.8242 66.8973C51.6359 66.7262 51.5605 66.4178 51.6566 66.2084L52.0492 65.3541C52.1435 65.1495 52.4141 64.8841 52.6534 64.762L56.3635 62.8755C56.5979 62.7561 57.0063 62.6018 57.2738 62.5312L58.4298 62.2259C58.6904 62.1573 59.0835 62.0029 59.3073 61.8818L60.8387 61.0545C61.0649 60.932 61.4358 60.7322 61.6633 60.611L78.9646 51.3355C79.2101 51.2043 79.5961 51.2177 79.8246 51.3655L80.2614 51.6497C80.3746 51.7233 80.4365 51.8215 80.4347 51.9257C80.4329 52.0298 80.368 52.1263 80.2514 52.1975L76.5903 54.4373C76.3737 54.5696 76.0327 54.7944 75.8315 54.9371L65.1155 62.5305C64.9118 62.6746 64.5627 62.8963 64.3383 63.0244L56.1719 67.665C56.1662 67.6682 56.1613 67.6709 56.1556 67.6741L56.1558 67.673ZM52.6837 64.8399C52.4699 64.9583 52.2289 65.1987 52.1459 65.3791L51.7533 66.2334C51.6688 66.4174 51.7371 66.6995 51.9034 66.8496L53.264 68.0823C53.4271 68.2305 53.7718 68.3055 54.0155 68.2453L55.2393 67.9459C55.5005 67.8817 55.8906 67.7281 56.1114 67.6039L64.2777 62.9633C64.5004 62.8372 64.8454 62.6177 65.0466 62.475L75.7626 54.8816C75.9663 54.7375 76.3089 54.5118 76.5265 54.378L80.1877 52.1382C80.2803 52.0812 80.3325 52.005 80.3333 51.9241C80.3349 51.8427 80.2863 51.7656 80.1949 51.7064L79.7581 51.4222C79.5632 51.2955 79.2335 51.2841 79.0245 51.396L61.7232 60.6715C61.4963 60.7933 61.1254 60.9931 60.8986 61.115L59.3672 61.9423C59.1377 62.0666 58.7314 62.2255 58.4638 62.296L57.3078 62.6013C57.0472 62.67 56.649 62.8205 56.421 62.9373L52.7108 64.8239C52.7019 64.8289 52.6929 64.8338 52.6831 64.8393L52.6837 64.8399Z" fill="#87ABC1" stroke="#87ABC1" stroke-width="0.3"/>
<path d="M68.0851 59.0374L64.3447 61.1091C64.1039 61.2425 63.7039 61.252 63.4521 61.1304L63.4401 61.1247C63.3122 61.0631 63.2392 60.9766 63.2349 60.8816C63.2305 60.7865 63.2962 60.6972 63.4178 60.6298L67.1581 58.5581C67.3989 58.4247 67.7989 58.4152 68.0508 58.5368L68.0627 58.5425C68.1907 58.6041 68.2636 58.6905 68.268 58.7856C68.2723 58.8806 68.2067 58.97 68.0851 59.0374ZM63.4783 60.6909C63.3836 60.7434 63.3325 60.8105 63.3363 60.8794C63.3392 60.9487 63.3954 61.0131 63.4942 61.0606L63.5062 61.0663C63.7216 61.1703 64.0777 61.1624 64.2834 61.0484L68.0237 58.9767C68.1184 58.9243 68.1695 58.8572 68.1657 58.7883C68.162 58.7194 68.1066 58.6545 68.0078 58.607L67.9958 58.6013C67.7804 58.4973 67.4243 58.5053 67.2187 58.6192L63.4783 60.6909Z" fill="#87ABC1" stroke="#87ABC1" stroke-width="0.3"/>
<path d="M74.7043 55.0141L70.1886 57.5153C69.9674 57.6378 69.604 57.6792 69.3786 57.6072C69.2685 57.5726 69.2017 57.514 69.1908 57.4443C69.1784 57.3642 69.241 57.2793 69.3642 57.2111L73.8799 54.7099C74.1011 54.5874 74.4645 54.546 74.69 54.618C74.8 54.6526 74.8669 54.7112 74.8777 54.7808C74.8901 54.861 74.8275 54.9459 74.7043 55.0141ZM69.4255 57.2717C69.3325 57.3233 69.2837 57.3825 69.292 57.4356C69.2982 57.4776 69.3441 57.5137 69.4185 57.5378C69.6105 57.5989 69.9355 57.5609 70.1281 57.4542L74.6438 54.953C74.7368 54.9015 74.7856 54.8423 74.7773 54.7892C74.7711 54.7472 74.7252 54.7111 74.6508 54.687C74.4589 54.6258 74.1339 54.6639 73.9413 54.7705L69.4255 57.2717Z" fill="#87ABC1" stroke="#87ABC1" stroke-width="0.3"/>
<path d="M79.5354 52.1037L78.1129 52.8917C77.9913 52.959 77.7948 52.9571 77.6759 52.8867L77.618 52.8525C77.5569 52.8164 77.5219 52.7657 77.5235 52.7137C77.5251 52.6617 77.5604 52.6119 77.6233 52.5771L79.0458 51.7891C79.1674 51.7218 79.3639 51.7237 79.4829 51.7941L79.5407 51.8283C79.6018 51.8644 79.6368 51.9151 79.6352 51.9671C79.6336 52.0191 79.5983 52.0689 79.5354 52.1037ZM77.6838 52.6382C77.6463 52.659 77.6249 52.6859 77.6251 52.7142C77.6245 52.743 77.6444 52.7707 77.6808 52.7922L77.7387 52.8264C77.8233 52.8761 77.9661 52.8774 78.0518 52.8299L79.4743 52.042C79.5119 52.0212 79.5332 51.9942 79.5338 51.9655C79.5344 51.9368 79.5145 51.909 79.4781 51.8875L79.4203 51.8534C79.3357 51.8037 79.1922 51.8017 79.1065 51.8492L77.684 52.6371L77.6838 52.6382Z" fill="#87ABC1" stroke="#87ABC1" stroke-width="0.3"/>
<path d="M56.3912 67.9108C56.1619 68.0378 55.7698 68.1906 55.5055 68.2556L54.2817 68.5549C53.9977 68.6242 53.6112 68.5402 53.4203 68.3677L52.0596 67.135C51.8713 66.9639 51.796 66.6555 51.892 66.4462L52.2846 65.5918C52.379 65.3872 52.6481 65.1217 52.8888 64.9998L56.599 63.1132C56.8333 62.9938 57.2417 62.8396 57.5092 62.769L58.6652 62.4637C58.9258 62.395 59.319 62.2407 59.5428 62.1196L61.0741 61.2922C61.3003 61.1697 61.6712 60.97 61.8987 60.8487L79.2001 51.5733C79.4455 51.4421 79.8315 51.4554 80.06 51.6033L80.4968 51.8875C80.6101 51.961 80.6719 52.0593 80.6701 52.1634C80.6683 52.2675 80.6034 52.3641 80.4869 52.4352L76.8257 54.6751C76.6091 54.8073 76.2681 55.0322 76.0669 55.1749L65.3509 62.7683C65.1464 62.9128 64.7973 63.1345 64.5737 63.2622L56.4073 67.9028C56.4016 67.9059 56.3967 67.9087 56.391 67.9118L56.3912 67.9108ZM52.9191 65.0776C52.7053 65.1961 52.4652 65.436 52.3821 65.6164L51.9895 66.4707C51.9051 66.6547 51.9733 66.9368 52.1396 67.0869L53.5003 68.3196C53.6634 68.4677 54.0081 68.5427 54.2517 68.4825L55.4756 68.1832C55.7368 68.119 56.128 67.9666 56.3476 67.8412L64.514 63.2006C64.7358 63.0749 65.0808 62.8554 65.2829 62.7123L75.9989 55.1189C76.2025 54.9748 76.5452 54.7491 76.7628 54.6153L80.4239 52.3755C80.5166 52.3185 80.5688 52.2423 80.5696 52.1614C80.5712 52.08 80.5226 52.0029 80.4312 51.9437L79.9944 51.6595C79.7994 51.5328 79.4697 51.5214 79.2608 51.6333L61.9594 60.9088C61.7326 61.0306 61.3617 61.2304 61.1348 61.3523L59.6035 62.1796C59.374 62.3039 58.9676 62.4627 58.7001 62.5333L57.544 62.8386C57.2834 62.9073 56.8853 63.0578 56.6572 63.1746L52.9471 65.0612C52.9381 65.0662 52.9291 65.0711 52.9193 65.0766L52.9191 65.0776Z" fill="#87ABC1" stroke="#87ABC1" stroke-width="0.3"/>
<path d="M68.3209 59.275L64.5805 61.3468C64.3398 61.4801 63.9398 61.4897 63.6879 61.368L63.676 61.3623C63.548 61.3007 63.4751 61.2143 63.4707 61.1193C63.4663 61.0242 63.532 60.9348 63.6536 60.8675L67.394 58.7957C67.6347 58.6624 68.0347 58.6528 68.2866 58.7745L68.2985 58.7802C68.4265 58.8418 68.4994 58.9282 68.5038 59.0233C68.5082 59.1183 68.4425 59.2077 68.3209 59.275ZM63.7141 60.9286C63.6194 60.981 63.5683 61.0481 63.5721 61.117C63.5759 61.1859 63.6313 61.2508 63.7301 61.2983L63.742 61.304C63.9575 61.408 64.3135 61.4 64.5192 61.2861L68.2596 59.2144C68.3542 59.1619 68.4053 59.0948 68.4016 59.0259C68.3986 58.9566 68.3424 58.8922 68.2436 58.8447L68.2317 58.839C68.0162 58.735 67.6608 58.7435 67.4551 58.8575L63.7147 60.9292L63.7141 60.9286Z" fill="#87ABC1" stroke="#87ABC1" stroke-width="0.3"/>
<path d="M74.9397 55.2519L70.4239 57.7531C70.2028 57.8756 69.8393 57.917 69.6139 57.845C69.5038 57.8104 69.437 57.7518 69.4261 57.6821C69.4137 57.602 69.4763 57.5171 69.5996 57.4489L74.1153 54.9477C74.3365 54.8252 74.6999 54.7838 74.9253 54.8558C75.0354 54.8904 75.1022 54.9489 75.1131 55.0186C75.1255 55.0988 75.0629 55.1837 74.9397 55.2519ZM69.6609 57.5095C69.5679 57.5611 69.519 57.6203 69.5274 57.6734C69.5336 57.7154 69.5794 57.7515 69.6538 57.7756C69.8458 57.8367 70.1708 57.7987 70.3634 57.692L74.8791 55.1908C74.9722 55.1393 75.021 55.0801 75.0126 55.027C75.0064 54.985 74.9606 54.9488 74.8862 54.9248C74.6942 54.8636 74.3692 54.9017 74.1766 55.0083L69.6609 57.5095Z" fill="#87ABC1" stroke="#87ABC1" stroke-width="0.3"/>
<path d="M79.7707 52.3415L78.3481 53.1294C78.2265 53.1968 78.0301 53.1949 77.9111 53.1245L77.8532 53.0903C77.7921 53.0541 77.7572 53.0035 77.7588 52.9515C77.7604 52.8995 77.7963 52.8503 77.8591 52.8155L79.2817 52.0275C79.4033 51.9602 79.5997 51.9621 79.7187 52.0325L79.7766 52.0667C79.8377 52.1028 79.8727 52.1535 79.871 52.2055C79.8694 52.2575 79.8341 52.3073 79.7713 52.3421L79.7707 52.3415ZM77.919 52.876C77.8815 52.8968 77.8602 52.9237 77.8604 52.952C77.8606 52.9803 77.8796 53.0085 77.9161 53.03L77.9739 53.0642C78.0585 53.1139 78.2013 53.1152 78.287 53.0677L79.7096 52.2798C79.7471 52.259 79.7684 52.232 79.7691 52.2033C79.7697 52.1746 79.7498 52.1468 79.7133 52.1253L79.6555 52.0911C79.5709 52.0415 79.4281 52.0401 79.3424 52.0876L77.9198 52.8755L77.919 52.876Z" fill="#87ABC1" stroke="#87ABC1" stroke-width="0.3"/>
<path d="M56.3182 64.2545C56.1043 64.3729 55.8814 64.4605 55.6854 64.5037C55.4621 64.5526 55.296 64.5367 55.2161 64.4599C55.0591 64.3064 55.3111 63.9776 55.8037 63.6953C56.0276 63.5666 56.266 63.4705 56.474 63.4253C56.6973 63.3764 56.8634 63.3923 56.9433 63.4691C57.1003 63.6226 56.8483 63.9514 56.3557 64.2337C56.3435 64.2405 56.3304 64.2477 56.3182 64.2545ZM55.9012 63.735C55.8889 63.7418 55.8767 63.7486 55.8644 63.7554C55.4037 64.02 55.1948 64.3146 55.2965 64.4134C55.3475 64.4637 55.4786 64.4697 55.6562 64.4309C55.852 64.3887 56.0793 64.2978 56.2936 64.1735C56.7543 63.9088 56.9632 63.6143 56.8621 63.516C56.8111 63.4657 56.68 63.4598 56.5024 63.4985C56.3171 63.5387 56.1058 63.6226 55.9018 63.7356L55.9012 63.735Z" fill="#87ABC1" stroke="#87ABC1" stroke-width="0.3"/>
<path d="M59.3883 70.4636L58.6925 70.6427L55.6429 67.5623C55.5365 67.5417 55.031 67.4318 54.9115 67.1554C54.8358 66.9807 54.9315 66.78 55.1941 66.5589C56.5938 65.5641 62.5126 62.0434 62.572 62.0077L62.6108 61.9843L63.9297 63.1787L61.3711 64.5958L63.3696 66.6146L64.5396 65.9353L65.1573 65.8355L65.7611 66.4454L59.3863 70.4628L59.3883 70.4636ZM58.7293 70.5522L59.3364 70.3958L65.6241 66.4334L65.1158 65.92L64.5844 66.0061L63.3504 66.7227L61.2295 64.5805L63.7832 63.1661L62.5962 62.0908C62.078 62.3996 56.6008 65.6643 55.2671 66.6121C55.0325 66.8092 54.9445 66.9858 55.0076 67.1325C55.1198 67.394 55.6773 67.4912 55.683 67.4918L55.7013 67.4949L58.7285 70.5527L58.7293 70.5522Z" fill="#87ABC1" stroke="#87ABC1" stroke-width="0.3"/>
<path d="M59.2833 70.4735L56.064 67.2269C55.9392 67.2846 55.5607 67.4422 55.2498 67.3911C55.1168 67.3692 55.0134 67.3119 54.942 67.2219C54.8335 67.0766 54.7352 66.6645 56.1709 65.9639L56.211 65.9445L56.2395 65.9733C56.3684 66.1034 56.5248 66.2449 56.5266 66.2467L56.5648 66.2814L56.5124 66.3038C56.0824 66.4899 55.43 66.8456 55.509 67.0071C55.513 67.0163 55.5201 67.0209 55.5341 67.0235C55.7398 67.0667 56.5773 66.6246 57.0573 66.336L57.0985 66.3113L60.4526 69.7464L60.371 69.7916L57.079 66.4205C56.8321 66.5667 55.8076 67.1607 55.5063 67.0976C55.4611 67.0876 55.4283 67.066 55.4129 67.0339C55.2912 66.7833 56.165 66.3703 56.4097 66.2613C56.3606 66.2156 56.2704 66.1321 56.1855 66.0476C54.826 66.7193 54.9564 67.0871 55.0292 67.1849C55.0862 67.2565 55.1653 67.3007 55.2708 67.3179C55.5972 67.3719 56.0426 67.1479 56.0467 67.1456L56.0871 67.1251L59.3639 70.4298L59.2822 70.475L59.2833 70.4735Z" fill="#87ABC1" stroke="#87ABC1" stroke-width="0.3"/>
<path d="M75.7145 73.986C75.6492 74.0222 75.5757 74.0412 75.4991 74.0391C75.3754 74.0367 75.2628 73.9817 75.1818 73.8846L74.5812 73.163C74.444 72.9977 74.1078 72.8584 73.8477 72.8586L58.0684 72.8819C57.7741 72.8821 57.3922 72.7388 57.2167 72.5615L56.6068 71.9454C56.4271 71.7639 56.4353 71.4736 56.6242 71.298L61.853 66.4524C62.0177 66.2996 62.1133 66.0082 62.0607 65.8159L61.7827 64.7936C61.724 64.5772 61.8439 64.2733 62.0503 64.1154L65.201 61.7136C65.4082 61.5552 65.8109 61.4694 66.0983 61.5222L68.3814 61.9392C68.6639 61.991 69.0342 62.1748 69.2066 62.349L71.9688 65.1391C72.1449 65.3169 72.1985 65.6289 72.0866 65.8337L71.0081 67.8269C70.9107 68.0068 70.9588 68.2915 71.1137 68.4479L71.1409 68.4754C71.2117 68.5469 71.3061 68.5874 71.4069 68.5884C71.5077 68.5893 71.6037 68.5523 71.6771 68.4822L71.9519 68.2212C72.1345 68.0481 72.5227 67.9221 72.8162 67.9403L74.3387 68.0357C74.6328 68.0545 74.9895 68.226 75.1344 68.4183L77.4595 71.5148C77.6054 71.7094 77.5853 72.0158 77.4146 72.1983L75.8265 73.8975C75.7925 73.9334 75.7547 73.9628 75.7139 73.9854L75.7145 73.986ZM65.347 61.7207C65.3201 61.7356 65.2952 61.7513 65.2729 61.7683L62.1222 64.1702C61.9391 64.3095 61.83 64.5885 61.8814 64.7796L62.1593 65.802C62.2183 66.0172 62.1154 66.3307 61.9318 66.5014L56.703 71.347C56.5437 71.4949 56.5361 71.749 56.6874 71.9018L57.2973 72.5178C57.4528 72.6749 57.8056 72.8079 58.0665 72.8072L73.8458 72.784C74.1414 72.7839 74.5093 72.936 74.666 73.1236L75.2666 73.8452C75.3289 73.9195 75.4113 73.9619 75.5003 73.9637C75.5892 73.9655 75.6747 73.9267 75.7412 73.8548L77.3294 72.1556C77.4777 71.9978 77.4954 71.7221 77.369 71.5536L75.0439 68.4571C74.9157 68.2867 74.5881 68.1294 74.3292 68.1129L72.8067 68.0174C72.5469 68.0014 72.1913 68.117 72.0302 68.2696L71.7554 68.5307C71.6615 68.6196 71.5372 68.6676 71.4039 68.6657C71.2706 68.6639 71.1484 68.6132 71.0583 68.5222L71.0311 68.4947C70.855 68.3168 70.8014 68.0049 70.9133 67.8L71.9917 65.8068C72.0892 65.627 72.0411 65.3423 71.8862 65.1858L69.124 62.3957C68.9661 62.2362 68.6144 62.061 68.3571 62.0142L66.074 61.5972C65.8518 61.5565 65.5415 61.612 65.3464 61.7201L65.347 61.7207Z" fill="#87ABC1" stroke="#87ABC1" stroke-width="0.3"/>
<path d="M73.0087 72.8304L72.9258 72.8744L68.1497 67.8867C67.9795 67.7084 67.8916 67.3899 67.953 67.1762L69.0377 63.4534C69.094 63.2613 69.0082 62.9653 68.8515 62.807L68.6845 62.6383C68.5266 62.4788 68.1738 62.3127 67.914 62.2749L66.0277 61.9996C65.7722 61.9623 65.4059 62.0506 65.2281 62.1926L62.5616 64.3216C62.3838 64.4636 62.2846 64.7438 62.3464 64.9338L62.641 65.8428C62.7105 66.0561 62.621 66.3715 62.4414 66.5449L57.3974 71.4329C57.2418 71.5834 57.2387 71.8407 57.39 71.9935L58.2098 72.8216L58.1282 72.8668L57.3083 72.0387C57.1292 71.8578 57.1322 71.5646 57.3164 71.3869L62.3604 66.4989C62.5205 66.344 62.6039 66.0517 62.5415 65.8611L62.2469 64.952C62.1769 64.7372 62.2849 64.4313 62.4868 64.2703L65.1533 62.1413C65.3553 61.9803 65.7559 61.8833 66.0453 61.9255L67.9316 62.2008C68.2168 62.2425 68.5908 62.4186 68.7645 62.594L68.9315 62.7627C69.1057 62.9387 69.1967 63.2565 69.1345 63.4707L68.0498 67.1935C67.9935 67.3856 68.076 67.6834 68.2295 67.8435L73.0056 72.8312L73.0087 72.8304Z" fill="#87ABC1" stroke="#87ABC1" stroke-width="0.3"/>
<path d="M73.5752 72.827L73.4936 72.8722L73.2025 72.5782C73.0386 72.4126 72.8468 72.1053 72.7734 71.8933L72.6648 71.5768C72.5949 71.3722 72.406 71.0652 72.2435 70.8922L69.0491 67.4945C68.8769 67.3117 68.7765 66.9831 68.8245 66.7634L69.662 62.9211L69.7627 62.9335L68.9252 66.7758C68.8818 66.9758 68.9765 67.2859 69.1325 67.4512L72.3269 70.8488C72.4955 71.028 72.6917 71.3461 72.7636 71.558L72.8723 71.8745C72.9421 72.079 73.1268 72.3741 73.2841 72.533L73.5752 72.827Z" fill="#87ABC1" stroke="#87ABC1" stroke-width="0.3"/>
<path d="M51.0418 73.7901C50.8492 73.8968 50.5938 73.972 50.3839 73.9756L48.6626 73.9997C48.3982 74.0033 48.0208 74.1262 47.8385 74.2688L46.2102 75.5369C46.0077 75.6936 45.6078 75.8309 45.3171 75.8423L43.2051 75.9248C43.0506 75.9309 42.9354 75.8963 42.8831 75.8268C42.83 75.7578 42.8489 75.666 42.9342 75.5695L44.0304 74.3359C44.1716 74.1772 44.1296 73.9459 43.9359 73.8204L42.7284 73.0385C42.5358 72.9143 42.1966 72.8997 41.9871 73.0072C41.9596 73.0215 39.2092 74.4313 36.6971 75.8227C35.6247 76.4167 34.7281 76.5386 34.2998 76.1493C33.8973 75.7837 34.0877 75.0915 34.7086 74.6681C35.9095 73.8477 37.8931 72.7471 37.9135 72.7358C38.138 72.6115 38.5034 72.4062 38.7252 72.2805L41.47 70.7234C41.6877 70.5999 41.9556 70.3484 42.0681 70.1621L44.1043 66.7877C44.2203 66.5947 44.454 66.2997 44.6241 66.1307C44.6421 66.1132 46.0113 64.752 47.3163 63.5721L46.5261 62.7663C46.3502 62.5874 46.3113 62.2787 46.4383 62.0777C46.447 62.0634 46.6648 61.727 47.1484 61.3806C49.126 59.9625 50.1847 60.3196 50.2287 60.336C50.464 60.4205 50.8544 60.4115 51.0825 60.3164L52.6724 59.6477C52.8024 59.5927 52.9509 59.5805 53.091 59.6136C53.2306 59.6461 53.343 59.7201 53.4081 59.8203L54.176 61.0019C54.2423 61.1033 54.2464 61.2108 54.1898 61.3056C54.1332 61.4003 54.0216 61.4688 53.8769 61.4988L53.4367 61.5902C53.1829 61.6428 52.8645 61.8343 52.7413 62.0085L49.748 66.2415C49.6258 66.4142 49.5948 66.6688 49.6798 66.7968C49.7771 66.9436 49.8077 67.2361 49.7468 67.4477L49.4987 68.3204C49.4445 68.5095 49.5669 68.7748 49.7651 68.8997L50.8611 69.5881C51.064 69.7152 51.4571 69.8097 51.7202 69.7946L54.7044 69.6217C54.8601 69.6131 54.9731 69.6442 55.0204 69.7098C55.069 69.7756 55.0436 69.8635 54.9503 69.9569L51.2377 73.6522C51.1871 73.702 51.1201 73.7505 51.0434 73.793L51.0418 73.7901ZM47.8872 74.1368C48.1035 74.017 48.4199 73.9269 48.6603 73.9234L50.3816 73.8993C50.6432 73.8954 50.9975 73.7607 51.1552 73.6033L54.8677 69.9079C54.9355 69.8411 54.9577 69.7805 54.9309 69.7433C54.9042 69.7061 54.8234 69.6883 54.7118 69.6943L51.7276 69.8672C51.4373 69.8841 51.0184 69.784 50.7957 69.6433L49.6997 68.9548C49.4723 68.812 49.3373 68.5187 49.3993 68.3017L49.6473 67.429C49.7026 67.2347 49.676 66.9589 49.5888 66.8274C49.4893 66.6771 49.5202 66.3969 49.6576 66.2025L52.651 61.9696C52.7873 61.7767 53.128 61.572 53.409 61.5138L53.8492 61.4223C53.9644 61.3982 54.0528 61.3446 54.0964 61.2712C54.1408 61.1974 54.1366 61.1127 54.0835 61.0323L53.3156 59.8507C53.2628 59.7693 53.1714 59.7101 53.059 59.6834C52.9466 59.6567 52.8263 59.6666 52.7215 59.7114L51.1316 60.38C50.8748 60.4882 50.45 60.4983 50.1843 60.4022C50.1742 60.3984 49.1385 60.0569 47.2185 61.4336C46.7493 61.7702 46.5324 62.1051 46.5295 62.1086C46.4185 62.2836 46.4538 62.5631 46.6073 62.7194L47.3824 63.5099C47.5018 63.4021 47.6209 63.2964 47.7373 63.1932L47.2376 62.6949C47.1475 62.6038 47.1163 62.5009 47.1504 62.4025C47.1844 62.3042 47.2793 62.2251 47.4176 62.1797C47.647 62.1038 48.8026 61.7381 49.0113 61.9566C49.116 62.0661 48.9743 62.2714 48.567 62.603C47.0921 63.8013 44.729 66.1512 44.7054 66.1746C44.5388 66.3407 44.3109 66.6288 44.1971 66.8177L42.1609 70.1921C42.0428 70.3881 41.7607 70.6532 41.5323 70.7825L38.7876 72.3397C38.5649 72.4658 38.1995 72.6711 37.9742 72.7959C37.9547 72.8067 35.9743 73.9055 34.7769 74.723C34.1946 75.1203 34.0088 75.7635 34.378 76.0994C34.7681 76.4539 35.6119 76.3273 36.6362 75.7599C39.1499 74.3676 41.9019 72.9569 41.9295 72.9426C42.1785 72.815 42.5661 72.8313 42.7946 72.9791L44.0022 73.761C44.2333 73.9103 44.2831 74.1865 44.1147 74.3763L43.0184 75.6099C42.9557 75.6806 42.9386 75.745 42.9708 75.7877C43.003 75.8305 43.0865 75.8523 43.1993 75.8476L45.3114 75.7651C45.5756 75.755 45.9529 75.6255 46.1366 75.483L47.7649 74.2149C47.8001 74.1879 47.8417 74.161 47.8866 74.1362L47.8872 74.1368ZM47.3748 62.2858C47.3111 62.3211 47.2669 62.3683 47.2482 62.4222C47.2216 62.4974 47.247 62.578 47.3186 62.6491L47.805 63.1339C48.0459 62.9229 48.2784 62.725 48.4916 62.5511C48.981 62.1532 48.9598 62.0334 48.9285 62.0006C48.8099 61.877 47.9977 62.0713 47.4583 62.249C47.428 62.2592 47.4003 62.2707 47.375 62.2847L47.3748 62.2858Z" fill="#87ABC1" stroke="#87ABC1" stroke-width="0.3"/>
<path d="M55.1349 77.2709C54.9415 77.3781 54.6911 77.4429 54.4733 77.4311L52.6183 77.3277C52.3229 77.3115 51.9168 77.4437 51.7308 77.6158L50.347 78.9037C50.1404 79.0957 49.704 79.2447 49.3739 79.2354L47.1138 79.1709C46.9433 79.166 46.811 79.1153 46.7419 79.0277C46.6729 78.9401 46.6739 78.8288 46.7489 78.7144L47.5941 77.4172C47.7236 77.2187 47.6484 76.9386 47.4276 76.7921L45.7877 75.7037C45.5675 75.5579 45.1961 75.544 44.9585 75.6728C44.9323 75.6873 42.3262 77.1024 39.9194 78.5452C38.9101 79.1507 37.9679 79.2354 37.3995 78.7723C36.8418 78.3175 36.8679 77.5129 37.4571 77.0512C38.5687 76.179 40.4147 75.0695 40.4329 75.0585C40.6794 74.9105 41.0777 74.6682 41.3204 74.5177L43.8294 72.9661C44.0662 72.8198 44.324 72.5199 44.4043 72.2985L45.7676 68.5303C45.8512 68.2994 46.0491 67.9428 46.2093 67.7358C46.2296 67.7104 48.2036 65.1615 49.5229 63.8621C49.9292 63.4619 49.932 63.2976 49.8632 63.2307C49.6704 63.0422 48.7058 63.2831 48.3508 63.3917C48.0539 63.4824 47.6372 63.5618 47.4229 63.5688C47.3323 63.5717 47.2526 63.5448 47.1984 63.4925C47.1116 63.41 47.0949 63.2707 47.1544 63.1213C47.1602 63.1068 47.305 62.7502 47.7493 62.3782C49.5654 60.8594 50.862 61.3791 50.9163 61.402C51.1738 61.5102 51.6088 61.5105 51.8657 61.4023L53.3225 60.7894C53.6213 60.6636 54.0076 60.7411 54.1824 60.9623L55.406 62.5123C55.4925 62.6214 55.5083 62.7357 55.4503 62.834C55.3923 62.9324 55.2697 63.0013 55.1038 63.0278L54.7407 63.0861C54.4518 63.1325 54.1259 63.3471 54.0293 63.5558L51.8419 68.248C51.7442 68.4583 51.7706 68.772 51.899 68.9337C52.0409 69.1115 52.1467 69.4532 52.135 69.6954L52.0836 70.7042C52.0722 70.9263 52.253 71.2378 52.4783 71.3837L53.9714 72.3519C54.2031 72.5017 54.6397 72.6262 54.9451 72.6283L58.1331 72.6549C58.3042 72.6566 58.4337 72.7032 58.4971 72.7864C58.5605 72.8695 58.5479 72.9768 58.4628 73.0874L55.3804 77.0734C55.3228 77.1479 55.2367 77.2155 55.1355 77.2715L55.1349 77.2709ZM51.8274 77.444C52.0543 77.3183 52.371 77.2375 52.6253 77.2519L54.4804 77.3552C54.7729 77.3711 55.1448 77.2247 55.2915 77.0347L58.3738 73.0486C58.4411 72.9622 58.4527 72.8819 58.4084 72.8232C58.3636 72.7638 58.2654 72.7311 58.1313 72.7297L54.9433 72.7031C54.617 72.7003 54.1508 72.5676 53.9043 72.408L52.4112 71.4398C52.1615 71.2781 51.9695 70.9463 51.9821 70.6999L52.0334 69.6911C52.0457 69.4609 51.9457 69.1378 51.8118 68.9707C51.6668 68.7898 51.6376 68.4539 51.7462 68.2215L53.9336 63.5294C54.0426 63.2948 54.3952 63.0626 54.7201 63.0104L55.0833 62.9522C55.2161 62.9306 55.313 62.8779 55.3571 62.8024C55.4011 62.7269 55.3878 62.6368 55.3179 62.5497L54.0943 60.9997C53.9467 60.8137 53.6233 60.7486 53.3714 60.8541L51.9146 61.467C51.6253 61.5884 51.1553 61.5885 50.8657 61.467C50.8529 61.4617 49.583 60.9576 47.8246 62.4274C47.3952 62.7864 47.252 63.1383 47.2513 63.1414C47.2021 63.2653 47.2124 63.3816 47.2784 63.4444C47.3125 63.4776 47.3601 63.4938 47.4186 63.4917C47.6233 63.4852 48.0244 63.4079 48.3128 63.3201C48.4504 63.2779 49.6701 62.9156 49.9453 63.1833C50.0792 63.3135 49.9675 63.5505 49.6054 63.9072C48.2899 65.2027 46.3187 67.748 46.2993 67.773C46.1429 67.9751 45.9495 68.3235 45.8678 68.5486L44.5045 72.3168C44.4195 72.5513 44.1467 72.868 43.8964 73.0236L41.3874 74.5752C41.1439 74.7262 40.7448 74.9689 40.4983 75.1169C40.4795 75.1273 38.6393 76.2336 37.5319 77.1025C36.9778 77.5371 36.9519 78.2934 37.4752 78.7199C38.0028 79.1507 38.8935 79.0624 39.8567 78.4844C42.2659 77.0402 44.8737 75.6242 44.8998 75.6097C45.1734 75.461 45.6024 75.477 45.856 75.645L47.4959 76.7335C47.7489 76.9009 47.8333 77.2223 47.6859 77.4487L46.8408 78.7458C46.7814 78.8364 46.7775 78.9219 46.8292 78.9869C46.881 79.0519 46.9839 79.0895 47.1182 79.0937L49.3783 79.1582C49.6751 79.167 50.0834 79.0279 50.2681 78.8546L51.6519 77.5667C51.7 77.5221 51.7598 77.4805 51.8276 77.4429L51.8274 77.444Z" fill="#87ABC1" stroke="#87ABC1" stroke-width="0.3"/>
<path d="M51.1851 72.4937C50.6872 72.7694 50.1737 72.8608 50.0157 72.7013C49.8578 72.5418 50.1245 72.201 50.6223 71.9253C51.1202 71.6495 51.6337 71.5581 51.7917 71.7177C51.9496 71.8772 51.6829 72.2179 51.1851 72.4937ZM50.6828 71.9864C50.2079 72.2495 49.9927 72.5504 50.0974 72.6561C50.202 72.7618 50.6496 72.6957 51.1246 72.4326C51.5996 72.1695 51.8147 71.8686 51.7101 71.7629C51.6054 71.6571 51.1578 71.7233 50.6828 71.9864Z" fill="#87ABC1" stroke="#87ABC1" stroke-width="0.3"/>
<path d="M44.5462 74.956C44.276 75.1057 43.9246 75.2 43.8054 75.0796C43.6862 74.9592 43.9094 74.7353 44.1795 74.5857C44.4496 74.436 44.8011 74.3417 44.9203 74.4621C45.0395 74.5825 44.8163 74.8064 44.5462 74.956ZM44.24 74.6468C43.9454 74.81 43.8356 74.9824 43.887 75.0344C43.9385 75.0863 44.191 75.0581 44.4857 74.8949C44.7803 74.7317 44.8901 74.5593 44.8386 74.5073C44.7872 74.4553 44.5346 74.4836 44.24 74.6468Z" fill="#87ABC1" stroke="#87ABC1" stroke-width="0.3"/>
<path d="M44.6382 72.7388C44.3566 72.8948 43.993 72.9959 43.8738 72.8755C43.7546 72.7551 43.99 72.5244 44.2715 72.3684C44.5531 72.2125 44.9168 72.1114 45.036 72.2318C45.1552 72.3522 44.9198 72.5829 44.6382 72.7388ZM44.332 72.4296C44.0227 72.6009 43.904 72.7783 43.9554 72.8303C44.0068 72.8822 44.2684 72.849 44.5777 72.6777C44.887 72.5064 45.0058 72.3289 44.9543 72.277C44.9029 72.225 44.6413 72.2582 44.332 72.4296Z" fill="#87ABC1" stroke="#87ABC1" stroke-width="0.3"/>
<path d="M45.1582 66.965C44.9012 67.1074 44.5676 67.1994 44.4575 67.0881C44.3474 66.9769 44.5615 66.7656 44.8194 66.6227C45.0773 66.4799 45.41 66.3883 45.5201 66.4996C45.6303 66.6108 45.4161 66.8221 45.1582 66.965ZM44.8799 66.6838C44.6057 66.8357 44.4943 66.9977 44.5391 67.0429C44.5839 67.0881 44.8235 67.0557 45.0977 66.9039C45.372 66.752 45.4833 66.59 45.4385 66.5448C45.3937 66.4995 45.1541 66.5319 44.8799 66.6838Z" fill="#87ABC1" stroke="#87ABC1" stroke-width="0.3"/>
<path d="M51.0407 61.9154C50.6825 62.1138 50.2259 62.2474 50.0849 62.105C49.9439 61.9626 50.248 61.675 50.6063 61.4765C50.9646 61.2781 51.4211 61.1444 51.5621 61.2868C51.7031 61.4292 51.399 61.7169 51.0407 61.9154ZM50.6668 61.5376C50.2906 61.746 50.0927 61.9853 50.1665 62.0598C50.2403 62.1344 50.604 62.0626 50.9802 61.8542C51.3565 61.6458 51.5543 61.4066 51.4805 61.332C51.4067 61.2575 51.043 61.3292 50.6668 61.5376Z" fill="#87ABC1" stroke="#87ABC1" stroke-width="0.3"/>
<path d="M73.9108 85.1838C73.7166 85.2914 73.4535 85.3614 73.238 85.353L27.2489 83.5902C26.9562 83.5792 26.5753 83.4268 26.4004 83.2501L24.6106 81.4422L24.6922 81.397L26.4821 83.2049C26.6382 83.3626 26.9921 83.5044 27.2538 83.5147L73.2428 85.2774C73.5031 85.2876 73.8539 85.1633 74.0091 85.0073L130.916 27.555C131.068 27.4015 131.077 27.1367 130.934 26.9772L127.877 23.5656L127.962 23.5235L131.019 26.9351C131.186 27.1217 131.177 27.4201 130.998 27.6001L74.0916 85.0524C74.0443 85.1004 73.9818 85.1444 73.9108 85.1838Z" fill="#87ABC1" stroke="#87ABC1" stroke-width="0.3"/>
<path d="M78.9987 88.1136C78.8061 88.2202 78.5478 88.2886 78.3345 88.2799L42.9511 86.8385C42.66 86.8265 42.2664 86.683 42.0732 86.5184L39.173 84.0357L39.2497 83.9856L42.15 86.4683C42.3238 86.6171 42.693 86.7514 42.9567 86.7625L78.3401 88.2039C78.5995 88.2145 78.9481 88.0905 79.1015 87.9327L131.25 34.1038C131.401 33.9484 131.415 33.6773 131.283 33.513L128.489 30.0461L128.577 30.007L131.371 33.4739C131.525 33.6657 131.508 33.9686 131.333 34.149L79.184 87.9778C79.1357 88.0273 79.0728 88.0735 78.9993 88.1142L78.9987 88.1136Z" fill="#87ABC1" stroke="#87ABC1" stroke-width="0.3"/>
<path d="M127.029 33.535C126.512 33.8211 125.714 33.672 125.249 33.2026C124.784 32.7332 124.827 32.1184 125.343 31.8322C125.86 31.5461 126.658 31.6953 127.123 32.1647C127.588 32.6341 127.546 33.2489 127.029 33.535ZM125.404 31.8934C124.932 32.1546 124.899 32.7216 125.331 33.1574C125.762 33.5931 126.497 33.7352 126.968 33.4739C127.44 33.2126 127.473 32.6456 127.041 32.2099C126.61 31.7741 125.875 31.6321 125.404 31.8934Z" fill="#87ABC1" stroke="#87ABC1" stroke-width="0.3"/>
<path d="M105.382 56.5792C104.785 56.9101 103.861 56.7372 103.324 56.1938C102.786 55.6505 102.834 54.9396 103.431 54.6087C104.029 54.2778 104.952 54.4508 105.49 54.9941C106.028 55.5375 105.979 56.2483 105.382 56.5792ZM103.491 54.6693C102.939 54.9753 102.9 55.6383 103.405 56.148C103.909 56.6578 104.768 56.8235 105.321 56.5175C105.873 56.2114 105.912 55.5484 105.407 55.0387C104.903 54.529 104.044 54.3632 103.491 54.6693Z" fill="#87ABC1" stroke="#87ABC1" stroke-width="0.3"/>
<path d="M88.5415 74.575C87.882 74.9403 86.8609 74.7488 86.2667 74.1486C85.6725 73.5484 85.7255 72.762 86.3849 72.3967C87.0444 72.0315 88.0655 72.223 88.6597 72.8232C89.2539 73.4234 89.2009 74.2098 88.5415 74.575ZM86.4449 72.4573C85.8303 72.7976 85.7868 73.5362 86.3477 74.1028C86.9087 74.6693 87.8658 74.8537 88.4803 74.5133C89.0949 74.1729 89.1384 73.4343 88.5774 72.8678C88.0165 72.3012 87.0594 72.1169 86.4449 72.4573Z" fill="#87ABC1" stroke="#87ABC1" stroke-width="0.3"/>
<path d="M34.1593 75.8769L34.0835 75.9274L37.6428 78.9192L37.7186 78.8687L34.1593 75.8769Z" fill="#87ABC1" stroke="#87ABC1" stroke-width="0.3"/>
<path d="M54.9964 69.675L54.9189 69.7241L58.448 72.8394L58.5255 72.7902L54.9964 69.675Z" fill="#87ABC1" stroke="#87ABC1" stroke-width="0.3"/>
<path d="M42.9763 75.7885L42.9009 75.8394L46.8181 79.0896L46.8935 79.0387L42.9763 75.7885Z" fill="#87ABC1" stroke="#87ABC1" stroke-width="0.3"/>
<path d="M50.8673 73.8396L50.792 73.8905L54.9769 77.3555L55.0522 77.3046L50.8673 73.8396Z" fill="#87ABC1" stroke="#87ABC1" stroke-width="0.3"/>
</g>
<defs>
<clipPath id="clip0_7_202508">
<rect width="133.996" height="65.2671" fill="white" transform="matrix(0.874777 -0.484527 0.70355 0.710646 0 64.9247)"/>
</clipPath>
</defs>
</svg>
